<svg width="11" height="20" viewBox="0 0 11 20" fill="none" xmlns="http://www.w3.org/2000/svg">
<path d="M9.8949 20C9.7503 20.0008 9.60696 19.9728 9.47309 19.9175C9.33923 19.8622 9.21747 19.7808 9.11481 19.6778L0.325001 10.791C0.222019 10.6877 0.140281 10.5648 0.0844999 10.4295C0.028719 10.2941 0 10.1489 0 10.0023C0 9.85562 0.028719 9.71042 0.0844999 9.57505C0.140281 9.43968 0.222019 9.31682 0.325001 9.21356L9.11481 0.326694C9.3217 0.117515 9.60231 0 9.8949 0C10.1875 0 10.4681 0.117515 10.675 0.326694C10.8819 0.535873 10.9981 0.81958 10.9981 1.1154C10.9981 1.41123 10.8819 1.69493 10.675 1.90411L2.6543 10.0023L10.675 18.1004C10.778 18.2037 10.8597 18.3265 10.9155 18.4619C10.9713 18.5973 11 18.7425 11 18.8891C11 19.0358 10.9713 19.181 10.9155 19.3163C10.8597 19.4517 10.778 19.5746 10.675 19.6778C10.5723 19.7808 10.4506 19.8622 10.3167 19.9175C10.1828 19.9728 10.0395 20.0008 9.8949 20Z" fill="#F37D78"/>
</svg>
