<svg width="24" height="18" viewBox="0 0 24 18" fill="none" xmlns="http://www.w3.org/2000/svg">
<path fill-rule="evenodd" clip-rule="evenodd" d="M0 1.28571C0 0.57564 0.59696 0 1.33333 0H22.6667C23.4031 0 24 0.57564 24 1.28571C24 1.99579 23.4031 2.57143 22.6667 2.57143H1.33333C0.59696 2.57143 0 1.99579 0 1.28571ZM0 9C0 8.2899 0.59696 7.71429 1.33333 7.71429H14.6667C15.4031 7.71429 16 8.2899 16 9C16 9.7101 15.4031 10.2857 14.6667 10.2857H1.33333C0.59696 10.2857 0 9.7101 0 9ZM0 16.7143C0 16.0042 0.59696 15.4286 1.33333 15.4286H11C11.7364 15.4286 12.3333 16.0042 12.3333 16.7143C12.3333 17.4244 11.7364 18 11 18H1.33333C0.59696 18 0 17.4244 0 16.7143Z" fill="#F37D78"/>
</svg>
