<svg width="20" height="24" viewBox="0 0 20 24" fill="none" xmlns="http://www.w3.org/2000/svg">
<path d="M2 7.25645C1.84221 7.25645 1.71429 7.38139 1.71429 7.53552V22.0471C1.71429 22.2013 1.84221 22.3262 2 22.3262H18C18.1578 22.3262 18.2857 22.2013 18.2857 22.0471V7.53552C18.2857 7.38139 18.1578 7.25645 18 7.25645H2ZM0 7.53552C0 6.45664 0.895429 5.58203 2 5.58203H18C19.1046 5.58203 20 6.45664 20 7.53552V22.0471C20 23.126 19.1046 24.0006 18 24.0006H2C0.895429 24.0006 0 23.126 0 22.0471V7.53552Z" fill="#F37D78"/>
<path d="M9.99997 1.67442C8.26419 1.67442 6.85711 3.0488 6.85711 4.74419V8.65116C6.85711 9.11354 6.47335 9.48837 5.99997 9.48837C5.52658 9.48837 5.14282 9.11354 5.14282 8.65116V4.74419C5.14282 2.12404 7.31744 0 9.99997 0C12.6825 0 14.8571 2.12404 14.8571 4.74419V8.65116C14.8571 9.11354 14.4733 9.48837 14 9.48837C13.5266 9.48837 13.1428 9.11354 13.1428 8.65116V4.74419C13.1428 3.0488 11.7357 1.67442 9.99997 1.67442Z" fill="#F37D78"/>
</svg>
