<?xml version="1.0" encoding="UTF-8"?>
<svg version="1.1" xmlns="http://www.w3.org/2000/svg" width="512" height="512">
<path d="M0 0 C1.19026291 -0.01424011 2.38052582 -0.02848022 3.6068573 -0.04315186 C4.91445007 -0.04336334 6.22204285 -0.04357483 7.56925964 -0.04379272 C8.95897361 -0.05440545 10.34867873 -0.06623542 11.7383728 -0.07919312 C15.51536263 -0.10999749 19.29216301 -0.12111756 23.0692656 -0.12683535 C25.42939488 -0.13118792 27.78947496 -0.13956153 30.14958763 -0.14933395 C38.38455597 -0.18309085 46.61938088 -0.2002164 54.85441589 -0.20297241 C62.52832082 -0.20600628 70.20141957 -0.24643693 77.87509042 -0.30412066 C84.46460569 -0.35190856 91.05385497 -0.37270449 97.64354247 -0.37276304 C101.57876263 -0.37330107 105.51319381 -0.38488396 109.44823647 -0.42393875 C113.15127607 -0.4598188 116.85284579 -0.4620775 120.55597115 -0.43876648 C122.55874884 -0.43454686 124.56150627 -0.46492846 126.56404114 -0.49639893 C135.16021814 -0.39630356 135.16021814 -0.39630356 138.36895561 1.89019966 C139.91343458 3.65297334 141.11574919 5.38353439 142.28874207 7.40786743 C143.05027588 8.43111618 143.05027588 8.43111618 143.82719421 9.47503662 C144.1980011 10.03568817 144.56880798 10.59633972 144.95085144 11.17398071 C145.60380943 12.15364807 145.60380943 12.15364807 146.2699585 13.15310669 C146.94441261 14.18026794 146.94441261 14.18026794 147.63249207 15.22817993 C148.11947067 15.96145508 148.60644928 16.69473022 149.10818481 17.45022583 C150.67277034 19.80822514 152.23082813 22.17045622 153.78874207 24.53286743 C154.86389612 26.15604848 155.9395004 27.77893141 157.01554871 29.40151978 C159.13618001 32.60019433 161.25459258 35.80031969 163.3712616 39.00161743 C167.70253927 45.54864775 172.07116569 52.0706649 176.44108582 58.59194946 C177.19905457 59.72672729 177.19905457 59.72672729 177.97233582 60.88442993 C178.40086853 61.5246106 178.82940125 62.16479126 179.2709198 62.82437134 C181.63081828 66.4958277 181.82681829 69.03151413 181.28874207 73.40786743 C179.47055699 76.11720243 177.18876411 78.21356156 174.78874207 80.40786743 C174.18803894 80.98536743 173.58733582 81.56286743 172.96842957 82.15786743 C169.18658917 85.76268551 165.25801691 89.19051927 161.31559753 92.61734009 C157.83301257 95.69386118 154.47174852 98.89716525 151.10124207 102.09536743 C146.0017172 106.91525346 140.89217933 111.72168208 135.72624207 116.47036743 C130.88642748 120.92074542 126.08101715 125.40634301 121.28874207 129.90786743 C115.9185398 134.95132656 110.52945061 139.97274609 105.11027527 144.96353149 C98.8180039 150.7584485 92.55415601 156.58394442 86.28874207 162.40786743 C87.2990448 162.6333728 87.2990448 162.6333728 88.32975769 162.86343384 C112.76968438 168.37366271 134.79050168 175.59856601 155.28874207 190.40786743 C156.05315613 190.95958618 156.81757019 191.51130493 157.60514832 192.07974243 C192.40593111 218.2270211 212.75480503 254.64098837 219.28874207 297.40786743 C219.88584159 301.73829771 220.20131063 306.03629576 220.28874207 310.40786743 C220.32741394 311.31021118 220.36608582 312.21255493 220.40592957 313.14224243 C221.01180685 337.51197314 215.81435645 361.49404686 205.28874207 383.40786743 C204.97566101 384.06835083 204.66257996 384.72883423 204.3400116 385.40933228 C195.01868643 404.77735837 181.29384083 423.12263402 164.28874207 436.40786743 C163.792453 436.8000647 163.29616394 437.19226196 162.78483582 437.59634399 C129.06497016 464.02067027 87.67523591 475.71832467 45.03947449 470.58584595 C15.31892106 466.4490102 -13.23616806 454.54038751 -35.71125793 434.40786743 C-36.20851379 433.96942505 -36.70576965 433.53098267 -37.21809387 433.07925415 C-67.24927938 406.56749329 -86.15821836 369.18291032 -89.39875793 329.15786743 C-89.52005994 326.90872615 -89.62530969 324.65863699 -89.71125793 322.40786743 C-89.75250793 321.47200806 -89.79375793 320.53614868 -89.83625793 319.57192993 C-90.73164603 279.61523605 -75.77020726 240.24844971 -48.37727356 211.16763306 C-46.83538397 209.56711649 -45.27856928 207.98348436 -43.71125793 206.40786743 C-42.93975403 205.63032104 -42.93975403 205.63032104 -42.15266418 204.83706665 C-34.55558252 197.28024384 -26.44995637 191.11053987 -17.36408997 185.44497681 C-15.96318537 184.56594538 -14.58278002 183.65437516 -13.20735168 182.73599243 C3.88191397 171.67998056 24.52080087 166.26120621 44.28874207 162.40786743 C43.12561535 161.21689992 41.95797534 160.03034039 40.78874207 158.84536743 C39.81421082 157.85343384 39.81421082 157.85343384 38.81999207 156.84146118 C36.76181824 154.86269221 34.67409886 152.98102832 32.51921082 151.11099243 C28.2734152 147.42297006 24.18033242 143.59092987 20.10124207 139.72036743 C15.0017172 134.9004814 9.89217933 130.09405278 4.72624207 125.34536743 C-0.11357231 120.89498963 -4.91900015 116.40941005 -9.71125793 111.90786743 C-14.54664434 107.36636966 -19.39385892 102.83901669 -24.27375793 98.34536743 C-29.09906367 93.90072807 -33.911232 89.44230664 -38.71125793 84.97036743 C-39.33460022 84.39085327 -39.9579425 83.81133911 -40.60017395 83.21426392 C-41.77342223 82.12000724 -42.94096622 81.01959279 -44.10188293 79.91226196 C-45.57287643 78.53722223 -47.10827264 77.23192287 -48.64875793 75.93521118 C-50.71125793 73.40786743 -50.71125793 73.40786743 -51.28938293 70.05630493 C-50.59505894 65.67455753 -48.89456524 62.64237932 -46.46125793 59.03286743 C-46.00799133 58.33500122 -45.55472473 57.63713501 -45.08772278 56.91812134 C-41.49657093 51.44256433 -37.71814044 46.0983379 -33.89802551 40.78091431 C-30.36859436 35.84004424 -26.96451557 30.82490625 -23.60578918 25.76724243 C-23.15786011 25.09275055 -22.70993103 24.41825867 -22.24842834 23.72332764 C-19.98535687 20.31142654 -17.72875162 16.89536349 -15.47737122 13.47573853 C-14.63740333 12.20569345 -13.79739843 10.93567285 -12.95735168 9.66567993 C-12.57343765 9.07889465 -12.18952362 8.49210938 -11.79397583 7.88754272 C-6.59410927 0.04024379 -6.59410927 0.04024379 0 0 Z M13.28874207 16.40786743 C14.85602703 21.10972231 16.4372258 24.81777806 18.76530457 29.11880493 C19.26047073 30.03830429 19.26047073 30.03830429 19.76564026 30.97637939 C20.81056263 32.91431586 21.86202392 34.8486122 22.91374207 36.78286743 C23.62772061 38.10424605 24.34126662 39.42585848 25.05436707 40.74771118 C26.79416658 43.97048143 28.53984473 47.1900233 30.28874207 50.40786743 C31.27874207 50.40786743 32.26874207 50.40786743 33.28874207 50.40786743 C35.35400721 46.6177008 37.41543677 42.82546057 39.47624207 39.03286743 C40.0543866 37.97196899 40.63253113 36.91107056 41.22819519 35.81802368 C41.79860535 34.76743774 42.3690155 33.71685181 42.95671082 32.63442993 C43.73437805 31.20477905 43.73437805 31.20477905 44.52775574 29.74624634 C46.85343121 25.33736149 49.05952552 20.86630052 51.28874207 16.40786743 C38.74874207 16.40786743 26.20874207 16.40786743 13.28874207 16.40786743 Z M79.28874207 16.40786743 C86.08898226 30.02463281 86.08898226 30.02463281 93.28874207 43.40786743 C93.77729675 44.28958618 94.26585144 45.17130493 94.76921082 46.07974243 C95.93945493 48.19077104 97.1125753 50.30013495 98.28874207 52.40786743 C101.01453884 49.02560705 103.03065034 45.35351456 105.04655457 41.52505493 C105.39507477 40.86957672 105.74359497 40.21409851 106.10267639 39.53875732 C107.20955357 37.45513436 108.31167727 35.36903902 109.41374207 33.28286743 C110.16213392 31.87254873 110.91082868 30.46239071 111.65983582 29.05239868 C115.02567126 22.7566749 115.02567126 22.7566749 118.28874207 16.40786743 C105.41874207 16.40786743 92.54874207 16.40786743 79.28874207 16.40786743 Z M-2.71125793 24.40786743 C-3.76995567 25.83231455 -4.78127295 27.29198849 -5.77375793 28.76333618 C-6.40209534 29.69049438 -7.03043274 30.61765259 -7.67781067 31.57290649 C-8.34884827 32.5703186 -9.01988586 33.56773071 -9.71125793 34.59536743 C-11.07663851 36.61524004 -12.44252255 38.6347724 -13.80891418 40.65396118 C-14.47552063 41.63993286 -15.14212708 42.62590454 -15.82893372 43.64175415 C-17.43738603 46.00540716 -19.06230141 48.35477972 -20.70735168 50.69302368 C-21.12823059 51.29155151 -21.5491095 51.89007935 -21.98274231 52.50674438 C-23.07543567 54.05404028 -24.17248873 55.59825477 -25.26985168 57.14224243 C-26.89018506 59.24156185 -26.89018506 59.24156185 -26.71125793 61.40786743 C-11.86125793 61.40786743 2.98874207 61.40786743 18.28874207 61.40786743 C13.48882532 52.40802353 8.68385546 43.41768567 3.78874207 34.47036743 C3.25249207 33.48874634 2.71624207 32.50712524 2.16374207 31.49575806 C0.87274013 29.13276344 -0.41892332 26.77013338 -1.71125793 24.40786743 C-2.04125793 24.40786743 -2.37125793 24.40786743 -2.71125793 24.40786743 Z M132.28874207 24.40786743 C131.92635437 25.0772937 131.56396667 25.74671997 131.19059753 26.43643188 C129.51515664 29.53117325 127.83945057 32.62577096 126.16374207 35.72036743 C125.59397644 36.77288696 125.02421082 37.82540649 124.43717957 38.90982056 C123.86999207 39.95718384 123.30280457 41.00454712 122.71842957 42.08364868 C122.15220886 43.1311731 121.58598816 44.17869751 121.00260925 45.25796509 C119.85202723 47.37261028 118.69105178 49.48163074 117.52018738 51.58511353 C116.69792664 53.06552124 116.69792664 53.06552124 115.85905457 54.57583618 C115.3642157 55.45908569 114.86937683 56.34233521 114.35954285 57.25234985 C113.14044228 59.30525458 113.14044228 59.30525458 113.28874207 61.40786743 C127.80874207 61.40786743 142.32874207 61.40786743 157.28874207 61.40786743 C155.66883923 57.35811035 154.26246702 54.6848207 151.80436707 51.20474243 C151.11600769 50.22376587 150.42764832 49.24278931 149.71842957 48.23208618 C148.99913269 47.21759399 148.27983582 46.20310181 147.53874207 45.15786743 C146.12645273 43.15324429 144.71498279 41.14804361 143.30436707 39.14224243 C142.62567566 38.17995728 141.94698425 37.21767212 141.24772644 36.22622681 C138.89999209 32.84857908 136.63983151 29.41917161 134.40885925 25.96353149 C134.03922058 25.45016235 133.66958191 24.93679321 133.28874207 24.40786743 C132.95874207 24.40786743 132.62874207 24.40786743 132.28874207 24.40786743 Z M64.28874207 26.40786743 C63.85005798 27.22988647 63.4113739 28.05190552 62.95939636 28.89883423 C61.3222316 31.96513582 59.68392158 35.03081977 58.04484558 38.09609985 C57.33735822 39.41974939 56.6303205 40.74363937 55.92375183 42.06777954 C54.90468727 43.97735858 53.88397787 45.88605055 52.86296082 47.79458618 C52.2502533 48.94144897 51.63754578 50.08831177 51.00627136 51.26992798 C49.90953346 53.27367671 48.76631326 55.25312304 47.56535339 57.19619751 C46.12210447 59.27094801 46.12210447 59.27094801 46.28874207 61.40786743 C58.82874207 61.40786743 71.36874207 61.40786743 84.28874207 61.40786743 C82.88502773 57.19672444 81.69351739 54.03194864 79.60905457 50.25552368 C79.0921405 49.31386353 78.57522644 48.37220337 78.04264832 47.40200806 C77.50510925 46.43456665 76.96757019 45.46712524 76.41374207 44.47036743 C75.88393738 43.50679321 75.35413269 42.54321899 74.80827332 41.55044556 C72.0131067 36.47683668 69.17919637 31.4277627 66.28874207 26.40786743 C65.62874207 26.40786743 64.96874207 26.40786743 64.28874207 26.40786743 Z M-21.71125793 77.40786743 C-19.0358363 80.75214447 -17.11064664 83.10601103 -13.97297668 85.73989868 C-9.69733142 89.39866472 -5.60527496 93.22252662 -1.52375793 97.09536743 C4.10916465 102.41909889 9.76339827 107.71621962 15.46842957 112.96255493 C19.65841711 116.81817938 23.81919173 120.70428088 27.97624207 124.59536743 C33.68565058 129.93673385 39.44644701 135.21166148 45.28874207 140.40786743 C46.54807417 136.62987113 45.82867289 135.29946372 44.56632996 131.55947876 C44.16583939 130.35846024 43.76534882 129.15744171 43.35272217 127.92002869 C42.90580565 126.60992003 42.45869306 125.29987825 42.01139832 123.98989868 C41.56078014 122.64923481 41.11095619 121.30830375 40.66189575 119.96711731 C39.4779155 116.43808385 38.28316873 112.91278733 37.08616638 109.38815308 C35.65215669 105.15829491 34.23151897 100.92392991 32.80864716 96.69031525 C30.64558703 90.25931579 28.46558823 83.8342875 26.28874207 77.40786743 C10.44874207 77.40786743 -5.39125793 77.40786743 -21.71125793 77.40786743 Z M43.28874207 77.40786743 C45.6265946 86.07892915 45.6265946 86.07892915 48.28166199 94.61367798 C48.8218824 96.23411263 48.8218824 96.23411263 49.37301636 97.88728333 C49.75126053 99.01169327 50.1295047 100.13610321 50.51921082 101.29458618 C50.91449478 102.47760818 51.30977875 103.66063019 51.71704102 104.87950134 C52.96726802 108.61908079 54.221683 112.35723937 55.47624207 116.09536743 C56.33037841 118.64659221 57.18359556 121.19812405 58.03678894 123.74966431 C60.11758839 129.97013533 62.20181839 136.18944855 64.28874207 142.40786743 C64.94874207 142.40786743 65.60874207 142.40786743 66.28874207 142.40786743 C69.03032327 134.22940453 71.76868896 126.04987428 74.50292206 117.8689518 C75.77255042 114.07051693 77.0432956 110.27246326 78.3165741 106.47525024 C79.54464064 102.81273469 80.76979827 99.14925812 81.99291992 95.48508835 C82.46076348 94.0852614 82.92966541 92.68578774 83.39962769 91.28667068 C84.05620181 89.33140403 84.70904783 87.37493054 85.36100769 85.41812134 C85.92060181 83.74600082 85.92060181 83.74600082 86.49150085 82.0401001 C87.38536623 79.5472318 87.38536623 79.5472318 87.28874207 77.40786743 C72.76874207 77.40786743 58.24874207 77.40786743 43.28874207 77.40786743 Z M104.28874207 77.40786743 C100.70124921 87.99588104 100.70124921 87.99588104 97.13053894 98.58950806 C95.67828676 102.91037334 94.22407585 107.23050961 92.75822449 111.54678345 C91.57677896 115.02601177 90.40410701 118.50808304 89.23750496 121.99231529 C88.79049088 123.32225637 88.34030531 124.65113572 87.88693047 125.97892189 C87.25333013 127.83628284 86.63194844 129.69779845 86.01115417 131.55947876 C85.65363571 132.61871048 85.29611725 133.6779422 84.92776489 134.76927185 C84.02160031 137.49084655 84.02160031 137.49084655 85.28874207 140.40786743 C85.70535095 140.0163147 86.12195984 139.62476196 86.55119324 139.22134399 C94.14769122 132.08419821 101.75366993 124.95873454 109.42228699 117.89907837 C113.56113042 114.08643353 117.67775585 110.25051799 121.78874207 106.40786743 C126.54966701 101.95961483 131.31607039 97.51754081 136.10124207 93.09536743 C136.6280658 92.60834351 137.15488953 92.12131958 137.69767761 91.61953735 C141.93749787 87.71019612 146.23383963 83.86807546 150.55827332 80.05239868 C151.129328 79.50970337 151.70038269 78.96700806 152.28874207 78.40786743 C152.28874207 78.07786743 152.28874207 77.74786743 152.28874207 77.40786743 C136.44874207 77.40786743 120.60874207 77.40786743 104.28874207 77.40786743 Z M34.28874207 181.40786743 C33.59023132 181.57415649 32.89172058 181.74044556 32.17204285 181.91177368 C10.20839613 187.35106248 -8.53765927 197.80587476 -25.71125793 212.40786743 C-26.49114075 213.06528931 -27.27102356 213.72271118 -28.07453918 214.40005493 C-53.49301226 236.35819806 -68.52779846 268.44290621 -72.71125793 301.40786743 C-72.94804801 306.38440554 -72.95693524 311.36372147 -72.96125793 316.34536743 C-72.96193268 317.04172302 -72.96260742 317.73807861 -72.96330261 318.45553589 C-72.94742124 328.76061923 -72.44551265 338.39338168 -69.71125793 348.40786743 C-69.39001461 349.7370699 -69.0697405 351.06650689 -68.75032043 352.39614868 C-64.573161 368.82566746 -56.93893496 384.88550394 -46.71125793 398.40786743 C-46.03836731 399.30118774 -45.36547668 400.19450806 -44.67219543 401.11489868 C-20.98233271 431.22256058 11.57792153 449.29577157 49.41374207 454.71206665 C53.03758568 455.14334179 56.64197979 455.33333506 60.28874207 455.40786743 C61.05831238 455.44653931 61.82788269 455.48521118 62.62077332 455.52505493 C98.3844859 456.62172755 133.2219231 442.48864305 159.28874207 418.40786743 C160.05396179 417.70838989 160.05396179 417.70838989 160.8346405 416.99478149 C183.40064319 396.14591281 196.88051705 368.44491574 202.28874207 338.40786743 C202.54675598 337.03900391 202.54675598 337.03900391 202.8099823 335.64248657 C203.69466785 329.66533267 203.53352643 323.62720588 203.53874207 317.59536743 C203.53941681 316.89845795 203.54009155 316.20154846 203.54078674 315.48352051 C203.52438474 304.83065005 203.01399684 294.76164663 200.28874207 284.40786743 C200.11713562 283.75399048 199.94552917 283.10011353 199.76872253 282.42642212 C194.16044636 261.62718519 184.40856987 242.72349523 170.28874207 226.40786743 C169.59264832 225.57900024 168.89655457 224.75013306 168.17936707 223.89614868 C162.76451782 217.62682855 156.87102528 212.42171597 150.28874207 207.40786743 C149.7615155 207.00036255 149.23428894 206.59285767 148.69108582 206.17300415 C132.16675051 193.48188493 112.76061002 184.51857496 92.28874207 180.40786743 C91.31936707 180.20290649 90.34999207 179.99794556 89.35124207 179.78677368 C71.4037093 176.59756749 52.0053151 177.16957259 34.28874207 181.40786743 Z " fill="#000000" transform="translate(190.7112579345703,-0.407867431640625)"/>
<path d="M0 0 C2.35352451 1.56901634 2.87641182 2.6733741 3.875 5.3125 C4.05343467 9.14884548 3.13725821 10.78809789 1 14 C-1.89238045 15.95538547 -5.00739185 17.3252193 -8.1875 18.75 C-10.01194349 19.61777513 -11.83353407 20.49157166 -13.65234375 21.37109375 C-14.55839355 21.80921387 -15.46444336 22.24733398 -16.39794922 22.69873047 C-56.93419711 42.97065778 -86.4335375 81.44526414 -101.21826172 123.64941406 C-114.87908668 164.72574847 -112.76650546 210.19374733 -96 250 C-95.69723145 250.72380859 -95.39446289 251.44761719 -95.08251953 252.19335938 C-84.76326584 276.42639769 -67.79901074 300.60144112 -47 317 C-46.4539209 317.43135254 -45.9078418 317.86270508 -45.34521484 318.30712891 C-5.94086378 349.20946759 41.01366894 363.66331602 91.05297852 358.17773438 C122.38389305 354.21065455 151.91534918 342.20543579 177 323 C177.804375 322.40703125 178.60875 321.8140625 179.4375 321.203125 C216.0560287 293.73922848 239.8685105 250.54553927 246.359375 205.50634766 C252.59501446 157.65338237 240.7994159 109.9222642 211.34033203 71.43237305 C207.13164856 66.05916421 202.72689499 60.92617386 198 56 C197.12214844 55.05898437 196.24429687 54.11796875 195.33984375 53.1484375 C179.95208848 36.95107797 161.036392 25.90533392 141.26782227 15.86645508 C136.10561944 13.21123887 136.10561944 13.21123887 135 11 C134.73995877 7.48944334 134.61202735 4.86723298 136.0625 1.625 C138.83967583 -0.70424425 141.46564232 -1.16543628 145 -1 C148.49803474 0.07378397 151.67982036 1.65937138 154.9375 3.3125 C155.86264404 3.77035889 156.78778809 4.22821777 157.7409668 4.69995117 C204.65071402 28.32685553 239.042673 69.89752729 256.12011719 119.29443359 C258.64831564 127.0684334 260.43236714 134.98410987 262 143 C262.16371094 143.80775879 262.32742188 144.61551758 262.49609375 145.44775391 C272.12635336 194.66355379 260.40831743 247.78045624 232.57470703 289.22094727 C225.22001273 299.91825382 216.87972614 309.56938982 208 319 C207.34386719 319.71027344 206.68773437 320.42054688 206.01171875 321.15234375 C184.12790527 344.06708635 154.02003463 359.8806807 124 369 C122.75476563 369.3815625 121.50953125 369.763125 120.2265625 370.15625 C116.50303867 371.22242168 112.77734803 372.14410543 109 373 C108.35659668 373.15098145 107.71319336 373.30196289 107.05029297 373.45751953 C81.21197592 379.23886636 50.60263211 378.14564167 25 372 C24.20625977 371.81808105 23.41251953 371.63616211 22.59472656 371.44873047 C-12.09334919 363.33841773 -43.02725855 344.80699724 -68.60302734 320.33398438 C-69.79431246 319.19641327 -70.99929764 318.07321776 -72.20703125 316.953125 C-100.81240657 289.68771634 -118.42520756 250.43655908 -125 212 C-125.22429687 210.81019531 -125.44859375 209.62039063 -125.6796875 208.39453125 C-133.47679432 159.42229184 -120.39041239 107.25812206 -91.87255859 67.01074219 C-80.65870273 51.60415686 -68.09770055 37.70364384 -53 26 C-52.4524707 25.57074219 -51.90494141 25.14148438 -51.34082031 24.69921875 C-41.46965372 17.00624894 -31.10391963 10.75111598 -20 5 C-19.35659668 4.66000977 -18.71319336 4.32001953 -18.05029297 3.96972656 C-7.35761553 -1.63404427 -7.35761553 -1.63404427 0 0 Z " fill="#000000" transform="translate(187,136)"/>
</svg>
