<?xml version="1.0" encoding="UTF-8"?>
<svg version="1.1" xmlns="http://www.w3.org/2000/svg" width="512" height="512">
<path d="M0 0 C8.81826689 6.35151552 15.38939035 14.72131992 17.58203125 25.4921875 C18.95854653 36.56747675 18.32423294 46.1921196 11.58203125 55.4921875 C7.42628452 60.5978192 3.05896546 64.37874256 -2.66796875 67.6171875 C-7.2273881 70.23672967 -10.45405094 72.49234435 -12.41796875 77.4921875 C-13.38171561 82.13754934 -13.97918178 86.7703158 -14.41796875 91.4921875 C-13.66644531 91.76804687 -12.91492188 92.04390625 -12.140625 92.328125 C-6.29259248 94.82843159 -1.68089691 99.18821243 0.92578125 105.01953125 C3.01626932 112.89619167 2.64033834 121.3901501 -1.41796875 128.4921875 C-0.67546875 128.7396875 0.06703125 128.9871875 0.83203125 129.2421875 C8.73712897 132.83541373 13.46406727 141.74411393 16.58203125 149.4921875 C19.26547928 158.87458551 18.80192258 171.16694403 14.91015625 180.1015625 C10.97547104 187.18399588 5.88241161 192.47759905 -0.41796875 197.4921875 C-0.09570312 198.34039062 0.2265625 199.18859375 0.55859375 200.0625 C2.64675153 207.06021958 3.01019251 215.48728743 -0.23046875 222.1796875 C-1.89509743 224.70041093 -3.27640948 226.46108115 -5.41796875 228.4921875 C-3.81991037 232.35492289 -1.1958596 235.07355874 1.64453125 238.0546875 C29.03830304 267.43105052 51.0706711 301.88558085 62.58203125 340.4921875 C62.94683594 341.69875 63.31164062 342.9053125 63.6875 344.1484375 C69.86194113 368.96215398 66.30663977 394.60144343 53.58203125 416.4921875 C41.04314893 437.00022615 22.32254499 450.17642833 -0.55078125 456.80078125 C-16.89415911 460.74189553 -35.5630208 460.0450725 -51.41796875 454.4921875 C-52.454375 454.1415625 -53.49078125 453.7909375 -54.55859375 453.4296875 C-76.17244945 445.28205603 -93.35622868 428.80835034 -103.29296875 408.1171875 C-113.25472544 385.7247166 -113.40634248 359.8627862 -106.41796875 336.4921875 C-106.21961426 335.80898438 -106.02125977 335.12578125 -105.81689453 334.421875 C-97.68726211 307.20668548 -82.4395686 282.29849263 -64.82373047 260.25195312 C-63.5844464 258.70058814 -62.3612517 257.13639959 -61.140625 255.5703125 C-57.15894541 250.49268546 -52.95142997 245.66692273 -48.60546875 240.8984375 C-45.49219683 237.47383839 -42.45309407 233.98599735 -39.41796875 230.4921875 C-40.63570101 227.96389138 -41.90134106 225.77445285 -43.48046875 223.4296875 C-46.38517617 219.02577625 -46.57784144 215.86809579 -46.60546875 210.6796875 C-46.61964844 209.47699219 -46.63382812 208.27429688 -46.6484375 207.03515625 C-46.41921547 203.51135325 -45.68827854 200.77089222 -44.41796875 197.4921875 C-45.07023437 196.95851562 -45.7225 196.42484375 -46.39453125 195.875 C-54.81482116 188.69664075 -61.42512648 180.84034905 -62.63769531 169.42333984 C-63.34374702 156.26645202 -61.91883407 145.85343908 -53.2265625 135.44140625 C-50.77587122 132.80016446 -48.34359008 130.60135637 -45.41796875 128.4921875 C-44.75796875 128.4921875 -44.09796875 128.4921875 -43.41796875 128.4921875 C-43.91296875 127.6259375 -44.40796875 126.7596875 -44.91796875 125.8671875 C-47.6284075 119.49960173 -47.48743906 111.68935402 -45.796875 105.0546875 C-43.45364047 99.72252714 -39.20320324 95.71661308 -34.41796875 92.4921875 C-32.16796875 91.80078125 -32.16796875 91.80078125 -30.41796875 91.4921875 C-30.52238281 89.86023438 -30.52238281 89.86023438 -30.62890625 88.1953125 C-31.17075317 75.95627531 -28.93695645 66.83369815 -20.41796875 57.4921875 C-17.37950595 55.20484558 -14.1340997 53.24784168 -10.90625 51.2421875 C-6.01346666 48.11705642 -2.32025064 45.19903317 -0.41796875 39.4921875 C0.28529211 32.35581915 -0.02931085 26.3565637 -4.41796875 20.4921875 C-8.68239012 15.954924 -12.93203078 12.90569187 -19.25 12.15625 C-26.9212976 12.05570875 -32.46075865 12.76463692 -38.16796875 18.140625 C-43.50917706 24.02108992 -44.88983183 30.20465013 -46.5390625 37.84765625 C-47.41796875 40.4921875 -47.41796875 40.4921875 -50.41796875 42.4921875 C-57.50565289 43.16720504 -57.50565289 43.16720504 -60.640625 40.84765625 C-64.04733567 36.33282871 -63.0096595 30.87840334 -62.41796875 25.4921875 C-60.0283054 14.70335236 -53.72631654 6.40345559 -44.8359375 0 C-31.48165159 -8.32755148 -13.35428591 -8.32755148 0 0 Z M-27.79296875 109.1171875 C-29.89334145 112.18696298 -29.9509071 113.83775311 -29.41796875 117.4921875 C-27.95733986 120.33657008 -27.01946407 121.25475514 -24.04296875 122.4296875 C-20.65011866 122.51046965 -19.10096829 121.50443715 -16.41796875 119.4921875 C-14.99755054 116.65135109 -15.10344603 114.63741472 -15.41796875 111.4921875 C-16.91796875 108.9921875 -16.91796875 108.9921875 -19.41796875 107.4921875 C-23.08967745 106.88023605 -24.70610443 107.00512244 -27.79296875 109.1171875 Z M-41.97265625 149.39453125 C-46.24952761 155.60177427 -46.35216184 162.18849607 -45.41796875 169.4921875 C-42.94961482 176.60571142 -38.58952187 180.95530622 -31.99609375 184.4296875 C-25.42374717 187.13829094 -20.08576698 187.0013602 -13.484375 184.4296875 C-6.93956163 181.46039599 -3.64896939 177.7611011 -0.41796875 171.4921875 C1.59781935 165.44482321 1.70280897 158.06777842 -0.91796875 152.1796875 C-4.40259013 146.23971013 -9.85252705 141.57583067 -16.41796875 139.4921875 C-27.85241972 138.13582504 -34.59614364 140.76572696 -41.97265625 149.39453125 Z M-29.41796875 207.4921875 C-30.49439584 209.38069105 -30.49439584 209.38069105 -30.41796875 211.4921875 C-29.27009934 213.73575044 -28.20839205 215.7017642 -26.41796875 217.4921875 C-21.21915634 217.95931354 -21.21915634 217.95931354 -16.41796875 216.4296875 C-14.80940353 213.31309239 -14.99583494 210.92956281 -15.41796875 207.4921875 C-16.89790031 204.92880061 -16.89790031 204.92880061 -19.41796875 203.4921875 C-24.3000262 202.67851126 -26.4593575 203.54737249 -29.41796875 207.4921875 Z M-33.46484375 249.51953125 C-41.40255973 258.06519368 -48.48546882 267.11928858 -55.41796875 276.4921875 C-55.88122559 277.11416016 -56.34448242 277.73613281 -56.82177734 278.37695312 C-65.6712637 290.29786592 -75.16411128 303.51235805 -80.41796875 317.4921875 C-79.08006885 321.50588719 -77.26960587 322.11634315 -73.66796875 324.2421875 C-72.09789062 325.19351563 -72.09789062 325.19351563 -70.49609375 326.1640625 C-66.94227207 327.69743734 -66.04428246 327.55474795 -62.41796875 326.4921875 C-60.39369687 325.48186651 -58.40743879 324.39367938 -56.453125 323.25390625 C-55.32326172 322.59841797 -54.19339844 321.94292969 -53.02929688 321.26757812 C-52.44607666 320.9244458 -51.86285645 320.58131348 -51.26196289 320.2277832 C-49.49310718 319.18712299 -47.7189072 318.15614562 -45.94335938 317.12695312 C-42.75504863 315.26846772 -39.57217839 313.40800718 -36.41796875 311.4921875 C-35.31428955 311.03593994 -34.21061035 310.57969238 -33.07348633 310.10961914 C-29.85980069 306.94202479 -29.96214168 305.92504389 -29.73681641 301.53027344 C-29.73776663 299.01216995 -29.77168242 296.49394291 -29.83203125 293.9765625 C-29.8432276 292.63708396 -29.85176572 291.29758078 -29.85775757 289.95806885 C-29.88062307 286.43928709 -29.93952138 282.92200098 -30.00598145 279.40380859 C-30.06745633 275.81107823 -30.09478336 272.21810517 -30.125 268.625 C-30.18927067 261.58011875 -30.29161912 254.53625097 -30.41796875 247.4921875 C-31.77971082 247.37490268 -31.77971082 247.37490268 -33.46484375 249.51953125 Z M-14.41796875 247.4921875 C-14.72019245 255.17572283 -14.95065288 262.85863807 -15.09152699 270.54677582 C-15.15917828 274.11796495 -15.25074899 277.68506947 -15.39868164 281.25390625 C-16.71629508 295.86445714 -16.71629508 295.86445714 -13.27828979 309.48654175 C-9.97539478 312.88987435 -5.83108065 314.10010161 -1.41796875 315.4921875 C0.51947895 316.58807574 2.42988545 317.73368047 4.3046875 318.93359375 C6.08342141 319.97603258 7.86335222 321.01643208 9.64453125 322.0546875 C11.00868164 322.87163086 11.00868164 322.87163086 12.40039062 323.70507812 C13.27630859 324.21361328 14.15222656 324.72214844 15.0546875 325.24609375 C15.83078369 325.70314697 16.60687988 326.1602002 17.40649414 326.63110352 C20.00382954 327.6591365 21.01306149 327.49278559 23.58203125 326.4921875 C25.69191277 325.35252352 27.77378646 324.16015993 29.83203125 322.9296875 C30.9096875 322.28902344 31.98734375 321.64835937 33.09765625 320.98828125 C33.9175 320.49457031 34.73734375 320.00085938 35.58203125 319.4921875 C35.0054411 315.89907051 34.06851884 313.17135016 32.28125 310.0078125 C31.80486084 309.16355713 31.32847168 308.31930176 30.83764648 307.44946289 C30.32016846 306.55606201 29.80269043 305.66266113 29.26953125 304.7421875 C28.4652771 303.34697876 28.4652771 303.34697876 27.64477539 301.92358398 C22.46148601 293.06681137 16.74393209 284.69212769 10.58203125 276.4921875 C10.12473633 275.8832666 9.66744141 275.2743457 9.19628906 274.64697266 C3.8592557 267.59816941 -1.77327703 260.81507114 -7.54296875 254.1171875 C-8.11200928 253.4557373 -8.6810498 252.79428711 -9.26733398 252.11279297 C-10.62746587 250.55187674 -12.01955205 249.01889931 -13.41796875 247.4921875 C-13.74796875 247.4921875 -14.07796875 247.4921875 -14.41796875 247.4921875 Z M-28.51171875 325.34375 C-29.54296875 325.94832031 -30.57421875 326.55289062 -31.63671875 327.17578125 C-32.71953125 327.81644531 -33.80234375 328.45710938 -34.91796875 329.1171875 C-35.96984375 329.73464844 -37.02171875 330.35210937 -38.10546875 330.98828125 C-40.20966025 332.22527502 -42.30158337 333.48337867 -44.38061523 334.76220703 C-47.41796875 336.4921875 -47.41796875 336.4921875 -50.37915039 337.59326172 C-53.55514542 338.89342315 -55.23849225 339.81673497 -57.41796875 342.4921875 C-59.13376903 348.02007887 -58.98069589 353.86350522 -58.88647461 359.59521484 C-58.85555627 362.35936319 -58.94699516 365.10121606 -59.04882812 367.86328125 C-59.30047178 377.36688942 -59.30047178 377.36688942 -54.80688477 385.29931641 C-51.43199784 387.38521007 -48.06926191 388.9486622 -44.41796875 390.4921875 C-42.51417877 391.61842658 -40.62827541 392.77570172 -38.765625 393.96875 C-37.00506753 395.02017611 -35.24336543 396.06968821 -33.48046875 397.1171875 C-32.14145508 397.94669922 -32.14145508 397.94669922 -30.77539062 398.79296875 C-29.90591797 399.30472656 -29.03644531 399.81648438 -28.140625 400.34375 C-27.37500244 400.80604004 -26.60937988 401.26833008 -25.82055664 401.74462891 C-21.48976556 403.0921426 -18.25895018 400.92784951 -14.41357422 398.93579102 C-13.38119629 398.33694092 -12.34881836 397.73809082 -11.28515625 397.12109375 C-10.14949219 396.46431641 -9.01382813 395.80753906 -7.84375 395.13085938 C-6.96904053 394.61930298 -6.96904053 394.61930298 -6.07666016 394.09741211 C-4.29424332 393.0554326 -2.50697643 392.02220538 -0.71875 390.99023438 C3.95425334 388.27908994 3.95425334 388.27908994 8.58203125 385.4921875 C9.33758301 385.1012793 10.09313477 384.71037109 10.87158203 384.30761719 C13.64675581 381.36211445 13.55247976 377.80658994 13.81640625 373.94140625 C13.87682098 373.09454758 13.93723572 372.2476889 13.9994812 371.37516785 C14.15884104 368.64286215 14.2589874 365.91562618 14.33203125 363.1796875 C14.35738953 362.26068665 14.3827478 361.34168579 14.40887451 360.39483643 C14.62418056 349.27891681 14.62418056 349.27891681 10.37011719 339.33349609 C4.82635396 334.59041261 -1.50259492 331.99438629 -8.35058594 329.65527344 C-12.39376847 328.12218512 -15.86176758 325.97872006 -19.47900391 323.63330078 C-23.19107704 321.44868358 -25.0572174 323.30989739 -28.51171875 325.34375 Z M-87.41796875 335.4921875 C-92.24029288 346.97391162 -93.70358919 357.94051444 -93.79296875 370.3046875 C-93.80674561 371.3661499 -93.82052246 372.4276123 -93.8347168 373.52124023 C-93.79636439 380.04677485 -92.93701476 385.45852719 -90.41796875 391.4921875 C-86.62747168 390.06468769 -83.14674419 388.32982208 -79.60546875 386.3671875 C-78.62964844 385.82835937 -77.65382813 385.28953125 -76.6484375 384.734375 C-75.91238281 384.32445312 -75.17632812 383.91453125 -74.41796875 383.4921875 C-74.12025427 377.78179481 -73.90315297 372.07594881 -73.75878906 366.35961914 C-73.69860586 364.41806361 -73.61682682 362.47704847 -73.51269531 360.53735352 C-72.90110904 351.41758246 -72.90110904 351.41758246 -74.41796875 342.4921875 C-77.94794198 338.72444738 -81.49703305 336.94342687 -86.41796875 335.4921875 C-86.74796875 335.4921875 -87.07796875 335.4921875 -87.41796875 335.4921875 Z M38.78808594 336.18969727 C34.88468159 337.89098032 32.46996484 339.33065461 29.58203125 342.4921875 C27.50508283 349.14718444 28.46387757 356.57195684 28.83203125 363.4296875 C28.89226529 365.37288287 28.94701111 367.31625661 28.99609375 369.25976562 C29.1279572 374.00832375 29.33470598 378.74829861 29.58203125 383.4921875 C31.84607667 384.85898903 34.11704146 386.21063195 36.39453125 387.5546875 C37.03712891 387.94462891 37.67972656 388.33457031 38.34179688 388.73632812 C40.04492275 389.73349509 41.81148983 390.62031437 43.58203125 391.4921875 C45.06703125 390.9971875 45.06703125 390.9971875 46.58203125 390.4921875 C53.1977818 375.03360206 48.51977758 353.57407794 44.26806641 338.15258789 C43.02686559 335.14852855 41.76754126 335.44587484 38.78808594 336.18969727 Z M-70.234375 399.6796875 C-71.3800293 400.35644531 -71.3800293 400.35644531 -72.54882812 401.046875 C-73.35126953 401.52382813 -74.15371094 402.00078125 -74.98046875 402.4921875 C-75.78677734 402.96914063 -76.59308594 403.44609375 -77.42382812 403.9375 C-79.42303192 405.12046083 -81.42101183 406.30543896 -83.41796875 407.4921875 C-72.68471876 425.15112933 -56.61474314 435.73722997 -36.828125 441.01171875 C-34.17376371 441.62252401 -34.17376371 441.62252401 -30.41796875 441.4921875 C-30.41796875 433.5721875 -30.41796875 425.6521875 -30.41796875 417.4921875 C-31.9390625 416.63496094 -33.46015625 415.77773438 -35.02734375 414.89453125 C-37.07433439 413.7397883 -39.12120154 412.58482644 -41.16796875 411.4296875 C-42.21807129 410.83712158 -43.26817383 410.24455566 -44.35009766 409.6340332 C-50.77159398 406.00472954 -57.16513748 402.33861303 -63.50390625 398.56640625 C-66.56732948 396.84713811 -67.29000387 397.93487498 -70.234375 399.6796875 Z M15.3671875 400.34375 C13.74780273 401.25060547 13.74780273 401.25060547 12.09570312 402.17578125 C10.95681641 402.81644531 9.81792969 403.45710938 8.64453125 404.1171875 C7.54044922 404.73464844 6.43636719 405.35210937 5.29882812 405.98828125 C3.10143899 407.22131119 0.91247627 408.46948438 -1.26757812 409.73291016 C-4.41796875 411.4921875 -4.41796875 411.4921875 -7.44335938 412.85693359 C-10.21456106 414.18893951 -12.2666159 415.29124828 -14.41796875 417.4921875 C-15.61268353 421.68405021 -15.37326966 425.55294943 -15.04296875 429.8671875 C-14.99785156 430.98480469 -14.95273437 432.10242188 -14.90625 433.25390625 C-14.78865969 436.0055194 -14.62470664 438.74607214 -14.41796875 441.4921875 C6.23487362 438.85374622 21.66901396 428.8395655 35.20703125 413.31640625 C36.61104605 411.45369343 37.56724469 409.5859979 38.58203125 407.4921875 C35.77160201 405.82200986 32.95835468 404.15663941 30.14453125 402.4921875 C29.34208984 402.01523437 28.53964844 401.53828125 27.71289062 401.046875 C26.56723633 400.37011719 26.56723633 400.37011719 25.3984375 399.6796875 C24.69146729 399.26074219 23.98449707 398.84179688 23.25610352 398.41015625 C20.06562968 396.66067665 18.40716679 398.64016012 15.3671875 400.34375 Z " fill="#000000" transform="translate(390.41796875,29.5078125)"/>
<path d="M0 0 C8.81826689 6.35151552 15.38939035 14.72131992 17.58203125 25.4921875 C18.95854653 36.56747675 18.32423294 46.1921196 11.58203125 55.4921875 C7.42628452 60.5978192 3.05896546 64.37874256 -2.66796875 67.6171875 C-7.2273881 70.23672967 -10.45405094 72.49234435 -12.41796875 77.4921875 C-13.38171561 82.13754934 -13.97918178 86.7703158 -14.41796875 91.4921875 C-13.66644531 91.76804687 -12.91492188 92.04390625 -12.140625 92.328125 C-6.29259248 94.82843159 -1.68089691 99.18821243 0.92578125 105.01953125 C3.01626932 112.89619167 2.64033834 121.3901501 -1.41796875 128.4921875 C-0.67546875 128.7396875 0.06703125 128.9871875 0.83203125 129.2421875 C8.73712897 132.83541373 13.46406727 141.74411393 16.58203125 149.4921875 C19.26547928 158.87458551 18.80192258 171.16694403 14.91015625 180.1015625 C10.97547104 187.18399588 5.88241161 192.47759905 -0.41796875 197.4921875 C-0.09570312 198.34039062 0.2265625 199.18859375 0.55859375 200.0625 C2.64675153 207.06021958 3.01019251 215.48728743 -0.23046875 222.1796875 C-1.89509743 224.70041093 -3.27640948 226.46108115 -5.41796875 228.4921875 C-3.81991037 232.35492289 -1.1958596 235.07355874 1.64453125 238.0546875 C29.03830304 267.43105052 51.0706711 301.88558085 62.58203125 340.4921875 C62.94683594 341.69875 63.31164062 342.9053125 63.6875 344.1484375 C69.86194113 368.96215398 66.30663977 394.60144343 53.58203125 416.4921875 C41.04314893 437.00022615 22.32254499 450.17642833 -0.55078125 456.80078125 C-16.89415911 460.74189553 -35.5630208 460.0450725 -51.41796875 454.4921875 C-52.454375 454.1415625 -53.49078125 453.7909375 -54.55859375 453.4296875 C-76.17244945 445.28205603 -93.35622868 428.80835034 -103.29296875 408.1171875 C-113.25472544 385.7247166 -113.40634248 359.8627862 -106.41796875 336.4921875 C-106.21961426 335.80898438 -106.02125977 335.12578125 -105.81689453 334.421875 C-97.68726211 307.20668548 -82.4395686 282.29849263 -64.82373047 260.25195312 C-63.5844464 258.70058814 -62.3612517 257.13639959 -61.140625 255.5703125 C-57.15894541 250.49268546 -52.95142997 245.66692273 -48.60546875 240.8984375 C-45.49219683 237.47383839 -42.45309407 233.98599735 -39.41796875 230.4921875 C-40.63570101 227.96389138 -41.90134106 225.77445285 -43.48046875 223.4296875 C-46.38517617 219.02577625 -46.57784144 215.86809579 -46.60546875 210.6796875 C-46.61964844 209.47699219 -46.63382813 208.27429688 -46.6484375 207.03515625 C-46.41921547 203.51135325 -45.68827854 200.77089222 -44.41796875 197.4921875 C-45.07023437 196.95851562 -45.7225 196.42484375 -46.39453125 195.875 C-54.81482116 188.69664075 -61.42512648 180.84034905 -62.63769531 169.42333984 C-63.34374702 156.26645202 -61.91883407 145.85343908 -53.2265625 135.44140625 C-50.77587122 132.80016446 -48.34359008 130.60135637 -45.41796875 128.4921875 C-44.75796875 128.4921875 -44.09796875 128.4921875 -43.41796875 128.4921875 C-43.91296875 127.6259375 -44.40796875 126.7596875 -44.91796875 125.8671875 C-47.6284075 119.49960173 -47.48743906 111.68935402 -45.796875 105.0546875 C-43.45364047 99.72252714 -39.20320324 95.71661308 -34.41796875 92.4921875 C-32.16796875 91.80078125 -32.16796875 91.80078125 -30.41796875 91.4921875 C-30.52238281 89.86023438 -30.52238281 89.86023438 -30.62890625 88.1953125 C-31.17075317 75.95627531 -28.93695645 66.83369815 -20.41796875 57.4921875 C-17.37950595 55.20484558 -14.1340997 53.24784168 -10.90625 51.2421875 C-6.01346666 48.11705642 -2.32025064 45.19903317 -0.41796875 39.4921875 C0.28529211 32.35581915 -0.02931085 26.3565637 -4.41796875 20.4921875 C-8.68239012 15.954924 -12.93203078 12.90569187 -19.25 12.15625 C-26.9212976 12.05570875 -32.46075865 12.76463692 -38.16796875 18.140625 C-43.50917706 24.02108992 -44.88983183 30.20465013 -46.5390625 37.84765625 C-47.41796875 40.4921875 -47.41796875 40.4921875 -50.41796875 42.4921875 C-57.50565289 43.16720504 -57.50565289 43.16720504 -60.640625 40.84765625 C-64.04733567 36.33282871 -63.0096595 30.87840334 -62.41796875 25.4921875 C-60.0283054 14.70335236 -53.72631654 6.40345559 -44.8359375 0 C-31.48165159 -8.32755148 -13.35428591 -8.32755148 0 0 Z M-27.79296875 109.1171875 C-29.89334145 112.18696298 -29.9509071 113.83775311 -29.41796875 117.4921875 C-27.95733986 120.33657008 -27.01946407 121.25475514 -24.04296875 122.4296875 C-20.65011866 122.51046965 -19.10096829 121.50443715 -16.41796875 119.4921875 C-14.99755054 116.65135109 -15.10344603 114.63741472 -15.41796875 111.4921875 C-16.91796875 108.9921875 -16.91796875 108.9921875 -19.41796875 107.4921875 C-23.08967745 106.88023605 -24.70610443 107.00512244 -27.79296875 109.1171875 Z M-41.97265625 149.39453125 C-46.24952761 155.60177427 -46.35216184 162.18849607 -45.41796875 169.4921875 C-42.94961482 176.60571142 -38.58952187 180.95530622 -31.99609375 184.4296875 C-25.42374717 187.13829094 -20.08576698 187.0013602 -13.484375 184.4296875 C-6.93956163 181.46039599 -3.64896939 177.7611011 -0.41796875 171.4921875 C1.59781935 165.44482321 1.70280897 158.06777842 -0.91796875 152.1796875 C-4.40259013 146.23971013 -9.85252705 141.57583067 -16.41796875 139.4921875 C-27.85241972 138.13582504 -34.59614364 140.76572696 -41.97265625 149.39453125 Z M-29.41796875 207.4921875 C-30.49439584 209.38069105 -30.49439584 209.38069105 -30.41796875 211.4921875 C-29.27009934 213.73575044 -28.20839205 215.7017642 -26.41796875 217.4921875 C-21.21915634 217.95931354 -21.21915634 217.95931354 -16.41796875 216.4296875 C-14.80940353 213.31309239 -14.99583494 210.92956281 -15.41796875 207.4921875 C-16.89790031 204.92880061 -16.89790031 204.92880061 -19.41796875 203.4921875 C-24.3000262 202.67851126 -26.4593575 203.54737249 -29.41796875 207.4921875 Z M-33.46484375 249.51953125 C-41.40255973 258.06519368 -48.48546882 267.11928858 -55.41796875 276.4921875 C-55.88122559 277.11416016 -56.34448242 277.73613281 -56.82177734 278.37695312 C-65.6712637 290.29786592 -75.16411128 303.51235805 -80.41796875 317.4921875 C-79.08006885 321.50588719 -77.26960587 322.11634315 -73.66796875 324.2421875 C-72.09789062 325.19351563 -72.09789062 325.19351563 -70.49609375 326.1640625 C-66.94227207 327.69743734 -66.04428246 327.55474795 -62.41796875 326.4921875 C-60.39369687 325.48186651 -58.40743879 324.39367938 -56.453125 323.25390625 C-55.32326172 322.59841797 -54.19339844 321.94292969 -53.02929688 321.26757812 C-52.44607666 320.9244458 -51.86285645 320.58131348 -51.26196289 320.2277832 C-49.49310718 319.18712299 -47.7189072 318.15614562 -45.94335938 317.12695312 C-42.75504863 315.26846772 -39.57217839 313.40800718 -36.41796875 311.4921875 C-35.31428955 311.03593994 -34.21061035 310.57969238 -33.07348633 310.10961914 C-29.85980069 306.94202479 -29.96214168 305.92504389 -29.73681641 301.53027344 C-29.73776663 299.01216995 -29.77168242 296.49394291 -29.83203125 293.9765625 C-29.8432276 292.63708396 -29.85176572 291.29758078 -29.85775757 289.95806885 C-29.88062307 286.43928709 -29.93952138 282.92200098 -30.00598145 279.40380859 C-30.06745633 275.81107823 -30.09478336 272.21810517 -30.125 268.625 C-30.18927067 261.58011875 -30.29161912 254.53625097 -30.41796875 247.4921875 C-31.77971082 247.37490268 -31.77971082 247.37490268 -33.46484375 249.51953125 Z M-14.41796875 247.4921875 C-14.72019245 255.17572283 -14.95065288 262.85863807 -15.09152699 270.54677582 C-15.15917828 274.11796495 -15.25074899 277.68506947 -15.39868164 281.25390625 C-16.71629508 295.86445714 -16.71629508 295.86445714 -13.27828979 309.48654175 C-9.97539478 312.88987435 -5.83108065 314.10010161 -1.41796875 315.4921875 C0.51947895 316.58807574 2.42988545 317.73368047 4.3046875 318.93359375 C6.08342141 319.97603258 7.86335222 321.01643208 9.64453125 322.0546875 C11.00868164 322.87163086 11.00868164 322.87163086 12.40039062 323.70507812 C13.27630859 324.21361328 14.15222656 324.72214844 15.0546875 325.24609375 C15.83078369 325.70314697 16.60687988 326.1602002 17.40649414 326.63110352 C20.00382954 327.6591365 21.01306149 327.49278559 23.58203125 326.4921875 C25.69191277 325.35252352 27.77378646 324.16015993 29.83203125 322.9296875 C30.9096875 322.28902344 31.98734375 321.64835937 33.09765625 320.98828125 C33.9175 320.49457031 34.73734375 320.00085938 35.58203125 319.4921875 C35.0054411 315.89907051 34.06851884 313.17135016 32.28125 310.0078125 C31.80486084 309.16355713 31.32847168 308.31930176 30.83764648 307.44946289 C30.32016846 306.55606201 29.80269043 305.66266113 29.26953125 304.7421875 C28.4652771 303.34697876 28.4652771 303.34697876 27.64477539 301.92358398 C22.46148601 293.06681137 16.74393209 284.69212769 10.58203125 276.4921875 C10.12473633 275.8832666 9.66744141 275.2743457 9.19628906 274.64697266 C3.8592557 267.59816941 -1.77327703 260.81507114 -7.54296875 254.1171875 C-8.11200928 253.4557373 -8.6810498 252.79428711 -9.26733398 252.11279297 C-10.62746587 250.55187674 -12.01955205 249.01889931 -13.41796875 247.4921875 C-13.74796875 247.4921875 -14.07796875 247.4921875 -14.41796875 247.4921875 Z M-28.51171875 325.34375 C-29.54296875 325.94832031 -30.57421875 326.55289062 -31.63671875 327.17578125 C-32.71953125 327.81644531 -33.80234375 328.45710938 -34.91796875 329.1171875 C-35.96984375 329.73464844 -37.02171875 330.35210937 -38.10546875 330.98828125 C-40.20966025 332.22527502 -42.30158337 333.48337867 -44.38061523 334.76220703 C-47.41796875 336.4921875 -47.41796875 336.4921875 -50.37915039 337.59326172 C-53.55514542 338.89342315 -55.23849225 339.81673497 -57.41796875 342.4921875 C-59.13376903 348.02007887 -58.98069589 353.86350522 -58.88647461 359.59521484 C-58.85555627 362.35936319 -58.94699516 365.10121606 -59.04882812 367.86328125 C-59.30047178 377.36688942 -59.30047178 377.36688942 -54.80688477 385.29931641 C-51.43199784 387.38521007 -48.06926191 388.9486622 -44.41796875 390.4921875 C-42.51417877 391.61842658 -40.62827541 392.77570172 -38.765625 393.96875 C-37.00506753 395.02017611 -35.24336543 396.06968821 -33.48046875 397.1171875 C-32.14145508 397.94669922 -32.14145508 397.94669922 -30.77539062 398.79296875 C-29.90591797 399.30472656 -29.03644531 399.81648438 -28.140625 400.34375 C-27.37500244 400.80604004 -26.60937988 401.26833008 -25.82055664 401.74462891 C-21.48976556 403.0921426 -18.25895018 400.92784951 -14.41357422 398.93579102 C-13.38119629 398.33694092 -12.34881836 397.73809082 -11.28515625 397.12109375 C-10.14949219 396.46431641 -9.01382813 395.80753906 -7.84375 395.13085938 C-6.96904053 394.61930298 -6.96904053 394.61930298 -6.07666016 394.09741211 C-4.29424332 393.0554326 -2.50697643 392.02220538 -0.71875 390.99023438 C3.95425334 388.27908994 3.95425334 388.27908994 8.58203125 385.4921875 C9.33758301 385.1012793 10.09313477 384.71037109 10.87158203 384.30761719 C13.64675581 381.36211445 13.55247976 377.80658994 13.81640625 373.94140625 C13.87682098 373.09454758 13.93723572 372.2476889 13.9994812 371.37516785 C14.15884104 368.64286215 14.2589874 365.91562618 14.33203125 363.1796875 C14.35738953 362.26068665 14.3827478 361.34168579 14.40887451 360.39483643 C14.62418056 349.27891681 14.62418056 349.27891681 10.37011719 339.33349609 C4.82635396 334.59041261 -1.50259492 331.99438629 -8.35058594 329.65527344 C-12.39376847 328.12218512 -15.86176758 325.97872006 -19.47900391 323.63330078 C-23.19107704 321.44868358 -25.0572174 323.30989739 -28.51171875 325.34375 Z M-87.41796875 335.4921875 C-92.24029288 346.97391162 -93.70358919 357.94051444 -93.79296875 370.3046875 C-93.80674561 371.3661499 -93.82052246 372.4276123 -93.8347168 373.52124023 C-93.79636439 380.04677485 -92.93701476 385.45852719 -90.41796875 391.4921875 C-86.62747168 390.06468769 -83.14674419 388.32982208 -79.60546875 386.3671875 C-78.62964844 385.82835937 -77.65382813 385.28953125 -76.6484375 384.734375 C-75.91238281 384.32445312 -75.17632812 383.91453125 -74.41796875 383.4921875 C-74.12025427 377.78179481 -73.90315297 372.07594881 -73.75878906 366.35961914 C-73.69860586 364.41806361 -73.61682682 362.47704847 -73.51269531 360.53735352 C-72.90110904 351.41758246 -72.90110904 351.41758246 -74.41796875 342.4921875 C-77.94794198 338.72444738 -81.49703305 336.94342687 -86.41796875 335.4921875 C-86.74796875 335.4921875 -87.07796875 335.4921875 -87.41796875 335.4921875 Z M38.78808594 336.18969727 C34.88468159 337.89098032 32.46996484 339.33065461 29.58203125 342.4921875 C27.50508283 349.14718444 28.46387757 356.57195684 28.83203125 363.4296875 C28.89226529 365.37288287 28.94701111 367.31625661 28.99609375 369.25976562 C29.1279572 374.00832375 29.33470598 378.74829861 29.58203125 383.4921875 C31.84607667 384.85898903 34.11704146 386.21063195 36.39453125 387.5546875 C37.03712891 387.94462891 37.67972656 388.33457031 38.34179688 388.73632812 C40.04492275 389.73349509 41.81148983 390.62031437 43.58203125 391.4921875 C45.06703125 390.9971875 45.06703125 390.9971875 46.58203125 390.4921875 C53.1977818 375.03360206 48.51977758 353.57407794 44.26806641 338.15258789 C43.02686559 335.14852855 41.76754126 335.44587484 38.78808594 336.18969727 Z M-70.234375 399.6796875 C-71.3800293 400.35644531 -71.3800293 400.35644531 -72.54882812 401.046875 C-73.35126953 401.52382813 -74.15371094 402.00078125 -74.98046875 402.4921875 C-75.78677734 402.96914063 -76.59308594 403.44609375 -77.42382812 403.9375 C-79.42303192 405.12046083 -81.42101183 406.30543896 -83.41796875 407.4921875 C-72.68471876 425.15112933 -56.61474314 435.73722997 -36.828125 441.01171875 C-34.17376371 441.62252401 -34.17376371 441.62252401 -30.41796875 441.4921875 C-30.41796875 433.5721875 -30.41796875 425.6521875 -30.41796875 417.4921875 C-31.9390625 416.63496094 -33.46015625 415.77773438 -35.02734375 414.89453125 C-37.07433439 413.7397883 -39.12120154 412.58482644 -41.16796875 411.4296875 C-42.21807129 410.83712158 -43.26817383 410.24455566 -44.35009766 409.6340332 C-50.77159398 406.00472954 -57.16513748 402.33861303 -63.50390625 398.56640625 C-66.56732948 396.84713811 -67.29000387 397.93487498 -70.234375 399.6796875 Z M15.3671875 400.34375 C13.74780273 401.25060547 13.74780273 401.25060547 12.09570312 402.17578125 C10.95681641 402.81644531 9.81792969 403.45710938 8.64453125 404.1171875 C7.54044922 404.73464844 6.43636719 405.35210937 5.29882812 405.98828125 C3.10143899 407.22131119 0.91247627 408.46948438 -1.26757812 409.73291016 C-4.41796875 411.4921875 -4.41796875 411.4921875 -7.44335938 412.85693359 C-10.21456106 414.18893951 -12.2666159 415.29124828 -14.41796875 417.4921875 C-15.61268353 421.68405021 -15.37326966 425.55294943 -15.04296875 429.8671875 C-14.99785156 430.98480469 -14.95273438 432.10242188 -14.90625 433.25390625 C-14.78865969 436.0055194 -14.62470664 438.74607214 -14.41796875 441.4921875 C6.23487362 438.85374622 21.66901396 428.8395655 35.20703125 413.31640625 C36.61104605 411.45369343 37.56724469 409.5859979 38.58203125 407.4921875 C35.77160201 405.82200986 32.95835468 404.15663941 30.14453125 402.4921875 C29.34208984 402.01523437 28.53964844 401.53828125 27.71289062 401.046875 C26.56723633 400.37011719 26.56723633 400.37011719 25.3984375 399.6796875 C24.69146729 399.26074219 23.98449707 398.84179688 23.25610352 398.41015625 C20.06562968 396.66067665 18.40716679 398.64016012 15.3671875 400.34375 Z " fill="#000000" transform="translate(166.41796875,29.5078125)"/>
</svg>
