<?xml version="1.0" encoding="UTF-8"?>
<svg version="1.1" xmlns="http://www.w3.org/2000/svg" width="512" height="512">
<path d="M0 0 C4.48094536 1.55205929 6.94127174 6.21037963 9.01953125 10.25 C9.63536533 11.53076844 10.24447512 12.81478671 10.84765625 14.1015625 C19.92735496 32.74690953 30.74908155 49.80807529 44.09765625 65.7265625 C44.5035498 66.22124023 44.90944336 66.71591797 45.32763672 67.22558594 C56.18304429 80.44676223 68.0317238 93.17436596 81.54296875 103.71875 C83.26427075 105.07157757 84.94702395 106.47475161 86.58984375 107.921875 C108.9811713 127.5873018 136.33070172 141.99690426 163.09765625 154.7265625 C163.83435547 155.08137695 164.57105469 155.43619141 165.33007812 155.80175781 C167.11154917 156.64482265 168.9160679 157.43875799 170.72265625 158.2265625 C171.64304688 158.62875 172.5634375 159.0309375 173.51171875 159.4453125 C174.36507812 159.538125 175.2184375 159.6309375 176.09765625 159.7265625 C176.84523193 159.08332031 177.59280762 158.44007813 178.36303711 157.77734375 C183.58431305 154.15296789 190.34726864 155.15426288 196.4375 155.1953125 C197.8470537 155.19261437 199.25660558 155.18872928 200.66615295 155.18371582 C203.6141235 155.17783378 206.5616077 155.18633972 209.50952148 155.20507812 C213.27338185 155.22784689 217.03609984 155.21475105 220.79991817 155.19078827 C223.70919776 155.17627664 226.61821025 155.18096092 229.52749825 155.19129944 C230.91446635 155.19395307 232.30145933 155.19074531 233.68839836 155.18138123 C245.86185496 155.11722593 245.86185496 155.11722593 250.15942383 157.86376953 C252.92003188 160.05961528 252.92003188 160.05961528 255.88574219 159.32958984 C256.77551758 158.9114502 257.66529297 158.49331055 258.58203125 158.0625 C259.58975586 157.60504395 260.59748047 157.14758789 261.63574219 156.67626953 C262.69567383 156.15661621 263.75560547 155.63696289 264.84765625 155.1015625 C265.95657227 154.58319824 267.06548828 154.06483398 268.20800781 153.53076172 C271.52317956 151.96486599 274.81270967 150.35477113 278.09765625 148.7265625 C278.98195313 148.29408203 279.86625 147.86160156 280.77734375 147.41601562 C308.76984192 133.62099057 334.47737896 115.57686218 357.2734375 94.3046875 C359.23780867 92.5114856 361.19515221 90.80462024 363.25 89.125 C365.53888333 87.1971888 367.43876216 85.3821886 369.34765625 83.1015625 C371.26767313 80.83928174 373.19633026 78.62248663 375.23828125 76.46875 C392.55871888 58.17332085 405.73799913 36.95712324 416.9519043 14.51635742 C423.46683552 1.6377965 423.46683552 1.6377965 428.1953125 0 C431.4081135 0.16606924 433.79940736 0.55506939 436.59765625 2.1640625 C438.83006419 5.9777594 438.74956677 9.47229785 438.09765625 13.7265625 C436.54771522 17.89019433 434.48627827 21.71335 432.34765625 25.6015625 C431.75927979 26.69782959 431.17090332 27.79409668 430.56469727 28.92358398 C412.89228444 61.4441379 389.02908763 93.32724346 359.87890625 116.5 C357.07930536 118.74125352 354.37582102 121.07218305 351.66015625 123.4140625 C325.64262372 145.06736377 295.2081875 161.38517973 264.24975586 174.75024414 C263.53956299 175.0724292 262.82937012 175.39461426 262.09765625 175.7265625 C261.10628662 176.09555664 260.11491699 176.46455078 259.09350586 176.84472656 C254.98793607 179.42363064 253.86754114 182.31216439 252.01171875 186.67578125 C251.66507172 187.44839798 251.31842468 188.22101471 250.96127319 189.01704407 C249.86341996 191.47505915 248.79287246 193.9439073 247.72265625 196.4140625 C246.98093998 198.08737571 246.23746902 199.75991231 245.4921875 201.43164062 C243.67356239 205.5212312 241.87932468 209.62074466 240.09765625 213.7265625 C243.72188716 215.62386868 247.34718332 217.51913088 250.97265625 219.4140625 C251.98585938 219.94451172 252.9990625 220.47496094 254.04296875 221.02148438 C255.0484375 221.54677734 256.05390625 222.07207031 257.08984375 222.61328125 C258.09756836 223.14356934 259.10529297 223.67385742 260.14355469 224.22021484 C262.02027755 225.1771884 263.91832087 226.09424012 265.84082031 226.95556641 C266.6912793 227.34019043 267.54173828 227.72481445 268.41796875 228.12109375 C269.15547363 228.4353833 269.89297852 228.74967285 270.65283203 229.07348633 C279.18919422 234.84537652 282.08955492 242.83624322 285.1640625 252.33203125 C285.60895189 253.66086685 286.05543342 254.98917034 286.50340271 256.31697083 C287.43676814 259.09616737 288.35762017 261.87906368 289.26831055 264.66577148 C290.41405782 268.17172997 291.57990904 271.67052315 292.7539463 275.16709709 C296.94196133 287.64275003 301.04372604 300.14886113 304.75 312.77734375 C304.99617569 313.59800827 305.24235138 314.41867279 305.49598694 315.26420593 C307.56855939 322.54040583 307.51059772 328.31379559 305.18359375 335.58984375 C304.97739914 336.24318695 304.77120453 336.89653015 304.5587616 337.56967163 C303.87370257 339.72958046 303.17369549 341.88429207 302.47265625 344.0390625 C301.98377281 345.56404212 301.49542198 347.08919257 301.00756836 348.61450195 C299.67544816 352.76441185 298.32676717 356.90875022 296.972229 361.0513916 C296.06847422 363.81582542 295.16772516 366.58122815 294.26708984 369.34667969 C292.7140294 374.10916697 291.15110911 378.86832145 289.58062744 383.62509155 C288.97093842 385.4724117 288.36280377 387.32024564 287.75628662 389.16860962 C286.89861895 391.77734139 286.03257428 394.38314256 285.1640625 396.98828125 C284.91335495 397.75465912 284.6626474 398.52103699 284.40434265 399.31063843 C280.12808533 412.03397035 274.53547472 418.81422302 262.38305664 424.97505188 C261.44324951 425.4357457 260.50344238 425.89643951 259.53515625 426.37109375 C258.0490686 427.11488533 258.0490686 427.11488533 256.53295898 427.873703 C254.45160159 428.91205565 252.36731597 429.94455762 250.28027344 430.97143555 C247.09964584 432.53808251 243.93027268 434.12589627 240.76171875 435.71679688 C238.72849577 436.72783282 236.6946616 437.7376408 234.66015625 438.74609375 C233.72034912 439.21690872 232.78054199 439.68772369 231.81225586 440.17280579 C223.6230579 444.18014146 216.22722958 446.9792899 207.09765625 444.7265625 C203.49079857 443.38307095 200.0919029 441.71392745 196.66015625 439.9765625 C195.68167725 439.4928418 194.70319824 439.00912109 193.69506836 438.51074219 C191.59602703 437.47106569 189.49982869 436.42563313 187.40625 435.375 C183.98415312 433.67001194 180.54360684 432.00775581 177.09765625 430.3515625 C174.78474887 429.22740029 172.47223983 428.10241807 170.16015625 426.9765625 C169.07742432 426.45868164 167.99469238 425.94080078 166.87915039 425.40722656 C153.68524018 418.89747407 148.17376998 412.11591909 143.45629883 398.27246094 C142.45708788 395.29726926 141.47403996 392.31689449 140.4921875 389.3359375 C139.96269723 387.74253552 139.43271567 386.14929671 138.90226746 384.55621338 C137.79684973 381.23235354 136.69530263 377.90724708 135.59692383 374.58105469 C134.18985681 370.32013598 132.77625879 366.06142245 131.36017323 361.8034935 C130.00622518 357.73167753 128.655247 353.65887842 127.3046875 349.5859375 C127.04766367 348.81147026 126.79063984 348.03700302 126.52582741 347.23906708 C125.79920372 345.04760665 125.07466463 342.85546896 124.35083008 340.66308594 C123.93875809 339.41702576 123.5266861 338.17096558 123.10212708 336.887146 C118.97818163 323.91108579 122.5659943 313.78695057 126.7578125 301.3125 C127.34713174 299.53016256 127.93569615 297.74757537 128.52354431 295.9647522 C129.75529696 292.24131768 130.998193 288.52183677 132.2487793 284.8046875 C133.84361031 280.06037036 135.40695305 275.3063548 136.96164799 270.54875755 C138.16868019 266.86878195 139.3939932 263.19508908 140.62460136 259.52293777 C141.20822755 257.77317969 141.78589496 256.02142153 142.35725594 254.26762009 C148.92498747 234.17536878 148.92498747 234.17536878 158.82983398 228.34960938 C160.13786752 227.69628713 161.45546644 227.0618185 162.78125 226.4453125 C163.4816188 226.10149536 164.18198761 225.75767822 164.90357971 225.40344238 C167.1061328 224.32702228 169.31989832 223.276544 171.53515625 222.2265625 C173.04574446 221.49388102 174.55551876 220.75951899 176.06445312 220.0234375 C179.7330876 218.23829198 183.41199769 216.47627136 187.09765625 214.7265625 C187.09765625 208.83664281 183.59710982 203.01943521 181.23828125 197.67578125 C180.56535556 196.13581669 179.90595279 194.58986657 179.26074219 193.03808594 C175.25417595 182.54698103 175.25417595 182.54698103 167.1015625 175.41015625 C165.44881483 174.80560021 163.78057951 174.24118095 162.09765625 173.7265625 C160.72217073 173.13715964 159.35315422 172.53235053 157.9921875 171.91015625 C157.000979 171.48657837 157.000979 171.48657837 155.98974609 171.05444336 C128.76630098 159.39866685 103.13666779 144.33942302 80.09765625 125.7265625 C79.05364267 124.89551005 78.00938945 124.06475853 76.96484375 123.234375 C70.80928419 118.27906382 64.9286424 113.05699713 59.09765625 107.7265625 C57.6590625 106.44458984 57.6590625 106.44458984 56.19140625 105.13671875 C49.03397039 98.73483514 42.40165307 91.97334921 36.09765625 84.7265625 C35.57478027 84.13198242 35.0519043 83.53740234 34.51318359 82.92480469 C19.83080949 66.11398486 7.44236246 47.40456313 -2.89453125 27.63525391 C-3.84719521 25.83100806 -4.84232825 24.04937241 -5.83984375 22.26953125 C-8.96985611 16.50943906 -11.50242115 11.36548012 -9.90234375 4.7265625 C-7.46534531 0.56335684 -4.6943319 0.24264936 0 0 Z M189.09765625 172.7265625 C190.32065564 176.39556066 191.45287315 179.71007284 193.02124023 183.18383789 C193.39180038 184.00811783 193.76236053 184.83239777 194.14414978 185.68165588 C194.73795189 186.9897245 194.73795189 186.9897245 195.34375 188.32421875 C195.75552994 189.23610458 196.16730988 190.14799042 196.59156799 191.08750916 C197.46005622 193.00862629 198.33003589 194.92906979 199.20141602 196.84887695 C200.53136247 199.78069924 201.85485177 202.71537541 203.17773438 205.65039062 C204.02435268 207.52100849 204.87134531 209.39145699 205.71875 211.26171875 C206.11259384 212.13578873 206.50643768 213.0098587 206.91221619 213.91041565 C208.7734635 217.99998354 210.66243563 221.93677163 213.09765625 225.7265625 C216.29912523 225.02670052 216.29912523 225.02670052 217.58056641 222.17651367 C218.09409668 221.05220947 218.60762695 219.92790527 219.13671875 218.76953125 C219.419245 218.15848038 219.70177124 217.5474295 219.99285889 216.91786194 C220.91298667 214.92109645 221.81801331 212.91788501 222.72265625 210.9140625 C223.34896083 209.54552686 223.97607979 208.17736362 224.60400391 206.80957031 C226.15939554 203.41493222 227.70234202 200.01479884 229.24194336 196.61297607 C230.49235958 193.85644154 231.75633408 191.10616498 233.01953125 188.35546875 C233.83813609 186.56290913 234.655916 184.76997244 235.47265625 182.9765625 C235.84729004 182.15696045 236.22192383 181.3373584 236.60791016 180.49291992 C238.44049608 176.75881795 238.44049608 176.75881795 239.09765625 172.7265625 C222.59765625 172.7265625 206.09765625 172.7265625 189.09765625 172.7265625 Z M232.09765625 229.7265625 C231.18205275 231.18474585 230.26654644 232.64299031 229.3515625 234.1015625 C228.09765625 235.7265625 228.09765625 235.7265625 224.84765625 237.9140625 C221.60963909 241.22567096 221.71125541 242.08133505 221.72265625 246.5390625 C221.8186968 248.27007913 221.93442893 250.00058475 222.09765625 251.7265625 C223.01546875 252.16226563 223.93328125 252.59796875 224.87890625 253.046875 C226.11870652 253.64799028 227.35827753 254.24957855 228.59765625 254.8515625 C229.19835937 255.13515625 229.7990625 255.41875 230.41796875 255.7109375 C235.63904661 258.26593305 239.2458773 261.08772829 244.09765625 264.7265625 C248.71765625 257.7965625 253.33765625 250.8665625 258.09765625 243.7265625 C255.3242559 240.95316215 253.46567293 239.72864849 250.02734375 238.02734375 C249.04894531 237.54072266 248.07054687 237.05410156 247.0625 236.55273438 C246.04285156 236.05322266 245.02320313 235.55371094 243.97265625 235.0390625 C242.94527344 234.52794922 241.91789062 234.01683594 240.859375 233.49023438 C236.65730186 230.98751485 236.65730186 230.98751485 232.09765625 229.7265625 Z M195.09765625 229.7265625 C191.11366848 231.675199 187.13634567 233.63706869 183.16015625 235.6015625 C181.45569336 236.43494141 181.45569336 236.43494141 179.71679688 237.28515625 C178.63720703 237.82011719 177.55761719 238.35507812 176.4453125 238.90625 C175.44508057 239.39851074 174.44484863 239.89077148 173.41430664 240.39794922 C170.97342532 241.51385974 170.97342532 241.51385974 170.09765625 243.7265625 C177.02765625 254.1215625 177.02765625 254.1215625 184.09765625 264.7265625 C186.73765625 262.7465625 189.37765625 260.7665625 192.09765625 258.7265625 C194.92578125 257.1171875 194.92578125 257.1171875 197.34765625 255.9765625 C198.1571875 255.58984375 198.96671875 255.203125 199.80078125 254.8046875 C200.55875 254.44890625 201.31671875 254.093125 202.09765625 253.7265625 C203.43280116 253.06353136 204.76677385 252.39810867 206.09765625 251.7265625 C206.58958554 247.94827229 206.77215001 244.4895277 206.09765625 240.7265625 C204.31144669 238.43655025 202.49961718 236.94180244 200.140625 235.26171875 C197.96781801 233.62899763 196.67779179 231.91896191 195.09765625 229.7265625 Z M159.09765625 259.7265625 C156.74544679 266.71370238 154.39809096 273.7024527 152.05693054 280.69330311 C150.96970197 283.93932826 149.88080485 287.18477363 148.78808594 290.42895508 C147.53213262 294.15800618 146.28345117 297.88947166 145.03515625 301.62109375 C144.64142822 302.78679398 144.2477002 303.9524942 143.84204102 305.15351868 C143.48166748 306.23441269 143.12129395 307.3153067 142.75 308.42895508 C142.43023193 309.38159744 142.11046387 310.33423981 141.78100586 311.31575012 C140.96130212 313.78997924 140.96130212 313.78997924 141.09765625 316.7265625 C149.01765625 316.7265625 156.93765625 316.7265625 165.09765625 316.7265625 C165.75765625 313.4265625 166.41765625 310.1265625 167.09765625 306.7265625 C167.72245038 304.00984632 168.35866624 301.30483137 169.03515625 298.6015625 C169.2055542 297.91288086 169.37595215 297.22419922 169.55151367 296.51464844 C170.46786727 292.90059436 171.50109684 289.4281117 172.91015625 285.9765625 C174.16238826 282.54940122 174.25364971 281.97753189 173.09765625 278.7265625 C171.29186907 275.37205295 169.20391145 272.19055151 167.16015625 268.9765625 C166.60908203 268.08839844 166.05800781 267.20023437 165.49023438 266.28515625 C164.95978516 265.44597656 164.42933594 264.60679687 163.8828125 263.7421875 C163.15396851 262.58638184 163.15396851 262.58638184 162.41040039 261.40722656 C161.97719482 260.85260742 161.54398926 260.29798828 161.09765625 259.7265625 C160.43765625 259.7265625 159.77765625 259.7265625 159.09765625 259.7265625 Z M267.09765625 259.7265625 C265.91968822 261.17729916 265.91968822 261.17729916 264.8203125 263.0859375 C264.38912109 263.78976562 263.95792969 264.49359375 263.51367188 265.21875 C263.06701172 265.96382813 262.62035156 266.70890625 262.16015625 267.4765625 C261.27766858 268.9306761 260.39359786 270.38383035 259.5078125 271.8359375 C259.09418457 272.52236328 258.68055664 273.20878906 258.25439453 273.91601562 C257.09765625 275.7265625 257.09765625 275.7265625 255.21875 277.9296875 C253.87359071 279.69342534 253.87359071 279.69342534 254.2578125 281.9765625 C254.53496094 282.8840625 254.81210937 283.7915625 255.09765625 284.7265625 C255.46761719 285.9640625 255.83757812 287.2015625 256.21875 288.4765625 C256.43112305 289.16161865 256.64349609 289.8466748 256.86230469 290.55249023 C259.10117856 297.78658741 260.7963187 304.75887546 261.73828125 312.28515625 C261.96799703 314.72740223 261.96799703 314.72740223 263.09765625 316.7265625 C271.01765625 316.7265625 278.93765625 316.7265625 287.09765625 316.7265625 C285.49661148 309.39161869 285.49661148 309.39161869 283.40185547 302.29858398 C283.0816745 301.33826767 282.76149353 300.37795135 282.43161011 299.38853455 C282.09195221 298.38504471 281.75229431 297.38155487 281.40234375 296.34765625 C281.05003693 295.29498062 280.6977301 294.24230499 280.33474731 293.1577301 C279.21830062 289.82506381 278.09558467 286.49454968 276.97265625 283.1640625 C276.21052093 280.89271786 275.44879796 278.62123481 274.6875 276.34960938 C272.82898507 270.806984 270.96533057 265.26610774 269.09765625 259.7265625 C268.43765625 259.7265625 267.77765625 259.7265625 267.09765625 259.7265625 Z M199.97265625 273.7265625 C187.0270887 286.08018561 182.82249665 303.9237506 181.9140625 321.22265625 C181.55567386 340.13292766 185.27835128 360.22633027 198.41015625 374.6015625 C202.71177937 378.59119977 207.47141401 381.48319054 213.42578125 381.8828125 C221.27126291 381.34910626 227.10725515 377.4706511 232.40234375 371.890625 C243.83058562 357.30250059 248.04112044 334.85850759 245.85888672 316.74462891 C243.59227711 300.50494986 239.55689668 282.43277648 226.09765625 271.7265625 C216.96418846 266.01814513 208.17332584 267.12795795 199.97265625 273.7265625 Z M141.09765625 333.7265625 C143.03894638 341.12599698 145.22888998 348.39624171 147.671875 355.64453125 C148.00057083 356.62778885 148.32926666 357.61104645 148.66792297 358.62409973 C149.7041523 361.72171658 150.74457512 364.81790519 151.78515625 367.9140625 C152.49442013 370.03180745 153.203407 372.1496452 153.91210938 374.26757812 C155.63742844 379.42164857 157.3661797 384.57455757 159.09765625 389.7265625 C160.08765625 389.7265625 161.07765625 389.7265625 162.09765625 389.7265625 C163.51000702 388.20328841 163.51000702 388.20328841 164.7265625 386.1484375 C165.20416016 385.39949219 165.68175781 384.65054688 166.17382812 383.87890625 C166.66431641 383.08613281 167.15480469 382.29335938 167.66015625 381.4765625 C168.15451172 380.69925781 168.64886719 379.92195313 169.15820312 379.12109375 C170.49643988 377.00236979 171.82379463 374.88462165 173.09765625 372.7265625 C173.50000488 372.04899902 173.90235352 371.37143555 174.31689453 370.67333984 C175.42215982 367.91743446 174.40711551 366.22533995 173.29174805 363.59790039 C173.00082275 362.93910889 172.70989746 362.28031738 172.41015625 361.6015625 C169.23696691 353.91223028 167.78693154 346.40790076 166.640625 338.19921875 C166.47547411 334.90791839 166.47547411 334.90791839 165.09765625 333.7265625 C163.31694379 333.63930027 161.53282485 333.61957209 159.75 333.62890625 C158.67041016 333.63212891 157.59082031 333.63535156 156.47851562 333.63867188 C154.77405273 333.65124023 154.77405273 333.65124023 153.03515625 333.6640625 C151.89498047 333.66857422 150.75480469 333.67308594 149.58007812 333.67773438 C146.75255021 333.68956504 143.92513729 333.70688632 141.09765625 333.7265625 Z M262.09765625 334.7265625 C261.54760941 338.20887341 261.05080414 341.6951787 260.57446289 345.18823242 C259.90941112 349.4738908 259.08311877 353.10178578 257.07421875 356.96484375 C253.89208929 363.03272282 253.89208929 363.03272282 253.09765625 369.7265625 C256.20582658 377.58023061 261.73546713 384.28605555 267.09765625 390.7265625 C269.30069633 389.8942478 269.30069633 389.8942478 270.02151489 387.56971741 C270.33684174 386.61866623 270.65216858 385.66761505 270.97705078 384.68774414 C271.33727325 383.61315445 271.69749573 382.53856476 272.06863403 381.43141174 C272.45203949 380.26166306 272.83544495 379.09191437 273.23046875 377.88671875 C273.62716766 376.69429062 274.02386658 375.50186249 274.43258667 374.27330017 C275.27159107 371.74652486 276.10771305 369.21901223 276.93896484 366.68969727 C278.00562964 363.44444489 279.08141774 360.20231383 280.16055489 356.96119022 C281.18743834 353.87505017 282.20894955 350.78713781 283.23046875 347.69921875 C283.61792267 346.53149429 284.00537659 345.36376984 284.40457153 344.16065979 C284.75848969 343.08291794 285.11240784 342.00517609 285.47705078 340.89477539 C285.79078644 339.94292862 286.10452209 338.99108185 286.42776489 338.01039124 C287.19147668 335.80337963 287.19147668 335.80337963 287.09765625 333.7265625 C283.11850466 333.69769266 279.13937972 333.67980844 275.16015625 333.6640625 C274.02384766 333.65568359 272.88753906 333.64730469 271.71679688 333.63867188 C270.63720703 333.63544922 269.55761719 333.63222656 268.4453125 333.62890625 C267.44508057 333.62366943 266.44484863 333.61843262 265.41430664 333.61303711 C263.13558397 333.46475155 263.13558397 333.46475155 262.09765625 334.7265625 Z M184.09765625 385.7265625 C182.57812209 387.59956054 182.57812209 387.59956054 181.05859375 390.03125 C180.47851562 390.92457031 179.8984375 391.81789063 179.30078125 392.73828125 C178.6975 393.68316406 178.09421875 394.62804687 177.47265625 395.6015625 C176.86164063 396.53871094 176.250625 397.47585938 175.62109375 398.44140625 C172.4135984 402.76300443 172.4135984 402.76300443 171.09765625 407.7265625 C175.92020051 410.15015735 180.74403035 412.5711665 185.5690918 414.98974609 C187.21170439 415.81357298 188.85395794 416.63811616 190.49584961 417.46337891 C192.85046767 418.64672542 195.2063481 419.82752359 197.5625 421.0078125 C198.30104721 421.37966675 199.03959442 421.751521 199.80052185 422.13464355 C202.81355716 423.92878719 202.81355716 423.92878719 206.09765625 424.7265625 C206.09765625 415.8165625 206.09765625 406.9065625 206.09765625 397.7265625 C201.76502813 395.6385762 201.76502813 395.6385762 197.42333984 393.56958008 C194.21091329 391.99235813 191.4793678 390.33008522 188.76171875 387.98828125 C186.42599001 385.51083115 186.42599001 385.51083115 184.09765625 385.7265625 Z M236.0703125 390.70703125 C231.758892 393.63607776 226.84272354 395.56971373 222.09765625 397.7265625 C222.09765625 406.6365625 222.09765625 415.5465625 222.09765625 424.7265625 C233.84050323 419.20051686 245.51885546 413.58783131 257.09765625 407.7265625 C255.38680604 402.64493003 252.49494347 398.37977781 249.59765625 393.9140625 C249.09878906 393.12580078 248.59992188 392.33753906 248.0859375 391.52539062 C247.60511719 390.78095703 247.12429688 390.03652344 246.62890625 389.26953125 C245.97245117 388.2489563 245.97245117 388.2489563 245.30273438 387.20776367 C244.90505859 386.71896729 244.50738281 386.2301709 244.09765625 385.7265625 C240.69155989 385.7265625 238.57323619 388.55966307 236.0703125 390.70703125 Z " fill="#000000" transform="translate(41.90234375,32.2734375)"/>
</svg>
