<?xml version="1.0" encoding="UTF-8"?>
<svg version="1.1" xmlns="http://www.w3.org/2000/svg" width="512" height="512">
<path d="M0 0 C9.91552904 6.83581465 15.81628475 14.51154225 20.1875 25.75 C20.59553774 28.07143506 20.95148858 30.40482321 21.1875 32.75 C22.6725 32.255 22.6725 32.255 24.1875 31.75 C40.8315324 30.63430113 53.88981377 33.75615567 67.1796875 44.3359375 C78.91286887 55.02616942 82.26374512 69.10518668 82.98583984 84.2644043 C83.06086746 86.09263248 83.12532813 87.9212895 83.1875 89.75 C83.85394531 89.9459375 84.52039063 90.141875 85.20703125 90.34375 C98.74552143 94.7366587 108.92419575 103.16745148 115.5 115.75 C121.27973125 127.40447178 122.44160948 141.77219784 118.5625 154.25 C116.12283594 160.50599571 112.97375909 166.96374091 108.1875 171.75 C108.36182707 173.66959707 108.36182707 173.66959707 109 175.875 C114.21163987 199.58285194 109.07768903 222.47752551 97.859375 243.5546875 C96.13322734 246.64678445 96.13322734 246.64678445 95.1875 249.75 C95.75597656 250.17410156 96.32445312 250.59820312 96.91015625 251.03515625 C106.59566618 258.39226313 114.97615325 266.37963974 119.984375 277.69140625 C121.786531 281.68250173 123.53531589 285.24081763 126.1875 288.75 C129.42073273 289.9249179 131.80849943 289.94984153 135.23046875 289.81640625 C142.47314777 289.65375692 148.294267 294.06965529 153.3984375 298.828125 C159.86216019 305.77168736 162.68954681 313.57594871 162.515625 323.0546875 C161.85872018 328.45069138 159.96828929 334.16838239 156.8671875 338.6640625 C155.90147669 340.9054062 155.90147669 340.9054062 157.25 343.71875 C157.87568558 344.90666558 158.52345317 346.08309483 159.1875 347.25 C159.5390918 347.89291992 159.89068359 348.53583984 160.25292969 349.19824219 C164.07190845 355.95244273 168.6096619 362.23055842 173.26171875 368.43164062 C179.54998534 377.02373762 182.94396351 385.53788866 182.6875 396.25 C182.67046021 397.48036987 182.67046021 397.48036987 182.65307617 398.7355957 C182.29844189 409.85003177 178.15125079 419.28987413 170.6875 427.5 C162.57809051 434.79846854 156.82820259 437.51433609 145.8125 437.2109375 C134.49588244 435.77197104 126.13829168 428.38515154 119.1875 419.75 C111.37230073 407.33025446 109.49134105 395.38456813 112.68359375 381.10546875 C113.31038946 378.37772906 113.96502385 375.65737252 114.625 372.9375 C115.11670997 370.86254682 115.60498179 368.78681545 116.09205627 366.71076965 C116.53280659 364.8399269 116.9818458 362.97104253 117.43139648 361.10229492 C118.13237812 357.99439086 118.69864048 354.89746403 119.1875 351.75 C118.46304687 351.3375 117.73859375 350.925 116.9921875 350.5 C108.9458203 345.69363666 102.66185977 340.48318037 99.66796875 331.265625 C97.49358031 319.88102213 98.66317341 310.52152583 105.1875 300.75 C106.4980402 299.06535169 107.82547999 297.39330675 109.1875 295.75 C102.98794423 282.32898366 94.77993678 269.54621839 81.1875 262.75 C81.53683594 263.64203125 81.88617188 264.5340625 82.24609375 265.453125 C82.70113281 266.62359375 83.15617187 267.7940625 83.625 269 C84.07746094 270.16015625 84.52992188 271.3203125 84.99609375 272.515625 C88.92804704 283.1899113 88.67537278 296.43267905 84.515625 307.0078125 C77.43180711 321.63381296 67.27451931 331.25668427 52.03515625 336.921875 C38.62666112 340.6572245 25.48691385 339.22624004 13.1875 332.75 C12.85878906 333.50023437 12.53007812 334.25046875 12.19140625 335.0234375 C6.13373653 348.05809808 -3.0771459 358.43965139 -16.546875 363.9375 C-30.4881872 368.937143 -44.66893851 367.64811512 -58 361.5 C-62.90315219 358.93467077 -66.85414055 355.58673388 -70.8125 351.75 C-73.44015094 352.96446052 -74.97418898 353.91168898 -77.0625 356 C-87.36466553 366.30216553 -99.01087015 370.02437949 -113.43969727 370.0690918 C-127.52678133 369.82206181 -139.39944796 363.67916596 -149.515625 354.20703125 C-155.51600488 347.78825754 -160.8125 338.76525056 -160.8125 329.75 C-161.86244141 329.98976563 -161.86244141 329.98976563 -162.93359375 330.234375 C-177.93477741 332.92115416 -191.46122366 328.8601722 -203.80859375 320.37890625 C-213.14969107 313.03501459 -219.6588154 301.33427118 -221.8125 289.75 C-222.09498241 286.80577952 -222.14539359 283.89393395 -222.125 280.9375 C-222.12371094 280.15648926 -222.12242187 279.37547852 -222.12109375 278.57080078 C-222.01760774 272.30860388 -220.9940429 266.64535998 -218.8125 260.75 C-219.79476562 260.63785156 -219.79476562 260.63785156 -220.796875 260.5234375 C-234.41746751 258.56114875 -245.30667368 251.95408424 -253.84765625 241.18359375 C-261.89482271 229.446007 -264.37463176 216.72202831 -262.8125 202.75 C-261.20014361 194.27154166 -258.03379244 187.55815583 -252.8125 180.75 C-252.2453125 179.98171875 -251.678125 179.2134375 -251.09375 178.421875 C-249.68268783 176.51827226 -248.25621751 174.62888059 -246.8125 172.75 C-247.40289062 172.48960937 -247.99328125 172.22921875 -248.6015625 171.9609375 C-257.28708442 167.20384952 -261.83752087 156.38509403 -264.95703125 147.484375 C-267.86927849 134.77155142 -266.83038492 120.68634562 -260.421875 109.2734375 C-258.98137344 107.00654293 -257.4477689 104.87955673 -255.8125 102.75 C-255.37292969 102.13511719 -254.93335938 101.52023438 -254.48046875 100.88671875 C-247.57804412 91.91555591 -237.42212802 87.73106477 -226.8125 84.75 C-226.85890625 83.52925781 -226.9053125 82.30851562 -226.953125 81.05078125 C-227.4005509 64.28597196 -224.41062606 50.53769953 -212.5625 38 C-201.86228171 27.8383833 -189.29555758 23.37060091 -174.62890625 23.52734375 C-166.6957593 24.15451348 -158.95354214 26.26251431 -151.8125 29.75 C-151.69777344 29.02167969 -151.58304687 28.29335937 -151.46484375 27.54296875 C-149.23327852 17.98866253 -141.22041475 8.89563899 -133.13623047 3.66552734 C-120.00617329 -3.9873165 -106.69437251 -6.37375603 -91.6875 -3.1875 C-82.84748674 -0.69052169 -74.98446856 3.96083458 -68.8125 10.75 C-68.1525 10.75 -67.4925 10.75 -66.8125 10.75 C-65.76752642 9.58034207 -64.776404 8.36231908 -63.8125 7.125 C-48.29171191 -11.10627915 -19.42425131 -11.61203533 0 0 Z M-51.625 19.0625 C-58.70840235 26.57320736 -60.28530294 34.81666412 -60.08984375 44.8828125 C-59.42651007 54.1321131 -54.91811285 61.93291072 -48.22265625 68.25 C-40.84209348 74.0849861 -31.98324654 75.48982493 -22.8125 74.75 C-21.53375 74.688125 -20.255 74.62625 -18.9375 74.5625 C-15.01315209 72.28637821 -15.0163013 71.08144242 -13.8125 66.8125 C-13.50570312 65.64332031 -13.19890625 64.47414062 -12.8828125 63.26953125 C-10.39717982 55.09597268 -5.8697228 49.43002666 0.75 44.1875 C4.24324858 41.34442917 4.24324858 41.34442917 5.5546875 37.25 C4.17997988 29.05174365 -0.67321456 22.15841813 -6.8125 16.75 C-7.29074219 16.31816406 -7.76898438 15.88632812 -8.26171875 15.44140625 C-21.53130346 4.61368216 -39.82862103 8.04583904 -51.625 19.0625 Z M-129.8125 22.75 C-136.29574992 31.20703934 -138.63878121 39.44753018 -137.34375 49.984375 C-135.26250082 60.81911336 -129.57097782 68.40355447 -120.68359375 74.7421875 C-112.87018839 78.95066053 -103.42367122 79.00443855 -94.89453125 77.09765625 C-88.82798642 74.90617571 -84.1934698 71.44044228 -79.8125 66.75 C-79.25949219 66.17636719 -78.70648438 65.60273437 -78.13671875 65.01171875 C-75.61607779 61.83883647 -74.75413502 59.75489263 -74.9921875 55.65625 C-75.38296018 53.27949564 -75.8161912 50.90944486 -76.28515625 48.546875 C-76.85474492 44.44583656 -76.52235383 41.03407019 -76 36.9375 C-75.55847653 31.80944425 -75.6068666 28.88900459 -78.6875 24.6875 C-84.82506638 18.19466531 -92.08123626 13.33399133 -101.109375 12.4140625 C-112.29701567 12.28750548 -121.70976397 14.62987612 -129.8125 22.75 Z M-201.8125 50.75 C-208.00039062 59.08780362 -210.79065947 67.37840431 -209.8125 77.75 C-208.17193606 86.73863606 -204.10967687 94.4325992 -196.875 100.125 C-188.7627863 105.67141884 -181.04348574 107.52390565 -171.375 106.1875 C-162.79776344 104.37608361 -155.788311 99.82582545 -150.2890625 93.0234375 C-146.94088851 87.86831247 -144.91128754 82.46665735 -144.6875 76.3125 C-146.08805731 71.87740184 -148.16483236 67.98369994 -150.34375 63.8828125 C-151.76806349 60.84478213 -152.50985314 58.14732102 -153.1875 54.875 C-154.42374809 49.88688269 -156.2532266 47.62660947 -160.58203125 44.8984375 C-174.34032321 37.81448332 -190.67914845 39.32430662 -201.8125 50.75 Z M6.1875 61.75 C0.84790708 70.00432483 -1.12450948 78.56730405 0.6484375 88.2734375 C2.99929652 97.2620161 8.40499309 104.62234438 16.1875 109.75 C21.94660543 112.6561106 21.94660543 112.6561106 28.1875 113.75 C29.49675737 111.95979181 29.49675737 111.95979181 30.8125 109.6875 C38.79116526 97.45098933 51.25938485 91.87560064 65.1875 88.75 C65.76901119 77.53975645 65.14065126 69.15341547 57.75 60.375 C50.55285018 52.81343753 43.31446341 48.6008903 32.6875 48.25 C21.41086282 48.68625912 13.60357488 53.30829774 6.1875 61.75 Z M-65.8125 75.75 C-67.09598659 77.072471 -68.33871746 78.43459447 -69.5625 79.8125 C-78.26879811 88.72977463 -90.43889938 93.86597415 -102.90185547 94.12915039 C-103.59424316 94.12778076 -104.28663086 94.12641113 -105 94.125 C-106.09658936 94.12584595 -106.09658936 94.12584595 -107.21533203 94.12670898 C-114.18163194 93.98786855 -120.3194412 92.23734099 -126.8125 89.75 C-127.8025 89.42 -128.7925 89.09 -129.8125 88.75 C-130.28558594 89.72839844 -130.75867188 90.70679688 -131.24609375 91.71484375 C-136.72790924 102.71498273 -143.27392782 112.39993539 -154.8125 117.75 C-157.98120562 118.80886921 -161.14686008 119.78448828 -164.37109375 120.66015625 C-166.89125055 121.48123846 -166.89125055 121.48123846 -167.671875 123.40625 C-167.82688458 125.98974297 -167.79372601 128.54475585 -167.69580078 131.13037109 C-167.18484495 145.97628088 -171.99526758 158.5303058 -181.8125 169.75 C-182.8025 170.74 -182.8025 170.74 -183.8125 171.75 C-182.95978516 172.40742188 -182.95978516 172.40742188 -182.08984375 173.078125 C-173.28058022 180.31378052 -166.45884904 190.27005262 -164.8125 201.75 C-164.03439483 212.02479551 -164.13129184 221.99918076 -167.8125 231.75 C-166.63107422 231.95302734 -166.63107422 231.95302734 -165.42578125 232.16015625 C-151.72767576 234.8673558 -140.4229462 240.64330138 -132.13671875 252.05859375 C-128.1574796 258.22987034 -125.86321537 264.72931563 -123.8125 271.75 C-123.23918945 271.72905273 -122.66587891 271.70810547 -122.07519531 271.68652344 C-105.92693351 271.17480555 -91.89548384 272.16809749 -79.08203125 283.24609375 C-77.94610357 284.36929395 -76.86942072 285.55215652 -75.8125 286.75 C-73.198119 285.68488182 -71.67400415 284.60743074 -69.6875 282.5625 C-60.70250582 273.33171571 -50.23218319 268.72841434 -37.44262695 268.28076172 C-28.55964733 268.17686722 -21.03649021 269.13840642 -12.8125 272.75 C-11.8225 273.08 -10.8325 273.41 -9.8125 273.75 C-9.38839844 272.8321875 -8.96429688 271.914375 -8.52734375 270.96875 C-1.96945436 257.09847357 5.83613834 248.29008691 20.5 242.4375 C26.89696592 240.27736513 33.49987123 239.49198509 40.1875 238.75 C40.21328125 237.64785156 40.2390625 236.54570312 40.265625 235.41015625 C40.87010096 217.28192231 44.88946906 200.98527792 53.1875 184.75 C52.49785156 184.4096875 51.80820312 184.069375 51.09765625 183.71875 C37.61160725 176.76298261 28.5190066 167.71969162 23.75 153.0625 C21.71840582 145.27328146 21.81462961 137.7252834 22.1875 129.75 C21.36507812 129.47027344 20.54265625 129.19054687 19.6953125 128.90234375 C4.27067883 123.36301226 -5.33938744 115.49649002 -12.55078125 100.77734375 C-13.93221706 97.46275319 -14.89039375 94.21763899 -15.8125 90.75 C-16.97265625 90.78480469 -18.1328125 90.81960937 -19.328125 90.85546875 C-34.57941908 91.17784052 -48.47165707 89.47925764 -60.3125 78.9375 C-60.9415625 78.33292969 -61.570625 77.72835937 -62.21875 77.10546875 C-63.717717 75.53404494 -63.717717 75.53404494 -65.8125 75.75 Z M-244.8125 116.75 C-249.62458542 124.74676003 -250.68673648 132.72828367 -248.75 141.8125 C-246.11580129 151.05592699 -241.2150833 157.9672147 -232.8125 162.75 C-223.63877329 167.22532869 -215.06786263 168.30895034 -205.25 165.3125 C-196.03413565 161.55495874 -189.71839086 154.99753816 -185.65234375 146.01171875 C-183.17654051 139.34432304 -182.60453002 131.62966847 -184.6875 124.75 C-187.43085818 120.87702375 -189.51766088 120.62181967 -193.9921875 119.5390625 C-203.97801265 116.74524438 -212.10866685 110.30574973 -217.8125 101.75 C-228.72690326 99.61457327 -239.01251149 108.33652269 -244.8125 116.75 Z M45.875 116.49609375 C39.53591347 124.96288293 37.26202672 133.29759595 38.1875 143.75 C40.17541585 153.42094198 45.62479048 160.74701292 53.59765625 166.484375 C57.56380581 168.84155237 60.47894506 170.30928261 65.1875 169.75 C66.91857981 168.61295974 66.91857981 168.61295974 68.375 167 C73.43197163 162.3607782 79.57316584 159.55512549 86.5 159.4375 C89.49535254 159.69134344 92.25729028 160.129663 95.1875 160.75 C101.76815081 152.31654459 104.98096596 143.91181512 103.75 133.125 C102.05149884 124.4771435 98.01825885 117.449574 91.05078125 111.99609375 C76.49689686 102.26299287 58.0447754 103.13469451 45.875 116.49609375 Z M77.3046875 180.46484375 C62.68891603 195.85439136 55.985033 216.56682875 56.4375 237.51953125 C56.76106332 241.44410758 57.04839865 242.56507979 59.5 245.82421875 C62.4502699 247.75837176 64.72608533 249.05384956 68.1875 249.75 C75.46438059 247.41241767 80.69691136 239.29457737 84.484375 233.1015625 C92.26057148 217.79886392 97.43759506 198.57639162 92.1875 181.75 C90.50709532 178.07357158 90.50709532 178.07357158 87.375 175.75 C83.1305907 175.75 80.38494255 177.65938324 77.3046875 180.46484375 Z M-206.1652832 182.28710938 C-208.77741933 182.74386582 -210.90903428 182.73970825 -213.54296875 182.53125 C-225.47687099 181.52347562 -225.47687099 181.52347562 -235.8125 186.625 C-243.09421329 194.85763471 -246.19840943 203.47155735 -246.08984375 214.328125 C-245.35383946 223.40896661 -240.67538282 231.56146226 -233.8125 237.47265625 C-226.0089067 243.14419638 -217.25895658 245.74675125 -207.640625 244.44140625 C-197.9189245 242.06469218 -190.41114167 237.02683805 -184.8125 228.75 C-179.91860346 220.53325894 -179.32100296 211.15725946 -181.47265625 201.9140625 C-184.60420307 193.10235068 -190.84495387 186.47150882 -198.8125 181.75 C-201.59518747 181.35247322 -203.44490934 181.6660839 -206.1652832 182.28710938 Z M-190.8125 255.75 C-191.905625 256.20375 -192.99875 256.6575 -194.125 257.125 C-199.98558875 260.6686118 -203.06089065 267.31404088 -204.8125 273.75 C-205.84395072 283.87260944 -204.88960871 292.09519138 -198.89453125 300.41015625 C-192.69879601 307.85600445 -185.2105556 313.0185877 -175.40234375 313.98828125 C-165.55874273 314.26372811 -158.0443867 311.9922459 -150.4375 305.625 C-143.78322389 299.22462313 -139.74406325 291.41498642 -139.5625 282.125 C-139.69937334 272.80392561 -142.76847599 264.85581201 -148.8125 257.75 C-156.71052077 250.39777742 -165.05831545 247.81903423 -175.7890625 248.19140625 C-181.89904007 248.75746499 -186.06227223 252.13195087 -190.8125 255.75 Z M11.9375 268 C7.93193387 272.93582056 5.74410589 278.65774506 4.625 284.875 C5.3196306 288.42533418 6.8792935 290.6419607 8.8828125 293.61328125 C11.33670545 297.63208197 12.8234871 302.22955622 13.49609375 306.88671875 C14.00398482 310.17860529 14.53005637 312.10993373 16.9609375 314.4765625 C24.04742254 319.52412904 32.42217387 322.68914209 41.1875 321.75 C51.50626279 319.67934526 60.22662247 314.54756524 66.1875 305.75 C70.65896312 297.5610852 71.43114763 288.70906135 69.0625 279.75 C66.13913607 270.95258704 60.5943338 263.2483782 52.36328125 258.75390625 C37.4367555 251.98678286 22.83126266 256.45261158 11.9375 268 Z M-61.8125 297.75 C-64.4526808 301.69356844 -64.4526808 301.69356844 -64.3515625 306.2265625 C-63.87429933 309.34606528 -63.8247135 311.91953638 -63.9609375 315.05078125 C-63.99574219 316.02853516 -64.03054687 317.00628906 -64.06640625 318.01367188 C-64.14671321 320.03559394 -64.25064583 322.05672459 -64.37890625 324.07617188 C-64.56935187 330.98209278 -63.28127982 334.75018077 -58.67041016 339.9387207 C-52.16388412 346.28194234 -44.10443828 349.67005971 -35.0625 350.125 C-26.12852422 349.93433588 -17.40468216 346.19340736 -11.00390625 340 C-3.9727476 332.51568975 -1.82710931 324.96190444 -1.8125 314.75 C-2.42788218 307.91366345 -5.16803418 302.48022164 -8.8125 296.75 C-9.369375 295.863125 -9.92625 294.97625 -10.5 294.0625 C-17.19964197 287.36285803 -25.05982151 284.42526785 -34.3125 283.5 C-45.57188798 284.6259388 -54.55097384 288.91841413 -61.8125 297.75 Z M-123.8125 289.75 C-125.07172324 292.25208201 -125.07172324 292.25208201 -125.75 295.25 C-128.37795083 304.07694775 -132.61573633 312.59960945 -140.4921875 317.875 C-142.45928596 319.17493332 -142.45928596 319.17493332 -144.8125 321.75 C-145.18998429 329.17385764 -141.75158778 335.97743957 -137.2421875 341.765625 C-131.44525878 347.96699061 -124.24115296 352.33293724 -115.7109375 352.98828125 C-103.33177324 353.2490397 -95.95740677 350.71284679 -86.94921875 342.12890625 C-80.33500565 334.76500172 -79.44595084 326.91426565 -79.53515625 317.359375 C-80.17422991 309.04241634 -84.02138119 301.70730986 -89.8125 295.75 C-96.67727285 290.20395371 -102.94809598 287.46114514 -111.875 287.5 C-113.65583984 287.49226563 -113.65583984 287.49226563 -115.47265625 287.484375 C-118.80207947 287.74917123 -120.95885015 288.01742688 -123.8125 289.75 Z M117.8125 313.4375 C115.70641466 317.73067396 115.37829546 321.05492781 116.1875 325.75 C118.38408048 330.6007819 121.27224895 333.01558071 126.04296875 335.11328125 C129.70162449 336.1995488 132.6175537 336.10387185 136.1875 334.75 C139.82737763 332.47597036 142.48332305 329.97465557 144.625 326.25 C145.75541669 321.22592583 145.62407879 318.05967691 143.0625 313.5625 C140.58205883 309.92868843 138.47931183 308.09645077 134.1875 306.75 C126.90015132 305.59629149 122.70457211 307.90173419 117.8125 313.4375 Z M137.1875 351.75 C136.35809631 354.43927864 135.74097292 357.00006763 135.1875 359.75 C134.78220456 361.59396007 134.37589926 363.43769837 133.96875 365.28125 C133.54040411 367.27056189 133.1133432 369.26015086 132.6875 371.25 C130.31295712 382.34559128 130.31295712 382.34559128 129.03125 387.1328125 C127.36195793 394.28912944 128.15077191 400.53564698 131.6875 407 C135.68257815 413.01656853 141.0698162 417.8912625 147.9375 420.375 C151.11981367 420.97792692 151.11981367 420.97792692 153.75 419.875 C159.77598035 414.62158124 164.58717544 407.83274797 165.5390625 399.7734375 C166.06338976 387.98987223 161.39072813 381.14763307 154.51953125 372.04296875 C150.92796128 367.12212321 147.89181888 361.82341841 144.78076172 356.59179688 C144.32846191 355.83576172 143.87616211 355.07972656 143.41015625 354.30078125 C143.00547119 353.61669189 142.60078613 352.93260254 142.18383789 352.2277832 C141.85504639 351.74011475 141.52625488 351.25244629 141.1875 350.75 C139.81856761 350.69729537 139.81856761 350.69729537 137.1875 351.75 Z " fill="#000000" transform="translate(297.8125,41.25)"/>
</svg>
