<?xml version="1.0" encoding="UTF-8"?>
<svg version="1.1" xmlns="http://www.w3.org/2000/svg" width="512" height="512">
<path d="M0 0 C7.9931557 5.51980186 13.29368 13.15680319 15.5078125 22.6171875 C16.60070623 33.32754603 14.9869408 42.81328861 8.54296875 51.6796875 C2.43086052 58.7758313 -5.71366202 63.23932291 -15.05859375 63.9921875 C-20.97425059 64.14284325 -26.09169794 64.03988211 -31.71875 62.21484375 C-34.52947588 61.54690074 -35.62568574 61.35116522 -38.1394043 62.84179688 C-40.0984615 64.70187505 -41.79298448 66.64249892 -43.4921875 68.7421875 C-44.08580078 69.42474609 -44.67941406 70.10730469 -45.29101562 70.81054688 C-48.35028141 74.35411114 -51.27899269 78.00547408 -54.1796875 81.6796875 C-53.16477226 84.3535988 -52.07426602 86.88021749 -50.7421875 89.4140625 C-43.5707669 103.25490426 -42.49499282 117.87090697 -47.15234375 132.796875 C-51.78450779 145.13884427 -60.46425422 155.09981276 -72.16796875 161.25 C-78.20698639 163.93571306 -83.585979 165.35000208 -90.1796875 165.6796875 C-89.963125 166.41832031 -89.7465625 167.15695313 -89.5234375 167.91796875 C-85.76676881 181.60546068 -86.27280947 194.5030166 -92.8046875 207.3671875 C-97.64814533 215.59986395 -104.01467567 222.68070067 -112.1796875 227.6796875 C-112.8396875 227.6796875 -113.4996875 227.6796875 -114.1796875 227.6796875 C-113.70917969 228.53949219 -113.23867187 229.39929688 -112.75390625 230.28515625 C-104.81854786 245.182809 -102.36049294 258.60299418 -106.11328125 275.19140625 C-107.49420832 279.70850468 -109.52625096 283.54654127 -111.97265625 287.5703125 C-113.34524021 289.56395192 -113.34524021 289.56395192 -113.1796875 291.6796875 C-111.80069458 292.61050772 -110.41786071 293.53598877 -109.01953125 294.4375 C-97.40423964 302.27967141 -90.718988 313.70924547 -87.58203125 327.26171875 C-87.05676043 330.41844336 -87.11707364 333.48638077 -87.1796875 336.6796875 C-85.2615625 336.586875 -85.2615625 336.586875 -83.3046875 336.4921875 C-70.47274952 336.55233721 -58.69161957 343.37559672 -49.54296875 351.984375 C-42.87999928 359.58346415 -37.1796875 369.4024946 -37.1796875 379.6796875 C-36.3546875 379.5146875 -35.5296875 379.3496875 -34.6796875 379.1796875 C-22.59887809 377.45385758 -9.63292979 380.19140757 0.5703125 386.96484375 C5.65926258 390.84340119 10.3277387 395.13078049 14.8203125 399.6796875 C15.58601563 399.11701172 15.58601563 399.11701172 16.3671875 398.54296875 C28.9446402 389.68969087 41.53727391 386.32151626 56.8203125 387.6796875 C64.8653628 389.27654754 71.8907367 392.36223695 78.8203125 396.6796875 C80.4863524 397.68073136 82.15288004 398.68096493 83.8203125 399.6796875 C84.27019531 399.11121094 84.72007812 398.54273438 85.18359375 397.95703125 C94.56619526 386.69414887 106.340379 380.71195887 120.8203125 378.6796875 C125.59828554 378.38106419 130.11738961 378.73910292 134.8203125 379.6796875 C134.8409375 378.6484375 134.8615625 377.6171875 134.8828125 376.5546875 C136.2921325 365.66624257 143.61006706 354.66687278 151.8203125 347.6796875 C161.91627579 340.4678473 172.30747599 336.07422767 184.8203125 336.6796875 C184.7584375 335.7515625 184.6965625 334.8234375 184.6328125 333.8671875 C184.70863574 321.28053038 191.18419751 308.65244307 199.65234375 299.66015625 C203.08019732 296.52876569 206.82968065 294.0352688 210.8203125 291.6796875 C209.47760321 288.21102183 207.95501612 284.89386868 206.3203125 281.5546875 C200.3822372 268.50493499 200.61077561 255.21981208 204.8203125 241.6796875 C206.29503623 238.22475298 207.99124893 234.95751429 209.8203125 231.6796875 C210.49335976 230.34956359 211.16215175 229.01723999 211.8203125 227.6796875 C211.1603125 227.4940625 210.5003125 227.3084375 209.8203125 227.1171875 C198.50827912 221.69683817 190.97897188 210.13224556 186.8203125 198.6796875 C183.45244483 187.29559313 184.51834591 176.94175212 187.8203125 165.6796875 C186.5828125 165.6178125 185.3453125 165.5559375 184.0703125 165.4921875 C171.06931262 163.98186726 160.85064766 156.64480208 152.5078125 146.9296875 C143.42577216 134.91203816 140.79330023 120.95242706 142.43481445 106.21728516 C143.41777934 99.7913789 145.97733285 94.43061729 149.25146484 88.85620117 C151.38893633 85.40712201 151.38893633 85.40712201 151.31640625 81.52734375 C149.48068179 79.260248 147.61476382 77.07196879 145.6328125 74.9296875 C141.63147029 70.56576412 137.70304776 66.14920269 133.8203125 61.6796875 C131.9640625 62.1746875 131.9640625 62.1746875 130.0703125 62.6796875 C124.44610053 63.90970533 118.52659645 64.65413252 112.8203125 63.6796875 C110.06102224 61.46474702 108.98491085 60.18445577 107.8828125 56.8046875 C107.80332263 52.83019395 108.63595485 50.99373315 110.8203125 47.6796875 C114 46.39453125 114 46.39453125 117.6953125 45.6171875 C124.58246655 44.14763552 127.74709666 41.72040406 131.6953125 35.9296875 C133.21216501 31.54766912 132.9944327 28.13655194 131.8203125 23.6796875 C129.54427576 19.29018808 127.38189659 16.64946245 122.8203125 14.6796875 C116.7836246 13.31656443 113.33595988 13.45355413 107.8203125 16.6796875 C102.6966391 21.20758492 101.58035734 26.19911597 100.0078125 32.75390625 C98.55891054 36.32373377 97.32497641 37.19349919 93.8203125 38.6796875 C89.96557418 38.61206051 87.69709316 38.36948447 84.640625 35.96484375 C81.79404879 32.39135215 82.21703117 29.41370024 82.36328125 24.98828125 C83.5226632 16.5951487 87.23601309 8.35729553 93.93359375 2.984375 C103.20289238 -3.04149232 111.92637885 -6.50424523 123.2265625 -5 C125.11864174 -4.54153464 126.97338562 -3.93595479 128.8203125 -3.3203125 C129.9753125 -2.9490625 131.1303125 -2.5778125 132.3203125 -2.1953125 C133.5578125 -1.7621875 133.5578125 -1.7621875 134.8203125 -1.3203125 C135.1915625 -1.7946875 135.5628125 -2.2690625 135.9453125 -2.7578125 C138.57653727 -4.95049981 140.41427549 -5.18674242 143.8203125 -5.3203125 C146.99795381 -4.15925125 149.09907897 -3.19833593 151.2578125 -0.5703125 C152.08524994 2.73943725 151.54121325 5.37555906 150.8203125 8.6796875 C150.1603125 9.6696875 149.5003125 10.6596875 148.8203125 11.6796875 C149.16452468 14.69154406 150.04284637 17.45201092 150.8828125 20.3671875 C153.20162761 29.73028184 151.42515678 37.7369621 148.09887695 46.60253906 C147.58885103 48.72284139 147.58885103 48.72284139 148.91259766 50.41552734 C149.47253418 50.98480957 150.0324707 51.5540918 150.609375 52.140625 C151.52783203 53.09582031 151.52783203 53.09582031 152.46484375 54.0703125 C153.44517578 55.05257812 153.44517578 55.05257812 154.4453125 56.0546875 C155.70977416 57.35276471 156.97281718 58.65222546 158.234375 59.953125 C159.14751465 60.88850098 159.14751465 60.88850098 160.07910156 61.84277344 C162.46074038 64.35531557 164.64494213 66.98756248 166.8203125 69.6796875 C167.71234375 69.33035156 168.604375 68.98101562 169.5234375 68.62109375 C170.69390625 68.16605469 171.864375 67.71101563 173.0703125 67.2421875 C174.23046875 66.78972656 175.390625 66.33726563 176.5859375 65.87109375 C186.85863832 62.08706748 201.30926644 61.75752902 211.59765625 65.640625 C226.33585037 72.53053649 237.29800207 81.3992723 243.04296875 97.10546875 C246.26173686 107.76460537 248.01289085 121.29453079 242.8203125 131.6796875 C243.72910156 131.82664063 243.72910156 131.82664063 244.65625 131.9765625 C259.29439052 134.58890758 271.11672803 141.33719608 279.8203125 153.6796875 C287.60610952 166.98566855 290.18916516 181.04029792 287.09765625 196.23046875 C285.03200337 202.6783164 282.03195261 208.73025583 278.8203125 214.6796875 C279.38878906 215.03160156 279.95726562 215.38351563 280.54296875 215.74609375 C292.3457856 223.29280302 301.11181244 233.4350568 304.38671875 247.4296875 C306.65633546 264.44158929 304.35546609 278.75557586 294.2265625 292.90625 C289.85911119 298.24195702 284.58869102 301.96564097 278.8203125 305.6796875 C279.30242187 306.5975 279.78453125 307.5153125 280.28125 308.4609375 C280.91970742 309.70029602 281.55770352 310.93989227 282.1953125 312.1796875 C282.51242187 312.78039062 282.82953125 313.38109375 283.15625 314 C289.15372803 325.74506114 290.117704 340.64150482 286.1953125 353.2421875 C280.83298923 366.81913366 272.16669274 377.15956212 259.19921875 384.078125 C252.09725245 387.10072186 244.53274365 388.6796875 236.8203125 388.6796875 C236.9028125 389.7315625 236.9853125 390.7834375 237.0703125 391.8671875 C237.00147411 404.85469706 230.18408035 416.31005952 221.5078125 425.4921875 C210.22942359 436.19612536 197.75453659 439.7741926 182.52734375 439.8125 C179.8203125 439.6796875 179.8203125 439.6796875 176.8203125 438.6796875 C176.66175781 439.44152344 176.50320313 440.20335937 176.33984375 440.98828125 C173.12817794 455.20123327 165.83055514 465.97978493 153.7890625 474.4375 C141.29213254 482.32246771 127.07004289 483.86666598 112.56396484 481.27685547 C105.68568148 479.54352139 99.73792472 476.53120311 94.37109375 471.9140625 C92.72134195 470.45592296 92.72134195 470.45592296 89.8203125 469.6796875 C89.54445313 470.27265625 89.26859375 470.865625 88.984375 471.4765625 C85.41211544 478.23748328 79.50827731 481.65883168 72.8828125 484.9921875 C72.21491699 485.32959961 71.54702148 485.66701172 70.85888672 486.01464844 C59.26033097 491.60615301 46.40765263 492.60595436 34.0078125 489.0546875 C23.54734232 485.34374196 14.89505749 480.41394058 7.8203125 471.6796875 C7.8203125 471.0196875 7.8203125 470.3596875 7.8203125 469.6796875 C4.42515098 471.68768018 4.42515098 471.68768018 1.12890625 473.8515625 C-10.85171153 481.95536242 -24.8045869 484.15843351 -38.8671875 481.6171875 C-52.02230716 478.56733604 -63.85665876 471.48852387 -71.29833984 459.94433594 C-75.00679825 453.56972201 -77.86964621 446.95769465 -79.1796875 439.6796875 C-80.12328125 439.71449219 -81.066875 439.74929688 -82.0390625 439.78515625 C-97.99452038 440.12156651 -111.45405255 436.64655018 -123.41015625 425.4453125 C-124.28607422 424.57132812 -124.28607422 424.57132812 -125.1796875 423.6796875 C-125.71207031 423.15890625 -126.24445313 422.638125 -126.79296875 422.1015625 C-134.26712692 414.14457758 -139.22816513 403.12238595 -139.3046875 392.1796875 C-139.2634375 391.0246875 -139.2221875 389.8696875 -139.1796875 388.6796875 C-139.83453125 388.65390625 -140.489375 388.628125 -141.1640625 388.6015625 C-153.35446392 387.84396693 -162.60097341 384.1947648 -172.1796875 376.6796875 C-173.7575 375.5659375 -173.7575 375.5659375 -175.3671875 374.4296875 C-184.44990474 365.54880842 -190.18184539 352.90875512 -190.47192383 340.23193359 C-190.57748896 327.26141284 -188.17698093 316.77785372 -181.1796875 305.6796875 C-181.8809375 305.21820313 -182.5821875 304.75671875 -183.3046875 304.28125 C-194.9751818 296.25778517 -202.94586065 286.23470294 -206.8203125 272.390625 C-209.08842346 255.2811793 -206.73719948 240.64907835 -196.1796875 226.6796875 C-191.68090653 221.410446 -187.22203463 217.98409608 -181.1796875 214.6796875 C-181.66179687 213.67808594 -182.14390625 212.67648438 -182.640625 211.64453125 C-183.27892804 210.3022175 -183.916933 208.95976196 -184.5546875 207.6171875 C-184.87179688 206.96041016 -185.18890625 206.30363281 -185.515625 205.62695312 C-191.27787644 193.44219227 -192.2626655 179.72830832 -188.6171875 166.6796875 C-184.03473207 154.02567898 -175.75795049 143.67640752 -164.046875 137 C-158.41383782 134.4060401 -151.45530575 131.6796875 -145.1796875 131.6796875 C-145.4890625 130.8340625 -145.7984375 129.9884375 -146.1171875 129.1171875 C-150.15147289 116.06508772 -148.22379787 102.54358373 -142.4296875 90.3046875 C-135.62097897 77.73861514 -124.2741502 68.68631779 -110.546875 64.59765625 C-105.83942722 63.47215124 -101.25514616 63.29634937 -96.4296875 63.3046875 C-95.55368896 63.30484863 -94.67769043 63.30500977 -93.77514648 63.30517578 C-86.67695035 63.42960214 -80.68720547 64.78980108 -74.1796875 67.6796875 C-72.51429827 68.34953892 -70.84799568 69.01713935 -69.1796875 69.6796875 C-66.94778498 67.30724607 -64.71967825 64.93127104 -62.4921875 62.5546875 C-61.86634766 61.88953125 -61.24050781 61.224375 -60.59570312 60.5390625 C-59.36013647 59.21939968 -58.13117631 57.8935177 -56.90917969 56.5612793 C-55.81191641 55.36751757 -54.69950723 54.18736457 -53.56738281 53.02661133 C-51.95988102 51.36734467 -51.95988102 51.36734467 -50.1796875 48.6796875 C-50.17323237 46.04191769 -50.17323237 46.04191769 -51.3046875 43.6171875 C-55.14607276 33.56926656 -55.19977145 24.72175956 -51.1796875 14.6796875 C-47.26152256 6.30557027 -40.53202838 -0.24842029 -31.9921875 -3.8203125 C-20.6768319 -7.37022798 -10.0381653 -6.08046572 0 0 Z M-30.7890625 17.01171875 C-34.63295719 21.29653078 -36.2620501 25.41471587 -36.0546875 31.1171875 C-34.70141843 36.62692586 -32.85158415 40.91517207 -27.9921875 44.1171875 C-23.79260434 46.2079671 -19.77231488 46.35976578 -15.1796875 45.6796875 C-9.90646597 43.85434159 -7.38277664 41.07249547 -4.1796875 36.6796875 C-2.82286301 32.60921403 -2.65496496 28.93577033 -3.1796875 24.6796875 C-6.04547324 19.05425622 -9.89220337 15.2187448 -15.9296875 13.2421875 C-21.35904673 12.10294577 -26.50726923 13.46780733 -30.7890625 17.01171875 Z M-122.9375 93.85546875 C-128.43664157 101.75882439 -131.17139772 110.11787154 -129.7109375 119.78125 C-128.44400439 125.33096786 -127.23243842 130.52301989 -123.1796875 134.6796875 C-120.77500887 135.78653416 -118.34120781 136.67018627 -115.84375 137.546875 C-112.1444583 139.1198876 -109.34178638 141.42118394 -106.28515625 143.99609375 C-101.94479055 147.46677578 -99.1475308 149.16292111 -93.4921875 148.6796875 C-84.36951166 147.63741618 -76.39984603 143.45521733 -70.1796875 136.6796875 C-64.68015 129.38109916 -61.65390372 121.26172146 -62.390625 112.0390625 C-63.73925066 102.92947788 -67.19049242 95.79523319 -74.1796875 89.6796875 C-74.9015625 88.9990625 -75.6234375 88.3184375 -76.3671875 87.6171875 C-91.2067512 77.39437695 -111.4337797 79.6164194 -122.9375 93.85546875 Z M170.265625 90.1328125 C163.47438834 97.4012712 159.96413983 105.75560197 159.8203125 115.6796875 C160.76988839 125.40153587 164.55764619 134.03909111 171.8203125 140.6796875 C179.61138192 146.45330794 187.85115726 149.82372277 197.640625 148.41796875 C201.0573258 147.26069912 203.16424543 145.00900896 205.7109375 142.5234375 C210.01177015 138.76419119 215.49533782 136.69054606 220.6953125 134.4296875 C225.48992997 130.48117899 226.95578426 124.32634353 227.7578125 118.3671875 C228.27827205 108.81208403 225.69377428 100.54564569 219.9140625 92.94140625 C213.10600151 85.58717619 205.15875661 81.63114032 195.24609375 80.71484375 C186.01155257 80.58100982 177.17195047 84.01901618 170.265625 90.1328125 Z M-164.8046875 161.3046875 C-171.37145928 169.24014342 -172.87761609 176.83958783 -172.55859375 187.05859375 C-172.01919679 192.21344924 -170.78205064 196.21177488 -168.1796875 200.6796875 C-167.75171875 201.45570313 -167.32375 202.23171875 -166.8828125 203.03125 C-165.15077426 205.5578831 -163.78602585 207.04965081 -161.1796875 208.6796875 C-157.4304592 209.31905706 -153.8522192 209.43149086 -150.05078125 209.48046875 C-143.50415421 209.81737892 -137.49972812 212.04780313 -131.64453125 214.92578125 C-128.43928906 215.90614851 -127.30648585 215.33369246 -124.3671875 213.8046875 C-114.71488937 208.49664278 -109.61296409 201.37119812 -105.9296875 191.2421875 C-103.98795379 182.01895239 -105.38592601 173.7683245 -109.9296875 165.4921875 C-116.11455306 157.76110555 -123.11507926 151.57758505 -133.1796875 149.6796875 C-145.73064564 148.55709447 -156.03989456 152.07663912 -164.8046875 161.3046875 Z M210.9453125 160.87109375 C204.96247215 168.83574996 201.41768264 177.61663374 202.8203125 187.6796875 C204.95269926 198.15681447 210.30655546 205.93498588 219.0078125 212.1796875 C224.6728262 215.28259272 224.6728262 215.28259272 230.890625 214.81640625 C232.40269531 214.09904297 232.40269531 214.09904297 233.9453125 213.3671875 C240.2083267 210.45879032 244.19673623 209.66598402 251.1328125 209.6171875 C255.98106736 209.40191637 259.56397761 208.99665897 263.0078125 205.3046875 C269.30301787 196.15392506 271.03358972 186.65026788 269.8203125 175.6796875 C268.05235954 167.40192101 263.10193087 161.18953627 256.8203125 155.6796875 C242.23545272 146.36929385 222.65820833 147.18164675 210.9453125 160.87109375 Z M-183.1796875 239.6796875 C-189.21726753 248.34832305 -189.9835401 256.21828178 -189.1796875 266.6796875 C-187.06879669 275.5092422 -182.09686658 282.85133735 -174.7421875 288.1171875 C-170.82132845 290.50237675 -167.87060946 291.84428125 -163.1796875 291.6796875 C-160.6488878 290.82607879 -158.23544148 289.80949871 -155.7890625 288.73828125 C-150.1029612 286.43149465 -144.58492379 285.49704723 -138.4921875 286.0546875 C-135.64505659 286.12008097 -134.52041621 285.93085709 -132.203125 284.22265625 C-124.79947274 276.23616328 -122.04675277 267.47694168 -122.1796875 256.6796875 C-123.03625281 249.04966732 -126.83453312 241.16550384 -132.1796875 235.6796875 C-149.19785311 222.241205 -168.5587128 223.45144253 -183.1796875 239.6796875 Z M232.8203125 233.6796875 C231.551875 234.5459375 231.551875 234.5459375 230.2578125 235.4296875 C223.15770268 241.98363503 220.481822 250.20370119 219.859375 259.62109375 C219.74129552 268.86671678 223.29344249 276.28524519 229.01171875 283.41015625 C232.50680843 286.23442204 235.14601337 286.30350387 239.4453125 286.2421875 C246.60617946 286.3927703 252.18772599 287.92089935 258.8203125 290.6796875 C262.87184637 291.95075695 264.98168606 291.83950471 268.7578125 290.1171875 C278.45141907 284.67840824 283.7947771 277.39568071 286.8203125 266.6796875 C287.85176322 256.55707806 286.89742121 248.33449612 280.90234375 240.01953125 C275.21431756 233.18383252 269.18609682 229.46828227 260.8203125 226.6796875 C249.61476521 225.93929556 242.00191605 226.94651156 232.8203125 233.6796875 Z M-162.9296875 312.8671875 C-170.20330051 320.56368498 -172.59532036 329.57529766 -172.53125 339.890625 C-171.79166167 347.86174365 -168.48326658 354.73501644 -163.1796875 360.6796875 C-154.86726069 367.52440858 -147.76543385 369.8847105 -137.1796875 370.6796875 C-136.4990625 369.5659375 -135.8184375 368.4521875 -135.1171875 367.3046875 C-126.77365259 354.06284136 -119.61626391 346.24832976 -105.1796875 339.6796875 C-104.53056257 329.72643859 -107.93222876 321.35639978 -114.1796875 313.6796875 C-120.34621717 306.89348206 -128.7850415 303.29022595 -137.8984375 302.6484375 C-147.62000616 302.78160967 -155.7911699 306.32997052 -162.9296875 312.8671875 Z M212.78125 312.53515625 C205.37901445 320.42562435 202.61084612 328.99690195 202.8203125 339.6796875 C203.57054687 340.00839844 204.32078125 340.33710938 205.09375 340.67578125 C217.07820377 346.24538256 224.62939166 353.05061508 230.69018555 364.71459961 C232.6949775 368.49025186 232.6949775 368.49025186 236.2265625 370.6796875 C245.67799307 370.6796875 253.9325836 367.02720237 260.8203125 360.6796875 C263.22170589 357.85183101 265.08586464 354.95395871 266.8203125 351.6796875 C267.32884766 350.75929688 267.32884766 350.75929688 267.84765625 349.8203125 C271.0931048 342.82091193 270.95177156 334.16294196 269.09375 326.80078125 C268.15672846 324.30586618 267.09494829 322.01862314 265.8203125 319.6796875 C265.48128906 319.04546875 265.14226562 318.41125 264.79296875 317.7578125 C260.88052104 311.46448025 254.41634294 307.29423178 247.7578125 304.3046875 C234.49171663 301.48211391 223.11889137 303.12829868 212.78125 312.53515625 Z M-114.1796875 366.6796875 C-120.18279589 375.20117307 -122.41866135 384.32540601 -121.1796875 394.6796875 C-117.97834457 405.61981398 -112.71003674 412.30687112 -103.01953125 418.19921875 C-96.17363767 421.76812338 -88.14019043 422.91606663 -80.59375 421.03515625 C-77.25037895 419.15789128 -76.94698033 417.35372234 -75.8046875 413.7421875 C-71.67217992 402.15069565 -65.53916024 392.35942387 -54.1796875 386.6796875 C-55.25079848 376.96581892 -58.20441338 369.01580735 -65.5546875 362.3046875 C-81.03305026 350.18969403 -101.11713868 352.06821984 -114.1796875 366.6796875 Z M170.8203125 357.6796875 C170.07136719 358.09347656 169.32242187 358.50726563 168.55078125 358.93359375 C160.71962425 363.69982031 155.77746399 369.96387257 152.8203125 378.6796875 C152.33875132 381.35660111 152.05847013 383.96469051 151.8203125 386.6796875 C153.10747897 387.68547339 154.40019908 388.68415548 155.6953125 389.6796875 C156.41460937 390.2365625 157.13390625 390.7934375 157.875 391.3671875 C159.705521 392.86612127 159.705521 392.86612127 161.8203125 392.6796875 C162.09230469 393.2675 162.36429687 393.8553125 162.64453125 394.4609375 C163.79536871 396.63261749 165.0662307 398.29482919 166.6328125 400.1796875 C169.90789265 404.43969395 171.80457143 408.95918048 173.7421875 413.9453125 C175.19664491 418.44847979 175.19664491 418.44847979 178.4453125 421.4296875 C189.40635938 422.58348191 198.70953064 420.39763811 207.59375 413.69921875 C211.16170589 410.46302017 213.58111303 406.92160333 215.8203125 402.6796875 C216.32884766 401.72449219 216.32884766 401.72449219 216.84765625 400.75 C220.45060497 392.74713694 219.72151227 383.20893964 216.921875 375.05859375 C212.9266235 366.43055061 205.79176354 359.7638206 197.1953125 355.8046875 C188.86612805 353.03926658 178.53611692 353.39312949 170.8203125 357.6796875 Z M-53.18359375 407.75390625 C-60.00581979 415.91494074 -61.83032604 423.53268712 -61.6015625 434.1015625 C-60.59480821 442.64033033 -56.86458938 450.92137434 -50.06640625 456.375 C-49.34066406 456.84679687 -48.61492187 457.31859375 -47.8671875 457.8046875 C-46.79017578 458.52011719 -46.79017578 458.52011719 -45.69140625 459.25 C-39.91226226 462.5395283 -34.96610238 464.21826388 -28.3046875 464.1171875 C-27.60214844 464.10961426 -26.89960938 464.10204102 -26.17578125 464.09423828 C-17.09234494 463.80670807 -9.71252251 459.9461959 -3.1796875 453.6796875 C-0.67992101 450.13640478 -1.19197692 447.31431216 -1.6796875 443.1171875 C-2.36593715 435.35852969 -1.61908424 428.69484683 1.0078125 421.3671875 C2.08956937 417.78906863 2.0778281 416.24264837 0.8203125 412.6796875 C-4.66425991 404.38557936 -12.35436235 399.36931345 -21.97265625 396.98828125 C-33.77077212 395.37093492 -44.94492129 399.22615757 -53.18359375 407.75390625 Z M99.7578125 408.6796875 C97.091719 412.0201829 95.64417054 414.27613847 95.8203125 418.6796875 C96.49884772 421.04116862 97.27627318 423.36229782 98.046875 425.6953125 C99.85338158 432.66587323 100.35856213 440.33559465 99.21484375 447.44140625 C98.45969967 450.82590882 98.45969967 450.82590882 100.7578125 453.8046875 C107.5452997 460.85613253 115.7515615 463.95024961 125.4453125 464.1796875 C134.73129098 464.2172478 141.73768452 461.16693223 148.8203125 455.1171875 C149.4803125 454.3128125 150.1403125 453.5084375 150.8203125 452.6796875 C151.5009375 451.9578125 152.1815625 451.2359375 152.8828125 450.4921875 C158.68004762 442.0768462 159.9486303 433.78801915 158.8203125 423.6796875 C156.77115786 414.98593677 151.49313557 406.93090003 144.1328125 401.8046875 C128.80213372 393.15123796 111.67763834 395.95545623 99.7578125 408.6796875 Z M21.8203125 418.6796875 C16.46835142 425.63974957 14.50587747 433.85477856 14.9765625 442.57421875 C16.42676943 452.5443914 21.07356097 460.29609825 28.8203125 466.6796875 C36.84120166 472.3834309 45.21887665 473.46936173 54.8203125 472.6796875 C63.74951776 471.01420878 70.86279189 465.63463125 76.50390625 458.65625 C81.25088931 451.52873241 83.64978397 443.2217314 82.37890625 434.73046875 C79.96803197 423.75065845 75.07656068 416.18641251 65.8203125 409.6796875 C49.85055136 401.15609685 33.52939717 405.61792879 21.8203125 418.6796875 Z " fill="#000000" transform="translate(207.1796875,13.3203125)"/>
</svg>
