<?xml version="1.0" encoding="UTF-8"?>
<svg version="1.1" xmlns="http://www.w3.org/2000/svg" width="512" height="512">
<path d="M0 0 C5.25495606 3.18687658 9.2224526 7.87816813 12 13.3125 C13.33010489 20.84976105 13.64411187 28.75894067 9.5625 35.5 C6.57854009 39.06946505 3.43127926 41.92081383 -0.4375 44.5 C-1.4275 44.5 -2.4175 44.5 -3.4375 44.5 C-4.01025719 53.01452181 -4.01025719 53.01452181 -0.73046875 60.3671875 C1.3580762 61.59142752 1.3580762 61.59142752 3.5625 62.57421875 C7.8906403 64.57767432 10.3254886 69.04013754 12.015625 73.359375 C14.00103314 81.13082974 13.10970795 88.34257553 9.19921875 95.30078125 C6.12509035 99.43141201 2.13487602 102.21381199 -2.4375 104.5 C-2.90751033 107.77555608 -2.90751033 107.77555608 -3.0625 111.5625 C-3.13726562 112.85285156 -3.21203125 114.14320312 -3.2890625 115.47265625 C-3.33804688 116.47167969 -3.38703125 117.47070312 -3.4375 118.5 C-2.83808594 118.63277344 -2.23867187 118.76554687 -1.62109375 118.90234375 C4.44552164 120.56279483 7.52366583 124.44099482 10.58203125 129.59765625 C13.62982501 135.51110469 13.48618693 142.66993508 11.94921875 149.04296875 C9.65747532 154.90862043 5.81264688 159.05459111 0.5625 162.5 C-0.7575 162.83 -2.0775 163.16 -3.4375 163.5 C-3.4375 168.12 -3.4375 172.74 -3.4375 177.5 C-0.4675 178.49 -0.4675 178.49 2.5625 179.5 C8.22631682 184.3826007 12.07496308 189.47522434 12.8046875 196.99609375 C13.11576795 203.59282914 12.30648685 208.96721944 8.5625 214.5 C5.05182786 218.32720816 1.79821788 221.56505038 -3.4375 222.5 C-3.97602706 230.83747915 -3.97602706 230.83747915 -0.98828125 238.109375 C0.80481333 239.03102267 0.80481333 239.03102267 2.71875 239.73046875 C6.98300586 241.5102535 9.15304676 245.79404613 11.375 249.625 C13.65322879 255.59053551 13.63733847 262.30644701 11.61328125 268.3203125 C9.29649065 273.21699925 6.67056123 276.97880466 2.5625 280.5 C6.0275 285.45 6.0275 285.45 9.5625 290.5 C12.4631004 289.05738263 12.4631004 289.05738263 15.26805115 287.44342041 C23.23442995 283.02443596 32.33999424 284.00169036 41.16015625 284.109375 C42.96332672 284.11684583 44.76650536 284.12253478 46.56968689 284.12652588 C51.28969178 284.14171602 56.00919549 284.18093984 60.72900391 284.2253418 C65.55559512 284.26643822 70.38226821 284.28456744 75.20898438 284.3046875 C84.66037509 284.34744126 94.11139568 284.4156113 103.5625 284.5 C103.70421631 283.55455322 103.84593262 282.60910645 103.99194336 281.63500977 C104.97733242 276.22064053 108.24761815 272.43068927 112.421875 268.94921875 C116.63464722 266.09295918 120.43371938 264.98091613 125.3984375 264.09375 C128.398247 263.27069757 130.41203215 261.71021565 132.76171875 259.71875 C138.94103225 255.53665496 146.41988745 255.78403406 153.5625 256.5 C157.84515148 257.77876354 161.38845379 259.32595379 164.5625 262.5 C166.78931121 263.07147878 166.78931121 263.07147878 169.3125 263.4375 C175.72456633 264.62765332 180.84792191 266.90630853 185.5625 271.5 C188.03068657 275.33090366 190.12023988 279.17321963 191.5625 283.5 C192.11711914 283.50410889 192.67173828 283.50821777 193.24316406 283.51245117 C195.767344 283.54544181 198.28912696 283.61608378 200.8125 283.6875 C201.68519531 283.69330078 202.55789063 283.69910156 203.45703125 283.70507812 C209.93711324 283.92767636 209.93711324 283.92767636 213.140625 286.859375 C214.88330784 290.09578598 215.17923513 291.87668113 214.5625 295.5 C212.1745898 298.44508925 210.20329334 300.26010061 206.3984375 300.81640625 C205.58632813 300.89761719 204.77421875 300.97882813 203.9375 301.0625 C202.71160156 301.18818359 202.71160156 301.18818359 201.4609375 301.31640625 C200.83445312 301.37699219 200.20796875 301.43757813 199.5625 301.5 C199.5625 303.81 199.5625 306.12 199.5625 308.5 C200.67625 308.561875 201.79 308.62375 202.9375 308.6875 C209.51521194 309.49652339 216.09387082 312.55413858 220.5625 317.5 C223.83931563 316.37359463 226.56294503 314.89586407 229.4375 313 C237.40346961 307.98055075 246.14080105 307.25032279 255.3125 309.03515625 C260.54737453 310.49549472 264.97385121 312.6071562 269.5625 315.5 C272.3447335 313.23943528 273.46342877 312.0944274 274.0625 308.5 C273.43793639 304.75261836 272.54830773 303.80143951 269.5625 301.5 C266.36130759 300.90687484 266.36130759 300.90687484 262.78515625 300.99609375 C260.80805664 300.96805664 260.80805664 300.96805664 258.79101562 300.93945312 C257.40234576 300.93699993 256.01367156 300.93636613 254.625 300.9375 C251.90669564 300.9327316 249.19098906 300.90694865 246.47265625 300.87109375 C245.26746338 300.87036865 244.06227051 300.86964355 242.82055664 300.86889648 C239.27404046 300.4673389 237.39604587 299.63027323 234.5625 297.5 C233.13587781 294.64675563 233.25216132 292.66545451 233.5625 289.5 C235.09887695 286.84008789 235.09887695 286.84008789 237.5625 284.5 C240.3471223 284.00133366 242.51344906 283.81967577 245.29296875 283.87109375 C246.04282547 283.86868179 246.79268219 283.86626984 247.56526184 283.86378479 C249.15139044 283.86476287 250.73755333 283.8781477 252.32348633 283.90307617 C254.72533381 283.93715007 257.12344893 283.92379676 259.52539062 283.90429688 C267.5795094 283.91237944 274.504747 284.22200153 281.5625 288.5 C282.8825 289.16 284.2025 289.82 285.5625 290.5 C289.0275 285.055 289.0275 285.055 292.5625 279.5 C290.9125 278.18 289.2625 276.86 287.5625 275.5 C283.25780372 269.6328584 281.73875411 263.67903519 282.08203125 256.4609375 C283.31576251 248.8579432 286.9576728 243.31561992 292.9140625 238.55859375 C294.5625 237.5 294.5625 237.5 297.5625 236.5 C297.8925 231.88 298.2225 227.26 298.5625 222.5 C296.5825 221.84 294.6025 221.18 292.5625 220.5 C286.89868318 215.6173993 283.05003692 210.52477566 282.3203125 203.00390625 C282.00923205 196.40717086 282.81851315 191.03278056 286.5625 185.5 C290.26086246 181.46817863 293.20097323 178.84038169 298.5625 177.5 C298.5625 172.88 298.5625 168.26 298.5625 163.5 C296.9125 162.84 295.2625 162.18 293.5625 161.5 C287.75472386 157.8173145 284.28109511 153.16082722 282.5625 146.5 C281.60705691 139.02390405 282.09664187 132.71462459 286.5625 126.5 C289.27243707 123.4513208 292.10679665 120.68861212 295.5625 118.5 C296.5525 118.5 297.5425 118.5 298.5625 118.5 C298.72686739 113.70047234 298.64113598 109.19338194 297.5625 104.5 C295.48256896 102.32143305 293.52655445 101.23509489 290.859375 99.86328125 C286.30508498 97.16013973 284.18972182 92.38166546 282.5625 87.5 C281.66400364 79.06696989 282.63671362 72.50927826 287.5625 65.5 C289.93281555 62.92357005 292.30366874 60.90043261 295.69921875 59.8203125 C297.94322543 58.55475205 297.94322543 58.55475205 298.171875 55.2421875 C298.21828125 53.96601562 298.2646875 52.68984375 298.3125 51.375 C298.36921875 50.09367187 298.4259375 48.81234375 298.484375 47.4921875 C298.51015625 46.50476562 298.5359375 45.51734375 298.5625 44.5 C297.64855469 44.23574219 296.73460937 43.97148438 295.79296875 43.69921875 C290.06090059 41.57135306 286.74861488 37.45135028 283.625 32.3125 C281.46804498 24.57283788 281.45509315 16.79096536 285.16015625 9.5390625 C288.74841756 4.32159062 293.49771425 0.38859556 299.5625 -1.5 C307.40653876 -2.30595858 315.17184916 -2.61823937 321.5625 2.5 C327.99591702 8.51134394 330.57241102 13.54648457 330.9375 22.375 C330.80318485 29.6011548 328.81110043 33.97032451 324.0625 39.3125 C318.13392857 44.5 318.13392857 44.5 314.5625 44.5 C313.98974281 53.01452181 313.98974281 53.01452181 317.26953125 60.3671875 C319.3580762 61.59142752 319.3580762 61.59142752 321.5625 62.57421875 C325.8906403 64.57767432 328.3254886 69.04013754 330.015625 73.359375 C332.00103314 81.13082974 331.10970795 88.34257553 327.19921875 95.30078125 C324.12509035 99.43141201 320.13487602 102.21381199 315.5625 104.5 C315.09248967 107.77555608 315.09248967 107.77555608 314.9375 111.5625 C314.86273438 112.85285156 314.78796875 114.14320312 314.7109375 115.47265625 C314.66195313 116.47167969 314.61296875 117.47070312 314.5625 118.5 C315.3359375 118.63277344 316.109375 118.76554687 316.90625 118.90234375 C322.01484662 120.05177799 324.59708075 123.31770669 327.3125 127.5625 C331.34077891 134.20406112 331.76626566 141.50858954 329.94921875 149.04296875 C327.65747532 154.90862043 323.81264688 159.05459111 318.5625 162.5 C317.2425 162.83 315.9225 163.16 314.5625 163.5 C314.5625 168.12 314.5625 172.74 314.5625 177.5 C316.5425 178.16 318.5225 178.82 320.5625 179.5 C326.33925851 184.47996423 330.13050275 189.58777319 330.8046875 197.25390625 C331.08668321 203.88080537 330.69528865 209.1503347 326.5625 214.5 C322.9977231 218.25470354 319.79710105 221.57693419 314.5625 222.5 C314.02265438 230.81322025 314.02265438 230.81322025 316.9765625 238.07421875 C318.74717847 238.96873112 318.74717847 238.96873112 320.6484375 239.66015625 C325.06924233 241.59989714 327.80499037 246.01941299 329.9375 250.1875 C331.51251415 258.53507501 331.44689734 265.7987866 327.1796875 273.30859375 C323.75601923 277.94791235 319.66052995 280.79984065 314.21484375 282.6171875 C309.26969363 284.68493123 306.89495829 288.86776127 304 293.1875 C302.91604009 294.75437378 301.83140857 296.32078316 300.74609375 297.88671875 C300.22120361 298.65757812 299.69631348 299.4284375 299.15551758 300.22265625 C297.59791636 302.44936953 295.95969767 304.58783539 294.2890625 306.73046875 C292.00019965 309.75110655 290.5768384 312.45617369 289.5 316.125 C287.67408074 321.61797379 285.42232884 325.19643077 280.85546875 328.875 C279.31483575 330.42923237 279.31483575 330.42923237 279.7421875 332.59375 C279.97164063 333.3878125 280.20109375 334.181875 280.4375 335 C282.59351458 344.27086271 281.18160751 353.17752641 276.5625 361.5 C271.13135084 369.58783177 263.47857373 374.77623694 253.9921875 377.140625 C245.43323514 378.40657937 237.35377435 377.39563717 229.5625 373.5 C229.5625 375.48 229.5625 377.46 229.5625 379.5 C231.0784375 379.8403125 231.0784375 379.8403125 232.625 380.1875 C235.74433789 381.05398275 236.95155771 381.80965818 239.625 383.9375 C243.02338863 386.57048578 246.1727863 387.17346115 250.375 387.9375 C261.04271041 390.00769195 267.72999498 394.27771265 273.890625 403.296875 C276.36191789 408.03159503 277.39353712 412.89275682 278.56640625 418.05859375 C279.73997046 422.11314302 281.46436487 424.40131259 284.16796875 427.54296875 C288.04612522 432.98542363 289.34829771 440.98910467 288.5625 447.5 C285.87081494 459.00478293 285.87081494 459.00478293 281.9375 463.5 C279.23077804 466.91901721 279.11418886 468.50048058 278.625 472.75 C277.45771214 482.15255726 273.1689109 489.0648235 265.8359375 495.03515625 C260.68214393 498.35589953 254.84967792 499.94792257 248.9375 501.375 C245.01872307 502.68125898 242.18244269 504.63215215 238.87109375 507.0625 C233.74745862 510.25285149 228.68565867 510.88912243 222.75 510.875 C222.04439941 510.87338867 221.33879883 510.87177734 220.61181641 510.87011719 C213.28636281 510.69830843 208.47742868 508.6545125 202.6875 504.375 C199.57139418 502.50533651 197.83045399 502.08970039 194.3125 501.5625 C185.1506935 500.11851963 177.13881052 496.06278246 171.5625 488.5 C168.76489763 483.63871173 166.46527532 478.90296104 166.125 473.25 C165.45655534 468.79370224 164.06184979 467.38435745 161.05859375 464.22265625 C155.97919974 458.37405897 155.24796479 450.63112929 155.34765625 443.1875 C155.81985437 437.28073074 157.24314109 431.85400062 161.0625 427.25 C163.70050859 423.93879041 164.24610621 420.82276354 165 416.6875 C166.71103201 407.6926334 170.33012143 400.43903739 177.65234375 394.7421875 C182.51049552 391.58289862 187.42780572 389.6251959 193.125 388.625 C197.58733867 387.76835558 200.29889148 385.73375645 203.77734375 382.8984375 C206.94862215 380.41415376 209.57596059 379.5 213.5625 379.5 C213.5625 377.52 213.5625 375.54 213.5625 373.5 C212.510625 373.974375 211.45875 374.44875 210.375 374.9375 C204.19067891 377.5544183 197.31343334 378.58760732 190.66845703 377.06640625 C183.16901328 375.57223841 178.35467612 378.57349285 171.9375 382.25 C152.51080013 392.99241285 152.51080013 392.99241285 141.5625 391.5 C137.39898834 390.14484694 133.62099425 388.28246592 129.75 386.25 C128.76580078 385.75886719 127.78160156 385.26773437 126.76757812 384.76171875 C122.6327953 382.68184811 118.58651712 380.53759097 114.63671875 378.125 C111.5661886 376.50194976 110.49268158 376.06616933 107.1875 376.75 C98.07450639 378.23028323 89.97444123 377.70597061 81.5625 373.5 C81.26621263 376.34534204 81.26621263 376.34534204 82.5625 379.5 C85.02731905 381.09845031 87.51934744 382.25835141 90.21484375 383.421875 C92.5625 384.5 92.5625 384.5 94.5625 386.5 C96.71714152 386.97494786 98.88718407 387.38114208 101.0625 387.75 C110.08109274 389.59807228 117.55777851 393.14197135 123.31640625 400.515625 C126.36139126 405.36469204 128.34845073 410.43085704 128.9375 416.125 C129.5853084 419.62316538 130.21148988 420.58472818 132.375 423.25 C137.86907171 430.12089932 140.30530518 437.94721372 139.953125 446.7265625 C139.12320892 452.61896665 137.41259132 458.33627415 133.51171875 462.8984375 C131.15577353 466.04284535 130.74661804 468.39168113 130.125 472.25 C128.00790499 482.98109532 123.73288916 490.25904071 114.5625 496.5 C109.76674919 498.76989891 104.81089233 500.18573849 99.6875 501.5 C96.19211731 502.61852246 94.39876193 504.20397844 91.5625 506.5 C83.83526878 511.68677164 74.52449713 511.59868455 65.5625 510.5 C60.99639958 509.30353518 57.71637859 507.56032087 54.25 504.375 C51.22756092 502.26632157 49.48612458 502.05409075 45.875 501.5625 C36.21500443 500.16387487 29.48564997 496.53106188 23.25390625 488.96484375 C19.83242953 483.97881186 17.80944611 478.88714577 17.1875 472.875 C16.41870813 468.72352392 14.66369227 466.71029114 12.05859375 463.48046875 C7.24109265 457.1032545 5.82111386 449.35320128 6.5625 441.5 C7.61106517 435.99058978 9.28618495 431.63933917 12.625 427.125 C15.82795994 422.67863055 16.39438287 418.72149191 17.08203125 413.36328125 C18.32945781 405.92943027 22.7021306 399.40771839 28.68359375 394.90234375 C34.19591561 391.31271976 39.27596644 389.71887995 45.6640625 388.34765625 C49.52248303 387.21925024 52.34570984 385.31155787 55.52734375 382.90234375 C58.81238383 380.63875567 61.56322574 379.5 65.5625 379.5 C65.5625 377.52 65.5625 375.54 65.5625 373.5 C64.31146484 373.933125 64.31146484 373.933125 63.03515625 374.375 C52.20388309 377.94820352 44.27597676 378.8751371 33.5625 374.5 C30.41880925 372.57529138 28.98495212 371.50332379 27.5625 368.125 C27.5625 364.59259999 28.73318452 362.48110671 30.5625 359.5 C33.59905344 357.98172328 36.20162824 358.33195641 39.5625 358.5 C40.51125 358.850625 41.46 359.20125 42.4375 359.5625 C46.70615487 360.84309646 50.25854317 360.5798458 54.5625 359.5 C58.00616254 357.58685415 61.03108418 355.53027495 63.5625 352.5 C64.21022998 349.40671277 64.0719706 346.27870928 64.0625 343.125 C64.09085937 342.27421875 64.11921875 341.4234375 64.1484375 340.546875 C64.16237048 336.07438885 64.05434577 334.12398343 61.20703125 330.51171875 C56.5183493 326.94499614 52.70322387 324.84873523 46.6328125 325.171875 C41.25062634 326.02490073 37.83955711 327.95218873 34.3515625 332.1796875 C32.94097854 334.14024644 31.5638543 336.1254532 30.2265625 338.13671875 C28.5625 340.5 28.5625 340.5 26.5625 341.5 C22.5494676 342.03507099 21.02321967 341.83051628 17.6875 339.4375 C15.5625 336.5 15.5625 336.5 15.6875 333.0625 C15.96091359 329.59240655 15.96091359 329.59240655 14.1640625 328.03515625 C12.90484597 327.07613269 11.64302227 326.12052486 10.37890625 325.16796875 C7.20647353 322.2547886 6.01860398 318.46805587 4.5625 314.5 C3.30565461 311.0784901 1.8873932 308.29435958 -0.265625 305.35546875 C-1.09513672 304.21561523 -1.09513672 304.21561523 -1.94140625 303.05273438 C-2.80572266 301.88194336 -2.80572266 301.88194336 -3.6875 300.6875 C-4.52861328 299.53411133 -4.52861328 299.53411133 -5.38671875 298.35742188 C-6.50947817 296.82108248 -7.63770048 295.28871973 -8.77148438 293.76049805 C-9.88263214 292.25286072 -10.97779244 290.73330938 -12.05664062 289.20239258 C-12.56904297 288.48591553 -13.08144531 287.76943848 -13.609375 287.03125 C-14.05893555 286.39123047 -14.50849609 285.75121094 -14.97167969 285.09179688 C-17.13221462 282.74557973 -19.50464069 282.10035373 -22.48828125 281.1796875 C-27.7967636 279.32863353 -30.62359199 275.63744005 -33.3125 270.9375 C-36.33466292 264.36502919 -36.55556816 257.97227265 -34.80859375 250.984375 C-32.55392921 245.03934026 -28.62870426 241.08161115 -23.4375 237.5 C-22.4475 237.17 -21.4575 236.84 -20.4375 236.5 C-20.1075 231.88 -19.7775 227.26 -19.4375 222.5 C-21.4175 221.84 -23.3975 221.18 -25.4375 220.5 C-30.17472363 217.01377135 -34.24102605 212.3648589 -35.4375 206.5 C-36.22099776 198.85110311 -36.3577306 191.7459594 -31.4375 185.5 C-27.67462075 181.5443503 -24.80106696 178.84089174 -19.4375 177.5 C-19.4375 172.88 -19.4375 168.26 -19.4375 163.5 C-21.0875 162.84 -22.7375 162.18 -24.4375 161.5 C-30.24527614 157.8173145 -33.71890489 153.16082722 -35.4375 146.5 C-36.39294309 139.02390405 -35.90335813 132.71462459 -31.4375 126.5 C-28.72756293 123.4513208 -25.89320335 120.68861212 -22.4375 118.5 C-21.4475 118.5 -20.4575 118.5 -19.4375 118.5 C-19.27313261 113.70047234 -19.35886402 109.19338194 -20.4375 104.5 C-22.51743104 102.32143305 -24.47344555 101.23509489 -27.140625 99.86328125 C-31.69491502 97.16013973 -33.81027818 92.38166546 -35.4375 87.5 C-36.33599636 79.06696989 -35.36328638 72.50927826 -30.4375 65.5 C-28.06718445 62.92357005 -25.69633126 60.90043261 -22.30078125 59.8203125 C-20.05677457 58.55475205 -20.05677457 58.55475205 -19.828125 55.2421875 C-19.78171875 53.96601562 -19.7353125 52.68984375 -19.6875 51.375 C-19.63078125 50.09367187 -19.5740625 48.81234375 -19.515625 47.4921875 C-19.48984375 46.50476562 -19.4640625 45.51734375 -19.4375 44.5 C-20.84128906 44.07460937 -20.84128906 44.07460937 -22.2734375 43.640625 C-28.19097025 41.50739097 -31.25793675 36.72356819 -34.4375 31.5 C-36.53788841 25.19883477 -36.35871715 17.88453597 -33.9375 11.6875 C-31.1201277 6.17307022 -26.61782527 2.09549875 -21.109375 -0.66796875 C-14.63928998 -2.68277593 -6.26280809 -2.77528358 0 0 Z M-17.9375 16.625 C-19.72702585 20.05492454 -20.22985586 21.69669187 -19.4375 25.5 C-16.93348994 28.58667706 -16.93348994 28.58667706 -13.4375 30.5 C-9.74084521 30.5739331 -8.06183054 29.94360328 -5.0625 27.8125 C-2.91074855 24.75039216 -2.83738095 23.17572916 -3.4375 19.5 C-4.77865399 16.49020117 -4.77865399 16.49020117 -7.4375 14.5 C-11.75974153 13.40172551 -14.52368622 13.72325829 -17.9375 16.625 Z M300.0625 16.625 C298.27297415 20.05492454 297.77014414 21.69669187 298.5625 25.5 C301.06651006 28.58667706 301.06651006 28.58667706 304.5625 30.5 C308.25915479 30.5739331 309.93816946 29.94360328 312.9375 27.8125 C315.08925145 24.75039216 315.16261905 23.17572916 314.5625 19.5 C313.22134601 16.49020117 313.22134601 16.49020117 310.5625 14.5 C306.24025847 13.40172551 303.47631378 13.72325829 300.0625 16.625 Z M-19.4375 78.5 C-20.27083333 81.5 -20.27083333 81.5 -19.4375 84.5 C-16.98155875 87.82274404 -15.5118356 89.27618008 -11.4375 90.125 C-7.3631644 89.27618008 -5.89344125 87.82274404 -3.4375 84.5 C-2.60416667 81.5 -2.60416667 81.5 -3.4375 78.5 C-5.89344125 75.17725596 -7.3631644 73.72381992 -11.4375 72.875 C-15.5118356 73.72381992 -16.98155875 75.17725596 -19.4375 78.5 Z M298.5625 78.5 C297.72916667 81.5 297.72916667 81.5 298.5625 84.5 C301.01844125 87.82274404 302.4881644 89.27618008 306.5625 90.125 C310.6368356 89.27618008 312.10655875 87.82274404 314.5625 84.5 C315.39583333 81.5 315.39583333 81.5 314.5625 78.5 C312.10655875 75.17725596 310.6368356 73.72381992 306.5625 72.875 C302.4881644 73.72381992 301.01844125 75.17725596 298.5625 78.5 Z M-17.4375 134.5 C-19.78299674 138.01824511 -20.01741403 139.35775694 -19.4375 143.5 C-16.98155875 146.82274404 -15.5118356 148.27618008 -11.4375 149.125 C-7.3631644 148.27618008 -5.89344125 146.82274404 -3.4375 143.5 C-2.68734805 140.45691709 -2.68734805 140.45691709 -3.4375 137.5 C-5.53504258 134.51503556 -6.93102636 133.64772148 -10.4375 132.625 C-13.59564262 132.49341072 -14.89463491 132.6836678 -17.4375 134.5 Z M300.5625 134.5 C298.21700326 138.01824511 297.98258597 139.35775694 298.5625 143.5 C301.01844125 146.82274404 302.4881644 148.27618008 306.5625 149.125 C310.6368356 148.27618008 312.10655875 146.82274404 314.5625 143.5 C315.31265195 140.45691709 315.31265195 140.45691709 314.5625 137.5 C312.46495742 134.51503556 311.06897364 133.64772148 307.5625 132.625 C304.40435738 132.49341072 303.10536509 132.6836678 300.5625 134.5 Z M-17.4375 194.5 C-19.78798538 198.02572807 -20.10147817 199.35013645 -19.4375 203.5 C-16.93348994 206.58667706 -16.93348994 206.58667706 -13.4375 208.5 C-9.44815066 208.65957397 -8.00191122 207.99205081 -5 205.375 C-2.93919327 201.58311561 -3.29699467 199.60581917 -4.4375 195.5 C-6.02595891 193.11731164 -7.12816646 192.61396499 -9.8125 191.625 C-13.25639713 191.4610049 -14.71945751 192.44310298 -17.4375 194.5 Z M300.5625 194.5 C298.23372638 197.37594836 298.23372638 197.37594836 298.625 200.9375 C299.29910225 204.57336832 299.29910225 204.57336832 301.75 207 C304.48161765 208.74019608 304.48161765 208.74019608 307.625 208.5 C311.01970755 207.34435488 312.50001175 206.43507943 314.5625 203.5 C315.21379323 199.67365226 314.87780797 198.02551328 312.875 194.6875 C308.42462291 190.47768384 305.31723308 190.90182362 300.5625 194.5 Z M-19.4375 256.5 C-20.27083333 259.5 -20.27083333 259.5 -19.4375 262.5 C-17.52083333 265.58333333 -17.52083333 265.58333333 -14.4375 267.5 C-10.44547809 267.57003547 -8.28353384 267.08571574 -5 264.8125 C-2.91227506 261.72266708 -2.7649026 260.1619192 -3.4375 256.5 C-5.89344125 253.17725596 -7.3631644 251.72381992 -11.4375 250.875 C-15.5118356 251.72381992 -16.98155875 253.17725596 -19.4375 256.5 Z M298.5625 256.5 C297.81234805 259.54308291 297.81234805 259.54308291 298.5625 262.5 C300.63145165 265.44427735 302.07159927 266.34332955 305.5 267.4375 C309.16122681 267.51221891 310.6929674 266.71363944 313.5625 264.5 C315.00680855 261.61138291 314.93938506 259.70352299 314.5625 256.5 C312.10655875 253.17725596 310.6368356 251.72381992 306.5625 250.875 C302.4881644 251.72381992 301.01844125 253.17725596 298.5625 256.5 Z M137.2890625 277.0234375 C134.90785196 279.05985737 132.74908508 279.25133665 129.6875 279.8125 C124.51801146 280.97740952 124.51801146 280.97740952 120.375 284.0625 C118.31634344 287.96684865 118.20232374 290.65583561 118.0078125 294.98046875 C117.47692142 297.9841946 116.44082327 299.36302562 114.5 301.6875 C112.30339649 304.35328095 111.5717968 305.46066738 110.75 308.9375 C111.77906875 313.44957067 113.99735294 315.70024186 116.95703125 319.16796875 C119.11233667 322.29866787 119.13839567 324.71178559 119.26171875 328.41796875 C119.79693778 332.12279659 121.93909229 333.94057784 124.5625 336.5 C126.95501145 337.69625572 128.64654411 337.63689884 131.3125 337.75 C136.5364277 338.19840581 138.578596 340.1094434 142.5625 343.5 C145.67869784 344.71317626 148.25995919 345.08054615 151.5625 344.5 C154.01705506 342.89754437 156.10864928 341.08408581 158.30078125 339.140625 C161.3831689 336.90469614 163.77508563 336.92407771 167.48046875 336.80078125 C171.18529659 336.26556222 173.00307784 334.12340771 175.5625 331.5 C176.75097201 329.12305598 176.66391265 327.52321098 176.75 324.875 C177.18199729 319.69848072 178.98803195 317.2642696 182.25 313.375 C184.35959669 310.36129044 184.16231656 308.0322531 183.5625 304.5 C181.91110695 300.9613006 180.84644771 299.68929847 177.5625 297.5 C176.65491617 294.24672848 176.10029659 290.98734452 175.50390625 287.6640625 C174.46376553 284.16815385 173.36027687 282.7748783 170.5625 280.5 C168.18555598 279.31152799 166.58571098 279.39858735 163.9375 279.3125 C158.76098072 278.88050271 156.3267696 277.07446805 152.4375 273.8125 C147.22098206 270.16093744 141.08675113 272.48019036 137.2890625 277.0234375 Z M20.5625 305.5 C19.72916667 308.5 19.72916667 308.5 20.5625 311.5 C22.18117966 313.21331016 23.84483601 314.88594114 25.5625 316.5 C26.45453125 316.07847656 27.3465625 315.65695312 28.265625 315.22265625 C29.43609375 314.67480469 30.6065625 314.12695312 31.8125 313.5625 C32.97265625 313.01722656 34.1328125 312.47195313 35.328125 311.91015625 C43.41226691 308.38554848 52.02283018 308.32653575 60.375 311.1875 C64.98525547 313.05164678 68.68786912 315.40029529 72.5625 318.5 C75.26383777 317.21166968 77.66893472 315.7653012 80.125 314.0625 C84.92951811 310.99269448 90.04718274 309.74702945 95.5625 308.5 C95.8925 305.86 96.2225 303.22 96.5625 300.5 C87.39170997 300.38407909 78.22117265 300.29527155 69.04980946 300.24093914 C64.79099945 300.21486027 60.53269117 300.17949449 56.27416992 300.12280273 C52.1633328 300.06842037 48.05297782 300.03856659 43.9418087 300.02561378 C42.3744822 300.01638492 40.80718168 299.99836251 39.24006081 299.97134972 C37.04203192 299.93497342 34.84598721 299.93005775 32.64770508 299.93237305 C31.39750076 299.92126999 30.14729645 299.91016693 28.85920715 299.89872742 C24.65048812 300.66633802 23.1815965 302.18648899 20.5625 305.5 Z M81.98046875 333.5625 C79.10360488 337.49342143 78.96739997 341.80625325 79.5625 346.5 C81.78109036 353.39664659 85.7145991 357.148505 91.8125 360.875 C97.5021304 362.16809782 102.78625864 361.42101404 107.9375 358.75 C110.59419892 356.4728295 112.70491981 354.47212831 114.5625 351.5 C114.20772287 347.97351536 112.74272338 346.45914411 110.25 344.0625 C106.16112984 339.63009771 104.86418338 335.0205931 103.38671875 329.2578125 C102.76672866 326.38755188 102.76672866 326.38755188 100.5625 324.5 C91.72374893 323.65012009 87.45254457 327.18445136 81.98046875 333.5625 Z M192.5625 325.5 C192.2904379 327.01704194 192.04510919 328.53890983 191.8125 330.0625 C190.20401949 338.34144378 186.23421257 343.5350046 179.5625 348.5 C182.09476913 354.54930958 185.47498566 357.99054854 191.375 360.875 C197.0744671 361.99254257 201.72802083 361.46915881 206.875 358.75 C211.02825514 355.27285616 213.30833784 353.06707342 214.19921875 347.57421875 C214.24791973 346.11269238 214.26375128 344.6497729 214.25 343.1875 C214.24564941 342.43073975 214.24129883 341.67397949 214.23681641 340.89428711 C214.04912174 336.29477463 213.47294623 333.21041986 210.4375 329.5625 C206.13459518 325.7002541 202.49990476 324.5952822 196.75 324.3125 C193.7035043 324.13754108 193.7035043 324.13754108 192.5625 325.5 Z M232.984375 330.21875 C228.87454316 335.79300468 227.91554336 340.64225963 228.5625 347.5 C230.74972199 353.48608122 234.29285716 357.16491598 239.75 360.375 C245.46683089 362.06193371 250.49656908 362.09511271 255.875 359.296875 C261.34893934 355.47316738 263.72826653 351.65816958 265.4375 345.1875 C265.62426208 339.67801861 264.65534282 334.92274908 260.9765625 330.6640625 C256.00089583 326.20986308 251.53078215 323.97165416 244.6796875 324.19140625 C240.03238892 324.86878003 236.16989949 326.74936689 232.984375 330.21875 Z M130.5625 354.5 C129.72091464 355.76538369 128.88950252 357.03753779 128.0625 358.3125 C127.5984375 359.02019531 127.134375 359.72789062 126.65625 360.45703125 C125.32650625 362.55458124 125.32650625 362.55458124 125.5625 365.5 C128.59319678 367.18721053 131.63861678 368.84591379 134.6875 370.5 C135.5434375 370.97695313 136.399375 371.45390625 137.28125 371.9453125 C143.56994102 375.47464358 143.56994102 375.47464358 150.5625 375.5 C153.97563995 374.04031108 157.19672554 372.30585324 160.4375 370.5 C161.31664062 370.02304687 162.19578125 369.54609375 163.1015625 369.0546875 C165.2615417 367.88078576 167.41457214 366.69576677 169.5625 365.5 C168.42796069 362.02011052 167.30033087 358.72740018 165.5625 355.5 C164.263125 355.933125 164.263125 355.933125 162.9375 356.375 C161.82375 356.74625 160.71 357.1175 159.5625 357.5 C158.675625 357.87125 157.78875 358.2425 156.875 358.625 C147.08325678 361.21149821 139.36673471 358.90211736 130.5625 354.5 Z M60 400.5625 C56.30828924 404.53743725 51.85224429 404.42237339 46.6953125 405.02734375 C40.95705787 405.8930904 37.84202613 407.88375646 34.1875 412.5 C32.48938072 415.7839662 32.39795302 418.58501477 32.3125 422.25 C32.01966462 428.75745295 29.35721864 432.00418511 25.38671875 436.97265625 C22.65651117 440.75519223 22.33372679 442.84827807 22.5625 447.5 C23.7082837 452.45596917 25.44948915 456.31573354 29.5625 459.5 C30.2225 459.5 30.8825 459.5 31.5625 459.5 C31.72105469 460.65757812 31.87960938 461.81515625 32.04296875 463.0078125 C32.27760615 464.54703385 32.51334167 466.08608808 32.75 467.625 C32.85119141 468.38554687 32.95238281 469.14609375 33.05664062 469.9296875 C33.9519265 475.54337188 35.54281311 478.46181762 39.5625 482.5 C43.52757231 485.30456334 46.65905732 485.60038253 51.375 485.75 C58.21950232 486.12504122 61.65353289 489.00928569 66.5625 493.5 C70.51095409 495.47422704 75.25893558 494.93889042 79.5625 494.5 C83.21565589 492.67342206 85.18204053 490.96742163 87.75 487.8125 C91.46518359 484.7577935 94.22681089 484.96782466 98.91015625 484.72265625 C103.95945052 484.29878324 106.72389387 482.30048767 110.3125 478.875 C113.5523001 474.67987423 114.42647544 469.64039319 114.65234375 464.42578125 C114.92717866 458.83014241 117.05870253 456.21182818 120.96875 452.26171875 C123.25117577 449.73874321 123.54658589 447.66232395 123.875 444.3125 C123.49733806 439.70502434 122.26458458 436.25504591 119.5625 432.5 C118.30179688 431.63761719 118.30179688 431.63761719 117.015625 430.7578125 C113.74031121 427.7432721 113.49680066 424.78723123 113 420.5625 C112.3347872 415.18659505 111.51591826 411.45341826 107.5625 407.5 C102.74073195 403.8965802 98.47076886 403.2774144 92.59375 403.5390625 C88.26889687 403.45589225 85.56938938 400.51681378 82.4375 397.875 C78.52436901 394.64241353 75.64717322 394.19703522 70.61328125 394.2890625 C65.76282848 394.78796621 63.05943253 396.90610502 60 400.5625 Z M207.375 401.125 C204.06657305 403.91878276 202.418789 403.98857853 198.1875 404.5 C191.02587842 405.36684786 187.3109309 407.11026856 182.6875 412.8125 C180.7709792 417.39085524 180.63294835 422.16148137 180.375 427.0625 C179.41101601 431.14089379 177.77599134 432.87440364 175 435.890625 C172.53067479 438.65519562 171.58356161 440.88427391 171.53515625 444.59765625 C171.97798448 451.39904369 174.41740841 455.35490841 179.25 460.1875 C182.31507419 463.70769127 182.04401779 467.38692193 182.26953125 471.87890625 C182.82636415 476.86070458 185.5387973 479.57617074 189.125 482.8125 C192.90550806 485.42977481 195.7202966 485.54419787 200.1875 485.625 C207.09405412 486.11114095 210.59849262 488.95893495 215.5625 493.5 C219.56898124 495.50324062 224.21853448 495.13227531 228.5625 494.5 C232.28573294 492.58380845 235.2791643 490.04288674 237.953125 486.828125 C240.21377556 484.96253959 241.91557805 485.13128167 244.8125 485.0625 C251.48946349 484.61266494 255.29462518 482.94691757 259.9375 477.9375 C262.46839585 474.14115622 262.60718078 471.3155053 262.6875 466.875 C263.1169222 460.84853257 264.99313169 457.91620899 268.90234375 453.453125 C272.05881059 449.7396346 272.62621065 446.7105024 272.375 441.9375 C271.39984506 437.81184448 270.10718178 435.02451622 267.06640625 432.0234375 C262.62478133 427.52855569 262.08147978 424.38584707 261.81640625 418.15234375 C261.41610789 413.97076545 260.09510851 411.85399506 257.5625 408.5 C252.70849305 404.6572445 249.72691541 403.4312884 243.625 403.625 C238.51371259 403.68179208 235.90816089 401.58309291 232 398.4375 C227.88473185 395.16638942 225.13206981 394.03227459 219.71484375 394.18359375 C214.63532087 394.93031127 210.63553961 397.21235247 207.375 401.125 Z " fill="#000000" transform="translate(108.4375,1.5)"/>
<path d="M0 0 C8.5384932 6.06292312 13.0184488 14.86213549 14.8828125 25.05859375 C16.06654452 36.46775559 14.06829947 48.36930972 6.71875 57.5 C0.84605251 63.8131498 -5.51192853 67.17941855 -14.17578125 67.68359375 C-22.14987625 67.41738724 -27.97179249 64.53197158 -33.703125 59.0546875 C-42.7167547 48.23489155 -43.83025798 36.0918285 -42.75 22.59765625 C-41.07443836 14.03816064 -36.56951856 6.36318664 -29.66015625 0.96484375 C-20.50821769 -5.0001069 -9.57581429 -5.50916239 0 0 Z M-22.75 16.59765625 C-27.39078038 23.24371211 -27.73173939 30.74374109 -26.75 38.59765625 C-25.17088577 43.93455568 -22.56259427 47.66314755 -17.75 50.59765625 C-14.54045028 51.80123739 -13.34290168 51.85795455 -10.1875 50.47265625 C-5.84333062 47.1309875 -2.54378503 42.94563664 -1.265625 37.5546875 C-0.37990021 30.40376234 -1.09956888 24.56843227 -4.625 18.22265625 C-7.47352205 14.70389372 -9.07001207 12.85330659 -13.625 12.16015625 C-17.76176166 12.73930288 -19.62078074 13.80856952 -22.75 16.59765625 Z " fill="#000000" transform="translate(195.75,414.40234375)"/>
<path d="M0 0 C6.36288655 3.64970766 10.50343319 8.54148019 13.8046875 15.03515625 C14.12566406 15.65519531 14.44664062 16.27523438 14.77734375 16.9140625 C18.63200799 26.07561333 18.28996582 38.84233501 15.1796875 48.16015625 C11.80350348 55.91111392 6.46469416 63.50977133 -1.4453125 67.0390625 C-8.99414548 69.66935899 -16.02673365 69.68424915 -23.3828125 66.41015625 C-28.83917534 63.37761382 -33.82257751 58.89720741 -36.1953125 53.03515625 C-36.0478122 49.49514897 -35.56627751 47.55725515 -33.5078125 44.66015625 C-31.1953125 43.03515625 -31.1953125 43.03515625 -28.4453125 42.34765625 C-24.19613931 43.24651981 -22.18436634 45.32294708 -19.125 48.30859375 C-16.42759194 50.72206412 -14.42247689 52.09808776 -10.7578125 51.91015625 C-6.24553801 50.36937959 -3.87489322 48.13654569 -1.3828125 44.09765625 C0.97223898 37.75399158 0.91877713 30.42163505 -1.1796875 24.04296875 C-3.88494409 18.24355923 -3.88494409 18.24355923 -9.1953125 15.03515625 C-12.91582935 14.56019665 -14.59670586 14.64095187 -17.7578125 16.72265625 C-20.26818737 19.03762463 -20.26818737 19.03762463 -22.6328125 21.78515625 C-25.1953125 24.03515625 -25.1953125 24.03515625 -28.1953125 24.66015625 C-32.2696481 23.81133633 -33.73937125 22.35790029 -36.1953125 19.03515625 C-36.98603774 15.80037116 -36.72106001 14.02142696 -35.15625 11.0859375 C-27.20888532 -0.5687174 -13.35532619 -5.95725131 0 0 Z " fill="#000000" transform="translate(342.1953125,412.96484375)"/>
</svg>
