<?xml version="1.0" encoding="UTF-8"?>
<svg version="1.1" xmlns="http://www.w3.org/2000/svg" width="512" height="512">
<path d="M0 0 C5.85817388 1.67823131 9.77499834 7.22542627 13.1328125 12.00390625 C13.77404053 12.9158374 13.77404053 12.9158374 14.42822266 13.84619141 C23.64265964 27.34480607 29.43759719 43.21174118 30.1953125 59.62890625 C30.246875 60.31984375 30.2984375 61.01078125 30.3515625 61.72265625 C31.35257463 86.080618 21.32549344 108.81910145 5.1953125 126.62890625 C3.54035775 128.3072031 1.87663677 129.97702724 0.1953125 131.62890625 C2.74010579 137.86066651 8.35622678 142.6744102 12.94799805 147.46630859 C14.14554723 148.73186914 15.32573854 150.01410463 16.48706055 151.31298828 C23.71351052 159.69565516 23.71351052 159.69565516 33.71875 163.40893555 C36.68477897 163.48263936 39.56087367 163.28711452 42.50805664 162.96655273 C47.67296833 162.49359552 51.13675476 163.42800599 55.1953125 166.62890625 C56.42293826 168.08193215 57.64983235 169.53563774 58.86450195 170.99951172 C62.73478562 175.78446922 62.73478562 175.78446922 68.34521484 177.83789062 C73.4723504 177.48125769 78.30676312 176.15908525 83.1953125 174.62890625 C71.08561439 161.84807239 59.31863069 150.34343451 44.3125 140.95458984 C41.04362849 138.90777569 37.83230258 136.7819994 34.6328125 134.62890625 C33.62089844 133.96890625 32.60898438 133.30890625 31.56640625 132.62890625 C28.92808724 130.40350372 28.0834796 128.93309934 27.1953125 125.62890625 C27.27382822 121.7816361 27.76069667 120.14254314 30.2578125 117.19140625 C34.13879323 115.1270548 37.09359712 115.43875945 41.1953125 116.62890625 C44.2610702 118.29593225 46.94957552 120.35849169 49.6953125 122.50390625 C51.12033549 123.58735069 52.54752076 124.6679555 53.9765625 125.74609375 C55.12103096 126.62385468 55.12103096 126.62385468 56.28862 127.51934814 C59.1993457 129.68673969 59.1993457 129.68673969 62.4322052 131.62908936 C74.69816046 139.25386123 84.27550399 149.38696509 94.14980125 159.788311 C97.23973984 163.03969938 100.36160565 166.25924947 103.49031067 169.47329712 C104.57169616 170.58485646 105.65307024 171.6964269 106.73443317 172.80800819 C107.27526842 173.3638935 107.81610366 173.91977881 108.37332785 174.49250913 C115.62740083 181.95271531 122.85634537 189.43524308 130.01635742 196.98583984 C134.8822146 202.11661683 139.791655 207.2013136 144.75224191 212.24060786 C147.3591047 214.8923984 149.94059486 217.5603822 152.4689846 220.28727341 C166.40856221 235.28695207 178.00708166 241.59578148 198.75010109 243.24614334 C247.19524188 248.62839737 296.30768313 276.69720698 332.1953125 308.62890625 C333.14148438 309.46421875 334.08765625 310.29953125 335.0625 311.16015625 C338.15051007 313.93852845 341.18764508 316.76426195 344.1953125 319.62890625 C345.24235352 320.62494873 345.24235352 320.62494873 346.31054688 321.64111328 C348.61936492 323.85232678 350.90944165 326.0814943 353.1953125 328.31640625 C353.92588867 329.01717285 354.65646484 329.71793945 355.40917969 330.43994141 C363.01525662 337.96284347 366.64966567 345.86288558 367.5078125 356.50390625 C367.22030927 365.14591513 363.91618722 373.1794859 358.1953125 379.62890625 C349.56468991 386.98247737 342.23477831 389.12527835 330.95703125 388.9375 C318.75080047 387.93615812 312.02772309 380.49196591 303.84716797 372.23583984 C303.19893066 371.58180176 302.55069336 370.92776367 301.8828125 370.25390625 C300.90465576 369.26511475 300.90465576 369.26511475 299.90673828 368.25634766 C294.61977527 362.95359088 289.10283243 358.2358559 283.1953125 353.62890625 C282.43605469 352.99082031 281.67679687 352.35273438 280.89453125 351.6953125 C245.58840677 322.20431441 202.03593746 309.19898388 157.1953125 303.62890625 C163.54811919 350.43502155 176.90411768 392.51136617 207.1953125 429.62890625 C207.63391602 430.17047363 208.07251953 430.71204102 208.52441406 431.27001953 C213.27690702 437.09768334 218.17590393 442.68778375 223.5625 447.94140625 C224.31845459 448.67907227 225.07440918 449.41673828 225.85327148 450.17675781 C227.32986753 451.60322202 228.81833812 453.01753674 230.32055664 454.41699219 C237.64332605 461.45657003 242.21290906 469.4938201 242.4453125 479.81640625 C242.29667921 488.7789936 239.14039096 496.91270883 233.1953125 503.62890625 C224.61412062 511.04894676 216.94455824 513.15594135 205.69140625 512.9296875 C195.39737723 512.04405595 189.28276647 506.67053617 182.1953125 499.62890625 C180.83101679 498.30178759 179.46640831 496.97499042 178.1015625 495.6484375 C170.28185782 487.99184111 162.87911554 480.30415899 156.1953125 471.62890625 C155.32125206 470.54246358 154.44481039 469.45793374 153.56640625 468.375 C120.6761284 427.61526916 90.8831606 367.49707358 92.84765625 313.6015625 C93.1953125 311.62890625 93.1953125 311.62890625 94.8203125 309.00390625 C97.76879049 307.29689268 99.77828738 306.69864146 103.1953125 306.62890625 C107.04401916 308.29084776 108.62777373 309.80855441 110.1953125 313.62890625 C110.54837492 315.42306446 110.82782494 317.23243566 111.0546875 319.046875 C111.19753174 320.12372559 111.34037598 321.20057617 111.48754883 322.31005859 C111.63861084 323.46715332 111.78967285 324.62424805 111.9453125 325.81640625 C115.9159891 354.12195643 123.68456141 380.92698608 136.1953125 406.62890625 C136.60765137 407.47952637 137.01999023 408.33014648 137.44482422 409.20654297 C148.70324169 432.1664872 163.0774243 453.16258984 180.5625 471.8125 C183.06400496 474.48844225 185.51025333 477.2050601 187.9453125 479.94140625 C196.90476469 490.71135583 196.90476469 490.71135583 209.6328125 495.06640625 C214.52814665 494.87653663 217.29446884 493.59354743 221.1953125 490.62890625 C223.86726732 486.83645424 224.81862722 483.35053582 224.59667969 478.67700195 C222.98171254 470.43615076 215.17736826 464.33559773 209.4453125 458.81640625 C202.54710235 452.03901186 195.97445318 445.39851417 190.1953125 437.62890625 C189.31142545 436.4737842 188.42729338 435.3188496 187.54296875 434.1640625 C181.11213053 425.67362398 175.4188193 416.90594381 170.1953125 407.62890625 C169.7945752 406.92846191 169.39383789 406.22801758 168.98095703 405.50634766 C156.12146672 382.86540981 147.5541707 357.79521729 142.9453125 332.19140625 C142.6836731 330.75595459 142.6836731 330.75595459 142.41674805 329.29150391 C141.60557081 324.46672744 141.11894994 319.88406354 141.2109375 314.98828125 C141.27442383 304.00033615 139.71948767 298.1067114 131.91015625 289.97924805 C127.80109758 286.03586583 123.5903627 282.25080824 119.1953125 278.62890625 C115.80375242 279.96199686 112.60297617 281.42258366 109.3828125 283.12890625 C105.01195471 285.32078184 101.01673005 286.8402729 96.1953125 287.62890625 C95.39867187 287.76296875 94.60203125 287.89703125 93.78125 288.03515625 C80.2333852 289.79358118 65.53591108 287.31816631 54.14978027 279.55149841 C46.34384011 273.53388886 39.19983713 267.12234781 32.2265625 260.1640625 C31.13304912 259.08024153 30.03933493 257.99662314 28.94543457 256.91319275 C26.67138588 254.6569272 24.40343542 252.39473341 22.13916016 250.12866211 C19.8534555 247.84271418 17.55769406 245.56772819 15.25146484 243.30249023 C2.58354385 230.85637142 -9.24998455 218.75410781 -18.61627197 203.53573608 C-20.28594714 200.85671822 -22.09721045 198.28718121 -23.92578125 195.71484375 C-24.48845703 194.91433594 -25.05113281 194.11382812 -25.63085938 193.2890625 C-26.16259766 192.53496094 -26.69433594 191.78085938 -27.2421875 191.00390625 C-31.51934787 184.93596247 -35.71531646 178.82525857 -39.8046875 172.62890625 C-46.0001169 177.68608512 -51.55443479 183.31664258 -57.14622498 189.01753998 C-59.46032685 191.37413646 -61.78413495 193.72106453 -64.10733795 196.06868362 C-68.41876467 200.42564572 -72.7261343 204.78644073 -77.01708984 209.16357422 C-80.0163425 212.22231169 -83.02774643 215.2686128 -86.04747009 218.30713654 C-87.19064794 219.46202278 -88.32928706 220.6214209 -89.46315002 221.7854538 C-91.04926115 223.41272398 -92.65044114 225.02364179 -94.25585938 226.63183594 C-95.16074097 227.55083679 -96.06562256 228.46983765 -96.9979248 229.41668701 C-100.23290175 231.96641387 -102.7736198 232.87422512 -106.8046875 233.62890625 C-110.1171875 232.69140625 -110.1171875 232.69140625 -112.8046875 230.62890625 C-114.3671875 227.31640625 -114.3671875 227.31640625 -114.8046875 223.62890625 C-112.84739139 218.60160885 -109.74908868 215.15838733 -105.95629883 211.43994141 C-105.37064651 210.85385101 -104.7849942 210.26776062 -104.18159485 209.66390991 C-102.25699917 207.74139304 -100.32202026 205.82970304 -98.38671875 203.91796875 C-97.04513712 202.58198628 -95.70421923 201.24533697 -94.36393738 199.90805054 C-90.84421265 196.39974925 -87.31557049 192.90055305 -83.78497314 189.40319824 C-80.17997859 185.82895836 -76.583521 182.24615103 -72.98632812 178.6640625 C-65.9340942 171.64394861 -58.8724066 164.63342731 -51.8046875 157.62890625 C-53.48884392 153.13384551 -55.8529066 149.61459009 -58.7421875 145.81640625 C-63.18546092 139.86779764 -67.48990349 133.84784962 -71.65332031 127.69995117 C-74.02425515 124.20107519 -76.43518282 120.74742539 -78.94140625 117.34375 C-79.451875 116.63790771 -79.96234375 115.93206543 -80.48828125 115.20483398 C-81.46158102 113.8613327 -82.44906996 112.52795007 -83.453125 111.20727539 C-86.1343705 107.46404831 -87.75347526 104.3101923 -87.38085938 99.61938477 C-86.14162974 95.33826644 -82.91349348 92.67545066 -79.8046875 89.62890625 C-78.71465951 88.52033004 -77.62678371 87.40963544 -76.54052734 86.29736328 C-73.38051939 83.07326472 -70.19364895 79.87725765 -66.99633789 76.69018555 C-64.97619693 74.67545854 -62.96152367 72.6553724 -60.94726562 70.63476562 C-59.66438349 69.35254335 -58.38119169 68.0706308 -57.09765625 66.7890625 C-56.4955986 66.18498062 -55.89354095 65.58089874 -55.27323914 64.95851135 C-50.03819686 59.75304959 -50.03819686 59.75304959 -45.15625 59.26171875 C-40.09171735 59.33703627 -37.11454027 61.52321199 -33.1796875 64.50390625 C-32.49817627 64.99842285 -31.81666504 65.49293945 -31.11450195 66.00244141 C-29.70328671 67.02726608 -28.29711424 68.05906971 -26.89599609 69.09765625 C-24.87660823 70.5762461 -22.82980098 72.00072151 -20.76171875 73.41015625 C-19.50519183 74.2747156 -18.24868069 75.13929788 -16.9921875 76.00390625 C-16.41194824 76.39562012 -15.83170898 76.78733398 -15.23388672 77.19091797 C-11.79712911 79.60413512 -9.57313608 81.7993433 -7.8046875 85.62890625 C-7.87659557 89.15240169 -8.43237618 91.06299305 -10.3671875 94.00390625 C-13.79704325 96.29047675 -16.8555143 96.36607379 -20.8046875 95.62890625 C-23.99816281 94.04236168 -26.73532917 91.98726209 -29.5546875 89.81640625 C-30.29589844 89.26919922 -31.03710938 88.72199219 -31.80078125 88.15820312 C-34.53976845 86.12977903 -37.25032773 84.07268962 -39.91113281 81.94262695 C-41.71186271 80.41564074 -41.71186271 80.41564074 -43.9296875 80.69140625 C-46.31510417 81.64973958 -46.31510417 81.64973958 -47.8046875 85.62890625 C-36.9146875 96.51890625 -26.0246875 107.40890625 -14.8046875 118.62890625 C-3.43385207 112.94348853 3.75903348 100.12660095 8.1328125 88.56640625 C14.05657659 70.13919545 13.50504882 50.96134808 4.9453125 33.44140625 C1.34859163 26.55212695 -2.89646365 20.68626978 -8.2421875 15.06640625 C-10.63108753 11.3397222 -10.36203762 9.01803845 -9.8046875 4.62890625 C-7.34005156 0.52117969 -4.67142646 0.16075759 0 0 Z M-64.9921875 99.37890625 C-67.04869729 101.39082818 -67.04869729 101.39082818 -66.61206055 103.47460938 C-65.63383266 106.08479471 -64.30862357 108.06941079 -62.69921875 110.34765625 C-62.05259277 111.26957764 -61.4059668 112.19149902 -60.73974609 113.14135742 C-60.03930176 114.12724854 -59.33885742 115.11313965 -58.6171875 116.12890625 C-57.89611816 117.15411377 -57.17504883 118.17932129 -56.43212891 119.2355957 C-54.94394583 121.35095797 -53.45336883 123.46463804 -51.96044922 125.57666016 C-49.42388276 129.16807056 -46.90355004 132.77059755 -44.38549805 136.375 C-42.67049709 138.82955983 -40.95285871 141.28225249 -39.234375 143.734375 C-35.75600181 148.69795204 -32.28017212 153.66330638 -28.8046875 158.62890625 C-27.63803175 160.29558056 -26.47136509 161.96224723 -25.3046875 163.62890625 C-18.3046875 173.62890625 -18.3046875 173.62890625 -16.55664062 176.12841797 C-15.3863433 177.79873363 -14.2131513 179.4670248 -13.03710938 181.13330078 C-10.14908026 185.23267102 -7.31581847 189.351974 -4.5859375 193.55859375 C4.61021145 207.53001093 15.71234787 219.50954642 28.1953125 230.62890625 C28.5253125 230.62890625 28.8553125 230.62890625 29.1953125 230.62890625 C29.32808594 229.74847656 29.46085937 228.86804688 29.59765625 227.9609375 C29.77425781 226.79949219 29.95085937 225.63804687 30.1328125 224.44140625 C30.39384766 222.71857422 30.39384766 222.71857422 30.66015625 220.9609375 C31.1953125 217.62890625 31.1953125 217.62890625 32.12109375 215.07421875 C32.47566135 212.3122429 32.47566135 212.3122429 29.7734375 209.7265625 C28.6784211 208.69932017 27.56826831 207.68802953 26.4453125 206.69140625 C20.81566045 201.5944666 17.04932995 197.17582748 16.4453125 189.25390625 C16.36796875 188.37992187 16.290625 187.5059375 16.2109375 186.60546875 C16.1953125 183.62890625 16.1953125 183.62890625 17.13276672 179.94714355 C17.46756428 177.25446719 17.42456239 176.02275199 16.04720116 173.65647888 C14.19079578 171.50002456 12.23325547 169.53120441 10.18041992 167.56054688 C9.42300003 166.79860016 8.66558014 166.03665344 7.88520813 165.25161743 C5.37812378 162.74060889 2.84043559 160.26318357 0.30078125 157.78515625 C-1.44645049 156.04963567 -3.19184497 154.31226363 -4.93547058 152.57312012 C-8.59185397 148.93505404 -12.26221455 145.31195831 -15.94458008 141.70019531 C-20.67495428 137.06043115 -25.38123858 132.39718014 -30.07880116 127.72422028 C-34.54902837 123.27870338 -39.02940343 118.84348034 -43.51171875 114.41015625 C-44.37158701 113.55859451 -45.23145527 112.70703278 -46.11738014 111.82966614 C-48.53996124 109.43481404 -50.9694554 107.04723214 -53.40161133 104.66210938 C-54.12534943 103.94532013 -54.84908752 103.22853088 -55.59475708 102.49002075 C-56.25525558 101.84527802 -56.91575409 101.20053528 -57.5962677 100.53625488 C-58.17092175 99.97144661 -58.74557581 99.40663834 -59.33764362 98.82471466 C-61.80656583 96.81226092 -62.56682783 97.43861851 -64.9921875 99.37890625 Z M34.1953125 181.62890625 C32.5367165 184.43786688 32.5367165 184.43786688 32.1953125 187.62890625 C33.79486059 191.36118514 36.24493725 193.88200516 39.1953125 196.62890625 C42.41055555 195.22045907 44.51715118 193.52545839 46.9453125 191.00390625 C47.86570313 190.05644531 47.86570313 190.05644531 48.8046875 189.08984375 C49.26359375 188.60773438 49.7225 188.125625 50.1953125 187.62890625 C48.1996625 183.26227758 45.58973617 180.75129234 41.1953125 178.69140625 C38.05456731 178.59325796 36.59960769 179.66750754 34.1953125 181.62890625 Z M53.3828125 207.87890625 C46.29259125 217.68979379 45.03146886 227.84795835 46.1953125 239.62890625 C48.55965926 250.46770939 55.10950731 259.35282905 64.1953125 265.62890625 C73.86655958 270.86355327 83.7793529 273.07176778 94.58984375 270.4765625 C106.34395805 266.65251032 114.73015593 260.70419981 120.5703125 249.75390625 C125.21176771 239.67423377 126.43682337 230.37870391 123.32421875 219.6171875 C119.36090839 208.90664982 112.57621428 201.47575846 102.75 195.78515625 C84.69469059 187.61333426 65.80081632 193.14076583 53.3828125 207.87890625 Z M142.1953125 233.62890625 C140.51258045 235.3116383 140.69368879 237.53658513 140.3449707 239.79785156 C139.1545003 247.3665193 137.2616893 253.45244448 133.40234375 260.17578125 C131.90098624 262.77141751 131.90098624 262.77141751 132.1953125 266.62890625 C137.39558944 275.10531152 146.05564903 284.56797865 155.60205078 287.77246094 C162.89556147 289.13665675 170.25147413 289.27486604 177.65332031 289.45947266 C228.03948916 291.86972915 279.44955153 323.24460752 313.85546875 358.3359375 C314.47381592 358.96540283 315.09216309 359.59486816 315.72924805 360.2434082 C316.92714511 361.47021619 318.11784601 362.70410624 319.30004883 363.94604492 C323.73173676 368.49833182 327.58927204 371.29264296 334.0703125 372.12890625 C339.94068945 371.89228837 344.27934679 368.66461981 348.1953125 364.50390625 C349.99925793 359.31756314 350.56144312 353.68396628 348.26953125 348.55859375 C346.72808449 346.38510835 345.05338617 344.54223861 343.1953125 342.62890625 C342.75541992 342.16838867 342.31552734 341.70787109 341.86230469 341.23339844 C336.60903876 335.75464021 331.20955968 330.42717952 325.41796875 325.515625 C323.65385672 324.01814502 321.91925669 322.49947842 320.19140625 320.9609375 C279.00359096 284.55695911 225.39833377 260.930948 170.54296875 256.31640625 C162.46180812 254.656798 157.42644782 248.06924563 151.8828125 242.37890625 C150.26388057 240.72574475 148.64290411 239.07458205 147.01953125 237.42578125 C146.30885498 236.69713867 145.59817871 235.96849609 144.8659668 235.21777344 C143.45880149 233.51404836 143.45880149 233.51404836 142.1953125 233.62890625 Z " fill="#000000" transform="translate(129.8046875,-0.62890625)"/>
<path d="M0 0 C1.22404541 -0.00478363 2.44809082 -0.00956726 3.70922852 -0.01449585 C6.2947722 -0.01789528 8.88035884 -0.00869013 11.46582031 0.01220703 C15.42350096 0.03896784 19.37834508 0.01245625 23.3359375 -0.01953125 C25.84896459 -0.01622716 28.36198992 -0.00982097 30.875 0 C32.05843994 -0.01012115 33.24187988 -0.02024231 34.46118164 -0.03067017 C42.64623304 0.08611203 42.64623304 0.08611203 46.53466797 2.92626953 C47.16260254 3.82974121 47.79053711 4.73321289 48.4375 5.6640625 C49.24018311 6.76911133 49.24018311 6.76911133 50.05908203 7.89648438 C50.74526611 9.0034668 50.74526611 9.0034668 51.4453125 10.1328125 C51.95707031 10.95136719 52.46882813 11.76992188 52.99609375 12.61328125 C53.51300781 13.45503906 54.02992188 14.29679687 54.5625 15.1640625 C55.08714844 16.00582031 55.61179687 16.84757812 56.15234375 17.71484375 C57.58984943 20.02577061 59.01449006 22.3441953 60.4375 24.6640625 C61.04078125 25.62699219 61.6440625 26.58992188 62.265625 27.58203125 C63.99108371 30.64759623 64.11908106 32.18799907 63.4375 35.6640625 C58.00671162 43.14280352 50.70584591 49.43382768 44.11328125 55.86132812 C43.29730469 56.66634766 42.48132813 57.47136719 41.640625 58.30078125 C40.53702637 59.37912231 40.53702637 59.37912231 39.41113281 60.47924805 C37.37569807 62.73247733 35.90896207 65.01525656 34.4375 67.6640625 C35.29988281 67.76847656 36.16226563 67.87289062 37.05078125 67.98046875 C49.70723627 70.53511653 60.76452086 80.38672628 68.25 90.4765625 C76.146091 102.54847086 79.83709925 114.16491086 79.75 128.4765625 C79.74436035 129.44706543 79.7387207 130.41756836 79.73291016 131.41748047 C79.43452677 149.05164313 72.64890535 163.32339886 60.27734375 175.8515625 C47.7223668 187.54296961 31.68386682 194.01392913 14.4375 193.6640625 C-3.70799681 192.55668207 -20.45202441 186.1689753 -32.94921875 172.6484375 C-46.65441815 155.7907104 -49.59174507 138.82076676 -48.5625 117.6640625 C-48.09163565 113.65229825 -47.15626458 110.36674788 -45.5625 106.6640625 C-45.30968262 106.06432617 -45.05686523 105.46458984 -44.79638672 104.84667969 C-37.3622398 87.58868837 -26.18730712 76.24293303 -8.91015625 68.51171875 C-6.5625 67.6640625 -6.5625 67.6640625 -3.5625 67.6640625 C-8.48867092 60.39378623 -14.62554547 54.40057998 -20.875 48.2890625 C-22.39562555 46.7961197 -23.91470923 45.30168285 -25.43095398 43.80429077 C-26.79223163 42.46074893 -28.15831608 41.12208249 -29.5246582 39.78369141 C-31.93584062 37.27573816 -32.49885016 36.35149288 -32.8190918 32.89282227 C-32.51750328 29.09785739 -31.48442294 27.20584356 -29.45703125 24.00390625 C-28.47573242 22.4425293 -28.47573242 22.4425293 -27.47460938 20.84960938 C-26.78173828 19.77775391 -26.08886719 18.70589844 -25.375 17.6015625 C-24.70146484 16.52583984 -24.02792969 15.45011719 -23.33398438 14.34179688 C-19.60842992 8.4790463 -19.60842992 8.4790463 -17.5625 5.6640625 C-16.91885498 4.73875732 -16.27520996 3.81345215 -15.61206055 2.86010742 C-10.7554094 -0.63725684 -5.8373562 -0.04992293 0 0 Z M-11.36157227 26.48461914 C-12.61836097 29.81195381 -12.73568485 30.48962424 -11.5625 33.6640625 C-9.68558678 35.79664352 -7.80807949 37.76724669 -5.77734375 39.7421875 C-5.20166153 40.31362488 -4.62597931 40.88506226 -4.03285217 41.47381592 C-2.19549681 43.29440052 -0.34797868 45.10426818 1.5 46.9140625 C2.74873138 48.14774503 3.99678669 49.38211228 5.24414062 50.6171875 C8.3008102 53.64080905 11.36663526 56.65486171 14.4375 59.6640625 C18.49235012 58.03678313 21.28062954 55.16111299 24.33203125 52.140625 C24.88364426 51.59804047 25.43525726 51.05545593 26.00358582 50.49642944 C27.16354491 49.3509404 28.3207449 48.20265149 29.4753418 47.05175781 C31.24928562 45.28977206 33.04103036 43.54729834 34.83398438 41.8046875 C35.95947714 40.68865232 37.08386557 39.5715021 38.20703125 38.453125 C38.7464888 37.93319977 39.28594635 37.41327454 39.8417511 36.87759399 C42.61750272 34.24231435 42.61750272 34.24231435 43.44433594 30.68676758 C43.11208008 30.0192749 42.77982422 29.35178223 42.4375 28.6640625 C42.04747803 27.68703369 41.65745605 26.71000488 41.25561523 25.70336914 C38.07162739 19.63632696 38.07162739 19.63632696 32.51153564 15.93475342 C27.73040734 14.92238629 22.96113846 14.91210816 18.09301758 15.04467773 C15.50100415 15.10154047 12.93632575 15.02499765 10.34570312 14.93554688 C-0.45397203 14.85268024 -6.04894145 16.77775504 -11.36157227 26.48461914 Z M-20.96875 97.7265625 C-30.81140124 109.69213852 -33.02770632 122.59040696 -31.5625 137.6640625 C-29.32063894 149.54058837 -22.0076922 160.20396154 -12.5625 167.6640625 C0.20168833 175.3225755 13.3435319 177.8287392 27.9609375 174.9765625 C39.45179759 171.43182417 49.95553478 164.01908234 56.265625 153.6640625 C62.81201958 140.95261671 65.09997558 127.00012917 60.8125 113.1015625 C55.73098944 100.24728841 46.88322312 90.77849179 34.4296875 84.85546875 C14.36851342 76.86766445 -6.22527727 82.14855358 -20.96875 97.7265625 Z " fill="#000000" transform="translate(344.5625,31.3359375)"/>
<path d="M0 0 C0.66 -0.0103125 1.32 -0.020625 2 -0.03125 C4.95248638 0.7530042 6.09363584 2.13431788 8 4.5 C8.54589844 7.52441406 8.54589844 7.52441406 8.609375 11.015625 C8.64160156 12.26601563 8.67382812 13.51640625 8.70703125 14.8046875 C8.72121094 16.10664063 8.73539063 17.40859375 8.75 18.75 C8.77964844 20.06742187 8.80929688 21.38484375 8.83984375 22.7421875 C8.91055388 25.99485343 8.96324786 29.24680193 9 32.5 C9.73895508 32.75177002 10.47791016 33.00354004 11.23925781 33.26293945 C12.21733398 33.60542725 13.19541016 33.94791504 14.203125 34.30078125 C15.16895508 34.63505127 16.13478516 34.96932129 17.12988281 35.3137207 C26.87519611 39.34166195 34.26321644 47.90670571 38.4375 57.4375 C41.73517538 67.58748785 41.61504795 80.3074692 37.3203125 90.11328125 C31.72325877 100.23103222 23.41787109 108.22288576 12.28515625 111.83984375 C0.30624065 114.2470218 -11.91121572 113.54405611 -22.41796875 106.9921875 C-31.22085629 100.65174924 -37.83661945 92.26569846 -40 81.5 C-41.33804566 69.08281916 -40.27526374 58.11109291 -32.8125 47.75 C-27.53270281 41.48374389 -21.99112927 36.99617912 -14.203125 34.30078125 C-13.22504883 33.95829346 -12.24697266 33.61580566 -11.23925781 33.26293945 C-10.50030273 33.01116943 -9.76134766 32.75939941 -9 32.5 C-8.9906543 31.67274414 -8.98130859 30.84548828 -8.97167969 29.99316406 C-8.91799681 26.24483585 -8.8343429 22.49775838 -8.75 18.75 C-8.73582031 17.44804687 -8.72164062 16.14609375 -8.70703125 14.8046875 C-8.67480469 13.55429687 -8.64257812 12.30390625 -8.609375 11.015625 C-8.5779541 9.28747559 -8.5779541 9.28747559 -8.54589844 7.52441406 C-7.6776079 2.71386703 -4.9830891 -0.07786077 0 0 Z M-19.5546875 59.40234375 C-23.67977895 65.38930081 -23.71608142 71.44935212 -23 78.5 C-21.22657567 85.14472914 -16.5533353 89.67367959 -11 93.5 C-5.00112996 96.44062257 1.8828353 96.59883788 8.3125 94.8828125 C14.44132861 92.17750925 19.23952792 87.09136305 22.171875 81.109375 C24.07805857 75.10309848 24.06438687 67.99708442 21.5 62.1875 C18.01537862 56.24752263 12.5654417 51.58364317 6 49.5 C-5.43445097 48.14363754 -12.17817489 50.77353946 -19.5546875 59.40234375 Z " fill="#000000" transform="translate(176,367.5)"/>
<path d="M0 0 C0.66 -0.0103125 1.32 -0.020625 2 -0.03125 C4.95248638 0.7530042 6.09363584 2.13431788 8 4.5 C8.54589844 7.52441406 8.54589844 7.52441406 8.609375 11.015625 C8.64160156 12.26601563 8.67382812 13.51640625 8.70703125 14.8046875 C8.72121094 16.10664063 8.73539063 17.40859375 8.75 18.75 C8.77964844 20.06742187 8.80929688 21.38484375 8.83984375 22.7421875 C8.91055388 25.99485343 8.96324786 29.24680193 9 32.5 C9.73895508 32.75177002 10.47791016 33.00354004 11.23925781 33.26293945 C12.21733398 33.60542725 13.19541016 33.94791504 14.203125 34.30078125 C15.16895508 34.63505127 16.13478516 34.96932129 17.12988281 35.3137207 C26.87519611 39.34166195 34.26321644 47.90670571 38.4375 57.4375 C41.73517538 67.58748785 41.61504795 80.3074692 37.3203125 90.11328125 C31.72325877 100.23103222 23.41787109 108.22288576 12.28515625 111.83984375 C0.30624065 114.2470218 -11.91121572 113.54405611 -22.41796875 106.9921875 C-31.22085629 100.65174924 -37.83661945 92.26569846 -40 81.5 C-41.33804566 69.08281916 -40.27526374 58.11109291 -32.8125 47.75 C-27.53270281 41.48374389 -21.99112927 36.99617912 -14.203125 34.30078125 C-13.22504883 33.95829346 -12.24697266 33.61580566 -11.23925781 33.26293945 C-10.50030273 33.01116943 -9.76134766 32.75939941 -9 32.5 C-8.9906543 31.67274414 -8.98130859 30.84548828 -8.97167969 29.99316406 C-8.91799681 26.24483585 -8.8343429 22.49775838 -8.75 18.75 C-8.73582031 17.44804687 -8.72164062 16.14609375 -8.70703125 14.8046875 C-8.67480469 13.55429687 -8.64257812 12.30390625 -8.609375 11.015625 C-8.5779541 9.28747559 -8.5779541 9.28747559 -8.54589844 7.52441406 C-7.6776079 2.71386703 -4.9830891 -0.07786077 0 0 Z M-19.5546875 59.40234375 C-23.67977895 65.38930081 -23.71608142 71.44935212 -23 78.5 C-21.22657567 85.14472914 -16.5533353 89.67367959 -11 93.5 C-5.00112996 96.44062257 1.8828353 96.59883788 8.3125 94.8828125 C14.44132861 92.17750925 19.23952792 87.09136305 22.171875 81.109375 C24.07805857 75.10309848 24.06438687 67.99708442 21.5 62.1875 C18.01537862 56.24752263 12.5654417 51.58364317 6 49.5 C-5.43445097 48.14363754 -12.17817489 50.77353946 -19.5546875 59.40234375 Z " fill="#000000" transform="translate(80,367.5)"/>
<path d="M0 0 C1.01449219 0.20882813 2.02898437 0.41765625 3.07421875 0.6328125 C12.47466307 2.65866384 12.47466307 2.65866384 16.25 5.625 C17.5940363 8.3130726 17.46530564 10.50292012 17.56640625 13.51171875 C17.60862305 14.74615723 17.65083984 15.9805957 17.69433594 17.25244141 C17.73447798 18.60577212 17.77384709 19.95912594 17.8125 21.3125 C17.83268188 21.99318542 17.85286377 22.67387085 17.87365723 23.37518311 C18.02171621 28.45799764 18.14321361 33.54116014 18.25 38.625 C18.26544861 39.35660339 18.28089722 40.08820679 18.29681396 40.84197998 C18.38341057 45.132254 18.44680708 49.42202687 18.48117065 53.71304321 C18.49972134 55.71985431 18.5321041 57.72652215 18.56469727 59.7331543 C18.56912842 60.9581665 18.57355957 62.18317871 18.578125 63.4453125 C18.5874707 64.52055176 18.59681641 65.59579102 18.60644531 66.70361328 C18.19773584 70.05335131 17.24106676 71.92439607 15.25 74.625 C12.53112436 75.98443782 10.3629284 75.77475353 7.3190918 75.80200195 C6.07407394 75.81483719 4.82905609 75.82767242 3.54631042 75.84089661 C2.18061724 75.84906428 0.81491956 75.85650796 -0.55078125 75.86328125 C-1.23775778 75.86735678 -1.92473431 75.8714323 -2.63252831 75.87563133 C-6.26925735 75.89649176 -9.90594867 75.91079304 -13.54272461 75.92016602 C-17.29556008 75.93122525 -21.04780174 75.96561858 -24.80042744 76.00533772 C-27.68897082 76.03150911 -30.57737289 76.03985829 -33.4660244 76.04344749 C-34.84910272 76.04831289 -36.23217475 76.05992574 -37.6151371 76.07848549 C-39.55358175 76.10288099 -41.49231532 76.09949171 -43.4309082 76.0949707 C-45.08398735 76.10377007 -45.08398735 76.10377007 -46.77046204 76.11274719 C-50.4583356 75.50904622 -52.10844019 74.22078498 -54.75 71.625 C-55.8684082 68.95874023 -55.8684082 68.95874023 -56.55078125 65.93359375 C-56.80537109 64.82306641 -57.05996094 63.71253906 -57.32226562 62.56835938 C-57.56654297 61.41142578 -57.81082031 60.25449219 -58.0625 59.0625 C-58.45791992 57.36770508 -58.45791992 57.36770508 -58.86132812 55.63867188 C-59.60460175 52.28525293 -60.30033265 49.03208593 -60.75 45.625 C-60.86558762 44.78640442 -60.98117523 43.94780884 -61.1002655 43.08380127 C-61.42526447 38.94564789 -61.49115318 35.8706556 -59.32987976 32.23820496 C-57.25930452 29.83071056 -55.07900395 27.66317911 -52.76171875 25.4921875 C-51.94758011 24.68886993 -51.13344147 23.88555237 -50.29463196 23.05789185 C-47.70033319 20.51169227 -45.06978432 18.00684573 -42.4375 15.5 C-40.67793957 13.77849025 -38.92074956 12.05455413 -37.16601562 10.328125 C-33.95324964 7.19132641 -30.73876055 4.05691259 -27.48706055 0.96044922 C-26.83642136 0.33854706 -26.18578217 -0.2833551 -25.51542664 -0.92410278 C-19.18943046 -6.12305586 -7.27756924 -1.5775892 0 0 Z M-29.35571289 25.18579102 C-31.18442294 27.05934748 -33.08230347 28.83162982 -35.00195312 30.61132812 C-41.06168302 36.249966 -41.06168302 36.249966 -44.00323486 43.70001221 C-43.73249321 48.98642248 -42.11230925 53.90038151 -39.75 58.625 C-26.22 58.625 -12.69 58.625 1.25 58.625 C1.31650216 42.97244689 1.31650216 42.97244689 0.75 27.375 C0.70230469 26.51132812 0.65460938 25.64765625 0.60546875 24.7578125 C0.49188269 22.71326335 0.37177485 20.66907776 0.25 18.625 C-1.41229433 17.94750477 -3.08003511 17.28336121 -4.75 16.625 C-6.03982788 16.09531616 -6.03982788 16.09531616 -7.35571289 15.55493164 C-17.61822902 12.50932204 -22.63362898 18.22392463 -29.35571289 25.18579102 Z " fill="#000000" transform="translate(100.75,260.375)"/>
<path d="M0 0 C6.85007967 4.20412615 11.2888325 10.13614123 13.18359375 17.9296875 C14.32272695 25.65700345 12.78988777 31.7113276 8.48828125 38.23046875 C4.01634007 43.5006469 -1.61769623 46.53309566 -8.4375 47.5625 C-15.83095046 47.85221201 -22.04830824 45.97722556 -27.8125 41.3125 C-33.73305993 35.53575934 -35.65361812 30.8124162 -35.9375 22.5 C-35.69191924 15.30908851 -34.53902512 10.75692513 -29.56640625 5.53515625 C-21.52363185 -1.89946886 -10.4806088 -4.64434821 0 0 Z M-16.8125 17.125 C-18.9128727 20.19477548 -18.97043835 21.84556561 -18.4375 25.5 C-16.97687111 28.34438258 -16.03899532 29.26256764 -13.0625 30.4375 C-9.54997795 30.52113148 -8.12236404 29.74948068 -5.4375 27.5 C-3.778904 24.69103937 -3.778904 24.69103937 -3.4375 21.5 C-4.74617064 18.55549106 -5.53152863 16.95298569 -8.4375 15.5 C-12.0192622 15.11067802 -13.80031721 15.06403282 -16.8125 17.125 Z " fill="#000000" transform="translate(226.4375,208.5)"/>
</svg>
