<?xml version="1.0" encoding="UTF-8"?>
<svg version="1.1" xmlns="http://www.w3.org/2000/svg" width="512" height="512">
<path d="M0 0 C6.55093865 0.68058684 12.64006291 2.52993427 18.93359375 4.421875 C20.08432877 4.7637384 21.23506378 5.10560181 22.42066956 5.45782471 C26.09434047 6.55059792 29.76588975 7.6503256 33.4375 8.75 C35.8716171 9.47438755 38.30586074 10.19835004 40.74023438 10.921875 C45.41317339 12.31191366 50.08261182 13.71287237 54.74951172 15.12304688 C58.52952579 16.26480208 62.31400271 17.38099699 66.11376953 18.45507812 C66.85450211 18.67029114 67.59523468 18.88550415 68.3584137 19.10723877 C70.22967257 19.65070724 72.10500051 20.18011501 73.98071289 20.70800781 C78.07520519 22.46009427 80.99200464 24.98400929 83 29 C83.00409227 36.93843959 80.69800432 44.49017017 78.52734375 52.05078125 C77.98360018 53.98660141 77.43986729 55.9224246 76.89654541 57.85836315 C76.31673397 59.91917839 75.73309511 61.97887616 75.14846802 64.03833008 C73.0628173 71.39015147 71.01322658 78.75209241 68.9609375 86.11328125 C68.64582686 87.24222998 68.64582686 87.24222998 68.32435036 88.39398575 C64.09341795 103.55875584 60.03607434 118.76562041 56.0625 134 C55.74489716 135.21644196 55.42729431 136.43288391 55.10006714 137.68618774 C52.9117581 146.07288024 50.73327554 154.46211006 48.55722809 162.85198975 C47.567191 166.66839789 46.57632519 170.48459084 45.58544922 174.30078125 C45.27609074 175.49226776 45.27609074 175.49226776 44.9604826 176.70782471 C43.90172305 180.78530353 42.84261621 184.86269181 41.78297424 188.93994141 C41.57267421 189.74913025 41.36237417 190.55831909 41.14570141 191.39202881 C40.72187605 193.02277195 40.29802824 194.65350927 39.87415791 196.28424072 C38.85023555 200.22438168 37.8274432 204.16480897 36.80740356 208.10595703 C36.41987008 209.6031925 36.03232746 211.1004256 35.64477539 212.59765625 C35.36065749 213.69534836 35.36065749 213.69534836 35.07079983 214.81521606 C33.59980438 220.49179616 32.10892052 226.1630075 30.6112833 231.83261108 C29.51797881 235.98495899 28.45913326 240.14444323 27.4246521 244.31182098 C26.91530547 246.35047434 26.39476601 248.38589407 25.86962891 250.42053223 C25.22704434 252.91476666 24.60297185 255.41387701 24.00146484 257.91833496 C22.174875 264.86890771 20.27218032 269.20193195 14 273 C6.74776122 276.62611939 -3.10206783 272.98206203 -10.3515625 270.9375 C-12.06162979 270.47138306 -12.06162979 270.47138306 -13.8062439 269.99584961 C-17.41586742 269.00906165 -21.02036677 268.00484631 -24.625 267 C-27.08431679 266.32435996 -29.54394954 265.64986891 -32.00390625 264.9765625 C-38.00632288 263.33098098 -44.00464014 261.67109754 -50 260 C-50.4753569 260.48976822 -50.95071381 260.97953644 -51.44047546 261.48414612 C-52.06686417 262.12174362 -52.69325287 262.75934113 -53.33862305 263.41625977 C-53.95835495 264.05040298 -54.57808685 264.6845462 -55.21659851 265.33790588 C-57.29673215 267.27654836 -59.0699247 268.20262431 -61.8125 268.9375 C-62.56144531 269.15277344 -63.31039063 269.36804688 -64.08203125 269.58984375 C-66 270 -66 270 -68 270 C-67.97494385 270.88756989 -67.9498877 271.77513977 -67.92407227 272.68960571 C-65.80466982 348.12963958 -65.80466982 348.12963958 -65.64550781 373.47357178 C-65.63197657 375.34672273 -65.6116149 377.21983844 -65.58398438 379.09283447 C-65.43103269 390.12724177 -65.42022904 400.13269658 -73.0625 408.875 C-80.26847295 415.22338867 -89.31881219 416.59524705 -98.61230469 416.58959961 C-99.60767494 416.60462336 -100.6030452 416.6196471 -101.62857819 416.63512611 C-104.89308296 416.67994078 -108.15711824 416.69754209 -111.421875 416.71484375 C-113.74731399 416.74121636 -116.07273391 416.76932075 -118.39813232 416.79905701 C-123.22070491 416.85741397 -128.04318492 416.90440825 -132.8659668 416.94158936 C-139.54704576 416.99344531 -146.2275124 417.07288486 -152.90820312 417.16064453 C-166.02185856 417.3281446 -179.13575384 417.45174249 -192.25 417.5625 C-193.41861195 417.57239834 -194.58722389 417.58229668 -195.79124832 417.59249496 C-213.51282096 417.74107395 -231.23451609 417.86471934 -248.95636749 417.97470093 C-252.37467539 417.9959664 -255.79297741 418.01806489 -259.2112788 418.04034907 C-275.25622415 418.14461116 -291.3010737 418.23081732 -307.34630775 418.27481747 C-308.69852326 418.2785597 -310.05073871 418.28232124 -311.4029541 418.28610229 C-312.06852809 418.28796234 -312.73410208 418.28982239 -313.41984499 418.29173881 C-318.08429032 418.30580433 -322.7485846 418.33050979 -327.41296387 418.35916138 C-333.68937269 418.39715744 -339.96553965 418.41559302 -346.24205971 418.41901398 C-348.54763468 418.42346669 -350.85320824 418.43471888 -353.15871239 418.45333099 C-356.32021034 418.47764789 -359.48077138 418.47686521 -362.64233398 418.4699707 C-363.55120487 418.48278359 -364.46007576 418.49559649 -365.39648819 418.50879765 C-374.68818777 418.43373338 -382.45294867 415.38677402 -389.2421875 408.99609375 C-394.98969874 402.46947543 -397.12251399 395.85805083 -397.12939453 387.26025391 C-397.13403969 385.53686295 -397.13403969 385.53686295 -397.13877869 383.77865601 C-397.13680984 382.52396515 -397.134841 381.26927429 -397.1328125 379.9765625 C-397.13395924 378.6293637 -397.13543824 377.28216515 -397.13722229 375.93496704 C-397.14026011 372.26534841 -397.13594979 368.59577523 -397.12917709 364.92616272 C-397.12500098 362.62553953 -397.12203675 360.3249173 -397.11929321 358.02429199 C-397.10362482 346.3494098 -397.05737507 334.67474445 -397 323 C-396.99574257 322.102314 -396.99148514 321.20462799 -396.98709869 320.27973938 C-396.93010187 308.3749034 -396.84916233 296.47053416 -396.73553467 284.56610107 C-396.70203871 281.01895781 -396.67528014 277.47185937 -396.65411377 273.92462158 C-396.62856253 269.73481897 -396.58845924 265.5454078 -396.53693962 261.35584641 C-396.52025306 259.80751541 -396.50864437 258.25912056 -396.50235176 256.71071243 C-396.4928326 254.59610475 -396.46501646 252.48252253 -396.43237305 250.36816406 C-396.42126999 249.18031311 -396.41016693 247.99246216 -396.39872742 246.76861572 C-396.20135735 245.39815094 -396.20135735 245.39815094 -396 244 C-392.25808192 241.50538795 -389.36907237 241.73227844 -385.0402832 241.77294922 C-384.23029877 241.77265717 -383.42031433 241.77236511 -382.58578491 241.77206421 C-379.90734155 241.77345804 -377.22917604 241.78902168 -374.55078125 241.8046875 C-372.69418998 241.80841744 -370.83759675 241.8112645 -368.98100281 241.81326294 C-364.09339976 241.82090087 -359.20591548 241.84055075 -354.31835938 241.8626709 C-349.33139655 241.88312587 -344.34441455 241.89226391 -339.35742188 241.90234375 C-329.57156238 241.92379647 -319.78579107 241.95793437 -310 242 C-310.27451996 241.26421722 -310.54903992 240.52843445 -310.83187866 239.77035522 C-311.19206085 238.7947464 -311.55224304 237.81913757 -311.92333984 236.81396484 C-312.2803598 235.85130707 -312.63737976 234.88864929 -313.00521851 233.89682007 C-319.3315721 215.47437438 -317.37905205 194.23937306 -309.2644043 176.75805664 C-298.35217876 154.48451037 -281.64917809 139.1657496 -258.3984375 130.99609375 C-255 130 -255 130 -251 130 C-254.58836992 125.83602125 -258.23272382 121.73400283 -261.97045898 117.703125 C-266.82434732 112.46534666 -271.4590404 107.11885931 -275.91796875 101.53515625 C-277.87729161 99.14941415 -279.94095956 96.92808479 -282.0625 94.6875 C-284.40674739 92.04479518 -284.96059406 91.23643562 -285.5625 87.625 C-285 85 -285 85 -283 83 C-282.83202624 80.78113964 -282.83202624 80.78113964 -283.05859375 78.24609375 C-283.14270508 76.84133789 -283.14270508 76.84133789 -283.22851562 75.40820312 C-283.29748047 74.42787109 -283.36644531 73.44753906 -283.4375 72.4375 C-283.5657183 70.49899161 -283.68965516 68.56019362 -283.80859375 66.62109375 C-283.86845459 65.7592749 -283.92831543 64.89745605 -283.98999023 64.00952148 C-283.99329346 63.34637939 -283.99659668 62.6832373 -284 62 C-277.39067205 55.39067205 -250.47495046 58.74744964 -241.62792969 58.7244873 C-239.04980036 58.72587533 -236.47167059 58.73082199 -233.89355469 58.73925781 C-230.00439879 58.74998786 -226.11570461 58.73928811 -222.2265625 58.7265625 C-190.66342221 58.70956942 -190.66342221 58.70956942 -177 61 C-176 62 -176 62 -175.8671875 63.8984375 C-175.88507254 69.56799518 -176.2741988 75.03604205 -177.07421875 80.65234375 C-177.26899087 83.08568701 -177.26899087 83.08568701 -175.45703125 84.50390625 C-174 86 -174 86 -173.98046875 88.28515625 C-175.3675036 91.97860153 -177.70360048 94.55628973 -180.3125 97.4375 C-181.40662172 98.67675525 -182.50036056 99.91634862 -183.59375 101.15625 C-184.15707031 101.78917969 -184.72039062 102.42210937 -185.30078125 103.07421875 C-187.49623635 105.5624012 -189.63760562 108.09407131 -191.78027344 110.62768555 C-195.87759342 115.46730203 -199.97418591 120.21742694 -204.59765625 124.5703125 C-206.25322108 126.25815854 -207.61599908 128.08621831 -209 130 C-207.99582031 130.40089844 -206.99164063 130.80179688 -205.95703125 131.21484375 C-184.25940837 140.12231702 -165.5206355 155.08728798 -156.1875 177.125 C-151.89021708 187.93876717 -149.60727178 197.92904196 -149.625 209.625 C-149.62632935 211.20462524 -149.62632935 211.20462524 -149.62768555 212.81616211 C-149.79990934 224.23101499 -152.49639651 233.56966973 -157 244 C-156.44893082 244.01030746 -155.89786163 244.02061493 -155.33009338 244.03123474 C-149.50440256 244.14087375 -143.67881888 244.25530764 -137.85327148 244.37231445 C-135.68988321 244.41516813 -133.52647174 244.45686871 -131.36303711 244.49731445 C-118.55301828 244.73766922 -105.78260821 245.10920687 -93 246 C-92.95875 244.700625 -92.9175 243.40125 -92.875 242.0625 C-92.15761525 235.74552871 -89.18973159 230.81587277 -84.43359375 226.6171875 C-80.92506557 224.33453061 -77.35631678 223.60453539 -73.26171875 222.90234375 C-72.27518311 222.73081787 -71.28864746 222.55929199 -70.2722168 222.38256836 C-69.14746948 222.19319702 -69.14746948 222.19319702 -68 222 C-67.81890686 221.38012711 -67.63781372 220.76025421 -67.45123291 220.12159729 C-58.56317578 189.71393299 -49.57781537 159.33846968 -40.25 129.0625 C-40.04685181 128.40312439 -39.84370361 127.74374878 -39.63439941 127.06439209 C-31.69340192 101.30126062 -23.61893613 75.57970503 -15.50878906 49.86938477 C-14.63592323 47.1017708 -13.76319922 44.33411217 -12.890625 41.56640625 C-12.6816584 40.90364748 -12.4726918 40.24088871 -12.25739288 39.55804634 C-8.10778647 26.3915555 -4.0362135 13.20171883 0 0 Z M3 3 C0.37591493 9.46295919 -1.40606562 16.02080039 -3.10552216 22.78086472 C-3.62382891 24.84256351 -4.14765621 26.90279816 -4.67266846 28.96279907 C-5.44219393 31.98449726 -6.20938643 35.00677398 -6.974823 38.0295105 C-9.07854688 46.33315094 -11.20321887 54.63144703 -13.328125 62.9296875 C-13.55270826 63.8070928 -13.77729153 64.6844981 -14.00868034 65.58849144 C-19.47287412 86.92660715 -25.05864892 108.23248688 -30.67218399 129.53173447 C-31.4227126 132.38135495 -32.17184295 135.23133917 -32.92050171 138.08145142 C-34.35836444 143.55405782 -35.80048247 149.02552915 -37.24609375 154.49609375 C-37.47840384 155.37566805 -37.71071392 156.25524235 -37.95006371 157.16147041 C-40.68486541 167.4989574 -43.49016107 177.81379463 -46.39111328 188.10595703 C-46.67094716 189.10012288 -46.95078104 190.09428873 -47.23909473 191.11858082 C-48.58977844 195.91156627 -49.9489252 200.70190998 -51.32164001 205.4886322 C-51.80840577 207.20470054 -52.29503147 208.92080861 -52.78149414 210.63696289 C-53.00723932 211.41329386 -53.2329845 212.18962482 -53.46557045 212.98948097 C-55.03720784 218.42000015 -55.03720784 218.42000015 -55 224 C-53.00715862 225.3440093 -51.00580329 226.67541292 -49 228 C-43.34204896 234.17659655 -42.45880827 242.01494421 -41 250 C-33.08 252.475 -33.08 252.475 -25 255 C-23.15443976 252.23165964 -22.59733208 250.89813396 -21.93774414 247.76782227 C-21.66020546 246.47701248 -21.66020546 246.47701248 -21.37705994 245.16012573 C-21.18173172 244.2216983 -20.9864035 243.28327087 -20.78515625 242.31640625 C-20.34800866 240.27624516 -19.91066247 238.23612662 -19.47314453 236.19604492 C-19.24387268 235.11616302 -19.01460083 234.03628113 -18.77838135 232.92367554 C-3.30205891 160.25990721 16.59282563 87.44290745 44.15234375 18.34472656 C45.11332711 16.10206321 45.11332711 16.10206321 45 14 C39.17970611 12.43184577 33.35898063 10.86530776 27.5378418 9.30029297 C25.55595012 8.76721338 23.57417898 8.23368547 21.5925293 7.69970703 C18.75080119 6.93405272 15.90864923 6.16999048 13.06640625 5.40625 C12.17474258 5.16563843 11.28307892 4.92502686 10.36439514 4.67712402 C9.54361984 4.45689575 8.72284454 4.23666748 7.87719727 4.00976562 C7.15105728 3.81435181 6.4249173 3.61893799 5.67677307 3.41760254 C4.12627238 2.95972181 4.12627238 2.95972181 3 3 Z M46 15 C45.84903366 15.6937825 45.69806732 16.387565 45.54252625 17.10237122 C28.19678313 96.73604039 8.1515085 175.72160725 -21.27587891 251.8918457 C-22.10828544 253.94374605 -22.10828544 253.94374605 -22 256 C-17.79600486 257.34728504 -13.58617296 258.67533773 -9.375 260 C-7.59029297 260.57234375 -7.59029297 260.57234375 -5.76953125 261.15625 C-4.03896484 261.69765625 -4.03896484 261.69765625 -2.2734375 262.25 C-1.21560059 262.58515625 -0.15776367 262.9203125 0.93212891 263.265625 C4.16781181 264.04017014 6.69349566 264.42508073 10 264 C13.46186312 260.9511015 14.40075739 256.31081494 15.72265625 252.0234375 C15.97953217 251.21246109 16.23640808 250.40148468 16.50106812 249.56593323 C17.36272175 246.83802379 18.2126822 244.10661787 19.0625 241.375 C19.68247407 239.40160121 20.3030133 237.42837989 20.92407227 235.45532227 C22.6116086 230.08490205 24.28794184 224.71104821 25.96105957 219.33612061 C26.98751877 216.04007823 28.01634439 212.74478388 29.04589844 209.44970703 C34.17581031 193.02587491 39.26403373 176.58925082 44.33715057 160.14780426 C45.02042913 157.93380433 45.70405075 155.71991057 46.38775635 153.50604248 C53.42452277 130.71940939 60.42742343 107.92265906 67.36056519 85.10426331 C67.98228673 83.05829115 68.6045299 81.01247816 69.22680664 78.9666748 C71.36630954 71.92835676 73.48871921 64.88523911 75.58215332 57.83306885 C76.1863811 55.80345336 76.79523079 53.77520718 77.40905762 51.74847412 C78.23439139 49.01846614 79.04168639 46.28379467 79.84375 43.546875 C80.20119293 42.3836824 80.20119293 42.3836824 80.56585693 41.19699097 C81.91652776 36.49118864 82.39611882 32.83172254 81 28 C77.74348163 23.80053522 74.76311485 22.199254 69.7109375 20.76171875 C68.52242188 20.41689453 67.33390625 20.07207031 66.109375 19.71679688 C64.87703125 19.37712891 63.6446875 19.03746094 62.375 18.6875 C60.51488281 18.14899414 60.51488281 18.14899414 58.6171875 17.59960938 C52.40220625 15.694249 52.40220625 15.694249 46 15 Z M-277 68 C-277.33951619 69.56116819 -277.67132544 71.12401338 -278 72.6875 C-278.185625 73.55761719 -278.37125 74.42773438 -278.5625 75.32421875 C-278.98972047 77.93712964 -279.07616201 80.35813038 -279 83 C-269.91216726 83.11173565 -261.0553214 82.89435273 -252 82 C-252 78.04 -252 74.08 -252 70 C-257.28433677 68.96912119 -262.51104648 68.68388642 -267.875 68.4375 C-268.75414062 68.39431641 -269.63328125 68.35113281 -270.5390625 68.30664062 C-272.69255797 68.20130661 -274.84626064 68.10022351 -277 68 Z M-193.9375 68.4375 C-194.99227539 68.49647461 -194.99227539 68.49647461 -196.06835938 68.55664062 C-199.83797465 68.78627979 -203.27634646 69.25526929 -207 70 C-207.33 73.96 -207.66 77.92 -208 82 C-198.95226355 82.80424324 -190.08351221 83.09175265 -181 83 C-181.33 78.05 -181.66 73.1 -182 68 C-185.99465409 68 -189.95277703 68.19413041 -193.9375 68.4375 Z M-242 70 C-242.33 73.96 -242.66 77.92 -243 82 C-234.42 82 -225.84 82 -217 82 C-217.33 78.04 -217.66 74.08 -218 70 C-225.92 70 -233.84 70 -242 70 Z M-271 93 C-267.06233136 99.24890893 -263.05702074 105.43288908 -258.9375 111.5625 C-255.10559435 117.26980921 -251.44493277 123.04838851 -248 129 C-243.545 128.505 -243.545 128.505 -239 128 C-239.60860773 124.57325734 -240.47745041 121.47456718 -241.7421875 118.234375 C-242.08636719 117.34363281 -242.43054688 116.45289063 -242.78515625 115.53515625 C-243.14480469 114.61605469 -243.50445312 113.69695312 -243.875 112.75 C-244.58261013 110.93302307 -245.28835783 109.11531968 -245.9921875 107.296875 C-246.30526855 106.49604492 -246.61834961 105.69521484 -246.94091797 104.87011719 C-248.38854725 100.94703515 -249.67764592 96.96706225 -251 93 C-257.6 93 -264.2 93 -271 93 Z M-240 93 C-239.4493323 100.37894722 -238.53766073 107.67640173 -237.5 115 C-237.36940186 115.93223389 -237.23880371 116.86446777 -237.10424805 117.82495117 C-236.97703369 118.70771729 -236.84981934 119.5904834 -236.71875 120.5 C-236.60466797 121.2940625 -236.49058594 122.088125 -236.37304688 122.90625 C-236.01963941 125.18261023 -236.01963941 125.18261023 -235 128 C-233.35425434 128.02688151 -231.70838587 128.04634123 -230.0625 128.0625 C-228.68771484 128.07990234 -228.68771484 128.07990234 -227.28515625 128.09765625 C-225.03406673 128.25949049 -225.03406673 128.25949049 -224 127 C-223.71433069 125.5002361 -223.48517869 123.98960969 -223.28125 122.4765625 C-223.15363281 121.53683594 -223.02601563 120.59710938 -222.89453125 119.62890625 C-222.76433594 118.63761719 -222.63414062 117.64632812 -222.5 116.625 C-222.36980469 115.67238281 -222.23960937 114.71976563 -222.10546875 113.73828125 C-221.22550796 107.16968508 -220.56198389 100.6033107 -220 94 C-226.6 93.67 -233.2 93.34 -240 93 Z M-209 93 C-209.44730469 94.37671875 -209.89460937 95.7534375 -210.35546875 97.171875 C-216.24765918 115.15718597 -216.24765918 115.15718597 -220.15234375 123.8203125 C-221.18122313 126.07621754 -221.18122313 126.07621754 -221 129 C-218.36 129.33 -215.72 129.66 -213 130 C-212.29875 128.91203125 -211.5975 127.8240625 -210.875 126.703125 C-205.92439439 119.0320504 -200.95748792 111.37750963 -195.8515625 103.80859375 C-193.50367087 100.24712945 -191.26084298 96.61734877 -189 93 C-195.6 93 -202.2 93 -209 93 Z M-292.6484375 166.953125 C-301.59859075 178.54966908 -307.99871425 192.44519457 -310 207 C-310.1340625 207.886875 -310.268125 208.77375 -310.40625 209.6875 C-311.14140258 215.83604882 -310.92248452 221.68239163 -310.25 227.8125 C-310.17620117 228.51769775 -310.10240234 229.22289551 -310.02636719 229.94946289 C-309.8972998 230.97414673 -309.8972998 230.97414673 -309.765625 232.01953125 C-309.69118164 232.61870361 -309.61673828 233.21787598 -309.54003906 233.83520508 C-308.74735878 237.01273494 -307.2900504 239.98988239 -306 243 C-297.42 243 -288.84 243 -280 243 C-281.11375 240.73125 -282.2275 238.4625 -283.375 236.125 C-290.78551856 220.44325588 -290.38218437 205.29745547 -285 189 C-279.31320614 175.24107018 -269.09206699 165.32677705 -255.4921875 159.49609375 C-239.57299515 153.66348779 -223.37213586 153.38842352 -207.75 160.625 C-193.73214403 168.32070885 -183.63387503 179.33552363 -178.65625 194.66015625 C-173.59449516 212.70772263 -178.23237772 227.92602583 -187 244 C-177.76 244 -168.52 244 -159 244 C-153.12797005 222.46922353 -153.49644418 201.05174946 -164 181 C-175.85173642 160.9183402 -192.99686647 147.33813366 -215.30859375 140.91015625 C-243.88601878 133.86408214 -273.57377034 145.03239639 -292.6484375 166.953125 Z M-270.7421875 183.1484375 C-280.29295504 196.1424002 -284.15849115 208.9391 -283 225 C-281.88422666 231.56472121 -280.01616886 237.07499924 -277 243 C-247.99556868 243.6835694 -219.01293846 244.16984968 -190 244 C-189.19149845 242.41012909 -188.38610966 240.81867499 -187.58203125 239.2265625 C-187.1331958 238.34049316 -186.68436035 237.45442383 -186.22192383 236.54150391 C-180.68812584 225.03164636 -181.89707173 211.02816365 -185.7421875 199.18359375 C-190.78749533 186.41363759 -199.64971963 176.11965112 -212 170 C-232.19956488 161.97714109 -256.49108918 165.57421311 -270.7421875 183.1484375 Z M-77 234 C-81.04045031 238.57208851 -82.24364001 243.01051654 -82 249 C-81.16681303 253.47036856 -79.58557204 256.81673517 -76.1875 259.875 C-71.01831887 263.32112075 -67.19560498 264.31204219 -61.125 263.6796875 C-57.79543767 262.61471719 -55.64276269 261.30594 -53 259 C-52.41593317 256.07024541 -52.22871332 254.08924117 -52.375 251.1875 C-52.3968335 250.46916992 -52.41866699 249.75083984 -52.44116211 249.01074219 C-52.72560868 243.45864914 -53.32228357 240.14921854 -57 236 C-59.27498538 234.38165813 -61.47048805 233.24176041 -64 232 C-64.99 231.34 -65.98 230.68 -67 230 C-71.07259598 230 -73.79506508 231.65652822 -77 234 Z M-165.94140625 249.40234375 C-166.60294378 249.41259866 -167.26448131 249.42285357 -167.94606543 249.43341923 C-175.58876305 249.55213587 -183.23140216 249.67439013 -190.87402344 249.7979126 C-205.80256485 250.03904143 -220.73132352 250.26599156 -235.66015625 250.48828125 C-236.41521407 250.49954764 -237.17027188 250.51081404 -237.94821024 250.52242184 C-271.13112737 251.01667832 -304.31455215 251.35381148 -337.5 251.625 C-338.74964161 251.63524578 -339.99928322 251.64549156 -341.28679276 251.65604782 C-356.19114349 251.77778881 -371.0955364 251.89297596 -386 252 C-386.02585621 258.43309648 -386.04307289 264.86617908 -386.05493164 271.29931641 C-386.05988759 273.47705587 -386.06665428 275.65479215 -386.07543945 277.83251953 C-386.13336809 292.58728434 -385.81381488 307.26692289 -385 322 C-384.21659241 321.84961273 -383.43318481 321.69922546 -382.6260376 321.54428101 C-374.91498386 320.09401993 -367.4600644 319.65122655 -359.625 319.6875 C-358.44486328 319.68951416 -357.26472656 319.69152832 -356.04882812 319.69360352 C-346.52089427 319.80330877 -338.06297867 320.97900711 -329 324 C-338.69193606 328.73827985 -348.72099742 329.32911388 -359.375 329.25 C-360.40882813 329.25773437 -361.44265625 329.26546875 -362.5078125 329.2734375 C-370.34816238 329.25393414 -377.07551254 328.21915192 -385 327 C-385 340.2 -385 353.4 -385 367 C-381.514375 366.505 -378.02875 366.01 -374.4375 365.5 C-348.58359598 362.28991732 -315.7489873 359.7742835 -291 369 C-322.5066759 374.65242571 -353.36887 375.28891947 -385 370 C-385.11728126 373.66639248 -385.18760891 377.3322952 -385.25 381 C-385.30027344 382.54494141 -385.30027344 382.54494141 -385.3515625 384.12109375 C-385.45197082 392.00314649 -384.27924562 397.63212612 -378.6875 403.375 C-373.55170974 406.48036155 -368.34099781 407.24914791 -362.41714478 407.27174377 C-361.13115639 407.28145989 -359.845168 407.29117601 -358.52021027 407.30118656 C-357.10933948 407.30195654 -355.69846859 407.30254771 -354.28759766 407.30297852 C-352.78404031 407.31067211 -351.28048722 407.31924112 -349.77693939 407.32861233 C-345.68190086 407.35172238 -341.58690635 407.36278293 -337.49181604 407.37187386 C-333.13756527 407.38375273 -328.78337654 407.4071744 -324.4291687 407.42944336 C-317.0083776 407.46598174 -309.58758561 407.49595562 -302.16674805 407.52127075 C-290.64301517 407.56076634 -279.11936534 407.61347245 -267.59570312 407.66967773 C-266.64820269 407.67428705 -265.70070226 407.67889637 -264.72448969 407.68364537 C-260.91115981 407.70221678 -257.09783015 407.72082964 -253.28450131 407.73961288 C-247.60200722 407.76757204 -241.91950959 407.79456671 -236.23700738 407.82082182 C-202.74482762 407.97614516 -169.25646541 408.2881511 -135.76675987 408.72744465 C-129.40334355 408.81059253 -123.03984211 408.88290702 -116.67626953 408.95294189 C-113.12102166 408.99845086 -109.56658793 409.06386845 -106.01171875 409.13232422 C-103.93490411 409.16044849 -101.8580816 409.18800053 -99.78125 409.21484375 C-98.88611694 409.23833389 -97.99098389 409.26182404 -97.06872559 409.286026 C-90.08203881 409.34830679 -83.67699838 407.97389887 -78.1875 403.3125 C-77.64480469 402.87550781 -77.10210937 402.43851563 -76.54296875 401.98828125 C-71.47087261 395.45233964 -71.61052363 388.39261503 -71.8125 380.5 C-71.83280273 378.98019531 -71.83280273 378.98019531 -71.85351562 377.4296875 C-71.88856937 374.95255596 -71.93770236 372.47657073 -72 370 C-72.85335938 370.12117188 -73.70671875 370.24234375 -74.5859375 370.3671875 C-106.62552302 374.66115257 -137.09725985 374.50984675 -169 369 C-141.03808086 360.45917477 -107.46069947 361.83007229 -78.92431641 366.71875 C-76.60061356 367.05837264 -74.34423489 367.11458582 -72 367 C-70.33422375 363.66844749 -70.87992144 359.93463941 -70.90234375 356.2734375 C-70.9037587 355.41062164 -70.90517365 354.54780579 -70.90663147 353.65884399 C-70.91223812 350.8975277 -70.92479173 348.13629188 -70.9375 345.375 C-70.94251414 343.5052095 -70.9470772 341.63541774 -70.95117188 339.765625 C-70.96220971 335.17705223 -70.9794788 330.58853977 -71 326 C-71.72445313 326.13277344 -72.44890625 326.26554687 -73.1953125 326.40234375 C-75.19581761 326.76776935 -77.19690543 327.13001554 -79.19848633 327.48950195 C-81.11952351 327.83955762 -83.03644123 328.21277933 -84.94921875 328.60546875 C-99.98127951 330.54943563 -115.5880095 329.77205537 -130 325 C-130.33 324.67 -130.66 324.34 -131 324 C-110.47543797 317.98803701 -91.84605278 318.28959384 -71 323 C-70.12449979 319.96197833 -69.8516368 317.2050114 -69.79467773 314.04785156 C-69.77473251 313.06713684 -69.75478729 312.08642212 -69.73423767 311.07598877 C-69.71752518 310.02481873 -69.70081268 308.97364868 -69.68359375 307.890625 C-69.6524221 306.26770538 -69.6524221 306.26770538 -69.62062073 304.61199951 C-69.55527069 301.15806387 -69.49630771 297.70405263 -69.4375 294.25 C-69.39430096 291.90754429 -69.35068622 289.5650962 -69.30664062 287.22265625 C-69.19960417 281.4818506 -69.09781074 275.74096985 -69 270 C-69.82636963 269.80156494 -70.65273926 269.60312988 -71.50415039 269.39868164 C-72.58688232 269.13434326 -73.66961426 268.87000488 -74.78515625 268.59765625 C-75.85902588 268.33734619 -76.93289551 268.07703613 -78.03930664 267.80883789 C-82.84070847 266.49713308 -85.79327143 264.97494649 -88.4296875 260.66015625 C-90.42206771 256.82735702 -92.00227856 253.20186747 -93 249 C-117.31791285 248.87688443 -141.62606156 249.02508508 -165.94140625 249.40234375 Z " fill="#000000" transform="translate(413,47)"/>
<path d="M0 0 C3.62356202 2.72736018 6.98174117 5.60855081 10 9 C10 9.66 10 10.32 10 11 C12.92109375 9.36762408 15.37988402 7.67669445 17.9375 5.5 C23.72254965 0.77751049 29.19597721 -1.38284768 36.6484375 -1.28515625 C43.25681595 -0.48380803 50.38934388 2.12587781 55 7 C61.42504082 15.68248759 62.92402502 22.11570531 62 33 C60.97839119 36.08267113 59.76410497 38.24358598 58 41 C57.67 40.34 57.34 39.68 57 39 C57.474375 37.80375 57.94875 36.6075 58.4375 35.375 C60.87587206 29.10973846 60.7842523 24.33540507 58.125 18.25 C57.43311438 16.82522814 56.72522219 15.40809564 56 14 C55.49339844 12.91138672 55.49339844 12.91138672 54.9765625 11.80078125 C53.68038066 9.41062194 52.49315412 9.03881422 50 8 C48.7625 7.195625 48.7625 7.195625 47.5 6.375 C41.80996572 4.13962939 35.54427929 3.68459738 29.7265625 5.84375 C23.50351537 9.48410959 17.98017337 15.02973995 14 21 C11.67578125 21.453125 11.67578125 21.453125 9 21 C6.60546875 19.171875 6.60546875 19.171875 4.1875 16.75 C-1.25761855 11.63513272 -5.8518594 7.93143357 -13.5 7.5 C-18.99570162 7.78426043 -23.45655973 9.70186615 -27.5390625 13.390625 C-31.60598316 17.90942574 -33.06911416 21.85746116 -32.875 27.875 C-30.4575213 41.82805642 -17.30103819 52.82477671 -7.9921875 62.78515625 C-5.97688419 64.94178057 -3.98364107 67.11574794 -2.0078125 69.30859375 C-1.523125 69.84476318 -1.0384375 70.38093262 -0.5390625 70.93334961 C0.78607612 72.40148058 2.10799882 73.87251245 3.4296875 75.34375 C6.14579234 78.15066686 8.95992503 80.55375892 12 83 C12.6290625 82.43152344 13.258125 81.86304688 13.90625 81.27734375 C17.9161265 77.66000034 21.92745355 74.04678738 26 70.5 C34.64785092 62.94396192 42.94002798 55.17585021 51 47 C52.33221147 45.66554575 53.66511538 44.33178024 55 43 C53.64827153 47.08379341 51.93063758 49.37683519 48.8125 52.3125 C45.9480366 55.0264662 43.27132988 57.80470567 40.69921875 60.79296875 C36.37324184 65.79004689 31.67656923 70.37470604 26.9609375 75 C22.94895951 78.9655072 19.23391019 83.00117095 15.73828125 87.43359375 C13.5207535 89.43186033 11.95554671 89.79911472 9 90 C6.4921875 88.2265625 6.4921875 88.2265625 3.875 85.625 C2.90081541 84.68243194 1.92419237 83.74237847 0.9453125 82.8046875 C0.45321289 82.32870117 -0.03888672 81.85271484 -0.54589844 81.36230469 C-2.680279 79.36266675 -4.95704074 77.56383345 -7.25 75.75 C-14.51553365 69.87728682 -21.24721941 63.44695155 -28 57 C-28.51578613 56.51289551 -29.03157227 56.02579102 -29.56298828 55.52392578 C-37.31488014 48.1870793 -44.13015185 40.97023654 -45.3359375 29.921875 C-45.44807403 20.81638842 -43.90544725 14.31666449 -38.8125 6.75 C-27.60156071 -4.2118073 -14.16355935 -7.49719133 0 0 Z " fill="#000000" transform="translate(172,331)"/>
<path d="M0 0 C-0.95685179 5.67479427 -3.17843907 8.40613418 -7.5 12.1875 C-12.40257062 14.72633121 -17.48058353 15.80013255 -23 16 C-25.3671875 15.0390625 -25.3671875 15.0390625 -27 14 C-23.63919309 7.72922613 -20.31942655 3.71835624 -13.74609375 0.796875 C-9.15856873 -0.53435559 -4.72439627 -0.40417839 0 0 Z " fill="#000000" transform="translate(109,148)"/>
<path d="M0 0 C7.15166681 -0.53749479 12.89624554 0.00460348 19 4 C22.59775705 7.25763296 25.06784133 10.16972324 26 15 C19.11803123 16.43374349 14.12442603 15.62470154 7.875 12.375 C4.21918509 9.35497899 1.66595567 5.89494233 -1 2 C-0.67 1.34 -0.34 0.68 0 0 Z " fill="#000000" transform="translate(258,148)"/>
<path d="M0 0 C0.99386719 0.00902344 1.98773438 0.01804687 3.01171875 0.02734375 C4.15060547 0.04474609 4.15060547 0.04474609 5.3125 0.0625 C4.32030082 5.94692881 2.08057966 8.7635027 -2.75 12.3125 C-7.18973293 14.95744728 -10.28115887 15.17543407 -15.375 15.125 C-17.14423828 15.11146484 -17.14423828 15.11146484 -18.94921875 15.09765625 C-19.85285156 15.08605469 -20.75648438 15.07445313 -21.6875 15.0625 C-18.86424899 7.94299746 -15.43431092 4.65334412 -8.6875 1.0625 C-5.53819107 0.01273036 -3.29935544 -0.03881595 0 0 Z " fill="#000000" transform="translate(278.6875,89.9375)"/>
<path d="M0 0 C9.62744377 -0.47005602 16.21981811 0.80918145 23.5546875 7.37109375 C25.60208278 9.67856356 26.36081292 12.01712695 27 15 C19.51389056 15.44916657 13.16090527 15.70643766 7 11 C3.48005684 7.68031618 0.92239668 4.83463087 0 0 Z " fill="#000000" transform="translate(82,90)"/>
<path d="M0 0 C2.57816377 1.10769138 4.64890752 2.43260501 7 4 C6.63926776 6.61530876 6.20250273 7.79749727 4.3125 9.6875 C0.17942525 12.03329919 -2.97317556 12.1770387 -7.625 11.375 C-11.3867364 9.84244073 -12.79509157 8.35146082 -15 5 C-9.91742149 0.85368595 -6.69676567 -0.92576473 0 0 Z " fill="#000000" transform="translate(272,121)"/>
<path d="M0 0 C3.13150836 1.36152537 4.55823799 2.26372999 6.3125 5.1875 C6.539375 5.785625 6.76625 6.38375 7 7 C0.2 11.90232558 0.2 11.90232558 -4 12 C-7.15959873 11.32844766 -10.15587892 10.54778298 -13 9 C-14.26953125 6.88671875 -14.26953125 6.88671875 -15 5 C-9.84346889 0.7933562 -6.76116102 -0.72672748 0 0 Z " fill="#000000" transform="translate(102,121)"/>
<path d="M0 0 C0.33 0.66 0.66 1.32 1 2 C0.34 1.67 -0.32 1.34 -1 1 C-0.67 0.67 -0.34 0.34 0 0 Z " fill="#000000" transform="translate(228,372)"/>
</svg>
