<svg width="20" height="22" viewBox="0 0 20 22" fill="none" xmlns="http://www.w3.org/2000/svg">
<path d="M10 0.799805C13.9357 0.799805 17.144 3.85463 17.2383 7.66895C17.716 7.75353 18.1814 7.95277 18.541 8.30957C18.947 8.71244 19.2002 9.29746 19.2002 10.0879V13.6602C19.2002 14.4473 18.9463 15.032 18.54 15.4346C18.1791 15.7922 17.7115 15.9908 17.2334 16.0752C17.1382 17.7738 16.5611 18.7981 15.6592 19.4014C14.7934 19.9804 13.6627 20.1453 12.4893 20.208V20.2402C12.489 20.7757 12.0437 21.2 11.5068 21.2002H9.03711C8.50019 21.2 8.05491 20.7757 8.05469 20.2402V19.0049C8.05469 18.4692 8.50006 18.0441 9.03711 18.0439H11.499C12.0361 18.0441 12.4814 18.4692 12.4814 19.0049V19.0469C13.6582 18.9815 14.5044 18.7988 15.0771 18.3701C15.6353 17.9523 15.9683 17.2738 16.0488 16.126H15.5176C15.1966 16.126 14.9258 15.8717 14.9258 15.5459V8.19922C14.9258 7.87341 15.1965 7.61914 15.5176 7.61914H16.0557C15.9472 4.46846 13.2838 1.9375 10 1.9375C6.71624 1.9375 4.05276 4.46846 3.94434 7.61914H4.48242C4.80345 7.61914 5.07422 7.87342 5.07422 8.19922V15.5576C5.07399 15.8832 4.80332 16.1377 4.48242 16.1377H3.34766C2.74442 16.1377 2.10839 15.9769 1.61914 15.5791C1.12334 15.1759 0.799912 14.5463 0.799805 13.6572V10.084C0.799808 9.29702 1.05385 8.71312 1.45996 8.31055C1.81948 7.95429 2.28464 7.75389 2.76074 7.66895C2.85504 3.85462 6.06426 0.799805 10 0.799805ZM9.2373 20.0439H11.3066V19.208H9.2373V20.0439ZM16.1084 14.9775H16.6523C16.9304 14.9775 17.2746 14.9266 17.5439 14.7432C17.7996 14.5689 18.0175 14.2551 18.0176 13.6572V13.6553L18.0371 10.0996L18.0273 9.88574C17.9816 9.41917 17.7842 9.16004 17.5596 9.00879C17.2889 8.82662 16.9449 8.77931 16.6719 8.7793H16.1084V14.9775ZM3.32812 8.75195C3.05009 8.75197 2.7059 8.80289 2.43652 8.98633C2.18082 9.16056 1.96297 9.47439 1.96289 10.0723V13.6455C1.96292 14.2491 2.18367 14.5625 2.44043 14.7354C2.71115 14.9176 3.05507 14.9658 3.32812 14.9658H3.8916V8.75195H3.32812Z" fill="white" stroke="white" stroke-width="0.4"/>
</svg>
