<svg width="20" height="20" viewBox="0 0 20 20" fill="none" xmlns="http://www.w3.org/2000/svg">
<g clip-path="url(#clip0_1382_4651)">
<path d="M19.3743 9.37496H11.4579C11.1129 9.37496 10.8329 9.09497 10.8329 8.74998C10.8329 8.40499 11.1129 8.125 11.4579 8.125H19.3743C19.7193 8.125 19.9993 8.40499 19.9993 8.74998C19.9993 9.09497 19.7193 9.37496 19.3743 9.37496Z" fill="white"/>
<path d="M16.2495 12.5013C16.0894 12.5013 15.9295 12.4404 15.8077 12.318C15.5636 12.0737 15.5636 11.6779 15.8077 11.4338L18.4911 8.75061L15.8077 6.06728C15.5636 5.82315 15.5636 5.42735 15.8077 5.18321C16.052 4.93893 16.4478 4.93893 16.692 5.18321L19.8169 8.30812C20.061 8.55225 20.061 8.94805 19.8169 9.19218L16.692 12.3171C16.5694 12.4404 16.4095 12.5013 16.2495 12.5013Z" fill="white"/>
<path d="M6.66651 19.9994C6.48814 19.9994 6.31892 19.9743 6.14986 19.9219L1.13491 18.2511C0.452561 18.0127 0 17.3769 0 16.6662V1.66667C0 0.747505 0.747505 0 1.66667 0C1.84488 0 2.0141 0.0250237 2.18331 0.0775122L7.19811 1.7483C7.88061 1.98663 8.33302 2.62245 8.33302 3.33318V18.3327C8.33302 19.2519 7.58567 19.9994 6.66651 19.9994ZM1.66667 1.24996C1.43749 1.24996 1.24996 1.43749 1.24996 1.66667V16.6662C1.24996 16.8437 1.36913 17.0086 1.53911 17.0678L6.53056 18.7311C6.56641 18.7427 6.6131 18.7494 6.66651 18.7494C6.89569 18.7494 7.08306 18.5619 7.08306 18.3327V3.33318C7.08306 3.15572 6.96389 2.99078 6.79392 2.93158L1.80246 1.26827C1.76661 1.25667 1.71992 1.24996 1.66667 1.24996Z" fill="white"/>
<path d="M12.7078 6.66651C12.3628 6.66651 12.0828 6.38652 12.0828 6.04153V2.29165C12.0828 1.71748 11.6155 1.24996 11.0413 1.24996H1.66661C1.32162 1.24996 1.04163 0.969971 1.04163 0.62498C1.04163 0.27999 1.32162 0 1.66661 0H11.0413C12.3055 0 13.3328 1.02749 13.3328 2.29165V6.04153C13.3328 6.38652 13.0528 6.66651 12.7078 6.66651Z" fill="white"/>
<path d="M11.0413 17.4985H7.70799C7.363 17.4985 7.08301 17.2186 7.08301 16.8736C7.08301 16.5286 7.363 16.2486 7.70799 16.2486H11.0413C11.6155 16.2486 12.0829 15.7811 12.0829 15.2069V11.457C12.0829 11.112 12.3628 10.832 12.7078 10.832C13.0528 10.832 13.3328 11.112 13.3328 11.457V15.2069C13.3328 16.471 12.3055 17.4985 11.0413 17.4985Z" fill="white"/>
</g>
<defs>
<clipPath id="clip0_1382_4651">
<rect width="20" height="20" fill="white"/>
</clipPath>
</defs>
</svg>
