<svg width="20" height="20" viewBox="0 0 20 20" fill="none" xmlns="http://www.w3.org/2000/svg">
<g clip-path="url(#clip0_1382_4593)">
<path fill-rule="evenodd" clip-rule="evenodd" d="M18.1395 1.6279V19.3022C18.1395 19.5608 17.9962 19.798 17.7674 19.9189C17.5386 20.0399 17.2623 20.0241 17.0483 19.878L14.7274 18.2939L12.533 19.8687C12.2697 20.0585 11.9107 20.0408 11.6669 19.8269L9.99996 18.3692L8.333 19.8269C8.08928 20.0408 7.73021 20.0585 7.46697 19.8687L5.27255 18.2939L2.95165 19.878C2.7377 20.024 2.46144 20.0399 2.23256 19.9189C2.00373 19.798 1.86047 19.5608 1.86047 19.3022V1.6279C1.86051 0.729298 2.58886 0 3.48841 0H16.5116C17.4111 0 18.1395 0.729298 18.1395 1.6279ZM16.7442 1.6279C16.7442 1.49953 16.64 1.39534 16.5116 1.39534H3.48841C3.36004 1.39534 3.25585 1.49953 3.25585 1.6279V17.9813L4.88933 16.866C5.13119 16.7004 5.45119 16.7041 5.68933 16.8753L7.83071 18.4129L9.54047 16.9171C9.8037 16.6864 10.1963 16.6864 10.4595 16.9171L12.1693 18.4129L14.3107 16.8753C14.5488 16.7041 14.8688 16.7004 15.1107 16.866L16.7442 17.9813V1.6279Z" fill="white"/>
<path fill-rule="evenodd" clip-rule="evenodd" d="M6.27909 5.118C5.89398 5.118 5.58142 4.80544 5.58142 4.42033C5.58142 4.03521 5.89398 3.72266 6.27909 3.72266H13.7209C14.106 3.72266 14.4186 4.03521 14.4186 4.42033C14.4186 4.80544 14.106 5.118 13.7209 5.118H6.27909Z" fill="white"/>
<path fill-rule="evenodd" clip-rule="evenodd" d="M6.27909 8.83675C5.89398 8.83675 5.58142 8.52419 5.58142 8.13908C5.58142 7.75396 5.89398 7.44141 6.27909 7.44141H13.7209C14.106 7.44141 14.4186 7.75396 14.4186 8.13908C14.4186 8.52419 14.106 8.83675 13.7209 8.83675H6.27909Z" fill="white"/>
<path fill-rule="evenodd" clip-rule="evenodd" d="M6.27909 12.5594C5.89398 12.5594 5.58142 12.2468 5.58142 11.8617C5.58142 11.4766 5.89398 11.1641 6.27909 11.1641H10C10.3851 11.1641 10.6977 11.4766 10.6977 11.8617C10.6977 12.2468 10.3851 12.5594 10 12.5594H6.27909Z" fill="white"/>
</g>
<defs>
<clipPath id="clip0_1382_4593">
<rect width="20" height="20" fill="white"/>
</clipPath>
</defs>
</svg>
