<svg width="18" height="20" viewBox="0 0 18 20" fill="none" xmlns="http://www.w3.org/2000/svg">
<path d="M9 20C8.72507 19.9998 8.45477 19.9275 8.21484 19.7901L5.10397 18.0214C3.55751 17.1413 2.26893 15.8542 1.37157 14.2933C0.47422 12.7325 0.000695024 10.9545 3.57207e-07 9.14348V4.23469C-0.000265291 3.82601 0.147646 3.43175 0.415094 3.12828C0.682542 2.82481 1.0505 2.6337 1.44772 2.59196C2.68528 2.45778 3.90328 2.17602 5.07692 1.75241C6.15304 1.36315 7.18536 0.857134 8.15625 0.242994C8.41029 0.0840075 8.7023 -8.16278e-05 9.00006 5.94588e-08C9.29783 8.17467e-05 9.58979 0.0843311 9.84375 0.243457C10.8147 0.857266 11.847 1.36312 12.9231 1.75241C14.0967 2.17602 15.3147 2.4578 16.5523 2.59199C16.9495 2.63373 17.3174 2.82483 17.5849 3.1283C17.8523 3.43177 18.0003 3.82601 18 4.23469V9.1435C17.9993 10.9545 17.5258 12.7325 16.6284 14.2934C15.7311 15.8542 14.4425 17.1413 12.896 18.0215L9.78426 19.7906C9.54457 19.9277 9.27459 19.9998 9 20ZM9 1.41562C8.95932 1.41543 8.91939 1.42676 8.88462 1.44837C7.82946 2.11526 6.70771 2.66534 5.53846 3.0883C4.26287 3.54902 2.93895 3.85526 1.59375 4.00078C1.53659 4.00585 1.48338 4.03271 1.44465 4.07603C1.40592 4.11935 1.3845 4.17597 1.38462 4.23469V9.1435C1.38516 10.7018 1.7926 12.2317 2.56475 13.5747C3.33691 14.9177 4.44573 16.0252 5.77644 16.7824L8.88822 18.5515C8.9222 18.5711 8.96051 18.5814 8.99949 18.5815C9.03848 18.5816 9.07683 18.5714 9.11088 18.552L12.2236 16.7824C13.5543 16.0252 14.6631 14.9178 15.4353 13.5747C16.2074 12.2317 16.6148 10.7018 16.6154 9.1435V4.23469C16.6155 4.17598 16.5941 4.11936 16.5553 4.07605C16.5166 4.03273 16.4634 4.00588 16.4063 4.00081C15.0611 3.85528 13.7371 3.54903 12.4615 3.0883C11.2923 2.66533 10.1705 2.11571 9.11539 1.44881C9.08074 1.42686 9.04075 1.41536 9 1.41562Z" fill="white"/>
<path d="M8.53851 12.1006C8.36898 12.1009 8.2053 12.0371 8.07882 11.9216L6.0019 10.0321C5.86529 9.90709 5.78267 9.73178 5.77214 9.54457C5.76161 9.35735 5.82404 9.1735 5.94573 9.03332C6.06743 8.89313 6.23846 8.80805 6.42135 8.79672C6.60424 8.78539 6.78405 8.84874 6.92138 8.97288L8.49439 10.4039L11.4953 7.1281C11.5572 7.05902 11.6319 7.00319 11.715 6.96385C11.7981 6.92452 11.8881 6.90245 11.9796 6.89894C12.0711 6.89542 12.1624 6.91053 12.2482 6.94338C12.334 6.97622 12.4125 7.02617 12.4793 7.09031C12.5461 7.15445 12.5998 7.23152 12.6372 7.31704C12.6747 7.40257 12.6952 7.49486 12.6976 7.58856C12.7 7.68227 12.6842 7.77552 12.6511 7.86293C12.6181 7.95034 12.5684 8.03016 12.5049 8.09777L9.04339 11.8768C8.97874 11.9476 8.90055 12.004 8.81369 12.0425C8.72683 12.0809 8.63316 12.1007 8.53851 12.1006Z" fill="white"/>
</svg>
