<?xml version="1.0" encoding="UTF-8"?>
<svg version="1.1" xmlns="http://www.w3.org/2000/svg" width="512" height="512">
<path d="M0 0 C2.2776477 -0.00961134 4.55435386 -0.04065861 6.83178711 -0.07226562 C38.32686926 -0.29963386 67.75622658 10.83176041 90.75561523 32.52929688 C108.83295479 51.22627698 122.37670898 78.83829262 122.37670898 105.24023438 C121.71670898 105.24023438 121.05670898 105.24023438 120.37670898 105.24023438 C118.82592773 103.26367188 118.82592773 103.26367188 117.06420898 100.61523438 C116.11674805 99.23658203 116.11674805 99.23658203 115.15014648 97.83007812 C114.56491211 96.97542969 113.97967773 96.12078125 113.37670898 95.24023438 C102.57037212 80.11136276 84.02998411 72.62529538 66.37670898 69.24023438 C7.67391468 59.99683707 -54.9088324 96.80161055 -100.43139648 129.64160156 C-116.64908952 141.46978757 -132.98182139 154.12381568 -146.96313477 168.58007812 C-148.62329102 170.24023437 -148.62329102 170.24023437 -151.68579102 172.74023438 C-154.61735766 175.23518471 -156.97056518 177.83619934 -159.45532227 180.75976562 C-161.64368524 183.2635683 -163.90740611 185.67499941 -166.1940918 188.08837891 C-172.67356908 194.94467952 -178.62645637 202.0544766 -184.33666992 209.55957031 C-185.56628043 211.16576362 -186.81888672 212.75427423 -188.07250977 214.34179688 C-212.08520691 244.8893504 -231.7676179 278.93637718 -245.62329102 315.24023438 C-245.92702637 316.03155762 -246.23076172 316.82288086 -246.54370117 317.63818359 C-257.84646782 347.64673657 -263.68846087 383.55036465 -250.29125977 413.79882812 C-243.81025472 427.17064415 -234.18263011 439.46056483 -220.62329102 446.24023438 C-220.62329102 446.90023438 -220.62329102 447.56023437 -220.62329102 448.24023438 C-249.73241161 445.88223299 -278.26514888 433.94081008 -297.93969727 411.75585938 C-323.20421555 381.89093627 -328.27618819 345.53189325 -325.33911133 307.56689453 C-319.31600886 252.88261438 -290.82371078 201.10000972 -257.62329102 158.24023438 C-257.19306641 157.67997559 -256.7628418 157.1197168 -256.31958008 156.54248047 C-250.37971022 148.81306146 -244.22314739 141.42168729 -237.62329102 134.24023438 C-236.49389173 132.95241256 -235.36870602 131.66088016 -234.24829102 130.36523438 C-226.89782198 121.95991444 -219.31533118 113.83754166 -211.43579102 105.92773438 C-210.78296143 105.2703125 -210.13013184 104.61289063 -209.45751953 103.93554688 C-205.57116519 100.06142147 -201.57001639 96.37755565 -197.41601562 92.79223633 C-195.23420354 90.90339261 -193.11810856 88.94817494 -190.99829102 86.99023438 C-185.35144205 81.89682849 -179.40038814 77.24056851 -173.3815918 72.60009766 C-171.71417444 71.31052328 -170.05618329 70.00983595 -168.40063477 68.70507812 C-120.94119481 31.46438907 -61.56186477 0.15623187 0 0 Z M-129.62329102 68.24023438 C-129.62329102 78.47023438 -129.62329102 88.70023438 -129.62329102 99.24023438 C-119.39329102 99.24023438 -109.16329102 99.24023438 -98.62329102 99.24023438 C-98.62329102 89.01023437 -98.62329102 78.78023437 -98.62329102 68.24023438 C-108.85329102 68.24023438 -119.08329102 68.24023438 -129.62329102 68.24023438 Z M-197.62329102 128.24023438 C-197.62329102 138.80023438 -197.62329102 149.36023438 -197.62329102 160.24023438 C-187.06329102 160.24023438 -176.50329102 160.24023438 -165.62329102 160.24023438 C-165.62329102 149.68023437 -165.62329102 139.12023437 -165.62329102 128.24023438 C-176.18329102 128.24023438 -186.74329102 128.24023438 -197.62329102 128.24023438 Z M-257.62329102 196.24023438 C-257.62329102 206.47023437 -257.62329102 216.70023438 -257.62329102 227.24023438 C-247.39329102 227.24023438 -237.16329102 227.24023438 -226.62329102 227.24023438 C-226.62329102 217.01023438 -226.62329102 206.78023437 -226.62329102 196.24023438 C-236.85329102 196.24023438 -247.08329102 196.24023438 -257.62329102 196.24023438 Z " fill="#F37C77" transform="translate(357.623291015625,31.759765625)"/>
<path d="M0 0 C9.52669706 6.85992367 14.97868958 16.54724734 17.6875 27.875 C18.94111668 40.41116676 16.80747422 52.11108591 9.234375 62.3984375 C3.20575918 69.65510469 -3.94485871 74.34134529 -12 79 C-12.69834961 79.40750488 -13.39669922 79.81500977 -14.11621094 80.23486328 C-48.16451439 99.97862515 -92.57541395 119.68144634 -132.703125 109.16015625 C-147.60197234 103.91731542 -159.45692871 96.44437751 -166.75390625 81.87109375 C-170.60022694 73.00888149 -173.1224021 64.46644267 -173.1328125 54.76171875 C-173.13410156 53.61251953 -173.13539063 52.46332031 -173.13671875 51.27929688 C-173.13285156 50.09400391 -173.12898438 48.90871094 -173.125 47.6875 C-173.12886719 46.48287109 -173.13273437 45.27824219 -173.13671875 44.03710938 C-173.13542969 42.89435547 -173.13414062 41.75160156 -173.1328125 40.57421875 C-173.13168457 39.52838623 -173.13055664 38.48255371 -173.12939453 37.4050293 C-173 35 -173 35 -172 34 C-170.27074219 33.88985981 -168.53733606 33.84402778 -166.8046875 33.82421875 C-125.58336138 33.04000225 -85.86312494 21.72563277 -51.01245117 -0.52001953 C-34.92760129 -10.47153893 -15.82953271 -10.85876356 0 0 Z " fill="#F37C77" transform="translate(297,358)"/>
<path d="M0 0 C16.82034414 0.19378541 31.86207699 4.16251482 44.65942383 15.75219727 C58.64050616 30.75795176 61.07415438 49.7269873 60.62817383 69.41625977 C60.32703103 77.26855834 59.22390929 84.69362205 57.34692383 92.31469727 C57.15888184 93.098125 56.97083984 93.88155273 56.77709961 94.6887207 C49.65160363 123.6328595 34.42686441 167.79671229 8.34692383 185.25219727 C4.22523405 187.58041724 -0.1041467 189.05404433 -4.65307617 190.31469727 C-5.45745117 190.54157227 -6.26182617 190.76844727 -7.09057617 191.00219727 C-20.28422039 192.61117827 -32.01776719 189.53275585 -42.77416992 181.78735352 C-52.4188244 174.03881258 -57.53481769 162.60001208 -59.00073242 150.42797852 C-59.43486873 137.19625887 -53.82179385 126.25732785 -46.90307617 115.37719727 C-37.95534953 100.98669153 -31.74683166 85.42913093 -26.65307617 69.31469727 C-26.4160498 68.56897461 -26.17902344 67.82325195 -25.93481445 67.05493164 C-19.41510148 46.15089833 -17.0447595 25.39445235 -16.79492188 3.54174805 C-16.41086925 -2.48807643 -4.55427525 0.002787 0 0 Z " fill="#F27C77" transform="translate(408.653076171875,123.685302734375)"/>
</svg>
