<svg width="20" height="20" viewBox="0 0 20 20" fill="none" xmlns="http://www.w3.org/2000/svg">
<path fill-rule="evenodd" clip-rule="evenodd" d="M5.20825 7.5C5.20825 7.15483 5.48808 6.875 5.83325 6.875H10.8333C11.1784 6.875 11.4583 7.15483 11.4583 7.5C11.4583 7.84517 11.1784 8.125 10.8333 8.125H5.83325C5.48808 8.125 5.20825 7.84517 5.20825 7.5Z" fill="white"/>
<path fill-rule="evenodd" clip-rule="evenodd" d="M15.7668 8.91797C15.4676 8.91797 15.2045 9.03397 15.0146 9.22897L15.0034 9.24022C14.7817 9.45664 14.6579 9.76472 14.689 10.0921L14.6897 10.0994C14.7338 10.6286 15.2425 11.0846 15.8668 11.0846H17.4858C17.6205 11.0759 17.7085 10.9706 17.7085 10.8596V9.14297C17.7085 9.03197 17.6205 8.92664 17.4858 8.91797H15.7668ZM14.1245 8.35122C14.551 7.91642 15.1355 7.66797 15.7668 7.66797H17.5001C17.5076 7.66797 17.515 7.66809 17.5225 7.66836C18.3166 7.69673 18.9585 8.33939 18.9585 9.14297V10.8596C18.9585 11.6632 18.3166 12.3059 17.5225 12.3342C17.515 12.3345 17.5076 12.3346 17.5001 12.3346H15.8668C14.6922 12.3346 13.5521 11.4757 13.4443 10.2069C13.377 9.48838 13.6505 8.81713 14.1245 8.35122Z" fill="white"/>
<path fill-rule="evenodd" clip-rule="evenodd" d="M5.83329 3.54297C5.62975 3.54297 5.43661 3.5575 5.25333 3.5857L5.23612 3.5881C4.31334 3.7039 3.58795 4.09898 3.09125 4.68173C2.59327 5.26598 2.29163 6.07869 2.29163 7.08464V12.918C2.29163 14.026 2.65822 14.9007 3.2544 15.4969C3.85058 16.0931 4.72533 16.4596 5.83329 16.4596H13.3333C14.4413 16.4596 15.316 16.0931 15.9122 15.4969C16.5084 14.9007 16.875 14.026 16.875 12.918V12.3346H15.8666C14.692 12.3346 13.5519 11.4757 13.4441 10.2069C13.3768 9.48839 13.6504 8.81714 14.1244 8.3513C14.5507 7.91643 15.1352 7.66798 15.7666 7.66798H16.875V7.08464C16.875 6.07189 16.568 5.2541 16.0622 4.66796C15.5575 4.08315 14.8209 3.68914 13.8861 3.58044C13.8759 3.57925 13.8657 3.57781 13.8555 3.57612C13.7056 3.55114 13.5371 3.54297 13.3333 3.54297H5.83329ZM5.0719 2.34891C5.31923 2.31134 5.5732 2.29297 5.83329 2.29297H13.3333C13.558 2.29297 13.8006 2.30109 14.0454 2.34056C15.2541 2.48442 16.2829 3.01039 17.0085 3.8513C17.736 4.69433 18.125 5.81405 18.125 7.08464V8.29298C18.125 8.63814 17.8451 8.91797 17.5 8.91797H15.7666C15.4674 8.91797 15.2042 9.03397 15.0144 9.22897L15.0032 9.24022C14.7815 9.45664 14.6576 9.7648 14.6888 10.0921L14.6895 10.0994C14.7336 10.6286 15.2424 11.0846 15.8666 11.0846H17.5C17.8451 11.0846 18.125 11.3645 18.125 11.7096V12.918C18.125 14.31 17.6582 15.5186 16.796 16.3807C15.9339 17.2429 14.7253 17.7096 13.3333 17.7096H5.83329C4.44126 17.7096 3.23267 17.2429 2.37052 16.3807C1.50837 15.5186 1.04163 14.31 1.04163 12.918V7.08464C1.04163 5.82391 1.42332 4.71163 2.13993 3.87088C2.8561 3.03063 3.87339 2.50122 5.0719 2.34891Z" fill="white"/>
</svg>
