<svg width="20" height="18" viewBox="0 0 20 18" fill="none" xmlns="http://www.w3.org/2000/svg">
<path d="M18.3644 1.69208C17.33 0.615146 15.8804 0.00238436 14.3617 0.000112766C12.8417 0.00181646 11.3906 0.614253 10.3546 1.69139L10.0015 2.05278L9.64836 1.69139C7.59251 -0.45165 4.13215 -0.574721 1.91953 1.41645C1.82148 1.50472 1.72679 1.59639 1.63565 1.69139C-0.545218 3.96972 -0.545218 7.49076 1.63565 9.76909L9.48255 17.7838C9.75403 18.0614 10.2064 18.0733 10.493 17.8103C10.5024 17.8017 10.5115 17.7929 10.5204 17.7838L18.3645 9.76909C20.5452 7.49101 20.5452 3.97016 18.3644 1.69208ZM17.3302 8.81579H17.3295L10.0015 16.3016L2.67282 8.81579C1.00676 7.07494 1.00676 4.38485 2.67282 2.644C4.1858 1.05575 6.74172 0.956168 8.38156 2.42155C8.46118 2.4927 8.53778 2.56689 8.61124 2.644L9.48255 3.5343C9.76969 3.81062 10.2333 3.81062 10.5204 3.5343L11.3917 2.64469C12.9047 1.05644 15.4606 0.956858 17.1005 2.42224C17.1801 2.49339 17.2567 2.56758 17.3302 2.64469C19.0107 4.3883 19.023 7.0833 17.3302 8.81579Z" fill="white"/>
</svg>
