<svg width="25" height="25" viewBox="0 0 25 25" fill="none" xmlns="http://www.w3.org/2000/svg">
<g clip-path="url(#clip0_1130_1084)">
<path d="M24.056 10.3247L13.8587 10.3242C13.4084 10.3242 13.0435 10.6892 13.0435 11.1395V14.397C13.0435 14.8472 13.4084 15.2123 13.8587 15.2123H19.6012C18.9724 16.8441 17.7987 18.2108 16.3014 19.0792L18.7499 23.3179C22.6778 21.0462 24.9999 17.0604 24.9999 12.5986C24.9999 11.9633 24.9531 11.5092 24.8595 10.9978C24.7883 10.6093 24.451 10.3247 24.056 10.3247Z" fill="#167EE6"/>
<path d="M12.5 20.1084C9.6897 20.1084 7.23638 18.5729 5.91875 16.3008L1.68018 18.7438C3.83716 22.4822 7.87788 24.9997 12.5 24.9997C14.7674 24.9997 16.9069 24.3892 18.75 23.3252V23.3194L16.3014 19.0807C15.1813 19.7303 13.8853 20.1084 12.5 20.1084Z" fill="#12B347"/>
<path d="M18.75 23.3266V23.3208L16.3014 19.082C15.1814 19.7316 13.8854 20.1097 12.5 20.1097V25.001C14.7674 25.001 16.907 24.3905 18.75 23.3266Z" fill="#0F993E"/>
<path d="M4.89131 12.4981C4.89131 11.1129 5.26934 9.81694 5.9188 8.69697L1.68022 6.25391C0.610449 8.09116 0 10.2249 0 12.4981C0 14.7713 0.610449 16.905 1.68022 18.7423L5.9188 16.2992C5.26934 15.1792 4.89131 13.8833 4.89131 12.4981Z" fill="#FFD500"/>
<path d="M12.5 4.89131C14.3325 4.89131 16.0158 5.54248 17.3306 6.62564C17.655 6.89282 18.1264 6.87354 18.4235 6.57642L20.7316 4.26831C21.0687 3.9312 21.0447 3.3794 20.6846 3.06699C18.4817 1.15591 15.6155 0 12.5 0C7.87788 0 3.83716 2.51743 1.68018 6.25581L5.91875 8.69888C7.23638 6.42676 9.6897 4.89131 12.5 4.89131Z" fill="#FF4B26"/>
<path d="M17.3307 6.62563C17.655 6.89282 18.1265 6.87354 18.4236 6.57642L20.7317 4.26831C21.0688 3.9312 21.0447 3.37939 20.6847 3.06699C18.4818 1.15586 15.6156 0 12.5 0V4.89131C14.3325 4.89131 16.0159 5.54248 17.3307 6.62563Z" fill="#D93F21"/>
</g>
<defs>
<clipPath id="clip0_1130_1084">
<rect width="25" height="25" fill="white"/>
</clipPath>
</defs>
</svg>
