<?xml version="1.0" encoding="UTF-8"?>
<svg version="1.1" xmlns="http://www.w3.org/2000/svg" width="512" height="512">
<path d="M0 0 C9.44511988 8.03109338 16.54568801 17.44668739 23.43017578 27.68164062 C25.62028258 30.91605029 27.86613121 34.11006615 30.11303711 37.30517578 C31.8845824 39.82613604 33.64544622 42.35434196 35.40625 44.8828125 C37.80809075 48.32133397 40.2477886 51.72803342 42.71875 55.1171875 C57.17555381 75.0721346 68.30090084 96.64679749 64.69970703 122.12451172 C60.6771084 144.06176617 47.06447146 157.9000602 29.26757812 170.20507812 C28.25115234 170.90052734 27.23472656 171.59597656 26.1875 172.3125 C25.15173828 173.02728516 24.11597656 173.74207031 23.04882812 174.47851562 C19.38011722 177.00775687 15.70769375 179.52820417 12 182 C13.5753619 187.49606595 16.11273916 192.22044577 18.875 197.1875 C19.60203125 198.49992676 19.60203125 198.49992676 20.34375 199.83886719 C34.57870328 225.25190878 51.37214716 250.04896188 70.46484375 272.06640625 C73.73692384 275.85274238 76.8910978 279.72926103 80.05078125 283.609375 C82.34602523 286.42438365 84.66739759 289.21592616 87 292 C90.39963717 291.37401675 92.58432188 290.09408345 95.37890625 288.0859375 C96.21236572 287.49288818 97.0458252 286.89983887 97.90454102 286.28881836 C98.78166748 285.6572583 99.65879395 285.02569824 100.5625 284.375 C102.37394981 283.09096507 104.1864409 281.80839781 106 280.52734375 C107.30130859 279.60671143 107.30130859 279.60671143 108.62890625 278.66748047 C126.45344493 266.13230757 142.54458851 260.81733424 164.3359375 263.39453125 C189.30055354 268.6952374 205.92392358 287.46587607 219.47119141 307.734375 C222.24071178 311.83867859 225.09321113 315.88483533 227.9375 319.9375 C228.52708496 320.78207764 229.11666992 321.62665527 229.72412109 322.49682617 C232.53799885 326.52233112 235.37290586 330.52752435 238.27734375 334.48828125 C253.5722087 355.44412451 262.86389112 377.01004833 259.57421875 403.41796875 C254.86699329 424.81707346 240.89068345 437.34752989 223.6171875 449.19921875 C220.80412741 451.13477203 218.01053755 453.09640028 215.21875 455.0625 C209.50469587 459.07919904 203.76139821 463.05156825 198 467 C197.27167969 467.50144531 196.54335938 468.00289063 195.79296875 468.51953125 C176.37910848 481.8067295 156.92140454 484.14710426 134.0234375 480.03125 C96.5804619 472.68548912 63.48033605 451.34377136 34 428 C33.45730469 427.57058105 32.91460937 427.14116211 32.35546875 426.69873047 C26.5835651 422.10693502 21.02518978 417.31199486 15.58203125 412.3359375 C14.1958312 411.08185637 12.80378369 409.83344807 11.37866211 408.6237793 C5.16743387 403.32742729 -0.5700462 397.58152458 -6.32739258 391.80297852 C-8.058947 390.066064 -9.79578359 388.33456111 -11.53320312 386.60351562 C-17.23681302 380.90363485 -22.78475858 375.15582141 -28 369 C-29.02090997 367.84281728 -30.04433583 366.68784913 -31.0703125 365.53515625 C-39.17393776 356.35271206 -46.68169503 346.81568714 -54 337 C-54.58458984 336.22043945 -55.16917969 335.44087891 -55.77148438 334.63769531 C-72.5958418 312.18399883 -87.72776704 288.73370398 -101 264 C-101.70141113 262.70570068 -101.70141113 262.70570068 -102.41699219 261.38525391 C-133.6332625 203.63412494 -164.85479108 125.47863714 -145.35717773 58.9753418 C-138.79177597 38.29181834 -125.21055257 26.83157251 -108 15 C-106.6130526 14.03809001 -105.22632365 13.07586496 -103.83984375 12.11328125 C-101.21842876 10.29870197 -98.58901353 8.49660601 -95.953125 6.703125 C-93.21782138 4.8405005 -90.50216611 2.95281878 -87.796875 1.046875 C-59.5520554 -18.79284356 -28.72896897 -22.50740881 0 0 Z M-80.0090332 32.94335938 C-85.79499243 37.1592502 -91.65690463 41.2453182 -97.61010742 45.22167969 C-109.56674551 53.30387817 -115.13060117 61.74221595 -118.45703125 76.015625 C-132.3168052 152.1945264 -85.91713958 237.72943725 -44.52026367 298.10888672 C-25.29659292 325.86620968 -3.42966369 351.57826419 20.375 375.5 C21.33744629 376.46945557 21.33744629 376.46945557 22.31933594 377.45849609 C26.7161239 381.84052974 31.29538018 385.95256388 36 390 C37.09454526 390.96133488 38.18833909 391.92352623 39.28125 392.88671875 C67.95402998 417.93511808 105.3650463 445.58618483 144 451 C144.95390625 451.1340625 145.9078125 451.268125 146.890625 451.40625 C161.7612125 453.08395731 171.82322345 448.64411748 183.5 439.9375 C185.08477807 438.77315984 186.67073948 437.61042879 188.2578125 436.44921875 C189.04961914 435.86962402 189.84142578 435.2900293 190.65722656 434.69287109 C194.18421124 432.14429755 197.77617585 429.69552289 201.375 427.25 C220.24260916 415.2512093 220.24260916 415.2512093 230 396 C232.41216466 376.49422402 219.83620165 360.5239862 208.82421875 345.8203125 C205.92234642 341.93041935 203.17015771 337.94739391 200.4375 333.9375 C183.92247235 307.93673158 183.92247235 307.93673158 158 293 C143.2844417 291.08990104 133.67424923 298.23219363 122.29492188 306.36572266 C119.87903852 308.08614001 117.44944032 309.78552373 115.015625 311.48046875 C114.16919434 312.07029541 113.32276367 312.66012207 112.45068359 313.26782227 C110.74008146 314.45973092 109.02946955 315.65162556 107.31884766 316.84350586 C103.42781818 319.56435488 99.56131333 322.30620149 95.7578125 325.1484375 C94.79705811 325.85987915 94.79705811 325.85987915 93.81689453 326.58569336 C92.64040998 327.4610219 91.47150712 328.34667303 90.31201172 329.24438477 C86.60694979 331.99104133 86.60694979 331.99104133 83.8828125 332.03125 C81.29220855 330.61233 79.78168397 328.81745281 77.875 326.5625 C74.65992488 322.8556453 71.37418704 319.31551165 67.875 315.875 C63.70110299 311.73957208 59.79504309 307.48221139 56 303 C55.16726563 302.03320312 54.33453125 301.06640625 53.4765625 300.0703125 C47.55296197 293.16998168 41.85358597 286.12593418 36.39257812 278.85205078 C35.42380653 277.56363891 34.4508315 276.27838134 33.47460938 274.99560547 C18.52391441 255.33101243 4.91489465 234.64364411 -7 213 C-7.56879883 211.9677832 -8.13759766 210.93556641 -8.72363281 209.87207031 C-10.5958292 206.46132651 -12.45687267 203.04478469 -14.3125 199.625 C-14.88766357 198.56732422 -15.46282715 197.50964844 -16.05541992 196.41992188 C-27 176.05820783 -27 176.05820783 -27 172 C-25.20605469 170.52636719 -25.20605469 170.52636719 -22.671875 168.796875 C-21.73617676 168.15290771 -20.80047852 167.50894043 -19.83642578 166.84545898 C-18.81790527 166.15395752 -17.79938477 165.46245605 -16.75 164.75 C-14.63783787 163.29844328 -12.52586222 161.84661518 -10.4140625 160.39453125 C-9.34188477 159.66057129 -8.26970703 158.92661133 -7.16503906 158.17041016 C-2.46844993 154.94974698 2.20588515 151.69781474 6.875 148.4375 C7.66293945 147.89125977 8.45087891 147.34501953 9.26269531 146.78222656 C26.24846453 135.10017669 26.24846453 135.10017669 35 117 C37.53334337 100.63666983 27.18262359 85.72429611 18.03125 73.1953125 C15.01483786 69.05285491 12.10550705 64.83946903 9.19482422 60.62231445 C-9.14339833 30.9906472 -9.14339833 30.9906472 -38 14 C-54.40845515 11.84721068 -67.57999681 23.87744325 -80.0090332 32.94335938 Z " fill="#3B3B3A" transform="translate(201,23)"/>
</svg>
