<?xml version="1.0" encoding="UTF-8"?>
<svg version="1.1" xmlns="http://www.w3.org/2000/svg" width="512" height="512">
<path d="M0 0 C0.99435059 0.21430664 1.98870117 0.42861328 3.01318359 0.64941406 C23.03123189 5.12829346 41.95021167 12.29398175 60 22 C60.64743164 22.34111816 61.29486328 22.68223633 61.96191406 23.03369141 C77.84366043 31.42810535 92.11059575 41.72616534 105.50439453 53.671875 C106.86386528 54.87910988 108.24154184 56.06576468 109.62109375 57.25 C113.83350599 60.88702372 117.62563464 64.64972605 121.2109375 68.90625 C122.43041215 70.3334081 123.68792852 71.72871479 124.9765625 73.09375 C153.23557044 103.09967843 170.83973799 142.99390674 179 183 C179.24991699 184.18698486 179.24991699 184.18698486 179.50488281 185.39794922 C185.17673186 213.63389337 184.05870286 245.9519867 178 274 C177.67854004 275.49152588 177.67854004 275.49152588 177.35058594 277.01318359 C172.87170654 297.03123189 165.70601825 315.95021167 156 334 C155.65888184 334.64743164 155.31776367 335.29486328 154.96630859 335.96191406 C146.57189465 351.84366043 136.27383466 366.11059575 124.328125 379.50439453 C123.12089012 380.86386528 121.93423532 382.24154184 120.75 383.62109375 C117.11297628 387.83350599 113.35027395 391.62563464 109.09375 395.2109375 C107.6665919 396.43041215 106.27128521 397.68792852 104.90625 398.9765625 C68.31532531 433.43719363 14.13816769 455.75408222 -36.1171875 456.23828125 C-36.96372391 456.2480751 -37.81026031 456.25786896 -38.68244934 456.26795959 C-58.12887648 456.44643239 -76.90544843 456.12464915 -96 452 C-97.49152588 451.67854004 -97.49152588 451.67854004 -99.01318359 451.35058594 C-119.03123189 446.87170654 -137.95021167 439.70601825 -156 430 C-156.64743164 429.65888184 -157.29486328 429.31776367 -157.96191406 428.96630859 C-173.84366043 420.57189465 -188.11059575 410.27383466 -201.50439453 398.328125 C-202.86386528 397.12089012 -204.24154184 395.93423532 -205.62109375 394.75 C-209.83350599 391.11297628 -213.62563464 387.35027395 -217.2109375 383.09375 C-218.43041215 381.6665919 -219.68792852 380.27128521 -220.9765625 378.90625 C-249.23557044 348.90032157 -266.83973799 309.00609326 -275 269 C-275.16661133 268.20867676 -275.33322266 267.41735352 -275.50488281 266.60205078 C-281.17673186 238.36610663 -280.05870286 206.0480133 -274 178 C-273.78569336 177.00564941 -273.57138672 176.01129883 -273.35058594 174.98681641 C-268.87170654 154.96876811 -261.70601825 136.04978833 -252 118 C-251.65888184 117.35256836 -251.31776367 116.70513672 -250.96630859 116.03808594 C-242.57189465 100.15633957 -232.27383466 85.88940425 -220.328125 72.49560547 C-219.12089012 71.13613472 -217.93423532 69.75845816 -216.75 68.37890625 C-213.11297628 64.16649401 -209.35027395 60.37436536 -205.09375 56.7890625 C-203.6665919 55.56958785 -202.27128521 54.31207148 -200.90625 53.0234375 C-170.90032157 24.76442956 -131.00609326 7.16026201 -91 -1 C-89.81301514 -1.24991699 -89.81301514 -1.24991699 -88.60205078 -1.50488281 C-60.36610663 -7.17673186 -28.0480133 -6.05870286 0 0 Z M-42 9 C-42 41.67 -42 74.34 -42 108 C-10.32 108 21.36 108 54 108 C47.90375849 92.31131984 47.90375849 92.31131984 40.6875 77.25 C40.22657959 76.3849585 39.76565918 75.51991699 39.29077148 74.62866211 C24.09648345 46.67065663 2.08592999 20.98604237 -29.015625 11.03515625 C-33.63255676 9.69575225 -37.12211952 9 -42 9 Z M-108.1875 36.8125 C-127.43095554 56.37798249 -141.37934929 82.13804788 -150 108 C-118.32 108 -86.64 108 -54 108 C-54 75.33 -54 42.66 -54 9 C-74.788264 9 -93.98711807 22.86914885 -108.1875 36.8125 Z M-167 44 C-167.55123535 44.37302246 -168.1024707 44.74604492 -168.67041016 45.13037109 C-192.84245105 61.57004842 -215.41019079 82.46783389 -230 108 C-207.89 108 -185.78 108 -163 108 C-159.7 99.75 -156.4 91.5 -153 83 C-146.1991025 69.18343982 -139.24746421 56.2649818 -130 44 C-129.27554688 43.03320312 -128.55109375 42.06640625 -127.8046875 41.0703125 C-121.92597323 33.58634046 -115.17049226 26.97186859 -108.36938477 20.33764648 C-107.23850531 19.23297747 -106.11785106 18.11785106 -105 17 C-125.26588156 17 -150.72391958 32.86373445 -167 44 Z M10 17 C12.87750112 20.56262043 15.7261485 23.88427053 19.3125 26.75 C39.78320736 43.8089228 52.94065613 72.15917209 62.81835938 96.20019531 C64.48870517 100.15794853 66.25531189 104.07445176 68 108 C89.78 108 111.56 108 134 108 C127.16588889 96.04030556 118.50075686 85.91266527 109 76 C108.44715332 75.41460449 107.89430664 74.82920898 107.32470703 74.22607422 C81.76172576 47.25751941 48.68086177 27.44676777 13 17 C12.01 17 11.02 17 10 17 Z M-238 120 C-254.06385826 152.12771653 -265 183.76269494 -265 220 C-237.61 220 -210.22 220 -182 220 C-181.34 209.44 -180.68 198.88 -180 188 C-177.65202512 167.45521978 -174.80753511 146.85704749 -168.8203125 126.99609375 C-167.82395006 123.8747257 -167.82395006 123.8747257 -168 120 C-191.1 120 -214.2 120 -238 120 Z M-154 120 C-157.1605159 130.11365088 -160.0582961 139.75120314 -162.125 150.0625 C-162.37725342 151.30257812 -162.62950684 152.54265625 -162.8894043 153.8203125 C-165.13663272 165.15453927 -166.78742675 176.51195539 -168 188 C-168.13148438 189.20140625 -168.26296875 190.4028125 -168.3984375 191.640625 C-169.28095898 201.13369385 -169 210.3901944 -169 220 C-131.05 220 -93.1 220 -54 220 C-54 187 -54 154 -54 120 C-87 120 -120 120 -154 120 Z M-42 120 C-42 153 -42 186 -42 220 C-15.27 220 11.46 220 39 220 C40.59069306 207.08061128 40.59069306 207.08061128 36.4375 203.25 C35.89222656 202.91871094 35.34695313 202.58742188 34.78515625 202.24609375 C27.54797676 197.19432076 23.38342913 186.84729378 21.4140625 178.5234375 C19.10553866 164.45450919 23.30248195 152.37870301 31.125 140.875 C38.54995953 132.46629189 50.19605255 127.64921195 61.171875 126.83984375 C73.36222883 126.39338175 85.30812291 130.22263221 94.52734375 138.36328125 C103.37848178 148.20048771 107.43767621 159.83977591 107.27734375 172.93359375 C106.18811418 184.97648405 100.8134152 194.90118603 92 203 C91.01 203.99 90.02 204.98 89 206 C89 210.62 89 215.24 89 220 C115.4 220 141.8 220 169 220 C169.10026348 210.65366311 169.10026348 210.65366311 168.30078125 201.58984375 C168.06911255 199.96671265 168.06911255 199.96671265 167.83276367 198.31079102 C167.57523315 196.64101196 167.57523315 196.64101196 167.3125 194.9375 C167.13243408 193.75792725 166.95236816 192.57835449 166.7668457 191.36303711 C165.17337039 181.35497749 163.02803935 171.66872931 160 162 C159.74879395 161.19546387 159.49758789 160.39092773 159.23876953 159.56201172 C154.93405356 146.04683795 149.91188234 131.86782352 142 120 C139.50943669 119.70529935 137.26688652 119.60856097 134.7741394 119.63923645 C134.02105692 119.63667318 133.26797444 119.6341099 132.49207127 119.63146895 C129.95527472 119.62650672 127.41906642 119.64306363 124.88232422 119.65942383 C123.06924453 119.66026958 121.25616381 119.65979598 119.44308472 119.65809631 C114.50938689 119.65723289 109.5759063 119.67491466 104.64225912 119.69581819 C99.49061264 119.7145273 94.33896159 119.71633087 89.18728638 119.71989441 C79.42666418 119.72923187 69.66614236 119.75386861 59.90556443 119.78394288 C46.7197761 119.82369204 33.53396047 119.83992802 20.34812737 119.85744953 C-0.434657 119.88568852 -21.2172295 119.94544674 -42 120 Z M38.125 152.3125 C33.4034674 159.59901743 31.90860871 167.95310233 33.43359375 176.40234375 C35.88059962 186.26636119 41.70119115 192.52278616 50 198 C52.28128029 202.56256058 51.18502621 208.92807179 51.1875 213.9375 C51.19974609 215.23880859 51.21199219 216.54011719 51.22460938 217.88085938 C51.22654297 219.12544922 51.22847656 220.37003906 51.23046875 221.65234375 C51.23457764 222.79695068 51.23868652 223.94155762 51.24291992 225.12084961 C51 228 51 228 49 231 C46.0722886 231.31591042 43.35170676 231.43736053 40.41943359 231.43237305 C39.53156662 231.4425647 38.64369965 231.45275635 37.72892761 231.46325684 C34.78536787 231.49352395 31.84213277 231.50267363 28.8984375 231.51171875 C26.86104234 231.52855528 24.82365764 231.54670411 22.7862854 231.56611633 C17.4170661 231.61373391 12.04788916 231.64346712 6.67852783 231.66955566 C0.23988204 231.70452956 -6.19860097 231.76157548 -12.63711548 231.81494904 C-22.42472347 231.89360065 -32.21211638 231.94410228 -42 232 C-42 258.73 -42 285.46 -42 313 C-29.08061128 314.59069306 -29.08061128 314.59069306 -25.25 310.4375 C-24.91871094 309.89222656 -24.58742188 309.34695313 -24.24609375 308.78515625 C-19.03267035 301.31639608 -8.51367953 297.37841988 0 295.25 C14.23063439 294.0641138 25.34401883 297.11393281 37.125 305.125 C45.53370811 312.54995953 50.35078805 324.19605255 51.16015625 335.171875 C51.65439447 348.66672719 46.80892053 359.93496283 38 370 C27.39448088 378.06941672 16.34939479 382.01530608 3 381 C-7.73734629 379.32848699 -16.68816338 375.1720527 -24 367 C-25.32 365.68 -26.64 364.36 -28 363 C-32.62 363 -37.24 363 -42 363 C-42 389.4 -42 415.8 -42 443 C-29.94760457 443.05035969 -29.94760457 443.05035969 -18.125 441.875 C-17.24626221 441.74303223 -16.36752441 441.61106445 -15.4621582 441.47509766 C35.59251123 433.31962898 83.45683335 407.63378169 117 368 C117.48831299 367.42854248 117.97662598 366.85708496 118.47973633 366.26831055 C145.14739158 334.75114937 161.7545352 296.62952356 167.875 255.875 C167.99536621 255.08327393 168.11573242 254.29154785 168.23974609 253.47583008 C168.90079355 248.52514828 169.04864423 243.67546861 169.02783203 238.68017578 C169.02180466 236.80037521 169.02180466 236.80037521 169.01565552 234.88259888 C169.0104892 233.93134125 169.00532288 232.98008362 169 232 C167.87691437 231.99413376 166.75382874 231.98826752 165.59671021 231.98222351 C155.03099893 231.9250986 144.46549551 231.85239111 133.8999958 231.76428509 C128.46768796 231.71948959 123.03545671 231.68025393 117.60302734 231.65356445 C112.36390519 231.62762279 107.12507638 231.58728591 101.8861351 231.53681374 C99.8838248 231.52008295 97.8814637 231.50860753 95.87909317 231.50238609 C93.08200313 231.49281224 90.28567415 231.46483477 87.48876953 231.43237305 C86.65439362 231.43380814 85.8200177 231.43524323 84.96035767 231.4367218 C82.65725708 231.39872742 82.65725708 231.39872742 79 231 C75.63311541 225.94967311 76.58922099 220.05706081 76.5625 214.125 C76.52962891 212.84496094 76.49675781 211.56492187 76.46289062 210.24609375 C76.40870809 200.81833221 76.40870809 200.81833221 79.33984375 196.76171875 C80.21769531 196.18035156 81.09554687 195.59898437 82 195 C89.22008361 189.43451888 93.70259497 183.1899523 95 174 C95.78376049 164.28136988 93.18225746 156.4340344 86.87890625 148.97265625 C80.66530993 142.44902602 73.07748128 139.04678196 64 138.625 C53.36882608 139.1597673 44.71266784 143.99434031 38.125 152.3125 Z M-265 232 C-265 239.76062805 -264.89706802 246.85186635 -263.8125 254.4375 C-263.68012939 255.37561523 -263.54775879 256.31373047 -263.41137695 257.28027344 C-259.76211057 281.7780999 -252.16745141 304.90649224 -241 327 C-240.62056244 327.86076141 -240.24112488 328.72152283 -239.85018921 329.60836792 C-238.18039754 332.30723491 -238.18039754 332.30723491 -234.98176575 332.60127258 C-233.7448851 332.59016953 -232.50800446 332.57906647 -231.23364258 332.56762695 C-230.55045456 332.56835709 -229.86726654 332.56908722 -229.16337585 332.56983948 C-226.9062851 332.56635724 -224.65126111 332.52747226 -222.39453125 332.48828125 C-220.82941312 332.47895523 -219.2642804 332.47183812 -217.69914246 332.46684265 C-213.5805732 332.44775576 -209.46288626 332.39864169 -205.34466553 332.34332275 C-201.14200782 332.29216595 -196.93920747 332.26933632 -192.73632812 332.24414062 C-184.4904806 332.19052343 -176.24535007 332.10519158 -168 332 C-168.58794101 327.77148836 -169.24576133 323.65297806 -170.26953125 319.5078125 C-177.32443031 290.34081783 -180.501781 261.96438008 -182 232 C-209.39 232 -236.78 232 -265 232 Z M-169 232 C-169.0205506 248.58656014 -169.0205506 248.58656014 -167.8125 265 C-167.68012939 266.22348145 -167.54775879 267.44696289 -167.41137695 268.70751953 C-164.11131045 301.22989467 -164.11131045 301.22989467 -154 332 C-121 332 -88 332 -54 332 C-54 299 -54 266 -54 232 C-91.95 232 -129.9 232 -169 232 Z M-16.6015625 318.9765625 C-17.76501955 320.6298962 -18.88637951 322.31269622 -20 324 C-22.34938888 325.17469444 -23.95073205 325.20034889 -26.5703125 325.31640625 C-27.78098389 325.37356812 -27.78098389 325.37356812 -29.01611328 325.43188477 C-30.0420459 325.47498779 -31.06797852 325.51809082 -32.125 325.5625 C-37.013125 325.7790625 -37.013125 325.7790625 -42 326 C-42 333.92 -42 341.84 -42 350 C-35.64353779 350.13070081 -35.64353779 350.13070081 -29.28637695 350.20776367 C-24.7969549 350.36562849 -22.62198089 350.51002807 -19 353.36328125 C-18.34 354.23339844 -17.68 355.10351562 -17 356 C-11.43451888 363.22008361 -5.1899523 367.70259497 4 369 C13.71863012 369.78376049 21.5659656 367.18225746 29.02734375 360.87890625 C35.55097398 354.66530993 38.95321804 347.07748128 39.375 338 C38.86769315 327.9147399 34.60554365 320.2889953 27.33984375 313.43359375 C21.43126247 308.75422087 13.58634512 306.34399672 6.05859375 306.72265625 C-3.17137405 307.96616235 -10.66286109 311.64733589 -16.6015625 318.9765625 Z M-230 344 C-223.16588889 355.95969444 -214.50075686 366.08733473 -205 376 C-204.44715332 376.58539551 -203.89430664 377.17079102 -203.32470703 377.77392578 C-179.63601674 402.76513223 -150.06611555 420.74464262 -117.6875 432.3125 C-116.86386963 432.60874268 -116.04023926 432.90498535 -115.19165039 433.21020508 C-114.43102295 433.46697021 -113.67039551 433.72373535 -112.88671875 433.98828125 C-112.22889404 434.21040283 -111.57106934 434.43252441 -110.89331055 434.66137695 C-108.6528205 435.06209387 -107.14866362 434.68875462 -105 434 C-105.67482422 433.43345703 -105.67482422 433.43345703 -106.36328125 432.85546875 C-126.631939 415.51134679 -140.71123258 394.35029243 -152.25 370.4375 C-152.63824951 369.63594482 -153.02649902 368.83438965 -153.42651367 368.00854492 C-157.12937363 360.13103809 -159.91208599 352.23443736 -163 344 C-185.11 344 -207.22 344 -230 344 Z M-150 344 C-144.91669302 357.69519734 -144.91669302 357.69519734 -138.875 370.875 C-138.40835938 371.79917725 -137.94171875 372.72335449 -137.4609375 373.67553711 C-130.03500276 388.05464511 -120.8904259 401.05032295 -110 413 C-109.27554688 413.80695313 -108.55109375 414.61390625 -107.8046875 415.4453125 C-94.45572677 429.58240375 -77.04286667 439.2335362 -58 443 C-56.68 443 -55.36 443 -54 443 C-54 410.33 -54 377.66 -54 344 C-85.68 344 -117.36 344 -150 344 Z " fill="#000000" transform="translate(304,30)"/>
</svg>
