<?xml version="1.0" encoding="UTF-8"?>
<svg version="1.1" xmlns="http://www.w3.org/2000/svg" width="512" height="512">
<path d="M0 0 C1.7144722 1.47204683 3.42337707 2.95061863 5.125 4.4375 C15.42212861 13.04434524 26.11416357 16.65446045 39.36328125 17.8203125 C56.79494502 19.39588816 71.68534574 24.85457704 83.9921875 37.8671875 C94.5179825 50.55211994 97.86547314 63.06169148 99.5625 79 C101.15111142 93.78655654 104.88592892 103.57570844 115.140625 114.60546875 C127.342316 127.76187222 132.72936091 143.31037722 132.40234375 161.1328125 C131.62127221 178.39410505 122.86264005 191.99804806 111.390625 204.296875 C102.6499837 213.75839393 100.18873274 225.74272243 99.25 238.1875 C98.55411213 246.07230016 97.27131251 253.11158416 94.125 260.4375 C93.82722656 261.15808594 93.52945312 261.87867188 93.22265625 262.62109375 C86.47996753 277.46658436 73.82745784 287.29171453 59.125 293.4375 C58.465 293.4375 57.805 293.4375 57.125 293.4375 C65.0262355 307.24306711 73.00273007 320.99165073 81.21508789 334.61499023 C84.75018613 340.48009137 88.27079623 346.35301557 91.765625 352.2421875 C92.36243324 353.24780731 92.36243324 353.24780731 92.97129822 354.27374268 C94.99545139 357.68606178 97.0168852 361.09996791 99.03540039 364.515625 C102.86133207 370.98341877 106.71705691 377.42797523 110.66796875 383.8203125 C111.37657771 384.97378906 112.084918 386.12743071 112.79296875 387.28125 C114.10348258 389.41051811 115.42451239 391.53336303 116.7578125 393.6484375 C117.62599609 395.06382812 117.62599609 395.06382812 118.51171875 396.5078125 C119.01920654 397.32008301 119.52669434 398.13235352 120.04956055 398.96923828 C121.38234718 402.02814245 121.52758986 404.13329345 121.125 407.4375 C120.03076172 409.32226562 120.03076172 409.32226562 118.125 410.4375 C115.28564453 410.59960938 115.28564453 410.59960938 111.6328125 410.28125 C110.94599396 410.2253772 110.25917542 410.16950439 109.55154419 410.11193848 C107.07423099 409.90445463 104.60000713 409.67085365 102.125 409.4375 C100.06484391 409.25447221 98.00461821 409.07222683 95.94433594 408.890625 C90.16210922 408.37395551 84.38254644 407.83193639 78.60351562 407.28076172 C74.97298255 406.93492639 71.34199697 406.59416552 67.7109375 406.25390625 C65.38799251 406.03415335 63.06507481 405.81411178 60.7421875 405.59375 C59.66403778 405.49267944 58.58588806 405.39160889 57.47506714 405.28747559 C52.65590937 404.8251412 47.88762104 404.33336773 43.125 403.4375 C42.78855469 404.44683594 42.78855469 404.44683594 42.4453125 405.4765625 C40.74286288 409.29448207 38.44905959 412.43929714 36 415.8125 C34.91448552 417.32879815 33.82990056 418.84576204 32.74609375 420.36328125 C32.16327637 421.17748535 31.58045898 421.99168945 30.97998047 422.83056641 C27.63743879 427.52807365 24.3516873 432.26505471 21.0625 437 C20.38541992 437.97332275 19.70833984 438.94664551 19.01074219 439.94946289 C15.90334652 444.42037658 12.80465923 448.89680389 9.73046875 453.390625 C9.22201416 454.13368896 8.71355957 454.87675293 8.18969727 455.64233398 C7.25710915 457.00761009 6.32648005 458.37422725 5.39819336 459.74243164 C3.75450186 462.15090304 2.19210783 464.37039217 0.125 466.4375 C-2.8125 466.8125 -2.8125 466.8125 -5.875 466.4375 C-8.33546429 463.78540177 -9.33813471 461.49443659 -10.037323 457.97991943 C-10.21933258 457.09196182 -10.40134216 456.20400421 -10.58886719 455.28913879 C-10.77594238 454.32199448 -10.96301758 453.35485016 -11.15576172 452.35839844 C-11.46623947 450.82064003 -11.46623947 450.82064003 -11.7829895 449.2518158 C-12.46684814 445.85207907 -13.13573542 442.44957346 -13.8046875 439.046875 C-14.28072078 436.6660907 -14.75771566 434.2854985 -15.23562622 431.90509033 C-16.49563951 425.61637961 -17.74314878 419.32525226 -18.98791504 413.0335083 C-20.2389004 406.72017014 -21.50044037 400.40894474 -22.76171875 394.09765625 C-24.1886818 386.95678322 -25.61488765 379.81578089 -27.03121948 372.67279053 C-29.89490882 358.24301629 -32.8463198 343.83356115 -35.875 329.4375 C-37.86067708 329.47005208 -39.84635417 329.50260417 -41.83203125 329.53515625 C-43.875 329.4375 -43.875 329.4375 -46.875 328.4375 C-46.91873308 329.0148823 -46.96246616 329.5922646 -47.00752449 330.18714333 C-47.61616566 337.2115491 -48.8785905 343.99737431 -50.32763672 350.89208984 C-50.5765567 352.09656769 -50.82547668 353.30104553 -51.0819397 354.54202271 C-51.75980822 357.81519802 -52.4423548 361.08731928 -53.12775564 364.35892057 C-53.70101964 367.09748789 -54.27139871 369.83665326 -54.84193432 372.57579005 C-56.18758859 379.03515018 -57.53913448 385.49325889 -58.89404297 391.95068359 C-60.29014259 398.60510633 -61.67458113 405.26188336 -63.05366313 411.91985166 C-64.24123239 417.65070986 -65.43677236 423.37986709 -66.63854802 429.10776293 C-67.35493499 432.52284514 -68.06811149 435.93852021 -68.7732811 439.35593796 C-69.55847918 443.15951266 -70.36023364 446.95949085 -71.16357422 450.75927734 C-71.50971771 452.45337738 -71.50971771 452.45337738 -71.862854 454.18170166 C-72.08430084 455.21610382 -72.30574768 456.25050598 -72.53390503 457.31625366 C-72.72157377 458.21399694 -72.90924252 459.11174023 -73.10259819 460.03668785 C-73.96146125 462.70624255 -74.98284991 464.375388 -76.875 466.4375 C-79.625 467.25 -79.625 467.25 -82.875 466.4375 C-88.44791643 460.6050605 -92.71100201 453.34391651 -97.125 446.625 C-98.52164436 444.52311112 -99.91880309 442.42156396 -101.31640625 440.3203125 C-103.68303581 436.75619996 -106.04132855 433.18684873 -108.38623047 429.60839844 C-110.51426873 426.36152985 -112.65685357 423.12466693 -114.80822754 419.89321899 C-115.64129877 418.6357679 -116.4689114 417.37468257 -117.29089355 416.10995483 C-118.44465024 414.3359938 -119.61644209 412.57531895 -120.79296875 410.81640625 C-121.46094482 409.8013501 -122.1289209 408.78629395 -122.81713867 407.74047852 C-125.29557011 404.9668347 -126.25018841 404.86046462 -129.875 404.4375 C-131.99563257 404.54066918 -134.112997 404.72552521 -136.22241211 404.96655273 C-137.48399643 405.10677353 -138.74558075 405.24699432 -140.0453949 405.39146423 C-141.41438507 405.5512789 -142.78336784 405.71115696 -144.15234375 405.87109375 C-145.56563373 406.03022921 -146.97901135 406.18858815 -148.39247131 406.34620667 C-152.10793047 406.76219149 -155.82235159 407.18677785 -159.53656006 407.61376953 C-165.4769877 408.29560681 -171.41870448 408.96599188 -177.36078072 409.63328743 C-179.42946463 409.86709512 -181.49757296 410.10555463 -183.56565857 410.34458923 C-185.46276329 410.55964867 -185.46276329 410.55964867 -187.39819336 410.77905273 C-188.50674179 410.90642319 -189.61529022 411.03379364 -190.75743103 411.1650238 C-199.11212377 411.89522574 -199.11212377 411.89522574 -201.75 410.3125 C-203.39542521 407.57012465 -203.13051027 405.60162063 -202.875 402.4375 C-201.6159668 399.69384766 -201.6159668 399.69384766 -199.82421875 396.8515625 C-199.15487305 395.77205322 -198.48552734 394.69254395 -197.79589844 393.58032227 C-197.43298706 393.00871368 -197.07007568 392.4371051 -196.69616699 391.84817505 C-195.13823338 389.39422412 -193.60939272 386.92259091 -192.07846069 384.45173645 C-191.2658398 383.14074519 -190.45170359 381.83069212 -189.63613892 380.52153015 C-185.43016452 373.76010565 -181.37813269 366.91039375 -177.33453369 360.05105591 C-171.23111944 349.70124594 -165.05436164 339.40850173 -158.68383789 329.22021484 C-151.53838287 317.75305088 -144.72719051 306.08132092 -137.875 294.4375 C-138.89078125 293.98761719 -139.9065625 293.53773438 -140.953125 293.07421875 C-156.82475163 285.7702901 -168.874431 275.60289872 -175.6875 259.0625 C-178.35414684 251.58543142 -179.53671454 244.20584839 -180.2578125 236.328125 C-181.6207312 222.00062275 -185.64227304 211.59054132 -195.26953125 200.73828125 C-208.37828194 185.70350722 -213.01436982 169.36229352 -212.0390625 149.62451172 C-210.92842615 134.81933254 -203.35333343 123.35495212 -193.875 112.4375 C-183.8809281 100.86751656 -181.5792681 90.69311773 -180.02929688 75.80419922 C-178.03347467 57.55006035 -171.32534782 42.29620935 -156.875 30.4375 C-144.57173745 21.88558269 -132.99205698 19.04155504 -118.2890625 17.70898438 C-104.68811524 16.30055295 -93.10026762 11.51703587 -83.125 2.0625 C-59.80814254 -19.64124154 -24.5984951 -20.11987254 0 0 Z M-79.12109375 13.9765625 C-91.49608799 25.035068 -106.34650796 28.30025211 -122.4921875 29.109375 C-135.8575825 30.40578745 -147.77904697 36.69302381 -156.875 46.4375 C-165.41405975 57.38501249 -167.87797475 68.35103298 -169.3125 81.875 C-171.16136026 99.12471464 -176.58135274 110.16596917 -187.9375 123.3125 C-198.15772419 135.4305436 -202.05129631 147.74129614 -200.875 163.4375 C-198.97941191 175.37378127 -194.48940506 183.95106257 -186.28515625 192.67578125 C-183.59164635 195.76218563 -181.29990116 198.95055923 -179.0625 202.375 C-178.35480469 203.45652344 -177.64710938 204.53804687 -176.91796875 205.65234375 C-171.95073194 214.2944798 -170.25492326 223.05833265 -169.375 232.875 C-168.00076448 245.8085357 -165.91161103 255.89076637 -157.875 266.4375 C-156.76125 267.984375 -156.76125 267.984375 -155.625 269.5625 C-145.22838754 280.43168575 -132.3141247 285.02000781 -117.63232422 286.06933594 C-101.98784281 287.19659166 -88.58564819 292.02611799 -77 302.875 C-64.65230981 314.35177161 -51.98632181 318.28088967 -35.51171875 317.78515625 C-23.00269626 317.07767251 -12.58314219 311.14552341 -3.75 302.5625 C8.65613853 290.92845495 24.02964654 286.70103546 40.67578125 285.73046875 C53.92712969 284.60492953 65.98928419 279.21194171 75.125 269.4375 C84.69933764 257.8031102 87.00417235 246.37406075 88.51171875 231.6640625 C90.42998557 214.59324767 96.99118011 200.91852565 109.49609375 189.16796875 C118.07541952 180.05372099 121.50529951 167.45466402 121.33984375 155.2109375 C120.19746074 140.46381132 113.42478795 130.463835 104 119.75 C93.01583049 107.20879615 89.92947936 94.7701405 88.20922852 78.54248047 C86.463479 62.54519818 81.2513934 49.97002312 68.7265625 39.375 C58.61477717 31.84430102 47.61876269 29.57299838 35.3125 28.5625 C19.77195789 27.22381782 6.78491566 21.96979784 -4.5625 11 C-27.1014602 -9.92647498 -57.92678449 -6.55443753 -79.12109375 13.9765625 Z M29.96875 297.9765625 C18.66055148 300.39558435 10.94269281 305.3700928 2.44897461 312.91162109 C-5.41230766 319.81040638 -13.79962688 324.58281095 -23.875 327.4375 C-23.22240272 334.21963983 -22.10845026 340.79300049 -20.74194336 347.46508789 C-20.52721878 348.52954132 -20.3124942 349.59399475 -20.09126282 350.69070435 C-19.38617647 354.18128612 -18.67555175 357.67071515 -17.96484375 361.16015625 C-17.47268444 363.59103062 -16.98087332 366.0219755 -16.48939514 368.45298767 C-15.19906034 374.83061305 -13.90401493 381.20727292 -12.60797119 387.58374023 C-11.28461759 394.09886802 -9.96574221 400.61490111 -8.64648438 407.13085938 C-6.06036032 419.90062801 -3.46940871 432.6694121 -0.875 445.4375 C2.48190946 444.31853018 2.82765113 443.81595619 4.69921875 440.9921875 C5.19413818 440.25597168 5.68905762 439.51975586 6.19897461 438.76123047 C6.73143799 437.95314941 7.26390137 437.14506836 7.8125 436.3125 C8.97284204 434.58258406 10.13435465 432.85345285 11.296875 431.125 C11.91369141 430.20460938 12.53050781 429.28421875 13.16601562 428.3359375 C16.57648442 423.2899398 20.07298686 418.30400862 23.5625 413.3125 C24.87459462 411.43552235 26.18582674 409.55794141 27.49609375 407.6796875 C28.11081543 406.8040918 28.72553711 405.92849609 29.35888672 405.02636719 C30.53061977 403.30877563 31.66343202 401.56393963 32.75439453 399.79394531 C33.51212158 398.56949707 33.51212158 398.56949707 34.28515625 397.3203125 C34.71578369 396.59473145 35.14641113 395.86915039 35.59008789 395.12158203 C37.65618918 392.85468737 39.11322767 392.84846128 42.125 392.4375 C44.67779541 392.50706482 44.67779541 392.50706482 47.41503906 392.78295898 C48.44671204 392.88313828 49.47838501 392.98331757 50.5413208 393.08653259 C51.64659119 393.20106277 52.75186157 393.31559296 53.890625 393.43359375 C55.03859558 393.54598892 56.18656616 393.65838409 57.36932373 393.77418518 C61.03860775 394.13419035 64.70682749 394.5038531 68.375 394.875 C72.02897414 395.24155419 75.6831245 395.60590714 79.33782959 395.96510315 C81.60996791 396.1887112 83.88168768 396.41662778 86.15289307 396.64952087 C92.18011066 397.24591282 98.06833012 397.55202353 104.125 397.4375 C102.75650275 393.79855072 101.12039358 390.5050892 99.17578125 387.140625 C98.58313477 386.11308105 97.99048828 385.08553711 97.37988281 384.02685547 C96.73889648 382.92486816 96.09791016 381.82288086 95.4375 380.6875 C94.76005335 379.51841383 94.08264517 378.34930536 93.40527344 377.18017578 C87.75749226 367.45125665 81.97888081 357.80257636 76.171875 348.16796875 C71.45677063 340.33980776 66.78983886 332.48318643 62.125 324.625 C61.72567261 323.95281433 61.32634521 323.28062866 60.91491699 322.58807373 C60.13432001 321.27402714 59.35423525 319.95967612 58.57469177 318.64500427 C57.82401016 317.38118348 57.07085326 316.11882928 56.31507874 314.85804749 C54.54349417 311.89188707 52.8299059 308.91588911 51.2253418 305.85571289 C50.63922119 304.76379639 50.05310059 303.67187988 49.44921875 302.546875 C48.95252686 301.58104492 48.45583496 300.61521484 47.9440918 299.62011719 C46.24239698 297.14872122 46.24239698 297.14872122 43.03637695 296.62841797 C38.53994552 296.44208511 34.38537711 297.22223757 29.96875 297.9765625 Z M-131.37109375 303.97265625 C-132.77151156 306.44125476 -134.0431206 308.96221609 -135.3125 311.5 C-136.030379 312.83943069 -136.75376569 314.17592297 -137.48242188 315.50952148 C-138.95068985 318.20463901 -140.39690557 320.90978356 -141.82763672 323.625 C-144.62262314 328.88530359 -147.73249922 333.94182783 -150.875 339 C-152.00760856 340.84828585 -153.13910098 342.69725608 -154.26953125 344.546875 C-154.84654785 345.48853516 -155.42356445 346.43019531 -156.01806641 347.40039062 C-158.06437312 350.74722937 -160.10192785 354.09927736 -162.13671875 357.453125 C-162.50089401 358.05334976 -162.86506927 358.65357452 -163.24028015 359.27198792 C-164.71171776 361.69765349 -166.18281276 364.12352615 -167.65328979 366.54977417 C-171.21537951 372.42687458 -174.78216326 378.30054069 -178.3984375 384.14453125 C-178.91833252 384.98653076 -179.43822754 385.82853027 -179.97387695 386.69604492 C-180.92170238 388.22853397 -181.87313628 389.75879951 -182.82885742 391.28637695 C-185.09711904 394.61291719 -185.09711904 394.61291719 -185.875 398.4375 C-176.51945047 397.98723756 -167.22994502 397.21395151 -157.91796875 396.2109375 C-156.87399933 396.0985675 -155.83002991 395.98619751 -154.75442505 395.87042236 C-150.41245304 395.39985893 -146.07106767 394.92422645 -141.73022461 394.44335938 C-138.52255412 394.08944869 -135.31410641 393.7434523 -132.10546875 393.3984375 C-130.62907173 393.23134781 -130.62907173 393.23134781 -129.12284851 393.06088257 C-128.21372208 392.96393097 -127.30459564 392.86697937 -126.36791992 392.76708984 C-125.57012619 392.67906097 -124.77233246 392.5910321 -123.95036316 392.50033569 C-121.875 392.4375 -121.875 392.4375 -118.875 393.4375 C-117.10335059 395.83968436 -115.47884544 398.23825568 -113.875 400.75 C-112.81407938 402.37733284 -111.7514563 404.00355653 -110.6875 405.62890625 C-110.09324219 406.53914551 -109.49898438 407.44938477 -108.88671875 408.38720703 C-104.94565864 414.36288725 -100.90276842 420.27007923 -96.875 426.1875 C-95.63754445 428.00719778 -94.40040801 429.82711161 -93.16357422 431.64723206 C-92.07045707 433.25570084 -90.97665823 434.86370629 -89.8828125 436.47167969 C-88.46689928 438.56318184 -87.09006086 440.68139852 -85.7421875 442.81738281 C-85.12601562 443.68202148 -84.50984375 444.54666016 -83.875 445.4375 C-83.215 445.4375 -82.555 445.4375 -81.875 445.4375 C-78.74214309 430.49593655 -75.61271004 415.55365887 -72.48736572 400.61052227 C-71.03617537 393.67237884 -69.58386023 386.73447439 -68.12890625 379.79711914 C-66.72566835 373.10633526 -65.32555312 366.41490412 -63.92736816 359.72306252 C-63.3925384 357.16589374 -62.85664997 354.60894616 -62.31970215 352.0522213 C-61.56973357 348.48029379 -60.823481 344.90760922 -60.078125 341.3347168 C-59.85370728 340.27016769 -59.62928955 339.20561859 -59.39807129 338.10881042 C-59.19613159 337.13705872 -58.99419189 336.16530701 -58.78613281 335.16410828 C-58.52065643 333.89618203 -58.52065643 333.89618203 -58.24981689 332.60264111 C-57.7897114 330.31105196 -57.7897114 330.31105196 -57.875 327.4375 C-58.61363281 327.15777344 -59.35226563 326.87804687 -60.11328125 326.58984375 C-70.03494605 322.66908422 -78.2940867 317.6978017 -86.4375 310.8125 C-94.76352739 303.87807492 -103.24297099 300.35610296 -113.875 298.4375 C-114.91495117 298.24768555 -115.95490234 298.05787109 -117.02636719 297.86230469 C-124.14877651 297.16198864 -127.36301641 297.83842023 -131.37109375 303.97265625 Z " fill="#000000" transform="translate(296.875,30.5625)"/>
<path d="M0 0 C22.31880309 19.44231139 37.31287742 46.09593468 40.390625 75.81640625 C42.04856493 108.71542197 35.62817071 139.56213922 13.390625 164.81640625 C12.70484375 165.63367188 12.0190625 166.4509375 11.3125 167.29296875 C-8.81090922 190.67376436 -37.48968691 204.1506673 -68.015625 206.59765625 C-101.57525882 208.56155909 -131.27265871 197.44017927 -156.671875 175.56640625 C-177.43396231 156.33485742 -192.290571 128.67961803 -193.75 100.05859375 C-194.84885529 64.85127027 -186.41673329 34.60717762 -162.00390625 8.28125 C-118.29314749 -36.71302207 -48.10652341 -40.25680627 0 0 Z M-157.00878906 19.3515625 C-176.06304387 41.28007944 -184.59082205 70.06532233 -182.609375 98.81640625 C-180.41145458 121.11702681 -171.56682486 140.52700877 -157.609375 157.81640625 C-157.10921875 158.46996094 -156.6090625 159.12351562 -156.09375 159.796875 C-151.69938316 165.31508853 -146.16264629 169.52105829 -140.609375 173.81640625 C-139.86171875 174.41453125 -139.1140625 175.01265625 -138.34375 175.62890625 C-115.76298167 192.6829131 -86.75843783 197.98519358 -59.0625 194.3203125 C-39.60486547 190.68739972 -22.73265126 182.29050171 -7.609375 169.81640625 C-6.93261719 169.29304687 -6.25585938 168.7696875 -5.55859375 168.23046875 C14.09444918 152.59839322 26.40719392 125.40618841 29.203125 100.90625 C31.58570206 74.35044318 25.19344484 46.87327199 8.515625 25.62890625 C7.15404214 24.01333582 5.77880192 22.40918387 4.390625 20.81640625 C3.6790625 19.97207031 2.9675 19.12773438 2.234375 18.2578125 C-16.582121 -3.50704291 -43.33860166 -14.77757049 -71.609375 -17.18359375 C-103.77263372 -19.44066454 -135.64390409 -4.08570141 -157.00878906 19.3515625 Z " fill="#000000" transform="translate(332.609375,98.18359375)"/>
<path d="M0 0 C18.48079871 14.62679006 30.04548295 35.4645557 33.0859375 58.875 C35.7283663 83.0196517 29.38753998 106.83808603 14.16503906 125.88525391 C-1.21809856 144.42598294 -22.16007098 155.82707364 -46.2265625 158.5625 C-69.85837534 160.04349691 -93.75018603 154.61385244 -111.92407227 138.60668945 C-131.26128308 120.929821 -142.50995074 100.24645037 -144.10131836 73.9375 C-145.06225393 50.54838263 -137.48596439 29.30529475 -122.2265625 11.5625 C-121.06447266 10.10263672 -121.06447266 10.10263672 -119.87890625 8.61328125 C-90.59876248 -26.45285904 -34.3551634 -26.29200859 0 0 Z M-106.2265625 11.5625 C-107.42539063 12.59310547 -107.42539063 12.59310547 -108.6484375 13.64453125 C-118.26637376 22.58257891 -124.97296975 34.21874065 -129.2265625 46.5625 C-129.54496094 47.43390625 -129.86335937 48.3053125 -130.19140625 49.203125 C-136.13098672 68.36306201 -132.41673639 89.49032022 -123.43383789 106.96606445 C-120.31970023 112.70858294 -116.63239857 117.73319911 -112.2265625 122.5625 C-111.70964844 123.1709375 -111.19273437 123.779375 -110.66015625 124.40625 C-97.52026554 138.89635505 -77.14663696 146.28020231 -58.11328125 147.72265625 C-45.43733518 148.2126508 -32.49540111 145.26705731 -21.2265625 139.5625 C-20.24300781 139.07007813 -19.25945312 138.57765625 -18.24609375 138.0703125 C-0.05256422 128.23215552 12.2772093 112.36629635 19.02734375 92.95703125 C25.26702201 71.62907177 22.36645159 50.64410334 11.9140625 31.23046875 C9.06727699 26.20209489 5.66995984 21.82095228 1.7734375 17.5625 C0.88785156 16.53962891 0.88785156 16.53962891 -0.015625 15.49609375 C-13.13517386 1.23207361 -32.1666838 -6.35968515 -51.2109375 -7.72265625 C-71.95257884 -8.43492401 -90.56274636 -1.92578612 -106.2265625 11.5625 Z " fill="#000000" transform="translate(311.2265625,117.4375)"/>
<path d="M0 0 C3.0625 0.5 3.0625 0.5 5.06542969 2.66333008 C7.05933946 5.49551072 8.58606434 8.26362121 10.078125 11.38671875 C10.87089844 13.0409082 10.87089844 13.0409082 11.6796875 14.72851562 C12.21851563 15.86998047 12.75734375 17.01144531 13.3125 18.1875 C13.86679687 19.34056641 14.42109375 20.49363281 14.9921875 21.68164062 C19.0625 30.22829433 19.0625 30.22829433 19.0625 32.5 C19.69671875 32.53738281 20.3309375 32.57476562 20.984375 32.61328125 C27.89096738 33.09979535 34.71222181 33.9426849 41.5625 34.9375 C42.43487305 35.05971924 43.30724609 35.18193848 44.20605469 35.30786133 C45.03524414 35.43185303 45.86443359 35.55584473 46.71875 35.68359375 C47.45931641 35.79243896 48.19988281 35.90128418 48.96289062 36.01342773 C51.27202338 36.54855583 53.04514305 37.25445147 55.0625 38.5 C56.25 41.125 56.25 41.125 56.0625 44.5 C52.95576077 48.9833346 48.87119426 52.74776767 44.84375 56.39453125 C44.13992188 57.04099609 43.43609375 57.68746094 42.7109375 58.35351562 C41.26725001 59.66989613 39.8030624 60.96410804 38.3203125 62.23632812 C34.28317229 66.00955885 34.28317229 66.00955885 32.76538086 71.15917969 C32.99937648 74.01268819 33.45731411 76.70284801 34.0625 79.5 C34.31480025 80.99201905 34.56618266 82.48419377 34.81640625 83.9765625 C35.08367156 85.35981474 35.3531927 86.74263308 35.625 88.125 C36.70712504 93.98705193 37.69170475 99.52255488 37.0625 105.5 C34.0625 107.5 34.0625 107.5 30.74633789 107.31103516 C27.04401201 106.49592968 24.41410182 105.37140674 21.12109375 103.5234375 C20.04279297 102.935625 18.96449219 102.3478125 17.85351562 101.7421875 C15.61153207 100.49388448 13.37195402 99.24125159 11.13476562 97.984375 C10.05775391 97.39914063 8.98074219 96.81390625 7.87109375 96.2109375 C6.89970459 95.66743652 5.92831543 95.12393555 4.92749023 94.56396484 C1.40644133 93.256361 -0.34596478 93.47585129 -3.9375 94.5 C-6.85487194 95.80102394 -6.85487194 95.80102394 -9.74609375 97.4765625 C-11.36161133 98.35828125 -11.36161133 98.35828125 -13.00976562 99.2578125 C-15.25359581 100.50279315 -17.49320369 101.7554142 -19.72851562 103.015625 C-28.93269497 108.01107918 -28.93269497 108.01107918 -33.16015625 107.4609375 C-35.9375 106.5 -35.9375 106.5 -36.9375 105.5 C-37.28809869 98.34194346 -36.27751171 91.7669532 -34.9375 84.75 C-34.55858744 82.73510685 -34.1834493 80.71949941 -33.8125 78.703125 C-33.64492187 77.82301758 -33.47734375 76.94291016 -33.3046875 76.03613281 C-32.7337345 72.27462924 -32.7337345 72.27462924 -32.9375 68.5 C-34.94909416 65.87875382 -34.94909416 65.87875382 -37.71484375 63.41015625 C-38.20078506 62.94314804 -38.68672638 62.47613983 -39.18739319 61.99497986 C-41.26096393 60.00292214 -43.36277293 58.04164459 -45.46264648 56.07739258 C-46.99451588 54.63623697 -48.51096271 53.18007258 -50.02734375 51.72265625 C-50.94378662 50.86422119 -51.86022949 50.00578613 -52.80444336 49.12133789 C-55.24955236 46.11651526 -55.84585181 44.34955256 -55.9375 40.5 C-53.9375 37.5 -53.9375 37.5 -50.734375 36.62109375 C-49.38782477 36.37940525 -48.03858119 36.15241969 -46.6875 35.9375 C-45.97746826 35.81528076 -45.26743652 35.69306152 -44.53588867 35.56713867 C-42.33872973 35.19512388 -40.13915399 34.84433217 -37.9375 34.5 C-36.92647217 34.33902832 -36.92647217 34.33902832 -35.89501953 34.17480469 C-24.4190538 32.36779184 -24.4190538 32.36779184 -18.9375 32.5 C-18.65898193 31.6236792 -18.38046387 30.7473584 -18.09350586 29.84448242 C-16.29622802 24.64471282 -13.87221711 19.77034097 -11.5 14.8125 C-11.00951172 13.76771484 -10.51902344 12.72292969 -10.01367188 11.64648438 C-9.53607422 10.64552734 -9.05847656 9.64457031 -8.56640625 8.61328125 C-8.13400635 7.70360596 -7.70160645 6.79393066 -7.25610352 5.85668945 C-5.256385 2.2826693 -4.10415706 0.69857992 0 0 Z M-0.9375 19.5 C-1.22471924 20.12567871 -1.51193848 20.75135742 -1.80786133 21.39599609 C-3.11315799 24.22646209 -4.43138852 27.05071394 -5.75 29.875 C-6.20181641 30.85984375 -6.65363281 31.8446875 -7.11914062 32.859375 C-7.56064453 33.80039063 -8.00214844 34.74140625 -8.45703125 35.7109375 C-8.86026611 36.58024902 -9.26350098 37.44956055 -9.67895508 38.34521484 C-10.9375 40.5 -10.9375 40.5 -13.9375 42.5 C-16.15820312 42.97070312 -16.15820312 42.97070312 -18.71875 43.28125 C-19.64300781 43.40113281 -20.56726563 43.52101563 -21.51953125 43.64453125 C-23.46484375 43.88151042 -25.41015625 44.11848958 -27.35546875 44.35546875 C-28.27972656 44.47535156 -29.20398438 44.59523438 -30.15625 44.71875 C-31.00123047 44.82123047 -31.84621094 44.92371094 -32.71679688 45.02929688 C-35.21056665 45.41473923 -35.21056665 45.41473923 -37.9375 47.5 C-37.41728271 47.95213867 -36.89706543 48.40427734 -36.36108398 48.87011719 C-21.69666242 61.84596818 -21.69666242 61.84596818 -19.9609375 67.9140625 C-20.2621002 70.99894525 -20.93269064 73.57169844 -21.9375 76.5 C-22.34001811 78.49464387 -22.71596725 80.49487156 -23.0625 82.5 C-23.25070313 83.36625 -23.43890625 84.2325 -23.6328125 85.125 C-23.95078551 87.60355887 -23.60331581 89.12486024 -22.9375 91.5 C-22.38811768 91.20230713 -21.83873535 90.90461426 -21.27270508 90.59790039 C-18.76872774 89.24599022 -16.25947258 87.90418009 -13.75 86.5625 C-12.88568359 86.09392578 -12.02136719 85.62535156 -11.13085938 85.14257812 C-9.86918945 84.4706543 -9.86918945 84.4706543 -8.58203125 83.78515625 C-7.81221924 83.37144775 -7.04240723 82.95773926 -6.24926758 82.53149414 C-3.10160364 81.12702903 -0.40767213 80.06226678 2.98779297 81.07324219 C3.58736816 81.39454102 4.18694336 81.71583984 4.8046875 82.046875 C5.81595703 82.5728125 5.81595703 82.5728125 6.84765625 83.109375 C7.53730469 83.48578125 8.22695313 83.8621875 8.9375 84.25 C10.30888354 84.97587408 11.68127286 85.6998513 13.0546875 86.421875 C13.71823242 86.77314453 14.38177734 87.12441406 15.06542969 87.48632812 C18.00562733 88.97871206 21.01505809 90.24283075 24.0625 91.5 C23.45277323 85.40273231 22.57030953 79.42214396 21.46484375 73.39453125 C20.36730386 65.4986375 20.36730386 65.4986375 22.62304688 62.25830078 C23.33525391 61.57751465 24.04746094 60.89672852 24.78125 60.1953125 C25.93173828 59.07382813 25.93173828 59.07382813 27.10546875 57.9296875 C27.91628906 57.16914063 28.72710937 56.40859375 29.5625 55.625 C30.37332031 54.84125 31.18414062 54.0575 32.01953125 53.25 C34.02103249 51.31913998 36.03515624 49.40364788 38.0625 47.5 C35.01308734 45.46705823 33.82917884 45.16500915 30.31640625 44.7890625 C28.93678711 44.62277344 28.93678711 44.62277344 27.52929688 44.453125 C25.59781379 44.23490768 23.66549843 44.02393164 21.73242188 43.8203125 C14.80163921 42.96669616 14.80163921 42.96669616 11.69921875 41.0078125 C9.15521969 37.10984736 7.23226217 32.98348204 5.3125 28.75 C4.90128906 27.86183594 4.49007812 26.97367188 4.06640625 26.05859375 C3.05719766 23.8758868 2.05623666 21.68978334 1.0625 19.5 C0.4025 19.5 -0.2575 19.5 -0.9375 19.5 Z " fill="#000000" transform="translate(255.9375,130.5)"/>
</svg>
