<?xml version="1.0" encoding="UTF-8"?>
<svg version="1.1" xmlns="http://www.w3.org/2000/svg" width="512" height="512">
<path d="M0 0 C0.9442821 -0.00384115 1.88856421 -0.00768229 2.86146092 -0.01163983 C3.90598951 -0.01077335 4.9505181 -0.00990687 6.02669907 -0.00901413 C7.13081721 -0.01198525 8.23493536 -0.01495637 9.37251163 -0.01801753 C13.09739723 -0.02673619 16.82225082 -0.02821545 20.54714584 -0.02970505 C23.20762409 -0.034331 25.86809938 -0.03933449 28.5285759 -0.04475021 C35.77449533 -0.05834555 43.02040924 -0.06436029 50.2663393 -0.06876087 C54.78949539 -0.0715216 59.31264934 -0.07575867 63.83580399 -0.08026505 C76.35512915 -0.09245991 88.87445259 -0.10275838 101.39378357 -0.10614014 C102.1954266 -0.1063597 102.99706964 -0.10657927 103.82300489 -0.10680549 C104.62658684 -0.10702377 105.43016878 -0.10724204 106.2581017 -0.10746694 C107.88651355 -0.1079104 109.5149254 -0.10835697 111.14333725 -0.10880661 C111.95108899 -0.10902804 112.75884072 -0.10924947 113.59106979 -0.10947761 C126.67839779 -0.11342527 139.7656701 -0.13087734 152.85297659 -0.15416613 C166.2843985 -0.17787462 179.71579246 -0.19034178 193.14723563 -0.19150805 C200.69052521 -0.19242517 208.23374226 -0.19818644 215.77701187 -0.21632767 C222.20083069 -0.23172197 228.62455457 -0.23685316 235.04838833 -0.22858956 C238.3261091 -0.22468046 241.60359847 -0.22725434 244.88130379 -0.23964691 C248.43506159 -0.25229692 251.988326 -0.24652699 255.54207993 -0.23606491 C256.57768563 -0.24412132 257.61329133 -0.25217772 258.68027902 -0.26047826 C264.97855909 -0.21700479 269.58158765 0.4040097 274.40163803 4.85017776 C274.87988022 5.43799026 275.35812241 6.02580276 275.85085678 6.63142776 C276.34198959 7.21924026 276.83312241 7.80705276 277.33913803 8.41267776 C279.48601502 11.48963501 279.65912775 14.17038593 279.63601303 17.79939651 C279.63279037 18.6920723 279.62956772 19.58474808 279.62624741 20.50447464 C279.6178685 21.43324417 279.60948959 22.3620137 279.60085678 23.31892776 C279.59634506 24.25929886 279.59183334 25.19966995 279.58718491 26.16853714 C279.57540304 28.48956489 279.55895236 30.81046421 279.53835678 33.13142776 C280.61935654 33.10000687 280.61935654 33.10000687 281.72219467 33.0679512 C285.01493784 32.98435621 288.30745708 32.93262998 291.60085678 32.88142776 C292.73458725 32.84791214 293.86831772 32.81439651 295.03640366 32.77986526 C302.55467649 32.69218861 307.37005831 33.16824274 312.98708725 38.50886917 C317.75987386 43.7498776 318.78774004 49.018938 318.79283237 55.92252541 C318.79603885 56.58382906 318.79924533 57.24513272 318.80254897 57.92647588 C318.81084342 60.14009485 318.80492674 62.35344285 318.79905319 64.56706619 C318.80207413 66.17109213 318.80596333 67.77511664 318.81064576 69.37913859 C318.82094193 73.7853746 318.81873981 78.1915294 318.81446517 82.59777212 C318.81200088 87.35042928 318.82100841 92.10306673 318.82850266 96.85571671 C318.84126001 106.16613756 318.84304205 115.4765296 318.84070239 124.78695773 C318.83892021 132.35396965 318.84066673 139.92097282 318.84492683 147.4879837 C318.84552202 148.5644765 318.84611721 149.6409693 318.84673044 150.7500831 C318.84794217 152.93690104 318.84915631 155.12371899 318.85037281 157.31053694 C318.86125237 177.82436359 318.85908391 198.3381738 318.85298797 218.85200138 C318.84781858 237.6217957 318.8590741 256.39153811 318.87808619 275.16132216 C318.89745463 294.43052711 318.90572232 313.6997075 318.90196294 332.96892226 C318.90004936 343.78855384 318.90255363 354.60814125 318.91667747 365.42776489 C318.92857959 374.63871497 318.93000931 383.84959368 318.91788731 393.06054471 C318.91199038 397.76024229 318.91092168 402.45980927 318.92288971 407.15949821 C318.93372051 411.46261132 318.93067861 415.76548433 318.91662803 420.06858607 C318.91397336 421.62439328 318.91637175 423.18021914 318.92436389 424.73600809 C319.00700027 442.02382364 319.00700027 442.02382364 313.16335678 448.94392776 C308.09357574 453.1687453 304.54537997 454.574343 297.95173264 454.49219131 C297.19608688 454.49475459 296.44044112 454.49731786 295.661897 454.49995881 C293.13441464 454.50489318 290.607532 454.48840986 288.08010483 454.47200394 C286.26658263 454.47115759 284.45305941 454.47163296 282.63953781 454.47333145 C277.7184132 454.47419252 272.79750775 454.45654854 267.87643409 454.43560958 C262.7328132 454.41686152 257.58918735 454.41509381 252.44553757 454.41153336 C242.70626459 454.4022074 232.96709259 454.37758612 223.22786409 454.34748489 C212.13970247 454.31395805 201.05153603 454.29745918 189.96333635 454.28239858 C167.15495384 454.25103709 144.34666097 454.19826584 121.53835678 454.13142776 C121.55140854 455.02345901 121.5644603 455.91549026 121.57790756 456.83455276 C121.58805893 458.00502151 121.5982103 459.17549026 121.60866928 460.38142776 C121.62172104 461.54158401 121.6347728 462.70174026 121.64822006 463.89705276 C121.48329494 468.75244831 120.5843065 472.04728698 117.07351303 475.62361526 C112.36889674 479.69558145 109.39183427 480.27927651 103.38410568 480.27186966 C102.26589903 480.27632634 102.26589903 480.27632634 101.12510234 480.28087306 C98.61399821 480.28958108 96.10294163 480.29107008 93.59182358 480.29256058 C91.79670738 480.29718728 90.00159217 480.30221174 88.20647812 480.30760574 C83.32005341 480.32074633 78.43364245 480.32717797 73.54720283 480.3316164 C70.49612921 480.33454456 67.44505937 480.33864888 64.39398766 480.34312057 C54.85308241 480.35680009 45.31218578 480.36646443 35.77127141 480.37032247 C24.74813861 480.374804 13.72512976 480.39235441 2.70203465 480.42132306 C-5.81181637 480.44292267 -14.32563248 480.45302583 -22.83951062 480.45436358 C-27.92747868 480.45541288 -33.0153303 480.46134708 -38.10326958 480.4791832 C-42.88931759 480.49563406 -47.67516125 480.49783392 -52.46122742 480.48904419 C-54.21843449 480.4882722 -55.97565241 480.49263776 -57.73283195 480.50250244 C-60.1309464 480.51517624 -62.52833213 480.50937038 -64.92644119 480.49892044 C-65.97061383 480.51100505 -65.97061383 480.51100505 -67.03588086 480.52333379 C-72.15154654 480.47116369 -75.31587946 479.16340102 -79.00851822 475.66658401 C-83.40535337 470.28474359 -83.58625583 466.80135458 -83.60881424 459.94667435 C-83.61249093 459.22202885 -83.61616762 458.49738336 -83.61995572 457.75077891 C-83.63097097 455.3219906 -83.63483271 452.89324511 -83.63864517 450.46443558 C-83.64491141 448.72315206 -83.65155836 446.98186987 -83.65855789 445.24058914 C-83.67958012 439.52191979 -83.68995799 433.80325022 -83.69992447 428.08455276 C-83.70397259 426.11471162 -83.70808953 424.14487061 -83.71227455 422.17502975 C-83.73132152 412.92085123 -83.74555406 403.66668067 -83.75388652 394.41248631 C-83.76366 383.73461719 -83.78998452 373.05695531 -83.83038741 362.37915921 C-83.86055571 354.12254449 -83.87535604 345.86598916 -83.87866753 337.6093204 C-83.88101703 332.67941384 -83.88996467 327.74972881 -83.91512871 322.81988144 C-83.93842715 318.18067058 -83.94263554 313.54182685 -83.93236732 308.90257263 C-83.9318723 307.20305662 -83.93818293 305.50352243 -83.95192337 303.80406189 C-84.07408366 287.79494641 -84.07408366 287.79494641 -79.46164322 281.13142776 C-74.46655339 276.38000085 -70.42431937 275.98820667 -63.77414322 276.06892776 C-63.07224869 276.07343948 -62.37035416 276.0779512 -61.64719009 276.08259964 C-59.91863784 276.0943585 -58.19012956 276.11229323 -56.46164322 276.13142776 C-56.46533039 275.03921354 -56.46901756 273.94699932 -56.47281647 272.8216877 C-56.56157893 246.2568399 -56.62732925 219.69201131 -56.66889191 193.12704659 C-56.68952506 180.28047162 -56.71766021 167.43399457 -56.76340103 154.58748245 C-56.80324554 143.39164704 -56.82907054 132.19588253 -56.8379972 120.99997818 C-56.84321594 115.07074274 -56.85549786 109.14171016 -56.88456345 103.21253967 C-56.91169465 97.63281125 -56.92009276 92.05336943 -56.91407394 86.47358131 C-56.9151752 84.42491283 -56.92314258 82.37623485 -56.93846512 80.32762337 C-56.9583569 77.53114903 -56.95358521 74.7357578 -56.94266129 71.93925858 C-56.95431265 71.12796364 -56.96596402 70.3166687 -56.97796845 69.48078907 C-56.92246541 64.22673861 -55.85261232 61.3511165 -52.46164322 57.13142776 C-51.99016861 56.53491409 -51.518694 55.93840042 -51.03293228 55.32381058 C-50.60206314 54.8323555 -50.171194 54.34090042 -49.72726822 53.83455276 C-49.23992203 53.27373001 -48.75257584 52.71290726 -48.25046158 52.13508987 C-47.74265152 51.55638138 -47.23484146 50.97767288 -46.71164322 50.38142776 C-42.53377171 45.56692822 -38.47182752 40.69317879 -34.52023697 35.69002151 C-32.05352234 32.62418075 -29.51277288 29.62706257 -26.96164322 26.63142776 C-20.37162989 18.88531136 -14.03901249 10.96055129 -7.90695572 2.84627151 C-5.48149687 -0.03150263 -3.59754262 0.00547389 0 0 Z M7.53835678 13.13142776 C7.52377426 14.39213089 7.50919174 15.65283401 7.49416733 16.95174026 C7.43593191 21.65595891 7.35870115 26.35971149 7.27590561 31.06355667 C7.24277465 33.09440386 7.21470635 35.1253405 7.19192123 37.15633011 C7.15815701 40.08591495 7.10583079 43.01468867 7.05007553 45.94392776 C7.04049065 47.2928511 7.04049065 47.2928511 7.03071213 48.66902542 C6.89170449 54.71053561 6.34320201 60.86326368 2.2285881 65.65755081 C-9.4304189 76.12287192 -29.30597873 71.74449646 -42.46164322 72.13142776 C-42.46164322 139.45142776 -42.46164322 206.77142776 -42.46164322 276.13142776 C7.24642932 276.30193471 7.24642932 276.30193471 56.95461655 276.42927933 C66.57143784 276.47468948 66.57143784 276.47468948 71.07435226 276.50099564 C74.21742674 276.517992 77.36031003 276.52385974 80.50342941 276.52296829 C84.51594857 276.52219607 88.527959 276.54051847 92.54034603 276.57251692 C94.01084715 276.58102047 95.4814057 276.58288356 96.95192063 276.57725191 C110.64990772 276.53144518 110.64990772 276.53144518 116.53835678 281.13142776 C119.05265978 284.16593138 119.80358844 287.02852249 120.61257553 290.80720901 C120.7874852 291.6171431 120.96239487 292.42707718 121.14260483 293.26155472 C121.27320297 293.87861282 121.40380112 294.49567093 121.53835678 295.13142776 C122.09734822 295.13381612 122.65633966 295.13620447 123.23227024 295.1386652 C136.82777966 295.19777664 150.42310905 295.27349137 164.01842594 295.36714268 C170.59300964 295.41192779 177.1675302 295.45116595 183.7422142 295.47786331 C190.08356863 295.50381503 196.42468113 295.54415963 202.76588631 295.59461403 C205.18883067 295.61133788 207.61181693 295.62281764 210.03481102 295.62904167 C213.42077431 295.63862274 216.80611085 295.66661044 220.19192123 295.69905472 C221.20036591 295.69761963 222.20881058 295.69618454 223.24781418 295.69470596 C224.16908096 295.70724411 225.09034775 295.71978226 226.03953171 295.73270035 C226.84056981 295.73730931 227.64160791 295.74191828 228.4669199 295.74666691 C231.08843306 296.23360216 231.97463399 296.99436616 233.53835678 299.13142776 C233.91335678 302.69392776 233.91335678 302.69392776 233.53835678 306.13142776 C230.38852776 308.23131378 229.6351165 308.38507499 226.03953171 308.40990067 C224.65763153 308.42664589 224.65763153 308.42664589 223.24781418 308.4437294 C222.23936951 308.44588959 221.23092484 308.44804977 220.19192123 308.45027542 C219.12834396 308.46032104 218.06476669 308.47036667 216.96895981 308.48071671 C213.44652482 308.51165629 209.92416619 308.5286139 206.40163803 308.54549026 C203.96211205 308.56419323 201.52259259 308.58376598 199.08308029 308.60417557 C192.65679388 308.65559477 186.23048648 308.69516813 179.80410385 308.73231888 C173.24867136 308.7722972 166.69332695 308.82341765 160.13796616 308.87361526 C147.27148529 308.9704905 134.40496836 309.05382874 121.53835678 309.13142776 C121.53835678 321.01142776 121.53835678 332.89142776 121.53835678 345.13142776 C126.4676915 345.15330154 126.4676915 345.15330154 131.49660873 345.17561722 C142.33731007 345.22588627 153.1778666 345.29246751 164.01842594 345.36714268 C170.59300964 345.41192779 177.1675302 345.45116595 183.7422142 345.47786331 C190.08356863 345.50381503 196.42468113 345.54415963 202.76588631 345.59461403 C205.18883067 345.61133788 207.61181693 345.62281764 210.03481102 345.62904167 C213.42077431 345.63862274 216.80611085 345.66661044 220.19192123 345.69905472 C221.20036591 345.69761963 222.20881058 345.69618454 223.24781418 345.69470596 C224.16908096 345.70724411 225.09034775 345.71978226 226.03953171 345.73270035 C226.84056981 345.73730931 227.64160791 345.74191828 228.4669199 345.74666691 C231.08843306 346.23360216 231.97463399 346.99436616 233.53835678 349.13142776 C233.91335678 352.69392776 233.91335678 352.69392776 233.53835678 356.13142776 C230.38852776 358.23131378 229.6351165 358.38507499 226.03953171 358.40990067 C224.65763153 358.42664589 224.65763153 358.42664589 223.24781418 358.4437294 C222.23936951 358.44588959 221.23092484 358.44804977 220.19192123 358.45027542 C219.12834396 358.46032104 218.06476669 358.47036667 216.96895981 358.48071671 C213.44652482 358.51165629 209.92416619 358.5286139 206.40163803 358.54549026 C203.96211205 358.56419323 201.52259259 358.58376598 199.08308029 358.60417557 C192.65679388 358.65559477 186.23048648 358.69516813 179.80410385 358.73231888 C172.09645712 358.77932398 164.38891537 358.84096365 156.68135452 358.90016556 C144.96706408 358.98849702 133.25279498 359.05817638 121.53835678 359.13142776 C121.53835678 374.97142776 121.53835678 390.81142776 121.53835678 407.13142776 C140.00105268 407.24422315 158.46347035 407.33635816 176.92642307 407.39048862 C185.49877174 407.41628852 194.07089141 407.45147284 202.64309311 407.50862503 C210.11320081 407.55840572 217.5831427 407.59070579 225.05341166 407.60187024 C229.01026504 407.60839817 232.966644 407.62377676 236.92334557 407.66007805 C240.64575044 407.69395386 244.36748439 407.70449816 248.09002876 407.69696617 C250.11130314 407.699003 252.13250401 407.72594218 254.15359116 407.75352859 C255.95199196 407.74321861 255.95199196 407.74321861 257.78672409 407.73270035 C258.83111554 407.73730931 259.87550699 407.74191828 260.95154667 407.74666691 C263.70306401 407.37901015 263.70306401 407.37901015 265.17608804 405.00537175 C266.78809373 401.60456404 266.91638667 399.28982179 266.92146683 395.53308487 C266.92642634 394.88047814 266.93138586 394.2278714 266.93649566 393.55548871 C266.94946488 391.36535333 266.94106333 389.17582631 266.93276596 386.98567581 C266.93765424 385.40099625 266.94384375 383.81632026 266.95122385 382.23165035 C266.96765425 377.87434239 266.96529917 373.51721498 266.95984888 369.15988684 C266.95718254 364.46178932 266.97170292 359.76374036 266.98394394 355.06566238 C267.00501594 345.86104791 267.00953781 336.6564964 267.00775605 327.45186067 C267.00644947 319.97251383 267.01024724 312.49318667 267.01768112 305.01384354 C267.01978026 302.86112309 267.02187786 300.70840264 267.02397394 298.55568218 C267.02501747 297.48429182 267.026061 296.41290146 267.02713615 295.30904472 C267.04604519 275.03900055 267.0449861 254.76899255 267.03816682 234.49894321 C267.03258916 215.94365124 267.05342514 197.38849725 267.08652729 178.83323753 C267.12023486 159.79120422 267.1354364 140.74923706 267.13081026 121.70717335 C267.12856282 111.0122266 267.133849 100.31740743 267.15870285 89.62248611 C267.17967795 80.51898384 267.1833456 71.41567912 267.16440326 62.31216884 C267.15522249 57.6654209 267.15417374 53.01904167 267.17475891 48.37232208 C267.19338467 44.12098869 267.18906074 39.87032815 267.1662131 35.61902106 C267.162006 34.07871397 267.16629778 32.53835612 267.17980903 30.99810255 C267.19690055 28.9078391 267.18333221 26.81994343 267.16197586 24.72977066 C267.16238444 22.98693283 267.16238444 22.98693283 267.16280127 21.20888615 C266.33670458 17.13762245 264.78912383 15.64700896 261.53835678 13.13142776 C259.30295101 12.40603799 259.30295101 12.40603799 256.9563055 12.51618862 C256.06156779 12.50623338 255.16683007 12.49627814 254.24497908 12.48602122 C253.27124242 12.50058543 252.29750576 12.51514964 251.29426193 12.53015518 C250.25276751 12.52588306 249.21127308 12.52161093 248.13821822 12.51720935 C244.64315124 12.50896377 241.14928028 12.53649193 237.65432358 12.56380081 C235.15115512 12.56521093 232.6479846 12.56442001 230.14481735 12.56158829 C224.75303539 12.56044915 219.36162678 12.57464379 213.96994209 12.60277748 C206.174556 12.64342714 198.37931617 12.65643615 190.58383558 12.66271744 C177.93602466 12.67365836 165.28837505 12.70692697 152.6406517 12.7542305 C140.35517814 12.80013139 128.0697484 12.83552067 115.78420639 12.85676956 C115.02682313 12.85808318 114.26943987 12.8593968 113.4891056 12.86075022 C109.68950495 12.86727545 105.88990399 12.87359398 102.09030282 12.87980974 C70.57287018 12.93163643 39.05563799 13.02006799 7.53835678 13.13142776 Z M-7.46164322 25.13142776 C-12.67003661 30.51254849 -17.36341018 36.39231214 -22.07492447 42.20564651 C-23.78757693 44.30511737 -25.51094477 46.39011943 -27.25461197 48.46345901 C-27.71625748 49.01284134 -28.17790298 49.56222366 -28.65353775 50.12825394 C-29.96429407 51.68533158 -31.27736692 53.24045827 -32.59054947 54.79549026 C-34.56583862 56.76268816 -34.56583862 56.76268816 -34.46164322 58.13142776 C-30.35760959 58.21836818 -26.25381193 58.27179926 -22.14914322 58.31892776 C-20.39827408 58.35663284 -20.39827408 58.35663284 -18.61203384 58.39509964 C-17.49377213 58.40476761 -16.37551041 58.41443558 -15.22336197 58.42439651 C-14.19170914 58.44010696 -13.1600563 58.45581741 -12.09714127 58.47200394 C-9.48907266 58.31126395 -9.48907266 58.31126395 -7.61984634 57.04158401 C-5.85356777 54.12856472 -6.12590122 51.65504561 -6.16867447 48.27595901 C-6.17504173 47.28350426 -6.17504173 47.28350426 -6.18153763 46.27099991 C-6.19830629 44.16155866 -6.23595223 42.05307931 -6.27414322 39.94392776 C-6.28919253 38.51230096 -6.30288051 37.08065914 -6.31515884 35.64900589 C-6.34820292 32.14283489 -6.39997155 28.63722523 -6.46164322 25.13142776 C-6.79164322 25.13142776 -7.12164322 25.13142776 -7.46164322 25.13142776 Z M279.53835678 47.13142776 C279.53813941 47.89225505 279.53792204 48.65308233 279.53769809 49.43696499 C279.52418464 94.52159231 279.48471531 139.60613278 279.41150116 184.6907047 C279.40273432 190.10307434 279.39418453 195.51544429 279.38576889 200.92781448 C279.38408983 202.00532793 279.38241077 203.08284138 279.38068082 204.19300675 C279.35400507 221.64399525 279.34491533 239.0949509 279.34231535 256.54595768 C279.33925679 274.44995877 279.31732127 292.35386482 279.27783221 310.25782299 C279.25405769 321.30712125 279.24503829 332.35622986 279.25484367 343.40555018 C279.26015604 350.98067675 279.247146 358.55563324 279.21969388 366.13071138 C279.20439318 370.5023508 279.19720372 374.87360963 279.21175957 379.24526024 C279.22491218 383.24903396 279.2150152 387.25207016 279.18691906 391.25576079 C279.18080947 392.70272014 279.18310026 394.14974498 279.19472752 395.59667051 C279.25335049 403.51234435 279.24366844 410.14625816 273.53835678 416.13142776 C266.9861549 421.2948842 259.4179629 420.70789049 251.41140366 420.6773262 C249.99151101 420.68607239 248.5716282 420.69656181 247.1517601 420.7086525 C243.31756623 420.73640562 239.48369567 420.73991957 235.64941597 420.73893261 C231.63482503 420.74207096 227.62037773 420.76770828 223.60586166 420.79091263 C216.01294655 420.83140576 208.42011718 420.85179756 200.82711077 420.86488652 C192.17888732 420.88077928 183.53080931 420.91920445 174.8826704 420.95947981 C157.10127502 421.04178718 139.31990155 421.09513726 121.53835678 421.13142776 C121.53835678 427.73142776 121.53835678 434.33142776 121.53835678 441.13142776 C144.80794156 441.22396306 168.07748212 441.29537511 191.34721375 441.33867645 C202.15138888 441.35931506 212.9554477 441.38746047 223.75954819 441.43318558 C233.17473417 441.47301358 242.58983594 441.49885113 252.00510383 441.50778174 C256.99196403 441.51300333 261.97858327 441.52530291 266.96536636 441.55434799 C271.65702343 441.58145331 276.34833975 441.58988267 281.04006767 441.58385849 C282.76384265 441.58496092 284.48762876 441.59294389 286.21133614 441.60824966 C288.5619142 441.62810181 290.91119959 441.62338531 293.26180649 441.61244583 C294.57812687 441.616133 295.89444725 441.61982018 297.25065613 441.62361908 C301.21299547 441.03042973 302.12834967 440.26928879 304.53835678 437.13142776 C305.13675575 434.0754343 305.13675575 434.0754343 305.03892803 430.60369396 C305.0444422 429.94657676 305.04995637 429.28945955 305.05563763 428.61242971 C305.06928103 426.40076836 305.05431105 424.1902216 305.03956223 421.97858047 C305.04345338 420.38096355 305.04909233 418.78335008 305.05633312 417.18574482 C305.07113239 412.78804244 305.06088019 408.39069648 305.04659641 403.99300539 C305.0355159 399.25335121 305.04741947 394.51374823 305.05643845 389.77409744 C305.07039257 380.48642986 305.06279888 371.19889797 305.04776286 361.91123682 C305.03092939 351.10323486 305.03410962 340.29526695 305.03785694 329.48725594 C305.04373943 310.20821867 305.02954833 290.92924667 305.00490952 271.65022659 C304.98098428 252.92754546 304.97390606 234.20495152 304.9844017 215.48225784 C304.99580132 195.11041346 304.99775308 174.73860944 304.98330361 154.36676556 C304.98177771 152.19609106 304.98025736 150.02541656 304.9787426 147.85474205 C304.97760588 146.25257917 304.97760588 146.25257917 304.97644619 144.61804936 C304.97169622 137.07775317 304.97355982 129.53747496 304.977808 121.99717903 C304.98272578 112.81347549 304.97678998 103.6298545 304.9569137 94.44616991 C304.94701671 89.75723877 304.94196244 85.06843356 304.94980621 80.37949562 C304.95683196 76.09197222 304.95013179 71.80470361 304.93220259 67.51721395 C304.92813783 65.96144065 304.92919163 64.40564435 304.93572145 62.84987944 C304.9438074 60.74405023 304.93363962 58.63909305 304.91867352 56.53332043 C304.91764439 55.36101374 304.91661526 54.18870705 304.91555494 52.98087591 C304.74776981 50.16571148 304.74776981 50.16571148 303.33367878 48.24962002 C300.91763794 46.74482135 299.26919229 46.78927455 296.43288803 46.83845901 C294.9585228 46.85296097 294.9585228 46.85296097 293.45437241 46.86775589 C291.91813217 46.90546097 291.91813217 46.90546097 290.35085678 46.94392776 C289.31509506 46.95746292 288.27933334 46.97099808 287.21218491 46.98494339 C284.65371979 47.02031388 282.09629898 47.06967232 279.53835678 47.13142776 Z M-69.46164322 291.13142776 C-69.56308695 293.36707435 -69.59242507 295.60599191 -69.59535599 297.84393692 C-69.59762154 298.55391832 -69.5998871 299.26389973 -69.60222131 299.99539572 C-69.60858927 302.39223705 -69.60773017 304.78902224 -69.60690689 307.18587112 C-69.60989664 308.89703826 -69.61329874 310.60820471 -69.6170845 312.31937027 C-69.62594739 316.9804573 -69.62826357 321.641526 -69.62890029 326.30262065 C-69.62984746 330.18705235 -69.63352353 334.07147974 -69.63707238 337.95590979 C-69.64522561 347.11655015 -69.64765583 356.27718068 -69.64694595 365.43782425 C-69.6463449 374.9030335 -69.65690027 384.36818581 -69.67268962 393.83338064 C-69.68574339 401.94631881 -69.69113076 410.05923831 -69.69049054 418.17218691 C-69.69023492 423.02362571 -69.6931213 427.87501395 -69.70366859 432.72644234 C-69.71331332 437.28754506 -69.71345384 441.8485485 -69.70615196 446.40965462 C-69.70510159 448.087489 -69.70749562 449.76532945 -69.71351242 451.44315338 C-69.72117182 453.72619931 -69.71662822 456.00889712 -69.70888138 458.29193497 C-69.70942615 459.5719284 -69.70997091 460.85192183 -69.71053219 462.17070293 C-69.77231004 465.25101996 -69.77231004 465.25101996 -67.46164322 467.13142776 C-64.37176061 467.43754119 -64.37176061 467.43754119 -60.66684341 467.38539505 C-59.606715 467.39007502 -59.606715 467.39007502 -58.52516985 467.39484954 C-56.14518675 467.40285852 -53.76545657 467.39649475 -51.38547134 467.39021683 C-49.68400803 467.39292541 -47.98254588 467.39648559 -46.28108597 467.40083694 C-41.65102341 467.40997906 -37.02104966 467.40640921 -32.39098549 467.40007877 C-27.55389917 467.39502819 -22.71682064 467.3997076 -17.87973404 467.4028511 C-9.75549321 467.40649351 -1.6312887 467.40168448 6.49294662 467.39216995 C15.8962665 467.38128488 25.29949966 467.38481026 34.70281744 467.39582276 C42.7648256 467.40488785 50.82680761 467.40618474 58.88881922 467.40094543 C63.70893813 467.39782143 68.52901622 467.39742812 73.34913254 467.4040184 C77.8798893 467.40977994 82.41053386 467.40581693 86.94127846 467.39422989 C88.60782243 467.3915769 90.27437578 467.39235922 91.94091606 467.39675522 C94.20859215 467.40218707 96.47590433 467.39540568 98.74355698 467.38539505 C100.65053738 467.38426397 100.65053738 467.38426397 102.59604263 467.38311005 C105.66002478 467.43927238 105.66002478 467.43927238 107.53835678 465.13142776 C107.84160933 462.02170824 107.84160933 462.02170824 107.78559494 458.29193497 C107.78921656 457.22462288 107.78921656 457.22462288 107.79291135 456.13574892 C107.79856957 453.73960395 107.78986942 451.34372307 107.7812767 448.94758987 C107.78234905 447.23465274 107.78428703 445.52171595 107.78702927 443.80878067 C107.79188795 439.14778795 107.78420948 434.48689057 107.77407622 429.82590938 C107.76531364 424.9576622 107.76705281 420.08941816 107.76743698 415.2211647 C107.7664996 407.0456469 107.75780528 398.87016615 107.74416733 390.69466019 C107.72843579 381.22885643 107.72316936 371.76309327 107.72390288 362.29727739 C107.72451224 353.20754489 107.71941553 344.11782567 107.71111107 335.02809715 C107.7075713 331.15210301 107.70574683 327.27611356 107.70521736 323.40011787 C107.70421622 318.8406633 107.69813849 314.2812431 107.68805122 309.72179985 C107.68511898 308.04354818 107.68390231 306.36529255 107.68447876 304.68703842 C107.68496596 302.40596749 107.67934842 300.1249943 107.67206955 297.84393692 C107.67039371 296.56432052 107.66871786 295.28470411 107.66699123 293.96631145 C107.86211066 291.23040579 107.86211066 291.23040579 106.53835678 290.13142776 C104.72780653 290.03766723 102.91358477 290.01398667 101.10061264 290.01790237 C99.93948456 290.01797791 98.77835648 290.01805344 97.58204269 290.01813126 C96.31852478 290.02329254 95.05500687 290.02845383 93.75320053 290.03377151 C91.82426704 290.03589394 91.82426704 290.03589394 89.8563652 290.03805923 C86.43192236 290.04188358 83.00752169 290.05171315 79.58309555 290.06276321 C76.09097489 290.07297912 72.59884744 290.07755724 69.10671616 290.08259964 C62.250579 290.0933355 55.39446991 290.11041092 48.53835678 290.13142776 C48.52955742 291.19258553 48.52955742 291.19258553 48.52058029 292.27518082 C48.46268577 298.94087708 48.39062825 305.60625194 48.30264187 312.27162266 C48.2579065 315.69841856 48.2186579 319.12509472 48.19192123 322.55208206 C48.16094631 326.49155087 48.1061558 330.43051428 48.05007553 334.36970901 C48.04368561 335.60103058 48.03729568 336.83235214 48.03071213 338.10098648 C48.01091797 339.24194275 47.99112381 340.38289902 47.97072983 341.55842972 C47.95962677 342.56436676 47.94852371 343.5703038 47.9370842 344.60672379 C47.53835678 347.13142776 47.53835678 347.13142776 46.19102097 348.94849014 C43.5264616 350.85571821 41.71932488 350.64038266 38.53835678 350.13142776 C34.4495075 346.44317521 30.95953851 342.20701709 27.41335678 338.00642776 C26.37025287 336.77366859 25.32601923 335.54186426 24.28054428 334.31111526 C23.82534409 333.77212601 23.37014389 333.23313675 22.90114975 332.67781448 C21.50622716 331.09496968 20.04529416 329.60735137 18.53835678 328.13142776 C10.29471701 337.69367167 10.29471701 337.69367167 2.65945053 347.74080276 C1.53835678 349.13142776 1.53835678 349.13142776 -0.46164322 350.13142776 C-5.81235201 350.58680724 -5.81235201 350.58680724 -8.12602615 348.96411514 C-9.96938164 346.43472672 -9.85962992 344.67383225 -9.89401627 341.55842972 C-9.91381042 340.41747345 -9.93360458 339.27651718 -9.95399857 338.10098648 C-9.96038849 336.86966492 -9.96677841 335.63834335 -9.97336197 334.36970901 C-9.99131317 333.1087793 -10.00926437 331.84784958 -10.02775955 330.54870987 C-10.07279746 327.19987263 -10.10507063 323.85140357 -10.13119888 320.50239944 C-10.16100088 317.08368491 -10.20753232 313.66520266 -10.25265884 310.24666214 C-10.33776003 303.54169106 -10.40604153 296.83670483 -10.46164322 290.13142776 C-18.00662555 290.10829925 -25.55160422 290.09051008 -33.09661388 290.07961559 C-36.59973206 290.07438788 -40.10282607 290.06729226 -43.60593033 290.05598831 C-47.62945162 290.04308571 -51.65294736 290.03819865 -55.67648697 290.03377151 C-57.57176384 290.02602959 -57.57176384 290.02602959 -59.50532913 290.01813126 C-60.66645721 290.01805573 -61.8275853 290.01798019 -63.02389908 290.01790237 C-64.05204224 290.01568176 -65.08018539 290.01346115 -66.13948441 290.01117325 C-68.42299431 289.86958168 -68.42299431 289.86958168 -69.46164322 291.13142776 Z M3.53835678 290.13142776 C3.53835678 301.35142776 3.53835678 312.57142776 3.53835678 324.13142776 C6.55490025 321.1148843 8.97720715 318.6550209 11.47585678 315.38142776 C13.62528531 312.84521261 14.39684945 312.17954026 17.66335678 311.06892776 C20.81916661 311.13753233 21.90861504 311.45442055 24.53835678 313.13142776 C26.1644465 314.95155509 27.72277043 316.83347101 29.22585678 318.75642776 C30.64461851 320.56296889 32.07716552 322.35902944 33.53835678 324.13142776 C33.86835678 324.13142776 34.19835678 324.13142776 34.53835678 324.13142776 C34.53835678 312.91142776 34.53835678 301.69142776 34.53835678 290.13142776 C24.30835678 290.13142776 14.07835678 290.13142776 3.53835678 290.13142776 Z " fill="#000000" transform="translate(138.46164321899414,15.868572235107422)"/>
<path d="M0 0 C1.36504926 0.39216029 2.73026651 0.78373627 4.09564209 1.17475891 C6.94214406 1.99313153 9.785839 2.82049517 12.62792969 3.65405273 C16.25938118 4.71801826 19.89769949 5.75594108 23.53863907 6.78689861 C26.35423397 7.58782886 29.16523709 8.40400354 31.97515106 9.22461891 C33.31484385 9.61357635 34.65601253 9.99748925 35.99866486 10.37610435 C37.87636745 10.90773801 39.74744743 11.46259419 41.61816406 12.01831055 C42.6813385 12.32697556 43.74451294 12.63564056 44.83990479 12.95365906 C48.36882252 14.5198614 50.31938531 16.23390228 52.734375 19.23828125 C53.34910583 21.71946716 53.34910583 21.71946716 53.33374023 24.35717773 C53.33981796 25.3526915 53.34589569 26.34820526 53.35215759 27.37388611 C53.32285912 28.97545311 53.32285912 28.97545311 53.29296875 30.609375 C53.29063736 31.72329117 53.28830597 32.83720734 53.28590393 33.98487854 C53.27616527 36.3444076 53.25437571 38.70391321 53.22143555 41.06323242 C53.17247961 44.63170991 53.15997768 48.19879669 53.15429688 51.76757812 C53.08355439 66.2230699 52.93331627 80.38123032 48.109375 94.17578125 C47.7213269 95.30318726 47.7213269 95.30318726 47.32543945 96.45336914 C42.87913162 108.87083232 36.66695306 119.48414501 27.734375 129.23828125 C26.96351563 130.09035156 26.19265625 130.94242188 25.3984375 131.8203125 C14.07068569 143.75294426 -0.42117947 152.64184517 -16.265625 157.23828125 C-33.19306535 157.51130448 -50.10200611 144.6491567 -61.87890625 133.73388672 C-77.81784851 118.22301286 -89.27317106 95.77105071 -90.41279602 73.34176636 C-90.42264023 72.33679108 -90.43248444 71.3318158 -90.44262695 70.29638672 C-90.45546219 69.14854706 -90.46829742 68.0007074 -90.48152161 66.81808472 C-90.48890854 65.59292145 -90.49629547 64.36775818 -90.50390625 63.10546875 C-90.511978 61.83607452 -90.52004974 60.5666803 -90.52836609 59.25881958 C-90.5421695 56.58087544 -90.55319888 53.90305285 -90.56079102 51.22509766 C-90.57190286 47.79734787 -90.60638522 44.37023876 -90.64596272 40.9427166 C-90.67837527 37.6636978 -90.68289942 34.38462333 -90.69140625 31.10546875 C-90.70891434 29.87625702 -90.72642242 28.64704529 -90.74446106 27.38058472 C-90.74153549 26.23904938 -90.73860992 25.09751404 -90.7355957 23.92138672 C-90.74146194 22.91800262 -90.74732819 21.91461853 -90.75337219 20.88082886 C-90.11427043 17.41826287 -89.05821317 16.34793474 -86.265625 14.23828125 C-83.45344543 13.07391357 -83.45344543 13.07391357 -80.17114258 12.13183594 C-78.93918655 11.77176453 -77.70723053 11.41169312 -76.4379425 11.04071045 C-75.09552456 10.66322734 -73.75292431 10.28639205 -72.41015625 9.91015625 C-71.02472595 9.5131186 -69.63953132 9.11525777 -68.25456238 8.71661377 C-65.35264012 7.88457392 -62.44825004 7.06198683 -59.54174805 6.24609375 C-55.83612894 5.20516217 -52.1373319 4.14204297 -48.44009876 3.07175827 C-45.57963464 2.24625382 -42.71597079 1.43233763 -39.85123253 0.62180328 C-38.48725974 0.23451333 -37.1242461 -0.15617269 -35.7622776 -0.55045319 C-22.01407149 -4.51620754 -13.68249524 -4.00546563 0 0 Z M-27.68847656 11.59936523 C-28.72264709 11.89644882 -29.75681763 12.19353241 -30.82232666 12.49961853 C-31.92252136 12.82458817 -33.02271606 13.1495578 -34.15625 13.484375 C-35.86769196 13.9802285 -35.86769196 13.9802285 -37.6137085 14.48609924 C-40.01861857 15.18436699 -42.42242852 15.88643344 -44.82519531 16.59204102 C-48.51403951 17.67531565 -52.20586579 18.74786722 -55.8984375 19.81835938 C-58.23455469 20.49808065 -60.57049839 21.17839855 -62.90625 21.859375 C-64.01454163 22.1823204 -65.12283325 22.50526581 -66.26470947 22.83799744 C-67.28627136 23.13823318 -68.30783325 23.43846893 -69.36035156 23.74780273 C-70.26158752 24.01205551 -71.16282349 24.27630829 -72.09136963 24.54856873 C-74.28082267 25.18094977 -74.28082267 25.18094977 -76.265625 26.23828125 C-76.36815338 33.08425913 -76.43755696 39.9300347 -76.48535156 46.77661133 C-76.50530381 49.09927773 -76.53247549 51.42189498 -76.56738281 53.74438477 C-76.75931435 66.85500223 -76.80383716 78.81125246 -72.265625 91.23828125 C-71.87713379 92.32826416 -71.48864258 93.41824707 -71.08837891 94.54125977 C-64.52214705 112.19716084 -51.38491822 126.78965543 -35.265625 136.23828125 C-34.33580811 136.78718018 -34.33580811 136.78718018 -33.38720703 137.34716797 C-24.71944213 142.49068246 -24.71944213 142.49068246 -15.015625 142.55078125 C-12.62028567 141.54120623 -12.62028567 141.54120623 -10.265625 140.23828125 C-9.37359375 139.81546875 -8.4815625 139.39265625 -7.5625 138.95703125 C12.48563096 128.8769654 26.18832345 111.94151417 34.4453125 91.4921875 C39.09831239 77.12589124 39.10608489 63.26117333 38.921875 48.30078125 C38.90679207 46.15300424 38.89311009 44.00521691 38.88085938 41.85742188 C38.84816031 36.65078201 38.79657962 31.44464876 38.734375 26.23828125 C31.66969251 24.14257741 24.60247034 22.05568364 17.53191948 19.9798584 C14.24851104 19.01559381 10.96603734 18.04836857 7.68554688 17.07421875 C3.91017438 15.95325666 0.13100284 14.84545442 -3.6484375 13.73828125 C-4.82052765 13.38830078 -5.9926178 13.03832031 -7.20022583 12.67773438 C-8.300914 12.35740234 -9.40160217 12.03707031 -10.53564453 11.70703125 C-11.49938995 11.42279297 -12.46313538 11.13855469 -13.45608521 10.84570312 C-18.52867631 9.74901006 -22.74299452 10.15874564 -27.68847656 11.59936523 Z " fill="#000000" transform="translate(269.265625,86.76171875)"/>
<path d="M0 0 C0.96839735 -0.00538554 1.93679469 -0.01077108 2.93453741 -0.01631981 C6.1881353 -0.03065786 9.44132969 -0.02348119 12.69494629 -0.01637268 C15.02399524 -0.02207314 17.3530414 -0.02903613 19.68208313 -0.03717041 C26.01459762 -0.05515161 32.34697392 -0.05392422 38.6795063 -0.04822803 C44.6282276 -0.04475381 50.57692755 -0.0526918 56.52564424 -0.05958868 C69.02564698 -0.07331883 81.52558714 -0.0678722 94.02558845 -0.05640347 C105.46521266 -0.04646831 116.90467519 -0.05941563 128.34427446 -0.08333766 C140.08752613 -0.1077099 151.83070244 -0.1173413 163.5739789 -0.11068493 C170.16815968 -0.10730731 176.76220683 -0.10978396 183.35636902 -0.12693596 C189.55504097 -0.14235487 195.75340312 -0.13850566 201.95206261 -0.11963081 C204.23054124 -0.11593108 206.50904258 -0.11909339 208.78750038 -0.1295166 C211.89100333 -0.14263318 214.9934665 -0.13126167 218.09692383 -0.11352539 C219.00469873 -0.1231304 219.91247363 -0.1327354 220.84775686 -0.14263147 C226.9117261 -0.07102003 226.9117261 -0.07102003 230.10793304 2.23150539 C232.08385855 5.18905842 232.12961523 6.90076019 231.54846191 10.38768005 C230.11030579 12.54301357 230.11030579 12.54301357 227.54846191 14.38768005 C224.38970505 14.99021701 221.26653846 14.93133782 218.05895996 14.90234375 C217.08647906 14.90928928 216.11399817 14.91623481 215.11204815 14.92339081 C211.84452755 14.94172705 208.57772757 14.93137787 205.31018066 14.92112732 C202.97127741 14.92818238 200.63237872 14.93692564 198.29348755 14.94723511 C191.93408004 14.96978387 185.57492076 14.96677664 179.21548843 14.95791364 C173.2415723 14.95216819 167.26768514 14.9618376 161.29377639 14.97020148 C148.74082016 14.98678397 136.1879763 14.97805678 123.63502681 14.96121591 C112.14686748 14.94651646 100.65896962 14.96114982 89.17084396 14.98998607 C77.37786002 15.01936739 65.58499682 15.03035621 53.79197788 15.02080387 C47.16983999 15.01572575 40.54786713 15.01814192 33.92575073 15.03859138 C27.70075003 15.05689348 21.47623687 15.05105641 15.25126266 15.02639198 C12.96311056 15.02136698 10.67492166 15.02491728 8.38679886 15.03754044 C5.26995331 15.0533788 2.15473146 15.03860641 -0.96203613 15.01586914 C-2.32953491 15.03362273 -2.32953491 15.03362273 -3.72465992 15.05173498 C-9.81722489 14.96104842 -9.81722489 14.96104842 -13.04463196 12.04373074 C-14.45153809 9.38768005 -14.45153809 9.38768005 -14.45153809 6.26268005 C-12.00857979 -0.76082505 -6.42433595 -0.04253318 0 0 Z " fill="#000000" transform="translate(141.4515380859375,260.61231994628906)"/>
<path d="M0 0 C1.9375 1.0625 1.9375 1.0625 3 3 C3.41042351 6.22813876 3.67731883 8.81523813 2.01586914 11.72143555 C0.60581042 13.50265811 -0.87950011 15.15916958 -2.4375 16.8125 C-2.98374023 17.4199707 -3.52998047 18.02744141 -4.09277344 18.65332031 C-5.71328209 20.45019796 -7.35428114 22.22622956 -9 24 C-10.58564931 25.7479018 -12.16927798 27.49764092 -13.75 29.25 C-14.81154297 30.41595703 -14.81154297 30.41595703 -15.89453125 31.60546875 C-18.86322685 34.98174037 -21.62385034 38.50886479 -24.37109375 42.06640625 C-26.41183971 44.48887448 -27.47613529 44.90913357 -30.58984375 45.44921875 C-35.67254895 44.77967568 -38.65109311 41.97920234 -42.5625 38.8125 C-43.30435547 38.23435547 -44.04621094 37.65621094 -44.81054688 37.06054688 C-55.45370959 28.67301437 -55.45370959 28.67301437 -57 23.9375 C-57 21 -57 21 -55.875 18.6875 C-53.43879567 16.49491611 -52.29718038 16 -49 16 C-43.03821063 18.75159509 -38.08839149 22.89236424 -33 27 C-29.25903412 25.50028094 -27.50069743 23.41357286 -25.0625 20.25 C-21.26027434 15.51764311 -17.40098532 10.85689986 -13.375 6.3125 C-12.84914307 5.68827148 -12.32328613 5.06404297 -11.78149414 4.42089844 C-8.05573163 0.28103361 -5.80237179 -0.829915 0 0 Z " fill="#000000" transform="translate(277,141)"/>
<path d="M0 0 C1.27746094 -0.00064453 2.55492188 -0.00128906 3.87109375 -0.00195312 C4.86471924 0.01363647 4.86471924 0.01363647 5.87841797 0.02954102 C7.90024898 0.05850777 9.91945672 0.0501431 11.94140625 0.03710938 C22.96197233 0.10939361 22.96197233 0.10939361 26.40625 3.49609375 C26.9375 5.43359375 26.9375 5.43359375 26.90625 7.49609375 C26.9165625 8.17671875 26.926875 8.85734375 26.9375 9.55859375 C26.1631223 12.38279478 24.90720311 13.01795449 22.40625 14.49609375 C18.25673943 15.0453132 14.11719628 14.96910353 9.93408203 14.94213867 C7.91205367 14.93361821 5.89284393 14.96242015 3.87109375 14.99414062 C2.59363281 14.99349609 1.31617187 14.99285156 0 14.9921875 C-1.75280273 14.99496704 -1.75280273 14.99496704 -3.54101562 14.99780273 C-7.20894337 14.39498831 -8.38584557 13.43674812 -10.59375 10.49609375 C-11.09375 7.49609375 -11.09375 7.49609375 -10.59375 4.49609375 C-7.46229484 0.32538454 -5.09083215 -0.00807289 0 0 Z " fill="#000000" transform="translate(98.59375,451.50390625)"/>
</svg>
