<svg width="20" height="20" viewBox="0 0 20 20" fill="none" xmlns="http://www.w3.org/2000/svg">
<g clip-path="url(#clip0_1357_2801)">
<path d="M11.6667 14.9998H8.33333C7.41417 14.9998 6.66667 14.2523 6.66667 13.3332V9.99984C6.66667 9.08068 7.41417 8.33318 8.33333 8.33318H11.6667C12.5858 8.33318 13.3333 9.08068 13.3333 9.99984V13.3332C13.3333 14.2523 12.5858 14.9998 11.6667 14.9998ZM8.33333 9.99984V13.3332H11.6683L11.6667 9.99984H8.33333ZM15.8333 19.9998H4.16667C1.86917 19.9998 0 18.1307 0 15.8332V8.10318C0 6.71568 0.686667 5.42401 1.83667 4.64901L7.66917 0.712344C9.085 -0.242656 10.915 -0.242656 12.3308 0.712344L18.1642 4.64901C19.3133 5.42401 20 6.71484 20 8.10318V15.8332C20 18.1307 18.1308 19.9998 15.8333 19.9998ZM10 1.66401C9.51333 1.66401 9.02667 1.80734 8.60167 2.09484L2.76833 6.03068C2.07833 6.49568 1.66667 7.26984 1.66667 8.10234V15.8323C1.66667 17.2107 2.78833 18.3323 4.16667 18.3323H15.8333C17.2117 18.3323 18.3333 17.2107 18.3333 15.8323V8.10318C18.3333 7.27068 17.9217 6.49568 17.2325 6.03151L11.3983 2.09484C10.9733 1.80734 10.4867 1.66401 10 1.66401Z" fill="#BFBFBF"/>
</g>
<defs>
<clipPath id="clip0_1357_2801">
<rect width="20" height="20" fill="white"/>
</clipPath>
</defs>
</svg>
