<svg width="420" height="312" viewBox="0 0 420 312" fill="none" xmlns="http://www.w3.org/2000/svg">
<path d="M377.916 288.086H350.095V288.296H377.916V288.086Z" fill="#EBEBEB"/>
<path d="M278.225 290.367H270.925V290.577H278.225V290.367Z" fill="#EBEBEB"/>
<path d="M349.255 280.305H333.136V280.514H349.255V280.305Z" fill="#EBEBEB"/>
<path d="M80.346 281.711H44.0664V281.921H80.346V281.711Z" fill="#EBEBEB"/>
<path d="M93.1475 281.711H87.8303V281.921H93.1475V281.711Z" fill="#EBEBEB"/>
<path d="M189.126 285.25H110.435V285.46H189.126V285.25Z" fill="#EBEBEB"/>
<path d="M200.256 237.192H38.052C36.7799 237.192 35.5599 236.687 34.6604 235.789C33.7609 234.891 33.2556 233.673 33.2556 232.404V4.7893C33.2667 3.52665 33.7769 2.31949 34.6752 1.43056C35.5735 0.541637 36.7872 0.0429203 38.052 0.0429688H200.256C200.886 0.0429688 201.51 0.16682 202.092 0.407452C202.673 0.648085 203.202 1.00079 203.648 1.44542C204.093 1.89005 204.446 2.4179 204.687 2.99884C204.928 3.57978 205.052 4.20243 205.052 4.83123V232.404C205.052 233.032 204.928 233.655 204.687 234.236C204.446 234.817 204.093 235.345 203.648 235.789C203.202 236.234 202.673 236.587 202.092 236.827C201.51 237.068 200.886 237.192 200.256 237.192ZM38.052 0.210684C36.8363 0.212901 35.671 0.696 34.8114 1.55418C33.9518 2.41235 33.4678 3.57566 33.4656 4.7893V232.404C33.4678 233.617 33.9518 234.781 34.8114 235.639C35.671 236.497 36.8363 236.98 38.052 236.982H200.256C201.472 236.98 202.637 236.497 203.497 235.639C204.356 234.781 204.84 233.617 204.842 232.404V4.7893C204.84 3.57566 204.356 2.41235 203.497 1.55418C202.637 0.696 201.472 0.212901 200.256 0.210684H38.052Z" fill="#EBEBEB"/>
<path d="M381.948 237.192H219.744C218.472 237.192 217.252 236.687 216.352 235.789C215.453 234.891 214.948 233.673 214.948 232.404V4.7893C214.959 3.52665 215.469 2.31949 216.367 1.43056C217.265 0.541637 218.479 0.0429203 219.744 0.0429688H381.948C383.22 0.0429688 384.44 0.547445 385.339 1.44542C386.239 2.34339 386.744 3.5613 386.744 4.83123V232.404C386.744 233.673 386.239 234.891 385.339 235.789C384.44 236.687 383.22 237.192 381.948 237.192ZM219.744 0.210684C218.528 0.212901 217.363 0.696 216.503 1.55418C215.644 2.41235 215.16 3.57566 215.158 4.7893V232.404C215.16 233.617 215.644 234.781 216.503 235.639C217.363 236.497 218.528 236.98 219.744 236.982H381.948C383.164 236.98 384.329 236.497 385.189 235.639C386.048 234.781 386.532 233.617 386.534 232.404V4.7893C386.532 3.57566 386.048 2.41235 385.189 1.55418C384.329 0.696 383.164 0.212901 381.948 0.210684H219.744Z" fill="#EBEBEB"/>
<path d="M420 274.594H0V274.803H420V274.594Z" fill="#EBEBEB"/>
<path d="M100.237 217.862C99.5316 209.761 91.2492 206.734 81.4296 207.589C71.61 208.444 63.9912 212.864 64.68 220.964L100.237 217.862Z" fill="#F0F0F0"/>
<path d="M81.1105 203.89C85.6633 203.488 87.1165 199.647 86.7217 195.102C86.3269 190.557 84.2017 187.027 79.6657 187.421C75.1297 187.815 73.6597 191.664 74.0545 196.209C74.4493 200.754 76.5577 204.284 81.1105 203.89Z" fill="#F0F0F0"/>
<path d="M285.684 45.3277C285.764 46.2267 285.574 47.1292 285.14 47.9208C284.706 48.7124 284.046 49.3577 283.245 49.7749C282.443 50.1922 281.535 50.3626 280.637 50.2648C279.738 50.1669 278.888 49.8051 278.196 49.2251C277.503 48.6451 276.998 47.873 276.745 47.0065C276.492 46.14 276.502 45.2181 276.774 44.3574C277.046 43.4966 277.568 42.7358 278.273 42.1711C278.978 41.6064 279.836 41.2633 280.736 41.1851C281.942 41.0804 283.141 41.4579 284.069 42.2346C284.996 43.0113 285.577 44.1237 285.684 45.3277Z" fill="#F5F5F5"/>
<path d="M310.943 43.0965C311.021 43.9937 310.83 44.8938 310.396 45.6831C309.962 46.4723 309.303 47.1153 308.502 47.5306C307.702 47.9459 306.796 48.115 305.899 48.0164C305.003 47.9178 304.155 47.5559 303.465 46.9767C302.774 46.3974 302.271 45.6266 302.019 44.7619C301.767 43.8972 301.778 42.9773 302.049 42.1185C302.321 41.2598 302.842 40.5008 303.546 39.9375C304.249 39.3742 305.105 39.0319 306.004 38.9539C307.208 38.8516 308.405 39.2301 309.33 40.0066C310.256 40.783 310.836 41.8941 310.943 43.0965Z" fill="#F5F5F5"/>
<path d="M336.21 40.8902C336.29 41.7892 336.101 42.6917 335.666 43.4833C335.232 44.2749 334.572 44.9202 333.771 45.3374C332.969 45.7547 332.061 45.9251 331.163 45.8273C330.264 45.7294 329.414 45.3676 328.722 44.7876C328.029 44.2076 327.524 43.4355 327.271 42.569C327.018 41.7025 327.028 40.7806 327.3 39.9199C327.572 39.0591 328.094 38.2983 328.799 37.7336C329.505 37.1689 330.362 36.8258 331.262 36.7476C332.469 36.6429 333.667 37.0204 334.595 37.7971C335.522 38.5738 336.103 39.6862 336.21 40.8902Z" fill="#F5F5F5"/>
<path d="M287.935 71.0035C288.015 71.9025 287.826 72.8049 287.391 73.5966C286.957 74.3882 286.298 75.0335 285.496 75.4507C284.694 75.868 283.787 76.0384 282.888 75.9406C281.989 75.8427 281.14 75.4808 280.447 74.9009C279.754 74.3209 279.249 73.5488 278.996 72.6823C278.743 71.8158 278.753 70.8939 279.025 70.0332C279.297 69.1724 279.819 68.4116 280.524 67.8469C281.23 67.2822 282.087 66.9391 282.988 66.8609C284.194 66.7562 285.392 67.1337 286.32 67.9104C287.247 68.6871 287.828 69.7995 287.935 71.0035Z" fill="#F5F5F5"/>
<path d="M313.194 68.8042C313.272 69.7014 313.082 70.6015 312.647 71.3908C312.213 72.1801 311.554 72.823 310.753 73.2383C309.953 73.6536 309.047 73.8227 308.15 73.7241C307.254 73.6255 306.407 73.2637 305.716 72.6844C305.025 72.1051 304.522 71.3343 304.27 70.4696C304.018 69.6049 304.029 68.685 304.301 67.8262C304.572 66.9675 305.093 66.2085 305.797 65.6452C306.501 65.0819 307.356 64.7397 308.255 64.6616C308.852 64.6098 309.453 64.6759 310.024 64.8561C310.595 65.0362 311.125 65.3269 311.584 65.7116C312.042 66.0963 312.421 66.5674 312.697 67.098C312.973 67.6287 313.142 68.2084 313.194 68.8042Z" fill="#F5F5F5"/>
<path d="M338.461 66.5933C338.541 67.4923 338.352 68.3948 337.918 69.1864C337.483 69.978 336.824 70.6233 336.022 71.0406C335.22 71.4578 334.313 71.6283 333.414 71.5304C332.515 71.4325 331.666 71.0707 330.973 70.4907C330.28 69.9107 329.775 69.1386 329.522 68.2721C329.269 67.4057 329.28 66.4837 329.552 65.623C329.824 64.7623 330.345 64.0014 331.05 63.4367C331.756 62.8721 332.613 62.5289 333.514 62.4507C334.72 62.3461 335.918 62.7235 336.846 63.5002C337.774 64.2769 338.355 65.3894 338.461 66.5933Z" fill="#F5F5F5"/>
<path d="M290.186 96.7151C290.264 97.6123 290.074 98.5124 289.64 99.3017C289.205 100.091 288.546 100.734 287.746 101.149C286.945 101.564 286.04 101.734 285.143 101.635C284.246 101.536 283.399 101.175 282.708 100.595C282.018 100.016 281.514 99.2452 281.263 98.3805C281.011 97.5157 281.021 96.5958 281.293 95.7371C281.565 94.8784 282.085 94.1194 282.789 93.5561C283.493 92.9928 284.348 92.6505 285.247 92.5725C285.844 92.5196 286.446 92.5848 287.017 92.7646C287.589 92.9443 288.12 93.2349 288.579 93.6198C289.037 94.0047 289.416 94.4762 289.692 95.0074C289.968 95.5386 290.136 96.1189 290.186 96.7151Z" fill="#F5F5F5"/>
<path d="M315.454 94.4996C315.533 95.3986 315.344 96.301 314.91 97.0927C314.476 97.8843 313.816 98.5296 313.014 98.9468C312.213 99.3641 311.305 99.5345 310.406 99.4366C309.508 99.3388 308.658 98.9769 307.965 98.397C307.273 97.817 306.768 97.0449 306.515 96.1784C306.262 95.3119 306.272 94.39 306.544 93.5292C306.816 92.6685 307.338 91.9077 308.043 91.343C308.748 90.7783 309.605 90.4352 310.506 90.357C311.712 90.2523 312.911 90.6298 313.838 91.4065C314.766 92.1832 315.347 93.2956 315.454 94.4996Z" fill="#F5F5F5"/>
<path d="M340.712 92.2847C340.792 93.1837 340.603 94.0862 340.169 94.8778C339.735 95.6695 339.075 96.3147 338.273 96.732C337.471 97.1492 336.564 97.3197 335.665 97.2218C334.766 97.1239 333.917 96.7621 333.224 96.1821C332.531 95.6021 332.027 94.83 331.774 93.9636C331.521 93.0971 331.531 92.1751 331.803 91.3144C332.075 90.4537 332.596 89.6928 333.302 89.1281C334.007 88.5635 334.864 88.2203 335.765 88.1422C336.971 88.0375 338.17 88.4149 339.097 89.1916C340.025 89.9683 340.606 91.0808 340.712 92.2847Z" fill="#F5F5F5"/>
<path d="M335.252 93.7799L283.357 98.3082L329.372 42.4926L282.24 46.61C282.108 46.6227 281.976 46.6089 281.85 46.5696C281.723 46.5302 281.606 46.4661 281.505 46.3809C281.404 46.2957 281.322 46.1913 281.262 46.0736C281.202 45.956 281.166 45.8276 281.156 45.696C281.133 45.4325 281.216 45.1705 281.386 44.9676C281.556 44.7648 281.8 44.6377 282.064 44.6142L333.967 40.0859L287.944 95.9014L335.093 91.784C335.359 91.763 335.622 91.8471 335.826 92.018C336.03 92.189 336.159 92.4332 336.185 92.6981C336.195 92.8303 336.179 92.9633 336.138 93.0893C336.097 93.2154 336.031 93.332 335.944 93.4325C335.857 93.5331 335.752 93.6155 335.633 93.6751C335.514 93.7347 335.385 93.7703 335.252 93.7799Z" fill="#E6E6E6"/>
<path d="M336.05 193.428C335.97 193.184 335.82 192.968 335.619 192.809C335.417 192.649 335.173 192.553 334.916 192.531C332.66 192.427 330.524 191.485 328.927 189.889C326.852 187.801 325.634 184.64 325.433 180.883C325.413 180.544 325.265 180.225 325.019 179.991C324.772 179.758 324.446 179.627 324.106 179.625C323.922 179.626 323.74 179.664 323.571 179.737C323.403 179.81 323.251 179.916 323.124 180.049C322.998 180.183 322.9 180.34 322.836 180.512C322.772 180.684 322.744 180.867 322.753 181.051C322.988 185.461 324.484 189.235 327.029 191.776C329.022 193.769 331.666 194.98 334.48 195.189H334.673C334.894 195.206 335.115 195.168 335.318 195.078C335.52 194.989 335.698 194.851 335.834 194.677C335.971 194.503 336.062 194.297 336.099 194.08C336.137 193.862 336.12 193.638 336.05 193.428Z" fill="#F0F0F0"/>
<path d="M333.362 209.518C322.232 208.545 314.202 200.973 311.665 189.149C311.625 188.971 311.621 188.787 311.653 188.608C311.686 188.429 311.755 188.259 311.855 188.107C311.956 187.955 312.086 187.824 312.238 187.724C312.39 187.624 312.561 187.555 312.74 187.522C313.08 187.462 313.43 187.534 313.718 187.725C314.006 187.915 314.209 188.209 314.286 188.545C316.562 199.17 323.702 205.979 333.606 206.843C344.459 207.79 356.11 200.663 358.201 182.7C358.237 182.35 358.41 182.028 358.682 181.804C358.954 181.579 359.303 181.471 359.654 181.501C359.832 181.516 360.006 181.566 360.164 181.648C360.322 181.731 360.462 181.845 360.576 181.982C360.689 182.12 360.774 182.279 360.825 182.45C360.876 182.62 360.892 182.8 360.872 182.977C358.865 199.916 347.71 210.767 333.362 209.518Z" fill="#F0F0F0"/>
<path d="M312.362 177.369C312.184 177.355 312.011 177.305 311.853 177.222C311.695 177.14 311.555 177.026 311.441 176.888C311.327 176.751 311.243 176.592 311.192 176.421C311.141 176.25 311.125 176.071 311.144 175.894C313.144 158.954 324.299 148.095 338.638 149.353C351.238 150.451 359.68 159.843 360.998 173.99C361.012 174.168 360.99 174.346 360.934 174.515C360.878 174.684 360.789 174.841 360.671 174.975C360.554 175.109 360.411 175.219 360.251 175.297C360.091 175.376 359.917 175.422 359.738 175.432C359.388 175.449 359.045 175.328 358.781 175.097C358.518 174.865 358.355 174.541 358.327 174.191C357.109 161.445 349.574 153 338.411 152.028C327.6 151.08 315.899 158.2 313.816 176.145C313.801 176.321 313.751 176.492 313.67 176.648C313.589 176.805 313.478 176.944 313.343 177.058C313.208 177.172 313.052 177.258 312.884 177.311C312.716 177.365 312.538 177.384 312.362 177.369Z" fill="#F0F0F0"/>
<path d="M333.908 202.334C331.913 202.174 329.957 201.687 328.121 200.892C327.949 200.817 327.796 200.707 327.669 200.57C327.542 200.432 327.446 200.27 327.385 200.094C327.324 199.917 327.3 199.73 327.316 199.544C327.331 199.358 327.385 199.177 327.474 199.013C327.631 198.725 327.89 198.505 328.201 198.397C328.511 198.288 328.851 198.299 329.154 198.426C330.905 199.177 332.777 199.609 334.681 199.701C342.905 200.17 351.59 194.351 352.447 180.296C352.968 171.634 349.994 164.64 344.45 161.294C344.163 161.121 343.952 160.847 343.857 160.525C343.762 160.204 343.791 159.859 343.938 159.558C344.021 159.392 344.138 159.244 344.281 159.125C344.424 159.006 344.59 158.917 344.769 158.864C344.948 158.811 345.136 158.796 345.321 158.819C345.506 158.842 345.684 158.902 345.845 158.996C352.271 162.871 355.715 170.736 355.127 180.456C354.287 194.007 345.836 203.03 334.521 202.384L333.908 202.334Z" fill="#F0F0F0"/>
<path d="M321.947 193.973C321.792 194.078 321.618 194.149 321.434 194.184C321.251 194.218 321.062 194.214 320.88 194.172C320.698 194.131 320.526 194.052 320.376 193.941C320.226 193.831 320.1 193.69 320.007 193.529C317.517 188.907 316.422 183.664 316.857 178.435C317.646 165.462 325.433 156.632 336.009 156.481C336.195 156.477 336.38 156.512 336.552 156.583C336.724 156.654 336.88 156.759 337.009 156.893C337.138 157.027 337.239 157.186 337.304 157.36C337.368 157.535 337.397 157.721 337.386 157.906C337.365 158.242 337.219 158.557 336.976 158.79C336.734 159.023 336.412 159.156 336.076 159.164C328.23 159.315 320.351 165.235 319.545 178.594C319.137 183.314 320.111 188.051 322.35 192.229C322.519 192.519 322.571 192.862 322.496 193.189C322.421 193.516 322.225 193.802 321.947 193.99V193.973Z" fill="#F0F0F0"/>
<path d="M340.309 192.916C340.182 192.618 340.167 192.283 340.267 191.975C340.368 191.667 340.577 191.405 340.855 191.239C344.392 189.117 346.559 184.664 346.592 179.289C346.592 174.987 345.374 171.348 343.073 169.042C342.179 168.157 341.114 167.465 339.942 167.006C338.771 166.548 337.518 166.333 336.26 166.375C332.119 166.375 328.759 168.647 326.903 172.639C326.76 172.942 326.507 173.181 326.196 173.307C325.884 173.433 325.537 173.437 325.223 173.318C325.048 173.254 324.888 173.153 324.753 173.024C324.619 172.894 324.513 172.738 324.442 172.565C324.371 172.393 324.336 172.208 324.34 172.021C324.345 171.835 324.388 171.651 324.467 171.482C326.768 166.593 331.078 163.7 336.227 163.691C337.84 163.65 339.444 163.935 340.944 164.528C342.444 165.122 343.808 166.013 344.954 167.146C347.768 169.964 349.297 174.283 349.264 179.314C349.213 185.645 346.542 190.962 342.191 193.57C342.026 193.66 341.844 193.714 341.657 193.729C341.47 193.745 341.282 193.721 341.105 193.659C340.927 193.598 340.765 193.5 340.628 193.372C340.491 193.244 340.382 193.088 340.309 192.916Z" fill="#F0F0F0"/>
<path d="M330.632 183.01C330.453 183.083 330.26 183.116 330.066 183.108C329.873 183.099 329.683 183.049 329.511 182.961C329.339 182.872 329.187 182.748 329.068 182.595C328.948 182.443 328.863 182.267 328.818 182.079C328.726 181.718 328.658 181.341 328.6 180.955C327.835 175.924 330.54 171.572 334.883 170.792C335.894 170.572 336.943 170.592 337.945 170.85C338.947 171.108 339.875 171.596 340.654 172.276C340.8 172.406 340.915 172.567 340.99 172.747C341.065 172.927 341.099 173.122 341.088 173.317C341.078 173.512 341.024 173.702 340.929 173.873C340.835 174.044 340.704 174.192 340.544 174.305L340.46 174.364C340.208 174.539 339.904 174.622 339.598 174.599C339.292 174.576 339.003 174.449 338.78 174.238C338.309 173.841 337.752 173.559 337.153 173.413C336.554 173.268 335.929 173.263 335.328 173.4C332.018 173.995 330.758 177.433 331.229 180.519C331.279 180.821 331.33 181.115 331.405 181.358C331.486 181.674 331.45 182.008 331.303 182.299C331.157 182.591 330.909 182.819 330.607 182.943L330.632 183.01Z" fill="#F0F0F0"/>
<path d="M335.076 188.175C334.864 188.155 334.661 188.08 334.486 187.96C334.311 187.839 334.17 187.675 334.075 187.485C333.981 187.294 333.937 187.083 333.948 186.871C333.958 186.658 334.023 186.452 334.135 186.272L334.253 186.087C334.373 185.895 334.544 185.74 334.747 185.638C334.95 185.536 335.177 185.491 335.404 185.509C335.825 185.533 336.248 185.507 336.664 185.433C339.553 184.913 340.864 182.23 340.864 179.496C340.855 179.168 340.966 178.847 341.176 178.595C341.386 178.342 341.681 178.173 342.006 178.121C342.192 178.092 342.383 178.103 342.565 178.153C342.746 178.203 342.916 178.291 343.062 178.41C343.207 178.529 343.326 178.678 343.411 178.847C343.495 179.015 343.543 179.199 343.552 179.387C343.627 183.764 341.032 187.379 337.142 188.075C336.461 188.201 335.766 188.234 335.076 188.175Z" fill="#F0F0F0"/>
<path d="M335.672 183.221C334.994 183.164 334.351 182.897 333.832 182.456C333.314 182.015 332.947 181.424 332.783 180.764C332.735 180.578 332.733 180.384 332.776 180.196C332.819 180.009 332.907 179.835 333.031 179.688C333.155 179.542 333.312 179.427 333.489 179.353C333.667 179.279 333.86 179.248 334.051 179.263H334.362C334.597 179.288 334.82 179.38 335.004 179.529C335.187 179.678 335.323 179.877 335.395 180.102C335.425 180.219 335.49 180.324 335.581 180.402C335.673 180.48 335.787 180.528 335.908 180.538C336.554 180.597 336.664 179.699 336.68 179.481C336.719 179.155 336.658 178.824 336.504 178.534C336.272 178.254 336.153 177.899 336.168 177.536C336.189 177.269 336.29 177.015 336.457 176.806C336.624 176.597 336.849 176.443 337.105 176.363C337.36 176.282 337.634 176.28 337.89 176.356C338.147 176.432 338.375 176.583 338.545 176.79C339.201 177.616 339.503 178.668 339.385 179.716C339.167 181.922 337.613 183.389 335.672 183.221Z" fill="#F0F0F0"/>
<path d="M310.405 153.207C310.23 153.192 310.059 153.143 309.902 153.062C309.746 152.981 309.607 152.869 309.494 152.735C309.38 152.6 309.295 152.444 309.242 152.276C309.19 152.108 309.171 151.931 309.187 151.756L310.204 140.125L321.854 141.148C322.03 141.163 322.201 141.212 322.358 141.293C322.514 141.374 322.653 141.485 322.766 141.62C322.879 141.755 322.965 141.911 323.017 142.079C323.07 142.247 323.089 142.424 323.072 142.599C323.058 142.774 323.008 142.946 322.927 143.102C322.846 143.259 322.735 143.398 322.6 143.512C322.465 143.625 322.309 143.711 322.141 143.765C321.972 143.818 321.795 143.838 321.619 143.823L312.648 143.035L311.867 151.991C311.851 152.167 311.801 152.337 311.719 152.494C311.637 152.65 311.524 152.788 311.389 152.901C311.253 153.014 311.096 153.099 310.927 153.152C310.759 153.204 310.581 153.223 310.405 153.207Z" fill="#F0F0F0"/>
<path d="M365.786 158.047C365.611 158.032 365.44 157.983 365.283 157.902C365.127 157.821 364.988 157.71 364.875 157.575C364.762 157.44 364.676 157.284 364.624 157.116C364.571 156.948 364.552 156.771 364.568 156.596L365.35 147.64L356.378 146.86C356.202 146.845 356.031 146.794 355.875 146.712C355.718 146.63 355.579 146.518 355.466 146.383C355.353 146.247 355.268 146.091 355.215 145.923C355.163 145.754 355.144 145.577 355.16 145.401C355.175 145.226 355.225 145.055 355.306 144.899C355.387 144.743 355.498 144.604 355.633 144.491C355.768 144.378 355.925 144.293 356.093 144.24C356.261 144.188 356.438 144.169 356.614 144.185L368.264 145.2L367.248 156.856C367.21 157.206 367.035 157.528 366.762 157.751C366.488 157.973 366.138 158.08 365.786 158.047Z" fill="#F0F0F0"/>
<path d="M361.662 220.587L350.011 219.573C349.835 219.557 349.664 219.507 349.508 219.425C349.351 219.343 349.212 219.231 349.099 219.095C348.986 218.96 348.901 218.803 348.848 218.635C348.796 218.466 348.777 218.289 348.793 218.114C348.808 217.938 348.857 217.767 348.939 217.611C349.02 217.455 349.131 217.317 349.266 217.203C349.401 217.09 349.557 217.005 349.726 216.953C349.894 216.9 350.071 216.881 350.246 216.898L359.218 217.677L359.999 208.73C360.014 208.553 360.063 208.382 360.145 208.224C360.226 208.067 360.338 207.928 360.474 207.814C360.61 207.7 360.767 207.614 360.936 207.561C361.106 207.508 361.284 207.489 361.46 207.506C361.636 207.52 361.807 207.57 361.964 207.651C362.12 207.732 362.259 207.843 362.372 207.978C362.485 208.113 362.571 208.268 362.623 208.436C362.676 208.604 362.695 208.781 362.678 208.956L361.662 220.587Z" fill="#F0F0F0"/>
<path d="M315.252 216.511L303.601 215.488L304.617 203.865C304.652 203.511 304.824 203.184 305.097 202.955C305.371 202.726 305.723 202.613 306.079 202.641C306.255 202.657 306.426 202.707 306.583 202.789C306.739 202.871 306.878 202.983 306.991 203.118C307.104 203.254 307.19 203.41 307.242 203.579C307.295 203.747 307.313 203.924 307.297 204.1L306.516 213.039L315.479 213.828C315.655 213.842 315.826 213.892 315.983 213.972C316.14 214.053 316.279 214.164 316.393 214.299C316.507 214.434 316.593 214.59 316.647 214.758C316.7 214.926 316.72 215.103 316.705 215.278C316.675 215.634 316.505 215.963 316.233 216.194C315.961 216.425 315.608 216.539 315.252 216.511Z" fill="#F0F0F0"/>
<path d="M62.7731 191.347C62.5542 191.363 62.3376 191.294 62.1696 191.153C62.0016 191.012 61.8956 190.81 61.8743 190.592L61.2527 183.448L68.4095 182.819C68.6284 182.802 68.845 182.872 69.013 183.013C69.181 183.154 69.287 183.355 69.3083 183.573C69.3224 183.791 69.2514 184.005 69.1104 184.171C68.9693 184.336 68.7692 184.441 68.5523 184.462L63.0419 184.949L63.5207 190.45C63.5372 190.667 63.4684 190.882 63.3289 191.05C63.1894 191.217 62.99 191.324 62.7731 191.347Z" fill="#E0E0E0"/>
<path d="M96.8268 188.37C96.6093 188.387 96.3938 188.318 96.2261 188.179C96.0583 188.039 95.9514 187.84 95.928 187.624L95.4492 182.114L89.9304 182.601C89.7116 182.617 89.4949 182.547 89.327 182.406C89.159 182.265 89.053 182.064 89.0316 181.846C89.0152 181.627 89.0852 181.411 89.2265 181.243C89.3678 181.076 89.5692 180.97 89.7876 180.949L96.9445 180.328L97.5745 187.473C97.591 187.69 97.5222 187.905 97.3827 188.073C97.2431 188.24 97.0438 188.347 96.8268 188.37Z" fill="#E0E0E0"/>
<path d="M100.355 219.156L93.1897 219.785C92.9708 219.801 92.7542 219.731 92.5862 219.59C92.4183 219.449 92.3123 219.248 92.2909 219.03C92.2745 218.811 92.3444 218.595 92.4857 218.427C92.627 218.26 92.8285 218.154 93.0469 218.133L98.5573 217.655L98.0785 212.154C98.062 211.936 98.1308 211.721 98.2703 211.554C98.4098 211.386 98.6092 211.28 98.8261 211.256C99.0437 211.24 99.2592 211.308 99.4269 211.448C99.5947 211.587 99.7015 211.786 99.7249 212.003L100.355 219.156Z" fill="#E0E0E0"/>
<path d="M71.8117 221.646L64.6801 222.266L64.0501 215.113C64.036 214.896 64.1069 214.682 64.248 214.516C64.3891 214.35 64.5892 214.246 64.8061 214.224C65.0223 214.21 65.2356 214.28 65.4015 214.419C65.5675 214.558 65.6731 214.756 65.6965 214.971L66.1837 220.48L71.6941 219.994C71.913 219.977 72.1296 220.047 72.2976 220.188C72.4656 220.329 72.5716 220.53 72.5929 220.749C72.6009 220.859 72.587 220.969 72.552 221.074C72.5171 221.179 72.4617 221.276 72.3891 221.359C72.3165 221.443 72.2281 221.511 72.129 221.56C72.03 221.609 71.9221 221.638 71.8117 221.646Z" fill="#E0E0E0"/>
<path d="M96.2471 72.1597L68.8799 74.5078L68.3171 68.1094C68.276 65.0557 69.393 62.0995 71.444 59.8336C73.4951 57.5678 76.3285 56.16 79.3759 55.8926C82.4233 55.6252 85.4592 56.518 87.8748 58.3919C90.2903 60.2658 91.9068 62.9822 92.3999 65.9962L92.7191 69.7195L96.6755 69.3757L96.3479 65.6524C96.1637 63.5524 95.5669 61.5091 94.5917 59.6393C93.6165 57.7695 92.2819 56.1097 90.6642 54.7548C89.0464 53.3999 87.1772 52.3763 85.1632 51.7426C83.1492 51.1088 81.0299 50.8773 78.9263 51.0612C74.6778 51.4326 70.7512 53.4736 68.0102 56.7353C66.6529 58.3503 65.6276 60.2163 64.9928 62.2269C64.358 64.2375 64.1261 66.3532 64.3103 68.4532L64.8731 74.8935C63.3148 75.198 61.9242 76.0669 60.969 77.3333C60.0138 78.5996 59.5613 80.1738 59.6987 81.753L61.6559 104.093C61.7257 104.936 61.9617 105.757 62.3502 106.509C62.7388 107.261 63.2723 107.928 63.9201 108.474C64.568 109.019 65.3174 109.432 66.1253 109.687C66.9331 109.943 67.7836 110.036 68.6279 109.963L99.3131 107.288C100.158 107.218 100.98 106.982 101.733 106.594C102.486 106.207 103.155 105.674 103.702 105.027C104.248 104.38 104.661 103.632 104.917 102.826C105.173 102.019 105.267 101.17 105.193 100.327L103.236 77.9878C103.161 77.1468 102.921 76.3288 102.529 75.5806C102.137 74.8324 101.601 74.1686 100.952 73.6273C100.303 73.086 99.5531 72.6778 98.7458 72.4259C97.9385 72.1741 97.0894 72.0837 96.2471 72.1597ZM84.6047 89.3757L85.2767 97.0654C85.3219 97.3749 85.3034 97.6903 85.2222 97.9924C85.141 98.2945 84.9989 98.5769 84.8046 98.8222C84.6103 99.0675 84.3678 99.2707 84.0921 99.4192C83.8164 99.5677 83.5132 99.6585 83.2011 99.6859C82.889 99.7133 82.5746 99.6769 82.2771 99.5788C81.9797 99.4807 81.7054 99.3229 81.4711 99.1153C81.2368 98.9076 81.0475 98.6544 80.9147 98.3712C80.7818 98.0879 80.7084 97.7805 80.6987 97.4679L80.0267 89.7698C79.3337 89.345 78.7927 88.7127 78.4806 87.963C78.1685 87.2133 78.1013 86.3845 78.2886 85.5945C78.4759 84.8045 78.908 84.0936 79.5235 83.563C80.1391 83.0324 80.9066 82.7093 81.7168 82.6395C82.527 82.5698 83.3386 82.757 84.036 83.1745C84.7334 83.592 85.2811 84.2186 85.6011 84.9649C85.9211 85.7113 85.997 86.5394 85.8181 87.3313C85.6392 88.1233 85.2146 88.8387 84.6047 89.3757Z" fill="#EBEBEB"/>
<path d="M143.17 85.0663L140.406 80.5464C139.013 80.7444 137.599 80.7444 136.206 80.5464L133.434 85.0495L132.905 84.907C131.109 84.4345 129.385 83.7208 127.781 82.7854L127.31 82.517L128.478 77.6197C128.501 77.5247 128.542 77.4352 128.6 77.3562C128.657 77.2773 128.73 77.2105 128.813 77.1598C128.897 77.1091 128.99 77.0755 129.087 77.0609C129.183 77.0462 129.282 77.0509 129.377 77.0747C129.567 77.1204 129.732 77.2397 129.834 77.4064C129.936 77.573 129.968 77.7734 129.923 77.9636L128.999 81.7791C130.193 82.4283 131.451 82.9511 132.754 83.3388L135.458 78.9279L135.954 79.0118C137.523 79.2634 139.123 79.2634 140.692 79.0118L141.179 78.9279L143.884 83.3388C145.187 82.9541 146.446 82.4312 147.638 81.7791L146.437 76.7476L146.84 76.4541C147.935 75.6663 148.915 74.7324 149.755 73.6784C149.872 73.5266 150.043 73.426 150.233 73.3978C150.423 73.3697 150.616 73.4162 150.772 73.5275C150.853 73.5841 150.923 73.6567 150.975 73.7409C151.028 73.8251 151.063 73.9192 151.078 74.0173C151.093 74.1154 151.087 74.2156 151.062 74.3116C151.037 74.4076 150.992 74.4975 150.931 74.5757C150.106 75.6163 149.155 76.5514 148.1 77.3598L149.335 82.5003L148.857 82.7686C147.255 83.7025 145.534 84.4162 143.741 84.8902L143.17 85.0663ZM126.185 75.2214C125.958 74.9615 125.731 74.6847 125.513 74.3828L120.364 75.6155L120.087 75.1459C119.156 73.5413 118.442 71.8214 117.961 70.0307L117.827 69.5023L122.338 66.735C122.139 65.3444 122.139 63.9328 122.338 62.5422L117.827 59.7833L117.961 59.2466C118.442 57.4585 119.156 55.7414 120.087 54.1397L120.364 53.6617L125.513 54.8944C126.373 53.7713 127.378 52.7673 128.503 51.9091L127.571 48.0181C127.525 47.8279 127.557 47.6275 127.66 47.4609C127.762 47.2942 127.927 47.1749 128.117 47.1292C128.211 47.1068 128.308 47.1031 128.403 47.1185C128.498 47.1338 128.59 47.1677 128.672 47.2184C128.754 47.2691 128.825 47.3354 128.881 47.4137C128.937 47.4919 128.977 47.5805 128.999 47.6743L130.167 52.5212L129.763 52.8063C128.469 53.7359 127.334 54.8687 126.403 56.1606L126.109 56.5631L121.069 55.364C120.416 56.5543 119.892 57.8109 119.507 59.1124L123.917 61.8126L123.841 62.299C123.561 63.8631 123.561 65.4645 123.841 67.0286L123.917 67.5233L119.507 70.2235C119.894 71.5218 120.418 72.7755 121.069 73.9636L126.109 72.7644L126.403 73.1669C126.664 73.5471 126.945 73.9138 127.243 74.2654C127.373 74.4011 127.445 74.5813 127.445 74.7686C127.445 74.9559 127.373 75.1361 127.243 75.2717C127.172 75.3402 127.087 75.3933 126.994 75.428C126.901 75.4626 126.802 75.4781 126.703 75.4734C126.604 75.4687 126.507 75.4439 126.418 75.4006C126.329 75.3573 126.25 75.2963 126.185 75.2214ZM156.207 75.6323L154.308 75.1795C154.118 75.1338 153.953 75.0145 153.851 74.8478C153.749 74.6811 153.717 74.4807 153.762 74.2906C153.808 74.1005 153.927 73.9364 154.094 73.8342C154.261 73.732 154.462 73.7001 154.653 73.7455L155.493 73.9384C156.142 72.7501 156.662 71.4964 157.047 70.1984L152.637 67.4982L152.72 67.0034C153.001 65.4393 153.001 63.8379 152.72 62.2738L152.637 61.7875L157.047 59.0873C156.664 57.786 156.143 56.5293 155.493 55.3388L150.452 56.538L150.167 56.1355C149.234 54.8454 148.099 53.713 146.807 52.7812L146.404 52.4961L147.605 47.4646C146.412 46.8152 145.154 46.2951 143.85 45.9132L141.12 50.3577L140.633 50.2738C139.064 50.0222 137.464 50.0222 135.895 50.2738L135.4 50.3577L132.72 45.93L132.216 46.081C132.037 46.14 131.841 46.1265 131.672 46.0435C131.502 45.9604 131.372 45.8143 131.309 45.6365C131.274 45.5446 131.258 45.4468 131.262 45.3487C131.266 45.2506 131.289 45.1542 131.33 45.0651C131.372 44.9761 131.431 44.8962 131.503 44.8302C131.576 44.7642 131.661 44.7133 131.754 44.6805C132.124 44.5631 132.502 44.4541 132.871 44.3535L133.4 44.2109L136.173 48.7225C137.565 48.5158 138.98 48.5158 140.373 48.7225L143.136 44.2109L143.674 44.3535C145.466 44.8311 147.186 45.5446 148.789 46.4751L149.268 46.7518L148.033 51.8923C149.16 52.7487 150.166 53.7528 151.024 54.8776L156.173 53.6449L156.45 54.1229C157.384 55.7229 158.098 57.4405 158.575 59.2298L158.718 59.7665L154.199 62.5254C154.408 63.9152 154.408 65.3285 154.199 66.7183L158.718 69.4856L158.575 70.0139C158.098 71.8059 157.384 73.5262 156.45 75.1292L156.207 75.6323ZM138.079 71.8252C136.249 71.7528 134.513 70.9945 133.218 69.7014C131.923 68.4084 131.163 66.6755 131.09 64.8483C131.041 63.051 131.666 61.3002 132.845 59.9407C134.023 58.5811 135.669 57.7112 137.458 57.5023C137.563 57.4893 137.669 57.4986 137.77 57.5297C137.871 57.5608 137.965 57.6129 138.044 57.6827C138.123 57.7524 138.187 57.8382 138.231 57.9343C138.275 58.0304 138.297 58.1347 138.298 58.2403C138.297 58.4186 138.231 58.5905 138.111 58.7234C137.992 58.8563 137.828 58.941 137.651 58.9615C136.406 59.1032 135.242 59.6489 134.338 60.5149C133.434 61.3808 132.84 62.5191 132.647 63.7548C132.454 64.9905 132.672 66.2554 133.269 67.3552C133.866 68.4549 134.808 69.3287 135.95 69.8423C137.092 70.3559 138.372 70.481 139.592 70.1982C140.813 69.9155 141.906 69.2406 142.705 68.2773C143.504 67.3139 143.964 66.1153 144.015 64.8656C144.065 63.616 143.704 62.3843 142.985 61.3598C142.881 61.2146 142.836 61.0359 142.857 60.859C142.879 60.682 142.967 60.5196 143.103 60.4038C143.181 60.3343 143.273 60.2822 143.373 60.2511C143.473 60.2199 143.579 60.2103 143.683 60.223C143.787 60.2357 143.887 60.2704 143.977 60.3247C144.067 60.379 144.144 60.4517 144.203 60.538C144.967 61.6293 145.412 62.9113 145.488 64.2406C145.564 65.5699 145.269 66.8942 144.634 68.0653C144 69.2365 143.051 70.2084 141.895 70.8724C140.739 71.5364 139.421 71.8663 138.088 71.8252H138.079Z" fill="#F0F0F0"/>
<path d="M90.9805 146.449L89.1913 143.539C88.2863 143.673 87.3663 143.673 86.4613 143.539L84.6721 146.449L84.3277 146.357C83.1681 146.051 82.0549 145.592 81.0181 144.99L80.7157 144.814L81.4717 141.644C81.5016 141.522 81.5782 141.417 81.6851 141.351C81.7919 141.285 81.9204 141.264 82.0429 141.292C82.1042 141.307 82.1619 141.333 82.2129 141.37C82.2638 141.407 82.3069 141.454 82.3397 141.508C82.3725 141.562 82.3943 141.621 82.4039 141.684C82.4135 141.746 82.4107 141.809 82.3957 141.87L81.8077 144.336C82.5784 144.757 83.3922 145.095 84.2353 145.342L85.9825 142.499L86.2933 142.55C87.3084 142.717 88.3442 142.717 89.3593 142.55L89.6701 142.499L91.4257 145.342C92.2642 145.089 93.0747 144.752 93.8449 144.336L93.0721 141.099L93.3325 140.906C94.0387 140.4 94.6718 139.799 95.2141 139.12C95.2879 139.02 95.3982 138.954 95.5209 138.935C95.6437 138.916 95.7689 138.946 95.8693 139.019C95.9209 139.056 95.9646 139.103 95.9981 139.156C96.0315 139.21 96.054 139.27 96.0641 139.332C96.0743 139.394 96.072 139.458 96.0573 139.52C96.0425 139.581 96.0158 139.639 95.9785 139.69C95.4433 140.363 94.8285 140.968 94.1473 141.493L94.9873 144.847L94.6765 145.024C93.6404 145.627 92.527 146.086 91.3669 146.39L90.9805 146.449ZM80.0101 140.084L79.5733 139.556L76.2133 140.344L76.0369 140.042C75.4451 139.003 74.9959 137.889 74.7013 136.73L74.6089 136.386L77.5237 134.6C77.3893 133.697 77.3893 132.778 77.5237 131.875L74.6089 130.089L74.7013 129.745C75.0058 128.587 75.4664 127.475 76.0705 126.441L76.2469 126.13L79.6069 126.969C80.1472 126.235 80.7764 125.57 81.4801 124.99L80.8837 122.474C80.8687 122.414 80.8661 122.351 80.8758 122.289C80.8855 122.227 80.9074 122.168 80.9402 122.115C80.9731 122.062 81.0162 122.016 81.0671 121.98C81.1179 121.944 81.1755 121.918 81.2365 121.904C81.3589 121.876 81.4874 121.898 81.5943 121.963C81.7011 122.029 81.7778 122.134 81.8077 122.256L82.5637 125.384L82.2949 125.577C81.4625 126.173 80.7332 126.901 80.1361 127.732L79.9429 127.992L76.7005 127.221C76.2833 127.989 75.9456 128.799 75.6925 129.636L78.5401 131.38L78.4897 131.699C78.4031 132.203 78.3581 132.713 78.3553 133.225C78.3581 133.739 78.403 134.252 78.4897 134.759L78.5401 135.07L75.6925 136.814C75.944 137.654 76.2818 138.466 76.7005 139.237L79.9429 138.457L80.1361 138.717C80.3096 138.966 80.4976 139.204 80.6989 139.43C80.7816 139.517 80.8277 139.633 80.8277 139.753C80.8277 139.873 80.7816 139.989 80.6989 140.076C80.6554 140.124 80.6026 140.162 80.5437 140.189C80.4847 140.215 80.4209 140.229 80.3563 140.23C80.2917 140.231 80.2276 140.218 80.168 140.193C80.1084 140.168 80.0547 140.131 80.0101 140.084ZM99.4057 140.344L98.1793 140.059C98.118 140.044 98.0602 140.018 98.0093 139.981C97.9584 139.944 97.9153 139.897 97.8825 139.843C97.8497 139.789 97.8279 139.73 97.8183 139.667C97.8087 139.605 97.8115 139.542 97.8265 139.481C97.8403 139.42 97.8661 139.362 97.9025 139.311C97.9388 139.261 97.9849 139.218 98.0381 139.185C98.0912 139.152 98.1504 139.13 98.2122 139.12C98.2739 139.111 98.337 139.113 98.3977 139.128L98.9269 139.254C99.3491 138.485 99.687 137.672 99.9349 136.831L97.0873 135.086L97.1377 134.776C97.2244 134.269 97.2693 133.756 97.2721 133.242C97.2693 132.73 97.2243 132.22 97.1377 131.715L97.0873 131.397L99.9349 129.652C99.6854 128.814 99.3475 128.005 98.9269 127.237L95.6845 128.009L95.4913 127.749C94.8941 126.918 94.1649 126.19 93.3325 125.594L93.0721 125.401L93.8449 122.164C93.0764 121.744 92.2655 121.407 91.4257 121.158L89.6701 124L89.3593 123.95C88.3442 123.782 87.3084 123.782 86.2933 123.95L85.9825 124L84.2353 121.158L83.9077 121.258C83.7907 121.296 83.6637 121.286 83.5538 121.231C83.4439 121.176 83.3599 121.081 83.3197 120.965C83.2971 120.906 83.2865 120.843 83.2887 120.78C83.2909 120.717 83.3058 120.655 83.3324 120.598C83.3591 120.541 83.397 120.49 83.4438 120.448C83.4907 120.406 83.5456 120.373 83.6053 120.353L84.3277 120.135L84.6721 120.051L86.4613 122.961C87.3663 122.826 88.2863 122.826 89.1913 122.961L90.9805 120.051L91.3249 120.135C92.4841 120.445 93.597 120.908 94.6345 121.51L94.9453 121.686L94.1053 125.04C94.8286 125.599 95.4778 126.247 96.0373 126.969L99.3973 126.13L99.5737 126.441C100.178 127.475 100.638 128.587 100.943 129.745L101.035 130.089L98.1205 131.875C98.2549 132.778 98.2549 133.697 98.1205 134.6L101.035 136.386L100.943 136.73C100.637 137.888 100.176 138.999 99.5737 140.034L99.4057 140.344ZM87.6961 137.887C86.5547 137.809 85.4821 137.314 84.6833 136.496C83.8844 135.679 83.4152 134.596 83.3653 133.455C83.3155 132.314 83.6884 131.195 84.4129 130.311C85.1374 129.427 86.1626 128.84 87.2929 128.663C87.3603 128.656 87.4284 128.663 87.4928 128.684C87.5573 128.705 87.6168 128.739 87.6674 128.783C87.7179 128.828 87.7586 128.883 87.7867 128.945C87.8148 129.007 87.8297 129.073 87.8305 129.141C87.8312 129.257 87.7886 129.37 87.711 129.456C87.6334 129.543 87.5263 129.598 87.4105 129.611C86.702 129.691 86.032 129.975 85.4814 130.428C84.9309 130.88 84.5232 131.482 84.3075 132.161C84.0919 132.839 84.0775 133.566 84.2661 134.252C84.4547 134.939 84.8382 135.556 85.3705 136.03C85.9027 136.504 86.5609 136.814 87.2656 136.923C87.9704 137.032 88.6916 136.934 89.3424 136.643C89.9931 136.352 90.5456 135.879 90.9331 135.281C91.3207 134.684 91.5267 133.987 91.5265 133.275C91.5281 132.518 91.2932 131.779 90.8545 131.162C90.7904 131.067 90.7627 130.952 90.7766 130.838C90.7905 130.724 90.845 130.618 90.9301 130.541C90.9807 130.496 91.0404 130.462 91.1052 130.441C91.17 130.421 91.2385 130.414 91.3061 130.422C91.3736 130.43 91.4387 130.452 91.497 130.487C91.5553 130.522 91.6054 130.569 91.6441 130.625C92.1354 131.331 92.421 132.159 92.4693 133.017C92.5175 133.874 92.3264 134.729 91.9173 135.485C91.5082 136.241 90.897 136.869 90.1518 137.299C89.4066 137.729 88.5565 137.944 87.6961 137.921V137.887Z" fill="#E6E6E6"/>
<path d="M210 312.001C299.949 312.001 372.868 307.751 372.868 302.508C372.868 297.266 299.949 293.016 210 293.016C120.051 293.016 47.1323 297.266 47.1323 302.508C47.1323 307.751 120.051 312.001 210 312.001Z" fill="#F5F5F5"/>
<path d="M305.298 76.2093H277.947L258.627 296.964H285.978C289.817 296.89 293.495 295.417 296.321 292.821C299.146 290.226 300.923 286.689 301.316 282.876L318.192 90.289C318.388 88.4946 318.199 86.6791 317.637 84.9635C317.075 83.2478 316.153 81.6714 314.933 80.3392C313.713 79.007 312.223 77.9496 310.561 77.2375C308.9 76.5254 307.106 76.1749 305.298 76.2093Z" fill="#F37D78"/>
<path d="M299.72 76.2084H207.152C203.313 76.2801 199.634 77.7516 196.807 80.3452C193.98 82.9388 192.201 86.4754 191.806 90.288L174.93 282.875C174.736 284.668 174.925 286.482 175.487 288.196C176.048 289.911 176.968 291.486 178.186 292.818C179.404 294.151 180.891 295.209 182.55 295.924C184.209 296.638 186.001 296.993 187.807 296.963H280.367C284.2 296.881 287.872 295.404 290.692 292.81C293.512 290.216 295.286 286.683 295.68 282.875L312.556 90.288C312.751 88.4986 312.563 86.6882 312.005 84.9767C311.446 83.2652 310.53 81.6918 309.316 80.3605C308.103 79.0293 306.62 77.9707 304.965 77.2549C303.311 76.539 301.523 76.1823 299.72 76.2084Z" fill="#EA9B9B"/>
<path opacity="0.3" d="M299.72 76.2084H207.152C203.313 76.2801 199.634 77.7516 196.807 80.3452C193.98 82.9388 192.201 86.4754 191.806 90.288L174.93 282.875C174.736 284.668 174.925 286.482 175.487 288.196C176.048 289.911 176.968 291.486 178.186 292.818C179.404 294.151 180.891 295.209 182.55 295.924C184.209 296.638 186.001 296.993 187.807 296.963H280.367C284.2 296.881 287.872 295.404 290.692 292.81C293.512 290.216 295.286 286.683 295.68 282.875L312.556 90.288C312.751 88.4986 312.563 86.6882 312.005 84.9767C311.446 83.2652 310.53 81.6918 309.316 80.3605C308.103 79.0293 306.62 77.9707 304.965 77.2549C303.311 76.539 301.523 76.1823 299.72 76.2084Z" fill="white"/>
<path opacity="0.4" d="M299.326 80.7201H274.915C274.187 80.7261 273.478 80.9498 272.879 81.3624C272.28 81.775 271.819 82.3575 271.555 83.0346C270.592 85.5217 268.909 87.666 266.72 89.194C264.532 90.7219 261.936 91.5641 259.266 91.6132H244.868C242.353 91.6638 239.899 90.8373 237.929 89.2761C235.959 87.7148 234.596 85.5165 234.074 83.0598C233.935 82.3951 233.568 81.7999 233.036 81.3772C232.503 80.9545 231.84 80.731 231.16 80.7453H206.758C204.148 80.7913 201.647 81.7905 199.726 83.5537C197.805 85.3169 196.598 87.7218 196.333 90.3134L179.449 282.9C179.314 284.12 179.441 285.354 179.821 286.521C180.202 287.687 180.827 288.759 181.655 289.666C182.484 290.572 183.496 291.291 184.625 291.776C185.754 292.261 186.973 292.5 188.202 292.477H280.77C283.38 292.429 285.882 291.428 287.802 289.663C289.723 287.899 290.93 285.493 291.194 282.9L308.07 90.3134C308.208 89.0934 308.083 87.8582 307.704 86.6901C307.325 85.5221 306.701 84.4482 305.874 83.5402C305.046 82.6321 304.034 81.9109 302.905 81.4246C301.775 80.9383 300.555 80.6981 299.326 80.7201Z" fill="white"/>
<path d="M276.259 185.365H211.478C211.033 185.372 210.591 185.285 210.183 185.109C209.774 184.933 209.407 184.672 209.107 184.344C208.806 184.016 208.58 183.627 208.441 183.205C208.303 182.783 208.256 182.335 208.303 181.893L208.631 178.187C208.727 177.247 209.165 176.375 209.861 175.735C210.558 175.096 211.465 174.733 212.411 174.715H277.2C277.645 174.708 278.087 174.795 278.496 174.971C278.905 175.147 279.271 175.408 279.572 175.736C279.872 176.065 280.099 176.453 280.237 176.875C280.376 177.298 280.423 177.745 280.375 178.187L280.056 181.893C279.958 182.835 279.517 183.709 278.817 184.348C278.118 184.988 277.208 185.35 276.259 185.365Z" fill="white"/>
<path d="M274.865 201.299H210.075C209.631 201.306 209.189 201.219 208.781 201.043C208.372 200.867 208.006 200.606 207.706 200.277C207.407 199.949 207.181 199.56 207.043 199.138C206.906 198.715 206.86 198.269 206.909 197.827L207.228 194.121C207.326 193.181 207.764 192.31 208.46 191.671C209.156 191.032 210.062 190.668 211.008 190.649H275.797C276.242 190.642 276.684 190.729 277.093 190.905C277.502 191.081 277.869 191.342 278.169 191.67C278.469 191.998 278.696 192.387 278.834 192.809C278.973 193.232 279.02 193.679 278.972 194.121L278.645 197.827C278.547 198.766 278.108 199.637 277.412 200.277C276.716 200.916 275.81 201.279 274.865 201.299Z" fill="white"/>
<path opacity="0.1" d="M256.578 84.3262C256.471 85.3698 255.985 86.338 255.211 87.0474C254.436 87.7568 253.429 88.1581 252.378 88.1752C251.884 88.1841 251.394 88.0879 250.94 87.893C250.487 87.698 250.08 87.4089 249.747 87.0447C249.414 86.6805 249.162 86.2498 249.009 85.781C248.856 85.3123 248.805 84.8163 248.858 84.3262C248.965 83.2826 249.452 82.3144 250.226 81.605C251 80.8956 252.008 80.4943 253.058 80.4771C253.552 80.4682 254.042 80.5645 254.496 80.7594C254.95 80.9543 255.356 81.2435 255.689 81.6077C256.022 81.9718 256.274 82.4026 256.427 82.8714C256.58 83.3401 256.632 83.836 256.578 84.3262Z" fill="black"/>
<path opacity="0.1" d="M254.831 84.3277C254.771 84.8974 254.506 85.4258 254.083 85.8134C253.661 86.2011 253.111 86.4213 252.538 86.4325C252.267 86.4377 251.999 86.3854 251.751 86.2789C251.503 86.1724 251.28 86.0142 251.098 85.815C250.916 85.6158 250.779 85.38 250.695 85.1235C250.612 84.867 250.584 84.5957 250.614 84.3277C250.672 83.7573 250.937 83.2279 251.36 82.8399C251.782 82.4519 252.333 82.2323 252.907 82.2229C253.177 82.219 253.444 82.2723 253.692 82.3792C253.939 82.4861 254.162 82.6443 254.343 82.8432C254.525 83.0422 254.663 83.2774 254.747 83.5332C254.831 83.7891 254.859 84.0599 254.831 84.3277Z" fill="black"/>
<g opacity="0.8">
<path d="M287.927 90.7523C287.782 90.7543 287.638 90.7256 287.505 90.6681C287.372 90.6105 287.253 90.5254 287.155 90.4184C287.057 90.3114 286.984 90.1849 286.938 90.0473C286.893 89.9097 286.878 89.7642 286.894 89.6203L287.078 87.5574C287.109 87.2525 287.251 86.9696 287.477 86.7625C287.703 86.5553 287.998 86.4383 288.305 86.4337C288.449 86.4318 288.592 86.4603 288.724 86.5174C288.857 86.5745 288.976 86.6588 289.073 86.7648C289.171 86.8709 289.245 86.9963 289.29 87.1329C289.336 87.2695 289.352 87.4141 289.338 87.5574L289.153 89.6203C289.122 89.9259 288.981 90.2098 288.755 90.4183C288.529 90.6269 288.234 90.7457 287.927 90.7523Z" fill="white"/>
<path d="M296.965 90.7507C296.82 90.7527 296.676 90.724 296.543 90.6664C296.41 90.6088 296.291 90.5237 296.193 90.4167C296.096 90.3097 296.022 90.1833 295.977 90.0457C295.932 89.9081 295.916 89.7625 295.932 89.6186L296.36 84.78C296.391 84.4752 296.533 84.1923 296.759 83.9851C296.985 83.778 297.28 83.661 297.587 83.6563C297.731 83.6545 297.874 83.683 298.006 83.74C298.139 83.7971 298.258 83.8814 298.355 83.9875C298.453 84.0935 298.527 84.219 298.572 84.3555C298.618 84.4921 298.634 84.6368 298.62 84.78L298.191 89.6186C298.161 89.9242 298.019 90.2081 297.793 90.4167C297.567 90.6252 297.273 90.744 296.965 90.7507Z" fill="white"/>
<path d="M292.446 90.7499C292.301 90.7519 292.157 90.7232 292.024 90.6656C291.891 90.608 291.772 90.5229 291.674 90.4159C291.577 90.3089 291.503 90.1825 291.458 90.0449C291.413 89.9073 291.397 89.7617 291.413 89.6178L291.715 86.1713C291.746 85.8642 291.889 85.5792 292.117 85.3704C292.344 85.1617 292.641 85.0438 292.95 85.0392C293.095 85.037 293.238 85.0657 293.371 85.1233C293.504 85.181 293.622 85.2662 293.719 85.3734C293.816 85.4806 293.889 85.6072 293.933 85.7448C293.977 85.8824 293.992 86.0278 293.975 86.1713L293.672 89.6178C293.642 89.9234 293.5 90.2073 293.274 90.4158C293.048 90.6244 292.754 90.7432 292.446 90.7499Z" fill="white"/>
</g>
<g opacity="0.8">
<path d="M210.538 90.7485H204.859C204.778 90.7502 204.696 90.7345 204.621 90.7023C204.546 90.67 204.479 90.6221 204.424 90.5617C204.369 90.5013 204.328 90.4298 204.303 90.3521C204.278 90.2743 204.27 90.1922 204.28 90.1112L204.54 87.0671C204.558 86.8943 204.639 86.7342 204.768 86.6168C204.896 86.4994 205.063 86.4329 205.237 86.4298H210.916C210.997 86.4281 211.078 86.4438 211.154 86.476C211.229 86.5083 211.296 86.5562 211.351 86.6166C211.406 86.677 211.447 86.7485 211.472 86.8262C211.497 86.904 211.505 86.9861 211.495 87.0671L211.226 90.1112C211.212 90.284 211.133 90.4451 211.006 90.563C210.878 90.6808 210.711 90.747 210.538 90.7485Z" fill="white"/>
<path d="M213.167 89.9168C213.085 89.9184 213.003 89.9026 212.928 89.8705C212.853 89.8383 212.785 89.7905 212.729 89.7303C212.674 89.6701 212.631 89.5987 212.606 89.521C212.58 89.4433 212.571 89.361 212.579 89.2795L212.705 87.8874C212.722 87.7139 212.802 87.5527 212.931 87.435C213.06 87.3173 213.228 87.2514 213.402 87.2501C213.484 87.2484 213.565 87.2641 213.64 87.2964C213.715 87.3286 213.782 87.3765 213.837 87.4369C213.892 87.4973 213.934 87.5688 213.959 87.6465C213.983 87.7243 213.991 87.8064 213.982 87.8874L213.864 89.2795C213.846 89.4523 213.765 89.6125 213.636 89.7298C213.508 89.8472 213.341 89.9137 213.167 89.9168Z" fill="white"/>
</g>
<path d="M265.585 160.989C276.888 150.187 278.016 133.05 268.103 122.712C258.19 112.374 240.99 112.751 229.687 123.554C218.383 134.356 217.256 151.494 227.169 161.831C237.082 172.169 254.281 171.792 265.585 160.989Z" fill="white"/>
<path d="M247.733 141.242C240.61 141.242 234.587 143.951 234.074 149.829L233.503 156.362H259.316L259.888 149.829C260.4 143.951 254.864 141.242 247.733 141.242Z" fill="#F37D78"/>
<path d="M247.968 138.548C251.278 138.548 252.806 135.873 253.092 132.569C253.378 129.265 252.328 126.59 249.018 126.59C245.708 126.59 244.188 129.273 243.894 132.569C243.6 135.864 244.658 138.548 247.968 138.548Z" fill="#F37D78"/>
<path d="M273.302 179.816C271.547 179.816 270.06 180.487 269.942 181.938L269.8 183.556H276.175L276.318 181.938C276.436 180.487 275.066 179.816 273.302 179.816Z" fill="#F37D78"/>
<path d="M273.361 179.151C274.201 179.151 274.554 178.489 274.629 177.675C274.705 176.862 274.436 176.199 273.621 176.199C272.807 176.199 272.429 176.862 272.353 177.675C272.277 178.489 272.546 179.151 273.361 179.151Z" fill="#F37D78"/>
<path d="M253.68 217.233H228.48C227.797 217.245 227.118 217.112 226.491 216.842C225.863 216.573 225.3 216.173 224.839 215.669C224.378 215.165 224.03 214.569 223.818 213.921C223.605 213.272 223.534 212.586 223.608 211.908C223.757 210.466 224.43 209.128 225.499 208.147C226.569 207.166 227.96 206.61 229.412 206.583H254.612C255.295 206.572 255.973 206.706 256.6 206.976C257.227 207.246 257.79 207.646 258.25 208.149C258.711 208.653 259.059 209.248 259.272 209.896C259.485 210.544 259.557 211.23 259.484 211.908C259.337 213.35 258.664 214.689 257.595 215.67C256.525 216.651 255.132 217.207 253.68 217.233Z" fill="#F37D78"/>
<path d="M250.631 276.62H223.658C222.935 276.64 222.215 276.504 221.549 276.221C220.883 275.938 220.286 275.515 219.798 274.981C219.31 274.447 218.943 273.815 218.723 273.127C218.502 272.439 218.432 271.711 218.518 270.994L220.24 251.354C220.394 249.831 221.102 248.416 222.231 247.379C223.359 246.342 224.83 245.755 226.363 245.727H253.344C254.066 245.715 254.782 245.856 255.444 246.141C256.107 246.426 256.702 246.849 257.188 247.381C257.674 247.913 258.042 248.543 258.265 249.228C258.489 249.913 258.564 250.638 258.485 251.354L256.763 270.994C256.605 272.517 255.894 273.93 254.765 274.967C253.635 276.004 252.165 276.592 250.631 276.62Z" fill="#F37D78"/>
<g opacity="0.6">
<path d="M242.315 256.312C242.359 255.883 242.311 255.45 242.175 255.041C242.039 254.633 241.818 254.257 241.525 253.94C241.233 253.623 240.877 253.371 240.48 253.202C240.083 253.033 239.655 252.949 239.224 252.958C238.305 252.971 237.422 253.319 236.743 253.937C236.064 254.555 235.634 255.4 235.536 256.312C235.482 256.822 235.558 257.337 235.756 257.811C235.955 258.284 236.269 258.7 236.67 259.02L236.082 265.788C236.053 266.044 236.08 266.304 236.159 266.549C236.239 266.794 236.371 267.02 236.545 267.21C236.719 267.401 236.932 267.552 237.169 267.654C237.407 267.756 237.663 267.806 237.922 267.8C238.469 267.789 238.993 267.578 239.395 267.207C239.798 266.836 240.05 266.332 240.106 265.788L240.702 259.02C241.152 258.713 241.529 258.312 241.808 257.844C242.087 257.376 242.26 256.853 242.315 256.312Z" fill="white"/>
</g>
<path d="M253.579 249.819H250.102L250.942 240.1C251.088 238.751 250.946 237.386 250.524 236.097C250.102 234.807 249.41 233.621 248.494 232.619C247.578 231.617 246.459 230.82 245.211 230.282C243.964 229.745 242.615 229.478 241.256 229.5C238.368 229.557 235.601 230.666 233.475 232.618C231.349 234.57 230.012 237.231 229.715 240.1L228.875 249.819H225.397L226.237 240.1C226.628 236.293 228.402 232.761 231.223 230.17C234.044 227.579 237.718 226.109 241.55 226.037C243.354 226.006 245.144 226.359 246.801 227.072C248.457 227.785 249.943 228.841 251.16 230.171C252.376 231.501 253.295 233.074 253.855 234.786C254.416 236.498 254.605 238.309 254.411 240.1L253.579 249.819Z" fill="#F37D78"/>
<path d="M273.731 194.699L273.84 193.751C273.862 193.531 273.838 193.309 273.769 193.1C273.7 192.89 273.587 192.698 273.438 192.534C273.289 192.371 273.107 192.242 272.904 192.154C272.701 192.066 272.482 192.021 272.261 192.024C271.79 192.033 271.339 192.214 270.993 192.532C270.646 192.85 270.428 193.284 270.379 193.751L270.295 194.682C270.107 194.687 269.927 194.761 269.79 194.889C269.652 195.017 269.566 195.191 269.548 195.378L269.329 197.894C269.318 197.981 269.326 198.071 269.353 198.155C269.38 198.24 269.425 198.317 269.485 198.383C269.545 198.448 269.618 198.5 269.7 198.534C269.782 198.568 269.87 198.584 269.959 198.581H273.42C273.607 198.578 273.787 198.506 273.925 198.379C274.063 198.253 274.149 198.08 274.168 197.894L274.386 195.378C274.393 195.289 274.381 195.2 274.351 195.116C274.321 195.032 274.274 194.955 274.212 194.891C274.15 194.826 274.075 194.776 273.992 194.743C273.909 194.71 273.82 194.695 273.731 194.699ZM272.16 192.468C272.327 192.466 272.492 192.499 272.645 192.565C272.798 192.631 272.935 192.729 273.048 192.852C273.16 192.974 273.246 193.119 273.298 193.277C273.351 193.435 273.369 193.602 273.353 193.768L273.269 194.699H270.665L270.749 193.768C270.785 193.417 270.949 193.091 271.209 192.852C271.468 192.613 271.807 192.476 272.16 192.468Z" fill="#F37D78"/>
<path d="M221.634 195.696L220.424 195.444C220.391 195.437 220.359 195.423 220.332 195.402C220.304 195.381 220.282 195.354 220.267 195.324C220.251 195.293 220.243 195.259 220.243 195.225C220.243 195.191 220.25 195.157 220.265 195.126L220.769 193.935C220.79 193.883 220.792 193.826 220.774 193.774C220.757 193.721 220.722 193.676 220.674 193.647C220.627 193.617 220.571 193.606 220.516 193.614C220.461 193.622 220.411 193.65 220.374 193.692L219.458 194.631C219.436 194.659 219.408 194.681 219.376 194.697C219.344 194.712 219.309 194.72 219.273 194.72C219.238 194.72 219.203 194.712 219.171 194.697C219.139 194.681 219.111 194.659 219.089 194.631L218.341 193.692C218.181 193.49 217.837 193.692 217.896 193.935L218.19 195.126C218.198 195.16 218.2 195.197 218.194 195.232C218.188 195.267 218.174 195.301 218.155 195.331C218.135 195.361 218.109 195.386 218.079 195.406C218.049 195.425 218.015 195.438 217.98 195.444L216.728 195.696C216.459 195.746 216.426 196.124 216.686 196.174L217.896 196.425C217.93 196.432 217.962 196.446 217.989 196.467C218.016 196.488 218.038 196.515 218.053 196.546C218.067 196.577 218.075 196.612 218.074 196.646C218.073 196.68 218.064 196.714 218.047 196.744L217.56 197.943C217.539 197.995 217.537 198.052 217.554 198.105C217.571 198.157 217.607 198.202 217.654 198.232C217.702 198.261 217.758 198.272 217.813 198.264C217.868 198.256 217.918 198.228 217.955 198.186L218.87 197.247C218.894 197.222 218.922 197.202 218.954 197.188C218.986 197.174 219.02 197.167 219.055 197.167C219.09 197.167 219.124 197.174 219.156 197.188C219.188 197.202 219.216 197.222 219.24 197.247L219.987 198.186C220.147 198.388 220.491 198.186 220.424 197.943L220.13 196.753C220.118 196.681 220.134 196.608 220.175 196.549C220.215 196.489 220.278 196.448 220.349 196.434L221.6 196.182C221.861 196.124 221.894 195.746 221.634 195.696Z" fill="#263238"/>
<path d="M229.58 195.696L228.371 195.444C228.337 195.437 228.305 195.423 228.278 195.402C228.251 195.381 228.229 195.354 228.213 195.324C228.198 195.293 228.19 195.259 228.189 195.225C228.189 195.191 228.196 195.157 228.211 195.126L228.715 193.935C228.736 193.883 228.738 193.826 228.721 193.774C228.704 193.721 228.668 193.676 228.621 193.647C228.574 193.617 228.517 193.606 228.462 193.614C228.407 193.622 228.357 193.65 228.32 193.692L227.405 194.631C227.383 194.659 227.355 194.681 227.323 194.697C227.291 194.712 227.256 194.72 227.22 194.72C227.184 194.72 227.149 194.712 227.117 194.697C227.085 194.681 227.057 194.659 227.035 194.631L226.288 193.692C226.128 193.49 225.784 193.692 225.851 193.935L226.145 195.126C226.152 195.161 226.152 195.197 226.145 195.233C226.138 195.268 226.124 195.302 226.103 195.331C226.083 195.361 226.057 195.386 226.026 195.406C225.996 195.425 225.962 195.438 225.926 195.444L224.675 195.696C224.406 195.746 224.372 196.124 224.633 196.174L225.842 196.425C225.876 196.432 225.908 196.447 225.935 196.468C225.962 196.489 225.984 196.515 226 196.546C226.015 196.577 226.023 196.611 226.024 196.645C226.024 196.679 226.017 196.713 226.002 196.744L225.498 197.935C225.477 197.986 225.475 198.044 225.492 198.096C225.51 198.149 225.545 198.194 225.592 198.223C225.64 198.252 225.696 198.264 225.751 198.256C225.806 198.247 225.856 198.22 225.893 198.178L226.808 197.239C226.832 197.213 226.861 197.193 226.892 197.179C226.924 197.166 226.959 197.158 226.993 197.158C227.028 197.158 227.062 197.166 227.094 197.179C227.126 197.193 227.154 197.213 227.178 197.239L227.926 198.178C228.085 198.379 228.43 198.178 228.371 197.935L228.077 196.744C228.069 196.709 228.069 196.674 228.076 196.639C228.082 196.604 228.096 196.571 228.115 196.541C228.135 196.511 228.16 196.486 228.189 196.466C228.219 196.446 228.252 196.432 228.287 196.425L229.538 196.174C229.807 196.124 229.841 195.746 229.58 195.696Z" fill="#263238"/>
<path d="M237.527 195.696L236.326 195.444C236.291 195.439 236.258 195.426 236.23 195.405C236.202 195.385 236.179 195.357 236.163 195.326C236.147 195.295 236.14 195.26 236.14 195.226C236.141 195.191 236.149 195.156 236.166 195.126L236.67 193.935C236.702 193.881 236.712 193.817 236.697 193.757C236.682 193.696 236.644 193.644 236.59 193.612C236.537 193.58 236.473 193.57 236.412 193.585C236.351 193.6 236.299 193.638 236.267 193.692L235.36 194.631C235.337 194.659 235.308 194.682 235.275 194.697C235.243 194.713 235.207 194.721 235.171 194.721C235.134 194.721 235.099 194.713 235.066 194.697C235.033 194.682 235.004 194.659 234.982 194.631L234.234 193.692C234.074 193.49 233.73 193.692 233.797 193.935L234.091 195.126C234.099 195.16 234.099 195.196 234.092 195.231C234.086 195.266 234.072 195.299 234.053 195.329C234.033 195.358 234.008 195.384 233.979 195.404C233.949 195.423 233.916 195.437 233.881 195.444L232.63 195.696C232.361 195.746 232.327 196.124 232.588 196.174L233.789 196.425C233.823 196.432 233.854 196.447 233.881 196.468C233.909 196.488 233.931 196.515 233.946 196.546C233.962 196.577 233.97 196.61 233.97 196.645C233.971 196.679 233.963 196.713 233.948 196.744L233.444 197.935C233.412 197.988 233.402 198.052 233.417 198.113C233.432 198.173 233.471 198.225 233.524 198.258C233.578 198.29 233.642 198.3 233.702 198.285C233.763 198.27 233.815 198.231 233.848 198.178L234.755 197.239C234.778 197.213 234.807 197.193 234.839 197.179C234.871 197.165 234.905 197.158 234.94 197.158C234.974 197.158 235.009 197.165 235.04 197.179C235.072 197.193 235.101 197.213 235.124 197.239L235.88 198.178C236.04 198.379 236.384 198.178 236.317 197.935L236.023 196.744C236.011 196.674 236.025 196.602 236.064 196.543C236.104 196.484 236.164 196.442 236.233 196.425L237.485 196.174C237.72 196.124 237.787 195.746 237.527 195.696Z" fill="#263238"/>
<path d="M245.482 195.696L244.272 195.444C244.238 195.437 244.207 195.423 244.179 195.402C244.152 195.381 244.13 195.354 244.115 195.324C244.099 195.293 244.091 195.259 244.091 195.225C244.09 195.191 244.098 195.157 244.112 195.126L244.616 193.935C244.637 193.883 244.639 193.826 244.622 193.774C244.605 193.721 244.569 193.676 244.522 193.647C244.475 193.617 244.419 193.606 244.364 193.614C244.309 193.622 244.258 193.65 244.222 193.692L243.306 194.631C243.284 194.659 243.256 194.681 243.224 194.697C243.192 194.712 243.157 194.72 243.121 194.72C243.086 194.72 243.05 194.712 243.018 194.697C242.986 194.681 242.958 194.659 242.936 194.631L242.189 193.692C242.029 193.49 241.685 193.692 241.744 193.935L242.038 195.126C242.046 195.16 242.047 195.197 242.041 195.232C242.035 195.267 242.022 195.301 242.002 195.331C241.983 195.361 241.957 195.386 241.927 195.406C241.897 195.425 241.863 195.438 241.828 195.444L240.576 195.696C240.307 195.746 240.274 196.124 240.576 196.174L241.786 196.425C241.819 196.432 241.851 196.446 241.879 196.467C241.906 196.488 241.928 196.515 241.942 196.546C241.957 196.577 241.964 196.612 241.963 196.646C241.962 196.68 241.953 196.714 241.937 196.744L241.441 197.935C241.42 197.986 241.418 198.044 241.435 198.096C241.453 198.149 241.488 198.194 241.536 198.223C241.583 198.252 241.639 198.264 241.694 198.256C241.749 198.247 241.799 198.22 241.836 198.178L242.752 197.239C242.775 197.213 242.804 197.193 242.836 197.179C242.867 197.166 242.902 197.158 242.936 197.158C242.971 197.158 243.005 197.166 243.037 197.179C243.069 197.193 243.098 197.213 243.121 197.239L243.869 198.178C244.028 198.379 244.373 198.178 244.306 197.935L244.012 196.744C243.999 196.673 244.015 196.6 244.056 196.54C244.097 196.481 244.159 196.44 244.23 196.425L245.482 196.174C245.708 196.124 245.742 195.746 245.482 195.696Z" fill="#263238"/>
<path d="M253.428 195.696L252.218 195.444C252.185 195.437 252.153 195.423 252.126 195.402C252.098 195.381 252.076 195.354 252.061 195.324C252.045 195.293 252.037 195.259 252.037 195.225C252.036 195.191 252.044 195.157 252.059 195.126L252.563 193.935C252.584 193.883 252.586 193.826 252.568 193.774C252.551 193.721 252.516 193.676 252.468 193.647C252.421 193.617 252.365 193.606 252.31 193.614C252.255 193.622 252.204 193.65 252.168 193.692L251.252 194.631C251.23 194.659 251.202 194.681 251.17 194.697C251.138 194.712 251.103 194.72 251.067 194.72C251.032 194.72 250.997 194.712 250.965 194.697C250.933 194.681 250.905 194.659 250.883 194.631L250.135 193.692C249.975 193.49 249.631 193.692 249.698 193.935L249.992 195.126C249.999 195.161 250 195.197 249.992 195.233C249.985 195.268 249.971 195.302 249.951 195.331C249.93 195.361 249.904 195.386 249.874 195.406C249.843 195.425 249.809 195.438 249.774 195.444L248.522 195.696C248.253 195.746 248.22 196.124 248.48 196.174L249.69 196.425C249.724 196.432 249.755 196.447 249.782 196.468C249.81 196.489 249.832 196.515 249.847 196.546C249.863 196.577 249.871 196.611 249.871 196.645C249.872 196.679 249.864 196.713 249.849 196.744L249.345 197.935C249.324 197.986 249.322 198.044 249.34 198.096C249.357 198.149 249.392 198.194 249.44 198.223C249.487 198.252 249.543 198.264 249.598 198.256C249.653 198.247 249.704 198.22 249.74 198.178L250.656 197.239C250.679 197.213 250.708 197.193 250.74 197.179C250.772 197.166 250.806 197.158 250.841 197.158C250.875 197.158 250.91 197.166 250.941 197.179C250.973 197.193 251.002 197.213 251.025 197.239L251.773 198.178C251.933 198.379 252.277 198.178 252.218 197.935L251.924 196.744C251.917 196.709 251.916 196.674 251.923 196.639C251.93 196.604 251.943 196.571 251.963 196.541C251.982 196.511 252.007 196.486 252.037 196.466C252.066 196.446 252.099 196.432 252.134 196.425L253.386 196.174C253.68 196.124 253.68 195.746 253.428 195.696Z" fill="#263238"/>
<path d="M261.374 195.7L260.165 195.448C260.131 195.442 260.099 195.428 260.072 195.407C260.044 195.386 260.023 195.358 260.008 195.327C259.993 195.296 259.986 195.262 259.987 195.228C259.988 195.193 259.997 195.16 260.013 195.13L260.517 193.939C260.533 193.912 260.544 193.883 260.549 193.852C260.553 193.822 260.552 193.791 260.545 193.761C260.537 193.731 260.524 193.703 260.506 193.678C260.487 193.653 260.464 193.632 260.438 193.616C260.411 193.6 260.382 193.589 260.351 193.585C260.321 193.58 260.289 193.581 260.259 193.589C260.229 193.596 260.201 193.609 260.176 193.628C260.151 193.646 260.13 193.669 260.114 193.696L259.207 194.635C259.184 194.663 259.155 194.685 259.123 194.701C259.09 194.716 259.054 194.725 259.018 194.725C258.982 194.725 258.946 194.716 258.913 194.701C258.881 194.685 258.852 194.663 258.829 194.635L258.081 193.696C257.922 193.494 257.577 193.696 257.645 193.939L257.939 195.13C257.946 195.164 257.946 195.2 257.94 195.235C257.933 195.27 257.92 195.303 257.9 195.333C257.881 195.362 257.856 195.388 257.826 195.408C257.797 195.427 257.763 195.441 257.729 195.448L256.477 195.7C256.208 195.75 256.175 196.127 256.435 196.178L257.636 196.429C257.67 196.436 257.702 196.451 257.729 196.471C257.756 196.492 257.778 196.519 257.794 196.55C257.809 196.581 257.817 196.614 257.818 196.649C257.818 196.683 257.811 196.717 257.796 196.748L257.292 197.939C257.26 197.992 257.25 198.056 257.265 198.117C257.28 198.177 257.318 198.229 257.372 198.262C257.425 198.294 257.489 198.304 257.55 198.289C257.611 198.274 257.663 198.235 257.695 198.182L258.602 197.243C258.626 197.217 258.654 197.197 258.686 197.183C258.718 197.169 258.752 197.162 258.787 197.162C258.822 197.162 258.856 197.169 258.888 197.183C258.92 197.197 258.948 197.217 258.972 197.243L259.719 198.182C259.759 198.226 259.812 198.255 259.87 198.265C259.928 198.275 259.987 198.265 260.039 198.237C260.091 198.209 260.131 198.164 260.154 198.11C260.177 198.056 260.181 197.995 260.165 197.939L259.871 196.748C259.858 196.678 259.873 196.606 259.912 196.547C259.951 196.487 260.011 196.445 260.081 196.429L261.332 196.178C261.601 196.127 261.635 195.75 261.374 195.7Z" fill="#263238"/>
<path d="M242.214 178.332H227.295C226.838 178.34 226.399 178.515 226.061 178.824C225.724 179.133 225.511 179.555 225.464 180.009C225.44 180.223 225.462 180.44 225.529 180.645C225.596 180.849 225.706 181.038 225.851 181.196C225.997 181.355 226.175 181.481 226.373 181.566C226.572 181.65 226.786 181.691 227.001 181.687H241.92C242.378 181.679 242.817 181.504 243.154 181.195C243.492 180.886 243.704 180.464 243.751 180.009C243.774 179.796 243.751 179.58 243.683 179.375C243.616 179.171 243.506 178.984 243.361 178.825C243.215 178.667 243.038 178.541 242.84 178.456C242.643 178.371 242.429 178.329 242.214 178.332Z" fill="#263238"/>
<path d="M257.368 178.332H248.707C248.25 178.34 247.812 178.515 247.476 178.824C247.14 179.134 246.93 179.555 246.884 180.009C246.86 180.222 246.882 180.438 246.949 180.642C247.015 180.847 247.124 181.034 247.269 181.193C247.413 181.352 247.59 181.478 247.788 181.563C247.985 181.648 248.198 181.69 248.413 181.686H257.04C257.497 181.678 257.935 181.503 258.271 181.194C258.607 180.885 258.818 180.463 258.863 180.009C258.886 179.799 258.865 179.586 258.801 179.384C258.737 179.182 258.631 178.996 258.49 178.838C258.349 178.68 258.176 178.553 257.983 178.466C257.789 178.379 257.58 178.333 257.368 178.332Z" fill="#263238"/>
<path d="M268.8 254.348C263.527 256.353 258.767 259.504 254.864 263.572C252.495 261.736 249.67 260.576 246.691 260.218L246.296 260.159L246.128 262.138L246.347 262.222C249.613 263.423 252.376 265.693 254.184 268.662L254.47 269.132L254.78 268.629C258.259 263.085 263.168 258.578 268.993 255.581L269.186 255.48L269.296 254.172L268.8 254.348Z" fill="#263238"/>
<path opacity="0.2" d="M193.738 89.2422C192.667 91.1082 192.009 93.181 191.806 95.3219L179.298 238.064H218.005L225.784 208.303L223.222 178.534L231 148.773L228.48 119.012L236.259 89.2422H193.738Z" fill="black"/>
<path d="M225.078 110.616L232.856 80.8555H134.971L127.201 110.616L129.755 140.386L121.985 170.147L124.538 199.916L116.768 229.677H214.645L222.424 199.916L219.862 170.147L227.64 140.386L225.078 110.616Z" fill="#407BFF"/>
<path d="M225.078 110.616L232.856 80.8555H134.971L127.201 110.616L129.755 140.386L121.985 170.147L124.538 199.916L116.768 229.677H214.645L222.424 199.916L219.862 170.147L227.64 140.386L225.078 110.616Z" fill="#F37D78"/>
<path d="M225.078 110.616H127.201L134.971 80.8555H232.856L225.078 110.616Z" fill="#FFCFCF"/>
<path d="M219.862 170.148H121.985L129.755 140.387H227.64L219.862 170.148Z" fill="#FFCFCF"/>
<path d="M214.645 229.675H116.76L124.538 199.914H222.424L214.645 229.675Z" fill="#FFCFCF"/>
<path opacity="0.2" d="M211.982 123.059C210.978 123.348 209.937 123.49 208.891 123.478C207.474 123.541 206.063 123.252 204.784 122.639C204.552 122.502 204.288 122.43 204.019 122.43C203.772 122.433 203.53 122.496 203.314 122.614H203.263C202.888 122.824 202.487 122.985 202.07 123.092C201.13 123.34 200.161 123.461 199.189 123.453C198.895 123.453 198.61 123.453 198.349 123.453C197.595 123.404 196.848 123.272 196.123 123.059C196.016 123.027 195.907 123.007 195.796 123C195.611 122.985 195.425 123.008 195.25 123.068C195.074 123.128 194.913 123.224 194.777 123.349C194.64 123.475 194.531 123.627 194.457 123.796C194.382 123.965 194.343 124.148 194.342 124.333V125.239H156.24C155.54 125.239 154.847 125.377 154.2 125.644C153.553 125.912 152.966 126.304 152.471 126.799C151.977 127.294 151.584 127.881 151.317 128.527C151.05 129.173 150.913 129.865 150.914 130.564V135.922C150.912 136.622 151.048 137.315 151.315 137.962C151.582 138.609 151.973 139.197 152.468 139.693C152.963 140.188 153.551 140.581 154.198 140.849C154.845 141.118 155.539 141.256 156.24 141.256H199.525H199.811C200.273 141.641 200.76 142.027 201.281 142.421C201.802 142.815 202.541 143.361 203.221 143.847C203.453 144.015 203.733 144.105 204.019 144.105C204.306 144.105 204.585 144.015 204.817 143.847C210.26 139.906 213.755 137.189 213.755 129.725V124.358C213.757 124.144 213.709 123.932 213.613 123.74C213.517 123.547 213.376 123.381 213.203 123.254C213.03 123.127 212.829 123.043 212.616 123.009C212.404 122.975 212.187 122.992 211.982 123.059Z" fill="black"/>
<path d="M198.694 122.289H155.417C152.471 122.289 150.083 124.673 150.083 127.614V132.973C150.083 135.913 152.471 138.297 155.417 138.297H198.694C201.639 138.297 204.028 135.913 204.028 132.973V127.614C204.028 124.673 201.639 122.289 198.694 122.289Z" fill="#F37D78"/>
<path d="M208.06 120.528C206.642 120.589 205.232 120.301 203.952 119.69C203.725 119.55 203.463 119.477 203.196 119.477C202.929 119.477 202.667 119.55 202.44 119.69C201.158 120.302 199.744 120.59 198.324 120.528C197.279 120.539 196.237 120.398 195.233 120.109C195.03 120.041 194.815 120.022 194.604 120.054C194.393 120.086 194.192 120.168 194.019 120.292C193.846 120.417 193.705 120.581 193.608 120.771C193.51 120.96 193.46 121.171 193.46 121.384V126.751C193.46 134.222 196.955 136.939 202.398 140.881C202.63 141.048 202.909 141.139 203.196 141.139C203.483 141.139 203.762 141.048 203.994 140.881C209.437 136.939 212.932 134.222 212.932 126.751V121.384C212.931 121.17 212.879 120.96 212.781 120.77C212.683 120.581 212.541 120.417 212.367 120.292C212.193 120.168 211.993 120.087 211.781 120.055C211.57 120.023 211.354 120.041 211.151 120.109C210.146 120.399 209.105 120.54 208.06 120.528Z" fill="#407BFF"/>
<path d="M208.06 120.528C206.642 120.589 205.232 120.301 203.952 119.69C203.725 119.55 203.463 119.477 203.196 119.477C202.929 119.477 202.667 119.55 202.44 119.69C201.158 120.302 199.744 120.59 198.324 120.528C197.279 120.539 196.237 120.398 195.233 120.109C195.03 120.041 194.815 120.022 194.604 120.054C194.393 120.086 194.192 120.168 194.019 120.292C193.846 120.417 193.705 120.581 193.608 120.771C193.51 120.96 193.46 121.171 193.46 121.384V126.751C193.46 134.222 196.955 136.939 202.398 140.881C202.63 141.048 202.909 141.139 203.196 141.139C203.483 141.139 203.762 141.048 203.994 140.881C209.437 136.939 212.932 134.222 212.932 126.751V121.384C212.931 121.17 212.879 120.96 212.781 120.77C212.683 120.581 212.541 120.417 212.367 120.292C212.193 120.168 211.993 120.087 211.781 120.055C211.57 120.023 211.354 120.041 211.151 120.109C210.146 120.399 209.105 120.54 208.06 120.528Z" fill="#FFCFCF"/>
<path opacity="0.2" d="M202.44 119.671C201.158 120.284 199.744 120.572 198.324 120.51C197.279 120.521 196.237 120.379 195.233 120.091C195.03 120.023 194.815 120.004 194.604 120.036C194.393 120.068 194.192 120.149 194.019 120.274C193.846 120.398 193.705 120.562 193.608 120.752C193.51 120.942 193.46 121.152 193.46 121.365V126.732C193.46 134.204 196.955 136.921 202.398 140.862C202.642 141.039 202.937 141.13 203.238 141.122V119.453C202.957 119.448 202.679 119.524 202.44 119.671Z" fill="white"/>
<path d="M211 125.289C207.725 126.57 204.809 128.621 202.499 131.268C200.888 130.083 198.999 129.329 197.014 129.08H196.753V130.363L196.896 130.413C199.105 131.209 201.008 132.675 202.339 134.606L202.549 134.908L202.726 134.581C204.657 130.998 207.598 128.059 211.184 126.128L211.31 126.069V125.23L211 125.289Z" fill="#263238"/>
<path d="M231.126 89.2319H227.413C226.936 89.2408 226.461 89.1479 226.023 88.9593C225.584 88.7708 225.19 88.4911 224.868 88.1387C224.546 87.7863 224.303 87.3695 224.156 86.916C224.008 86.4624 223.959 85.9827 224.011 85.5086L224.339 81.8021C224.439 80.7941 224.907 79.8581 225.654 79.1717C226.4 78.4854 227.373 78.0965 228.388 78.0789H232.1C232.579 78.0688 233.054 78.1608 233.494 78.3488C233.933 78.5368 234.328 78.8164 234.651 79.1689C234.974 79.5214 235.217 79.9386 235.366 80.3928C235.514 80.8469 235.564 81.3274 235.511 81.8021L235.183 85.5086C235.07 86.5133 234.597 87.4433 233.852 88.1275C233.106 88.8116 232.138 89.2039 231.126 89.2319Z" fill="#F37D78"/>
<path d="M232.672 81.7867L231.865 80.9062L229.832 82.7679L228.136 80.9062L227.17 81.7867L228.875 83.6484L226.85 85.51L227.657 86.3989L229.681 84.5373L231.386 86.3989L232.344 85.51L230.639 83.6484L232.672 81.7867Z" fill="white"/>
<path d="M148.151 121.207C150.301 123.547 152.351 125.97 154.392 128.41C156.433 130.851 158.407 133.341 160.373 135.84C160.457 135.949 160.423 135.907 160.44 135.941C160.457 135.974 160.44 135.983 160.44 135.991C160.455 136.022 160.475 136.051 160.499 136.075C160.571 136.177 160.662 136.263 160.767 136.329C160.872 136.395 160.989 136.44 161.112 136.461C161.207 136.473 161.303 136.473 161.398 136.461C161.448 136.465 161.499 136.465 161.549 136.461H161.625C161.667 136.461 161.625 136.461 161.759 136.41L163.859 135.27C166.681 133.777 169.529 132.318 172.469 131.01L174.93 134.054C172.561 136.226 170.092 138.951 167.597 140.947L165.715 142.423C165.598 142.518 165.475 142.605 165.346 142.683C165.203 142.784 165.054 142.877 164.901 142.96C164.596 143.134 164.282 143.291 163.96 143.429C163.309 143.702 162.626 143.891 161.927 143.991C160.514 144.198 159.071 144.054 157.727 143.572C157.043 143.329 156.394 143 155.795 142.591C155.493 142.389 155.207 142.155 154.955 141.928C154.812 141.811 154.695 141.677 154.56 141.551L154.224 141.215C151.998 138.934 149.806 136.637 147.655 134.297C145.505 131.958 143.38 129.601 141.347 127.153L148.151 121.207Z" fill="#B55B52"/>
<path d="M171.36 132.855L173.317 126.574L178.475 129.14C178.475 129.14 177.719 133.719 173.973 134.516L171.36 132.855Z" fill="#B55B52"/>
<path d="M175.375 124.84L180.029 126.114L178.466 129.142L173.309 126.576L175.375 124.84Z" fill="#B55B52"/>
<path d="M121.036 122.917C120.481 125.584 119.792 128.225 119.078 130.858C118.364 133.491 117.583 136.099 116.768 138.707L116.466 139.688L116.315 140.175C116.294 140.245 116.266 140.312 116.231 140.376C116.135 140.646 116.081 140.929 116.071 141.215C116.053 141.824 116.224 142.424 116.558 142.934C116.724 143.157 116.906 143.367 117.104 143.563L117.802 144.326L119.179 145.86C120.078 146.9 120.985 147.94 121.842 149.03L118.91 152.384C117.701 151.697 116.542 150.95 115.382 150.212L113.66 149.072L112.82 148.493C112.535 148.292 112.3 148.158 111.838 147.781C110.194 146.382 109.06 144.481 108.612 142.372C108.387 141.297 108.333 140.193 108.452 139.101C108.452 138.833 108.536 138.531 108.578 138.263L108.671 137.76L108.847 136.753C109.318 134.062 109.822 131.378 110.384 128.711C110.947 126.045 111.552 123.386 112.266 120.762L121.036 122.917Z" fill="#B55B52"/>
<path d="M118.969 148.762L122.43 146.992L123.959 152.862C123.959 152.862 121.178 153.927 119.028 152.56L118.969 148.762Z" fill="#B55B52"/>
<path d="M127.218 145.105L127.378 150.498L123.505 153.03L122.161 147.101L127.218 145.105Z" fill="#B55B52"/>
<path d="M138.55 95.1956C138.634 95.6065 138.928 95.9 139.197 95.8497C139.465 95.7994 139.625 95.4137 139.541 95.0111C139.457 94.6086 139.163 94.3067 138.894 94.357C138.625 94.4074 138.466 94.8015 138.55 95.1956Z" fill="#263238"/>
<path d="M138.886 95.9062C139.642 97.0758 140.555 98.1366 141.599 99.0593C141.356 99.3207 141.059 99.5259 140.728 99.6606C140.397 99.7953 140.041 99.8563 139.684 99.8392L138.886 95.9062Z" fill="#A02724"/>
<path d="M136.559 93.1987C136.51 93.1981 136.463 93.1837 136.423 93.157C136.382 93.1304 136.351 93.0927 136.331 93.0485C136.312 93.0042 136.305 92.9554 136.313 92.9076C136.321 92.8599 136.342 92.8154 136.374 92.7794C136.637 92.4823 136.967 92.2516 137.336 92.1058C137.705 91.9601 138.104 91.9036 138.499 91.9408C138.532 91.9469 138.563 91.9593 138.591 91.9773C138.618 91.9953 138.642 92.0186 138.661 92.0459C138.68 92.0731 138.693 92.1038 138.7 92.1361C138.706 92.1685 138.707 92.2019 138.701 92.2343C138.696 92.2665 138.684 92.2973 138.667 92.3249C138.65 92.3526 138.627 92.3765 138.601 92.3953C138.574 92.414 138.544 92.4273 138.512 92.4342C138.48 92.4411 138.447 92.4416 138.415 92.4356C138.102 92.4056 137.786 92.4509 137.494 92.5676C137.201 92.6843 136.941 92.869 136.735 93.1065C136.69 93.1586 136.627 93.1916 136.559 93.1987Z" fill="#263238"/>
<path d="M126.437 101.039C127.361 104.888 128.293 111.941 124.984 114.498C124.984 114.498 126.277 118.406 135.064 118.406C144.724 118.406 139.684 115.89 139.684 115.89C134.408 114.867 134.543 110.297 135.484 107.303L126.437 101.039Z" fill="#F4BDBD"/>
<path d="M123.95 115.213C123.379 114.148 122.741 112.924 124.051 112.538C125.496 112.119 134.761 111.339 137.491 112.128C136.651 113.612 138.071 115.482 138.071 115.482L123.95 115.213Z" fill="#263238"/>
<path d="M131.628 295.153H137.685L138.289 282.977H132.225L131.628 295.153Z" fill="#B55B52"/>
<path d="M93.1646 293.477L99.3049 293.795L103.035 281.804L96.8941 281.477L93.1646 293.477Z" fill="#B55B52"/>
<path d="M99.1201 293.315L93.3325 292.066C93.2312 292.043 93.125 292.055 93.0317 292.101C92.9384 292.147 92.8637 292.223 92.8201 292.318L90.8125 296.67C90.7631 296.775 90.7386 296.891 90.7409 297.008C90.7432 297.124 90.7722 297.239 90.8257 297.342C90.8793 297.446 90.9559 297.536 91.0497 297.605C91.1435 297.675 91.252 297.722 91.3669 297.743C93.3913 298.146 94.3993 298.238 96.9445 298.791C98.5069 299.127 102.043 299.991 104.202 300.469C106.361 300.946 107.109 298.867 106.269 298.481C102.489 296.762 100.909 295.244 99.8845 293.827C99.7006 293.569 99.4288 293.387 99.1201 293.315Z" fill="#263238"/>
<path d="M137.365 294.543H131.611C131.507 294.544 131.407 294.581 131.326 294.646C131.245 294.711 131.189 294.802 131.166 294.904L130.124 299.574C130.098 299.688 130.097 299.805 130.123 299.919C130.148 300.032 130.199 300.138 130.272 300.229C130.345 300.319 130.438 300.392 130.543 300.441C130.649 300.491 130.764 300.515 130.88 300.514C132.955 300.514 135.92 300.354 138.566 300.354C141.616 300.354 144.245 300.522 147.806 300.522C149.965 300.522 150.57 298.342 149.663 298.14C145.538 297.243 142.178 297.143 138.617 294.954C138.245 294.706 137.812 294.564 137.365 294.543Z" fill="#263238"/>
<path d="M114.005 116.277C109.435 118.448 108.192 131.614 108.192 131.614L119.507 136.83C121.419 133.61 122.461 129.949 122.531 126.205C122.758 119.404 118.684 114.088 114.005 116.277Z" fill="#263238"/>
<path opacity="0.4" d="M120.12 124.395C118.079 127.564 118.272 132.462 118.978 136.596L119.482 136.831C121.392 133.609 122.434 129.949 122.506 126.206C122.506 125.803 122.506 125.367 122.506 125.007L120.12 124.395Z" fill="black"/>
<path d="M145.581 115.957C145.581 115.957 151.192 122.28 145.891 161.408H117.726C117.533 157.089 120.246 136.033 116.046 115.689C119.159 115.091 122.307 114.693 125.471 114.498C129.461 114.271 133.46 114.271 137.449 114.498C140.193 114.776 142.912 115.263 145.581 115.957Z" fill="#407BFF"/>
<path d="M145.581 115.957C145.581 115.957 151.192 122.28 145.891 161.408H117.726C117.533 157.089 120.246 136.033 116.046 115.689C119.159 115.091 122.307 114.693 125.471 114.498C129.461 114.271 133.46 114.271 137.449 114.498C140.193 114.776 142.912 115.263 145.581 115.957Z" fill="#E59C9C"/>
<path opacity="0.2" d="M148.042 127.917L147.941 127.825L142.338 124.84C141.767 133.452 145.622 138.852 147.916 141.209C148.203 136.784 148.245 132.347 148.042 127.917Z" fill="black"/>
<path opacity="0.2" d="M138.289 282.977L137.979 289.249H131.914L132.225 282.977H138.289Z" fill="black"/>
<path opacity="0.2" d="M96.8941 281.477L103.034 281.804L101.111 287.992L94.9705 287.665L96.8941 281.477Z" fill="black"/>
<path d="M124.488 97.1315C125.841 102.163 126.378 105.19 129.528 107.287C134.215 110.44 140.045 106.817 140.23 101.475C140.389 96.6703 138.155 89.2321 132.737 88.2174C131.541 87.9811 130.304 88.055 129.144 88.432C127.985 88.8089 126.942 89.4763 126.114 90.3705C125.287 91.2646 124.703 92.3557 124.418 93.5393C124.134 94.723 124.158 95.9597 124.488 97.1315Z" fill="#F4BDBD"/>
<path d="M135.904 161.41C135.904 161.41 129.923 201.586 126.664 216.647C123.052 233.167 103.782 287.674 103.782 287.674L94.3489 285.637C94.3489 285.637 106.436 241.192 109.469 218.148C110.645 209.15 112.064 194.668 113.862 182.567C115.601 170.827 117.743 161.419 117.743 161.419L135.904 161.41Z" fill="#263238"/>
<path d="M106.042 284.528L104.278 287.933L93.677 285.635L94.5674 282.457L106.042 284.528Z" fill="#407BFF"/>
<path d="M106.042 284.528L104.278 287.933L93.677 285.635L94.5674 282.457L106.042 284.528Z" fill="#FFCFCF"/>
<path opacity="0.6" d="M132.124 175.725C125.21 177.075 125.941 202.811 126.773 216.044C128.772 206.685 131.687 188.689 133.678 175.909C133.196 175.673 132.648 175.608 132.124 175.725Z" fill="black"/>
<path d="M145.891 161.411C145.891 161.411 148.705 200.723 148.134 216.757C147.538 233.436 139.616 288.035 139.616 288.035H130.696C130.696 288.035 130.368 234.367 129.973 218.023C129.536 200.161 127.378 161.402 127.378 161.402L145.891 161.411Z" fill="#263238"/>
<path d="M141.33 284.496C141.372 284.496 140.826 288.194 140.826 288.194H129.973L129.679 284.89L141.33 284.496Z" fill="#407BFF"/>
<path d="M141.33 284.496C141.372 284.496 140.826 288.194 140.826 288.194H129.973L129.679 284.89L141.33 284.496Z" fill="#FFCFCF"/>
<path d="M142.296 123.313C142.296 133.862 147.916 138.206 147.916 138.206L157.08 129.3C154.911 125.681 152.441 122.251 149.697 119.044C144.396 112.982 142.296 116.537 142.296 123.313Z" fill="#263238"/>
<path opacity="0.2" d="M139.877 103.387C139.69 103.915 139.377 104.39 138.964 104.77C138.551 105.15 138.051 105.424 137.508 105.567C136.911 105.689 136.369 105.999 135.962 106.452C135.555 106.905 135.305 107.477 135.249 108.083C136.336 107.72 137.322 107.105 138.127 106.289C138.931 105.473 139.531 104.478 139.877 103.387Z" fill="black"/>
<path d="M137.508 87.1113C139.39 84.7381 136.492 84.5955 136.492 84.5955C137.248 81.7695 133.854 83.2874 133.854 83.2874C131.821 80.4865 130.67 83.8995 130.67 83.8995C128.562 81.5264 128.15 85.4006 128.15 85.4006C126.034 82.3901 124.958 86.7339 124.958 86.7339C123.01 83.606 121.817 87.6731 121.817 87.6731C117.793 86.2391 119.7 90.4153 119.7 90.4153C116.273 90.5075 119.028 93.1658 119.028 93.1658C114.912 93.1658 118.541 95.5222 118.541 95.5222C115.273 97.6605 119.381 98.2392 119.381 98.2392C116.718 102.432 121.296 100.856 121.296 100.856C119.44 104.981 123.547 103.162 123.547 103.162C123.287 107.136 125.58 106.055 126.689 105.317C126.899 106.155 127.302 106.994 128.041 107.061C129.478 107.254 129.721 104.545 129.721 104.545C129.721 104.545 131.048 105.585 132.166 105.023C133.283 104.461 132.863 103.044 132.863 103.044C133.105 103.225 133.4 103.323 133.703 103.323C134.006 103.323 134.3 103.225 134.543 103.044C135.022 102.675 135.022 100.009 134.417 99.0693L136.601 98.2308C136.601 98.2308 138.222 98.0044 137.5 95.866C137.064 94.637 137.025 93.3023 137.39 92.0505C139.86 90.8932 137.827 89.5347 137.827 89.5347C140.692 87.6983 137.508 87.1113 137.508 87.1113Z" fill="#263238"/>
<path d="M133.081 97.3168C133.423 98.5679 134.171 99.6707 135.207 100.453C136.576 101.476 137.601 100.453 137.5 98.9185C137.416 97.5265 136.593 95.321 135.081 94.9017C133.569 94.4824 132.72 95.8325 133.081 97.3168Z" fill="#F4BDBD"/>
</svg>
