<svg width="24" height="24" viewBox="0 0 24 24" fill="none" xmlns="http://www.w3.org/2000/svg">
<path d="M17 4H7C5.67441 4.00159 4.40356 4.52888 3.46622 5.46622C2.52888 6.40356 2.00159 7.6744 2 9V15C2.00159 16.3256 2.52888 17.5964 3.46622 18.5338C4.40356 19.4711 5.67441 19.9984 7 20H17C18.3256 19.9984 19.5964 19.4711 20.5338 18.5338C21.4711 17.5964 21.9984 16.3256 22 15V9C21.9984 7.6744 21.4711 6.40356 20.5338 5.46622C19.5964 4.52888 18.3256 4.00159 17 4ZM18.631 8.775L14.552 12.1C13.8302 12.6835 12.9302 13.0019 12.002 13.0019C11.0738 13.0019 10.1738 12.6835 9.452 12.1L5.369 8.775C5.17383 8.60445 5.05251 8.36479 5.0306 8.10654C5.00869 7.84828 5.0879 7.5916 5.25155 7.39062C5.41519 7.18963 5.65048 7.06002 5.90782 7.02913C6.16515 6.99823 6.42443 7.06846 6.631 7.225L10.711 10.546C11.0758 10.8412 11.5308 11.0022 12 11.0022C12.4692 11.0022 12.9242 10.8412 13.289 10.546L17.369 7.225C17.4701 7.13666 17.5879 7.06958 17.7155 7.02776C17.8431 6.98593 17.9778 6.97023 18.1116 6.98158C18.2453 6.99293 18.3755 7.0311 18.4942 7.09382C18.6129 7.15653 18.7177 7.24251 18.8025 7.34662C18.8873 7.45073 18.9502 7.57084 18.9875 7.6998C19.0249 7.82875 19.0359 7.96391 19.0199 8.0972C19.0039 8.2305 18.9612 8.35921 18.8944 8.47566C18.8276 8.59211 18.738 8.69391 18.631 8.775Z" fill="#F37D78"/>
</svg>
