<svg width="22" height="22" viewBox="0 0 22 22" fill="none" xmlns="http://www.w3.org/2000/svg">
<path d="M10.8434 10.5975C12.2993 10.5975 13.56 10.0753 14.59 9.04505C15.6201 8.01498 16.1423 6.75463 16.1423 5.29856C16.1423 3.843 15.6201 2.58248 14.5899 1.55207C13.5596 0.522169 12.2991 0 10.8434 0C9.38728 0 8.12692 0.522169 7.09685 1.55224C6.06677 2.58231 5.54443 3.84283 5.54443 5.29856C5.54443 6.75463 6.06677 8.01515 7.09702 9.04522C8.12726 10.0751 9.38779 10.5975 10.8434 10.5975Z" fill="#F37D78"/>
<path d="M20.1149 16.915C20.0852 16.4864 20.0251 16.0187 19.9367 15.5249C19.8474 15.0274 19.7324 14.5571 19.5948 14.1273C19.4526 13.683 19.2592 13.2442 19.0202 12.8238C18.7721 12.3874 18.4808 12.0074 18.1538 11.6947C17.8119 11.3676 17.3933 11.1045 16.9092 10.9127C16.4268 10.7218 15.8922 10.6252 15.3204 10.6252C15.0958 10.6252 14.8786 10.7173 14.4592 10.9904C14.201 11.1588 13.899 11.3535 13.562 11.5688C13.2738 11.7524 12.8834 11.9245 12.4012 12.0802C11.9307 12.2325 11.453 12.3097 10.9815 12.3097C10.5101 12.3097 10.0325 12.2325 9.56155 12.0802C9.07983 11.9246 8.68942 11.7526 8.40157 11.569C8.06772 11.3556 7.76559 11.1609 7.50359 10.9902C7.08464 10.7171 6.86728 10.625 6.6427 10.625C6.07068 10.625 5.53625 10.7218 5.05403 10.9129C4.5703 11.1044 4.15152 11.3674 3.80928 11.6949C3.48248 12.0077 3.19093 12.3876 2.94319 12.8238C2.70435 13.2442 2.51099 13.6828 2.36865 14.1274C2.23119 14.5573 2.11621 15.0274 2.02692 15.5249C1.93846 16.0181 1.87837 16.4858 1.84866 16.9155C1.81946 17.3365 1.80469 17.7734 1.80469 18.2147C1.80469 19.3631 2.16975 20.2928 2.88965 20.9784C3.60065 21.655 4.54143 21.9982 5.68547 21.9982H16.2786C17.4227 21.9982 18.3631 21.6552 19.0743 20.9784C19.7943 20.2933 20.1594 19.3634 20.1594 18.2145C20.1592 17.7712 20.1443 17.334 20.1149 16.915Z" fill="#F37D78"/>
</svg>
