<svg width="24" height="24" viewBox="0 0 24 24" fill="none" xmlns="http://www.w3.org/2000/svg">
<path fill-rule="evenodd" clip-rule="evenodd" d="M12.002 0.75C8.8872 0.75 6.1827 3.11426 6.04672 6.29074C6.02531 6.7908 6.01129 7.27852 6.00457 7.7622C3.88961 8.40742 2.21916 10.1917 2.00682 12.5356C1.83038 14.4833 1.83117 16.2552 2.00854 18.2083C2.27805 21.1758 4.88126 23.25 7.76899 23.25H16.2305C19.1001 23.25 21.6962 21.2013 21.9804 18.251C22.1722 16.261 22.1732 14.4645 21.9835 12.4895C21.76 10.163 20.0954 8.4006 17.9953 7.76126C17.9883 7.26889 17.9733 6.77269 17.9503 6.26393C17.8072 3.09706 15.1047 0.75 12.002 0.75ZM16.2398 7.5C16.3237 7.5 16.4073 7.50176 16.4907 7.50521C16.4827 7.1187 16.4698 6.72907 16.4518 6.33165C16.3479 4.03249 14.3709 2.25 12.002 2.25C9.62531 2.25 7.64422 4.04486 7.54534 6.35486C7.52865 6.74456 7.51657 7.12657 7.50907 7.50536C7.59345 7.5018 7.67812 7.5 7.76302 7.5H16.2398ZM9.75 15.375C9.75 14.1324 10.7574 13.125 12 13.125C13.2426 13.125 14.25 14.1324 14.25 15.375C14.25 16.6176 13.2426 17.625 12 17.625C10.7574 17.625 9.75 16.6176 9.75 15.375Z" fill="#F37D78"/>
</svg>
